<svg width="57" height="57" viewBox="0 0 57 57" fill="none" xmlns="http://www.w3.org/2000/svg">
<g clip-path="url(#clip0_492_3691)">
<path d="M40.375 18.0536V20.1964C40.375 22.0848 35 22.625 28.375 22.625C21.75 22.625 16.375 22.0848 16.375 20.1964V18.0536C16.375 16.1652 21.75 14.625 28.375 14.625C35 14.625 40.375 16.1652 40.375 18.0536ZM40.375 23.875V28.6964C40.375 30.5848 35 32.125 28.375 32.125C21.75 32.125 16.375 30.5848 16.375 28.6964V23.875C18.9531 25.4286 23.6719 26.1518 28.375 26.1518C33.0781 26.1518 37.7968 25.4286 40.375 23.875ZM40.375 32.375V37.1964C40.375 39.0848 35 40.625 28.375 40.625C21.75 40.625 16.375 39.0848 16.375 37.1964V32.375C18.9531 33.9286 23.6719 34.6518 28.375 34.6518C33.0781 34.6518 37.7968 33.9286 40.375 32.375Z" fill="#940101"/>
</g>
<defs>
<clipPath id="clip0_492_3691">
<rect width="25" height="27" fill="white" transform="translate(16 14)"/>
</clipPath>
</defs>
</svg>
