<svg width="2318" height="358" viewBox="0 0 2318 358" fill="none" xmlns="http://www.w3.org/2000/svg">
<path fill-rule="evenodd" clip-rule="evenodd" d="M103.918 47.3878C90.0241 47.3878 76.699 52.967 66.8743 62.8984C57.0497 72.8297 51.5301 86.2997 51.5301 100.345V112.409H16.534V100.345C16.534 76.9177 25.7404 54.4501 42.1281 37.8844C58.5158 21.3188 80.7423 12.0123 103.918 12.0123C127.094 12.0123 149.32 21.3188 165.708 37.8844C182.096 54.4501 191.302 76.9177 191.302 100.345V183.32C201.102 199.26 206.763 218.073 206.763 238.222C206.763 295.747 160.628 342.38 103.72 342.38C46.8116 342.38 0.678089 295.747 0.678089 238.222C0.678089 180.697 46.8116 134.063 103.72 134.063C122.93 134.063 140.912 139.377 156.306 148.629V100.345C156.306 86.2997 150.787 72.8297 140.962 62.8984C131.137 52.967 117.812 47.3878 103.918 47.3878ZM103.72 169.438C66.1394 169.438 35.6743 200.233 35.6743 238.222C35.6743 276.209 66.1394 307.004 103.72 307.004C141.301 307.004 171.765 276.209 171.765 238.222C171.765 200.233 141.301 169.438 103.72 169.438Z" fill="#F47115"/>
<path d="M104.064 267.723C120.009 267.723 132.936 254.657 132.936 238.539C132.936 222.42 120.009 209.354 104.064 209.354C88.1191 209.354 75.193 222.42 75.193 238.539C75.193 254.657 88.1191 267.723 104.064 267.723Z" fill="#F47115"/>
<path d="M275.012 172.272C277.125 174.114 279.731 175.672 282.83 176.947C285.929 178.363 289.028 179.071 292.127 179.071C295.367 179.071 298.466 177.796 301.424 175.247C304.382 172.697 305.861 168.306 305.861 162.074V9.94904H344.315V170.148C344.315 177.23 343.048 183.25 340.512 188.207C337.977 193.306 334.455 197.343 329.948 200.318C325.44 203.434 320.228 205.7 314.312 207.117C308.396 208.675 302.198 209.454 295.719 209.454C290.225 209.454 284.943 208.816 279.872 207.542C274.801 206.267 270.223 204.709 266.138 202.867C262.053 201.168 258.532 199.326 255.574 197.343L275.012 172.272Z" fill="#060908"/>
<path d="M404.972 84.3118C404.972 93.0937 406.662 100.884 410.043 107.683C413.565 114.34 418.424 119.581 424.622 123.405C430.961 127.23 438.356 129.142 446.808 129.142C455.118 129.142 462.373 127.23 468.57 123.405C474.909 119.581 479.769 114.34 483.149 107.683C486.671 100.884 488.432 93.0937 488.432 84.3118C488.432 75.5299 486.741 67.8104 483.361 61.1532C479.98 54.3543 475.191 49.0426 468.993 45.2183C462.795 41.3939 455.4 39.4817 446.808 39.4817C438.356 39.4817 430.961 41.3939 424.622 45.2183C418.424 49.0426 413.565 54.3543 410.043 61.1532C406.662 67.8104 404.972 75.5299 404.972 84.3118ZM367.151 84.3118C367.151 72.8387 369.123 62.3571 373.067 52.867C377.152 43.3769 382.787 35.1616 389.971 28.221C397.154 21.2805 405.606 15.9689 415.325 12.2862C425.045 8.4618 435.539 6.5496 446.808 6.5496C458.217 6.5496 468.711 8.4618 478.29 12.2862C488.009 15.9689 496.461 21.2805 503.645 28.221C510.828 35.1616 516.392 43.3769 520.336 52.867C524.28 62.3571 526.253 72.8387 526.253 84.3118C526.253 95.785 524.28 106.337 520.336 115.969C516.533 125.601 511.04 133.958 503.856 141.04C496.813 148.122 488.432 153.646 478.712 157.612C468.993 161.437 458.358 163.349 446.808 163.349C435.116 163.349 424.411 161.437 414.691 157.612C404.972 153.646 396.521 148.122 389.337 141.04C382.294 133.958 376.8 125.601 372.856 115.969C369.053 106.337 367.151 95.785 367.151 84.3118Z" fill="#060908"/>
<path d="M548.076 9.94904H583.784V107.258C583.784 114.765 585.756 120.856 589.7 125.53C593.645 130.204 599.561 132.541 607.449 132.541C615.478 132.541 621.464 130.204 625.408 125.53C629.353 120.856 631.325 114.765 631.325 107.258V9.94904H667.033V109.808C667.033 119.156 665.483 127.301 662.384 134.241C659.426 141.182 655.2 146.918 649.707 151.451C644.354 155.842 638.015 159.17 630.691 161.437C623.507 163.703 615.76 164.836 607.449 164.836C599.138 164.836 591.391 163.703 584.207 161.437C577.023 159.17 570.684 155.842 565.191 151.451C559.838 146.918 555.612 141.182 552.513 134.241C549.555 127.301 548.076 119.156 548.076 109.808V9.94904Z" fill="#060908"/>
<path d="M936.138 9.94904H970.578V166.111L868.314 74.9634V158.675H834.085V2.51277L936.138 93.6603V9.94904Z" fill="#060908"/>
<path d="M1157.21 9.94904H1192.92V127.867H1252.29V158.675H1157.21V9.94904Z" fill="#060908"/>
<path d="M1362.61 84.3118C1362.61 93.377 1364.65 101.238 1368.74 107.895C1372.82 114.411 1378.18 119.369 1384.8 122.768C1391.56 126.167 1398.95 127.867 1406.98 127.867C1414.02 127.867 1420.22 126.947 1425.57 125.105C1430.93 123.264 1435.72 120.856 1439.94 117.881C1444.17 114.907 1447.9 111.72 1451.14 108.32V146.989C1445.22 151.663 1438.74 155.346 1431.7 158.037C1424.66 160.728 1415.71 162.074 1404.87 162.074C1393.04 162.074 1382.12 160.233 1372.12 156.55C1362.12 152.867 1353.52 147.556 1346.34 140.615C1339.16 133.675 1333.59 125.459 1329.65 115.969C1325.7 106.479 1323.73 95.9266 1323.73 84.3118C1323.73 72.6971 1325.7 62.1446 1329.65 52.6545C1333.59 43.1644 1339.16 34.9491 1346.34 28.0086C1353.52 21.0681 1362.12 15.7564 1372.12 12.0737C1382.12 8.39098 1393.04 6.5496 1404.87 6.5496C1415.71 6.5496 1424.66 7.89522 1431.7 10.5864C1438.74 13.2777 1445.22 16.9604 1451.14 21.6346V60.3033C1447.9 56.9039 1444.17 53.7169 1439.94 50.7423C1435.72 47.6262 1430.93 45.2183 1425.57 43.5185C1420.22 41.6772 1414.02 40.7565 1406.98 40.7565C1398.95 40.7565 1391.56 42.4562 1384.8 45.8557C1378.18 49.2551 1372.82 54.2126 1368.74 60.7282C1364.65 67.2438 1362.61 75.105 1362.61 84.3118Z" fill="#060908"/>
<path d="M1804.17 84.3118C1804.17 93.377 1806.22 101.238 1810.3 107.895C1814.39 114.411 1819.74 119.369 1826.36 122.768C1833.12 126.167 1840.51 127.867 1848.54 127.867C1855.59 127.867 1861.78 126.947 1867.14 125.105C1872.49 123.264 1877.28 120.856 1881.5 117.881C1885.73 114.907 1889.46 111.72 1892.7 108.32V146.989C1886.79 151.663 1880.31 155.346 1873.26 158.037C1866.22 160.728 1857.28 162.074 1846.43 162.074C1834.6 162.074 1823.68 160.233 1813.68 156.55C1803.68 152.867 1795.09 147.556 1787.9 140.615C1780.72 133.675 1775.16 125.459 1771.21 115.969C1767.27 106.479 1765.3 95.9266 1765.3 84.3118C1765.3 72.6971 1767.27 62.1446 1771.21 52.6545C1775.16 43.1644 1780.72 34.9491 1787.9 28.0086C1795.09 21.0681 1803.68 15.7564 1813.68 12.0737C1823.68 8.39098 1834.6 6.5496 1846.43 6.5496C1857.28 6.5496 1866.22 7.89522 1873.26 10.5864C1880.31 13.2777 1886.79 16.9604 1892.7 21.6346V60.3033C1889.46 56.9039 1885.73 53.7169 1881.5 50.7423C1877.28 47.6262 1872.49 45.2183 1867.14 43.5185C1861.78 41.6772 1855.59 40.7565 1848.54 40.7565C1840.51 40.7565 1833.12 42.4562 1826.36 45.8557C1819.74 49.2551 1814.39 54.2126 1810.3 60.7282C1806.22 67.2438 1804.17 75.105 1804.17 84.3118Z" fill="#060908"/>
<path d="M2103.86 158.675V129.142H2167.89V158.675H2103.86ZM2103.86 39.4817V9.94904H2167.89V39.4817H2103.86ZM2103.86 94.9351V66.0398H2163.66V94.9351H2103.86ZM2069.64 9.94904H2103.86V158.675H2069.64V9.94904Z" fill="#060908"/>
<path d="M1009.62 235.799V203.717H1126.67V235.799H1085.89V352.443H1050.18V235.799H1009.62Z" fill="#060908"/>
<path d="M1161.69 278.08C1161.69 286.862 1163.38 294.652 1166.76 301.451C1170.28 308.108 1175.14 313.349 1181.34 317.174C1187.68 320.998 1195.07 322.91 1203.52 322.91C1211.84 322.91 1219.09 320.998 1225.29 317.174C1231.63 313.349 1236.49 308.108 1239.87 301.451C1243.39 294.652 1245.15 286.862 1245.15 278.08C1245.15 269.298 1243.46 261.579 1240.08 254.921C1236.7 248.122 1231.91 242.811 1225.71 238.986C1219.51 235.162 1212.12 233.25 1203.52 233.25C1195.07 233.25 1187.68 235.162 1181.34 238.986C1175.14 242.811 1170.28 248.122 1166.76 254.921C1163.38 261.579 1161.69 269.298 1161.69 278.08ZM1123.87 278.08C1123.87 266.607 1125.84 256.125 1129.78 246.635C1133.87 237.145 1139.5 228.93 1146.69 221.989C1153.87 215.049 1162.32 209.737 1172.04 206.054C1181.76 202.23 1192.26 200.318 1203.52 200.318C1214.93 200.318 1225.43 202.23 1235.01 206.054C1244.73 209.737 1253.18 215.049 1260.36 221.989C1267.55 228.93 1273.11 237.145 1277.05 246.635C1281 256.125 1282.97 266.607 1282.97 278.08C1282.97 289.553 1281 300.106 1277.05 309.737C1273.25 319.369 1267.76 327.726 1260.57 334.808C1253.53 341.89 1245.15 347.415 1235.43 351.381C1225.71 355.205 1215.08 357.117 1203.52 357.117C1191.83 357.117 1181.13 355.205 1171.41 351.381C1161.69 347.415 1153.24 341.89 1146.05 334.808C1139.01 327.726 1133.52 319.369 1129.57 309.737C1125.77 300.106 1123.87 289.553 1123.87 278.08Z" fill="#060908"/>
<path d="M1335.22 278.08C1335.22 286.862 1336.91 294.652 1340.29 301.451C1343.81 308.108 1348.67 313.349 1354.87 317.174C1361.21 320.998 1368.6 322.91 1377.05 322.91C1385.37 322.91 1392.62 320.998 1398.82 317.174C1405.16 313.349 1410.02 308.108 1413.4 301.451C1416.92 294.652 1418.68 286.862 1418.68 278.08C1418.68 269.298 1416.99 261.579 1413.61 254.921C1410.23 248.122 1405.44 242.811 1399.24 238.986C1393.04 235.162 1385.65 233.25 1377.05 233.25C1368.6 233.25 1361.21 235.162 1354.87 238.986C1348.67 242.811 1343.81 248.122 1340.29 254.921C1336.91 261.579 1335.22 269.298 1335.22 278.08ZM1297.4 278.08C1297.4 266.607 1299.37 256.125 1303.31 246.635C1307.4 237.145 1313.03 228.93 1320.22 221.989C1327.4 215.049 1335.85 209.737 1345.57 206.054C1355.29 202.23 1365.79 200.318 1377.05 200.318C1388.46 200.318 1398.96 202.23 1408.54 206.054C1418.26 209.737 1426.71 215.049 1433.89 221.989C1441.08 228.93 1446.64 237.145 1450.58 246.635C1454.53 256.125 1456.5 266.607 1456.5 278.08C1456.5 289.553 1454.53 300.106 1450.58 309.737C1446.78 319.369 1441.29 327.726 1434.1 334.808C1427.06 341.89 1418.68 347.415 1408.96 351.381C1399.24 355.205 1388.61 357.117 1377.05 357.117C1365.36 357.117 1354.66 355.205 1344.94 351.381C1335.22 347.415 1326.77 341.89 1319.58 334.808C1312.54 327.726 1307.05 319.369 1303.1 309.737C1299.3 300.106 1297.4 289.553 1297.4 278.08Z" fill="#060908"/>
<path d="M1479.38 203.717H1515.09V321.635H1574.46V352.443H1479.38V203.717Z" fill="#060908"/>
<path fill-rule="evenodd" clip-rule="evenodd" d="M743.926 107.046H732.991V79.2127H748.627C753.416 79.2127 757.501 78.5045 760.881 77.088C764.403 75.53 767.079 73.3345 768.911 70.5016C770.742 67.5271 771.657 63.986 771.657 59.8783C771.657 55.7707 770.742 52.3004 768.911 49.4676C767.079 46.4931 764.403 44.2268 760.881 42.6687C757.501 41.1106 753.416 40.3316 748.627 40.3316H732.991V79.2127H719.68V107.046H732.991V158.675H697.283V9.94904H719.68H732.991H751.162C763.84 9.94904 774.404 12.0029 782.856 16.1105C791.307 20.2182 797.716 25.9548 802.083 33.3202C806.45 40.544 808.633 48.9718 808.633 58.6036C808.633 68.0937 806.45 76.5215 802.083 83.8869C797.716 91.1107 791.307 96.7765 782.856 100.884C781.605 101.492 780.307 102.055 778.964 102.573L817.507 158.675H775.672L743.926 107.046Z" fill="#060908"/>
<path d="M719.68 79.2127V107.046H732.991V79.2127H719.68Z" fill="#060908"/>
<path fill-rule="evenodd" clip-rule="evenodd" d="M1027.62 102.584L1025.08 129.992H1040.13L1026.35 158.675H985.991L1063.75 0.600586L1141.71 158.675H1101.14L1087.29 129.992H1040.13L1044.73 120.431L1043.04 112.57L1047.35 102.584H1080.24L1063.75 64.5526L1047.35 102.584H1027.62Z" fill="#060908"/>
<path d="M1027.62 102.584L1025.08 129.992H1040.13L1044.73 120.431L1043.04 112.57L1047.35 102.584H1027.62Z" fill="#060908"/>
<path fill-rule="evenodd" clip-rule="evenodd" d="M1579.64 64.1276H1516.04V9.94904H1480.33V158.675H1516.04V96.4224H1579.64V158.675H1615.35V9.94904H1579.64V64.1276ZM1516.04 96.4224V64.1276H1490.27V96.4224H1516.04Z" fill="#060908"/>
<path d="M1490.27 64.1276V96.4224H1516.04V64.1276H1490.27Z" fill="#060908"/>
<path fill-rule="evenodd" clip-rule="evenodd" d="M1744.69 129.142H1680.67V94.9351H1740.46V66.0398H1680.67V39.4817H1744.69V9.94904H1680.67V39.4817H1670.1V9.94904H1646.44V158.675H1670.1H1680.67H1744.69V129.142Z" fill="#060908"/>
<path d="M1670.1 9.94904V39.4817H1680.67V9.94904H1670.1Z" fill="#060908"/>
<path fill-rule="evenodd" clip-rule="evenodd" d="M1958.87 9.94904H1921.9V158.675H1958.87V93.6515L2010.85 158.675H2054.17L1990.99 79.6376L2051 9.94904H2009.16L1958.87 68.6206V9.94904ZM1958.87 68.6206V93.6515V81.1361V68.6206Z" fill="#060908"/>
<path fill-rule="evenodd" clip-rule="evenodd" d="M2278.63 102.573L2270.9 91.3232H2233.92L2243.59 107.046H2232.65V158.675H2196.95V9.94904H2232.65H2250.82C2263.5 9.94904 2274.07 12.0029 2282.52 16.1105C2290.97 20.2182 2297.38 25.9548 2301.75 33.3202C2306.11 40.544 2308.3 48.9718 2308.3 58.6036C2308.3 68.0937 2306.11 76.5215 2301.75 83.8869C2297.38 91.1107 2290.97 96.7765 2282.52 100.884C2281.27 101.492 2279.97 102.055 2278.63 102.573ZM2250.82 107.046H2243.59L2275.33 158.675H2317.17L2278.63 102.573C2270.89 105.555 2261.63 107.046 2250.82 107.046ZM2232.65 79.2127V40.3316H2248.29C2253.08 40.3316 2257.16 41.1106 2260.54 42.6687C2264.07 44.2268 2266.74 46.4931 2268.57 49.4676C2270.4 52.3004 2271.32 55.7707 2271.32 59.8783C2271.32 63.986 2270.4 67.5271 2268.57 70.5016C2266.74 73.3345 2264.07 75.53 2260.54 77.088C2257.16 78.5045 2253.08 79.2127 2248.29 79.2127H2232.65Z" fill="#060908"/>
<path d="M2270.9 91.3232H2233.92L2243.59 107.046H2250.82C2261.63 107.046 2270.89 105.555 2278.63 102.573L2270.9 91.3232Z" fill="#060908"/>
</svg>
