<svg width="57" height="57" viewBox="0 0 57 57" fill="none" xmlns="http://www.w3.org/2000/svg">
<g clip-path="url(#clip0_1356_1637)">
<path d="M26.1886 28.3898L26.4814 28.1556L24.2933 25.4209C24.2933 25.4209 24.2933 25.4209 24.2933 25.4209C24.1685 25.2649 24.1685 24.9846 24.2933 24.8286L26.4811 22.0939C26.5346 22.027 26.5844 22.015 26.6126 22.015C26.6407 22.015 26.6905 22.027 26.744 22.0939L27.1682 22.6241C27.293 22.7801 27.293 23.0604 27.1682 23.2164L27.1681 23.2164L25.829 24.8908L25.6416 25.1251L25.8291 25.3593L27.1685 27.0332C27.2934 27.1892 27.2934 27.4694 27.1685 27.6254L26.7444 28.1556C26.6909 28.2225 26.6411 28.2346 26.6129 28.2346C26.5848 28.2346 26.535 28.2225 26.4815 28.1556L26.1886 28.3898ZM31.421 25.3592L31.6083 25.125L31.421 24.8907L30.0818 23.2168C29.957 23.0608 29.957 22.7806 30.0818 22.6246L30.506 22.0944C30.5595 22.0275 30.6093 22.0154 30.6374 22.0154C30.6656 22.0154 30.7154 22.0275 30.7689 22.0944L32.9567 24.8291C33.0815 24.9851 33.0815 25.2654 32.9567 25.4214L30.7689 28.1561C30.7154 28.223 30.6656 28.235 30.6374 28.235C30.6093 28.235 30.5595 28.223 30.506 28.1561L30.0818 27.6259C29.957 27.4699 29.957 27.1896 30.0818 27.0336L30.0819 27.0336L31.421 25.3592ZM35.825 31.5H36.2V31.125V19.125V18.75H35.825H21.425H21.05V19.125V31.125V31.5H21.425H35.825ZM17.225 36H25.8575C25.9194 36.3085 26.057 36.6097 26.2459 36.8576C26.5118 37.2067 26.9206 37.5 27.425 37.5H29.705C30.1564 37.5 30.5601 37.3062 30.8484 36.9654C31.0657 36.7083 31.2097 36.378 31.2726 36H40.025C40.0547 36 40.1038 36.0145 40.1559 36.0796C40.2083 36.145 40.25 36.2487 40.25 36.375V37.125C40.25 38.6503 39.2641 39.75 38.225 39.75H19.025C17.9859 39.75 17 38.6503 17 37.125V36.375C17 36.2487 17.0417 36.145 17.0941 36.0796C17.1462 36.0145 17.1953 36 17.225 36ZM36.425 16.5C37.1341 16.5 37.85 17.2622 37.85 18.375V33.75H19.4V18.375C19.4 17.2622 20.1159 16.5 20.825 16.5H36.425Z" fill="#603E1F" stroke="#5A3F40" stroke-width="0.75"/>
</g>
<defs>
<clipPath id="clip0_1356_1637">
<rect width="24" height="24" fill="white" transform="translate(16.625 16.125)"/>
</clipPath>
</defs>
</svg>
