<svg width="57" height="57" viewBox="0 0 57 57" fill="none" xmlns="http://www.w3.org/2000/svg">
<g clip-path="url(#clip0_492_3686)">
<path d="M24.9386 29.1398C25.173 29.4328 25.5529 29.4328 25.7873 29.1398L26.2114 28.6097C26.4458 28.3167 26.4458 27.8419 26.2114 27.5489L24.8719 25.875L26.211 24.2006C26.4454 23.9077 26.4454 23.4328 26.211 23.1398L25.7869 22.6097C25.5525 22.3167 25.1726 22.3167 24.9383 22.6097L22.7505 25.3444C22.5161 25.6373 22.5161 26.1122 22.7505 26.4052L24.9386 29.1398ZM30.539 28.6102L30.9631 29.1403C31.1975 29.4333 31.5774 29.4333 31.8118 29.1403L33.9995 26.4056C34.2339 26.1127 34.2339 25.6378 33.9995 25.3448L31.8118 22.6102C31.5774 22.3172 31.1975 22.3172 30.9631 22.6102L30.539 23.1403C30.3046 23.4333 30.3046 23.9081 30.539 24.2011L31.8781 25.875L30.539 27.5494C30.3046 27.8423 30.3046 28.3172 30.539 28.6102ZM39.775 36.375H30.6828C30.655 37.3036 30.1311 37.875 29.455 37.875H27.175C26.4741 37.875 25.9368 37.0561 25.9461 36.375H16.975C16.645 36.375 16.375 36.7125 16.375 37.125V37.875C16.375 39.525 17.455 40.875 18.775 40.875H37.975C39.295 40.875 40.375 39.525 40.375 37.875V37.125C40.375 36.7125 40.105 36.375 39.775 36.375ZM37.975 19.125C37.975 17.8875 37.165 16.875 36.175 16.875H20.575C19.585 16.875 18.775 17.8875 18.775 19.125V34.875H37.975V19.125ZM35.575 31.875H21.175V19.875H35.575V31.875Z" fill="#940101"/>
<path d="M29.5574 23.8033L27.431 28.2263" stroke="#940101" stroke-linecap="round"/>
</g>
<defs>
<clipPath id="clip0_492_3686">
<rect width="24" height="24" fill="white" transform="translate(16.375 16.875)"/>
</clipPath>
</defs>
</svg>
