<svg width="3722" height="2330" viewBox="0 0 3722 2330" fill="none" xmlns="http://www.w3.org/2000/svg">
<g clip-path="url(#clip0_1571_2145)">
<path d="M565.761 2329.73L565.462 2316.39C565.298 2309.05 556.01 2228.52 544.822 2137.43C533.634 2046.35 513.994 1885.79 501.177 1780.64C488.361 1675.49 475.9 1573.45 473.486 1553.89C467.521 1505.54 440.038 1280.04 430.273 1199.32C425.909 1163.25 421.843 1131.55 421.237 1128.87C420.372 1125.05 418.109 1123.76 410.696 1122.88C405.504 1122.27 322.728 1120.2 226.749 1118.29C28.2348 1114.33 0 1113.25 0 1109.59C0 1108.2 181.509 925.572 403.328 703.733L806.657 300.416L1167.49 276.477C1365.95 263.311 1650.88 244.498 1800.65 234.67C1950.43 224.843 2078.98 216.039 2086.31 215.106L2099.65 213.411L2100.76 106.705L2101.87 0H2205.24H2308.61L2309.19 98.8371C2309.51 153.198 2310.51 198.364 2311.42 199.207C2312.32 200.05 2344.07 198.59 2381.97 195.961L2450.89 191.18L2452 107.817L2453.11 24.4533H2544.25H2635.4L2635.98 99.9553C2636.31 141.481 2637.36 176.245 2638.32 177.209C2639.29 178.172 2729.92 172.967 2839.72 165.641C2949.53 158.315 3040.22 152.846 3041.26 153.487C3042.3 154.128 3075.9 197.383 3115.93 249.61C3240.76 412.464 3483.64 729.145 3605.05 887.366C3705.2 1017.87 3724.18 1043.51 3720.79 1043.75C3720.49 1043.77 3650.37 1048.2 3564.98 1053.58C3479.59 1058.97 3409.2 1063.91 3408.55 1064.56C3406.99 1066.11 3406.05 1071.27 3387.65 1179.32C3357.02 1359.21 3338.9 1465.46 3300.11 1692.84C3278.53 1819.38 3256.52 1948.43 3251.21 1979.61C3245.89 2010.78 3230.43 2101.61 3216.83 2181.43C3203.23 2261.26 3186.17 2330.8 3186.89 2331.98L565.761 2329.73Z" fill="#333333"/>
</g>
<defs>
<clipPath id="clip0_1571_2145">
<rect width="3721.15" height="2329.73" fill="white"/>
</clipPath>
</defs>
</svg>
