<svg width="557" height="554" viewBox="0 0 557 554" fill="none" xmlns="http://www.w3.org/2000/svg">
<rect width="557" height="554" fill="#FFFCF8"/>
<circle cx="279.121" cy="277.121" r="216.5" stroke="#D9D9D9" stroke-width="87"/>
<circle cx="279.121" cy="277.121" r="173" fill="#FFFCF8"/>
<g filter="url(#filter0_d_1199_4143)">
<circle cx="279.121" cy="277.121" r="100" fill="#D9D9D9"/>
</g>
<path d="M554.121 277.121C554.121 329.305 539.273 380.412 511.311 424.473C483.349 468.534 443.428 503.729 396.21 525.948L279.121 277.121H554.121Z" fill="#940101"/>
<path d="M364.1 15.5801C413.731 31.706 457.748 61.6203 491.012 101.829C524.275 142.038 545.412 190.881 551.952 242.654L279.121 277.121L364.1 15.5801Z" fill="#005B93"/>
<path d="M56.641 115.48C87.3142 73.2616 129.367 40.6424 177.886 21.4321C226.406 2.22174 279.39 -2.78675 330.651 6.99163L279.121 277.121L56.641 115.48Z" fill="#333333"/>
<path d="M364.1 538.661C314.47 554.787 261.276 556.459 210.731 543.481C160.186 530.503 114.377 503.412 78.6542 465.371L279.121 277.121L364.1 538.661Z" fill="#005500"/>
<path d="M56.641 438.762C25.9677 396.544 7.93996 346.469 4.66327 294.388C1.38659 242.307 12.9963 190.368 38.1363 144.638L279.121 277.121L56.641 438.762Z" fill="#56423D"/>
<circle cx="279.121" cy="277.121" r="155" stroke="#FFFCF8" stroke-width="30"/>
<g filter="url(#filter1_d_1199_4143)">
<circle cx="279.121" cy="277.121" r="90" fill="#FFFCF8"/>
</g>
<g filter="url(#filter2_f_1199_4143)">
<path d="M333.346 208.016C347.502 224.704 354.892 246.091 354.057 267.959C353.222 289.826 344.223 310.587 328.836 326.147C313.448 341.707 292.788 350.936 270.931 352.014C249.074 353.092 227.607 345.941 210.762 331.971" stroke="#333333"/>
</g>
<path d="M250.402 270.121V252.121H255.864C256.056 252.121 256.381 252.125 256.839 252.133C257.306 252.141 257.752 252.175 258.177 252.233C259.544 252.425 260.685 252.933 261.602 253.758C262.519 254.583 263.206 255.633 263.664 256.908C264.123 258.183 264.352 259.587 264.352 261.121C264.352 262.654 264.123 264.058 263.664 265.333C263.206 266.608 262.519 267.658 261.602 268.483C260.685 269.308 259.544 269.816 258.177 270.008C257.76 270.058 257.314 270.091 256.839 270.108C256.364 270.116 256.039 270.121 255.864 270.121H250.402ZM252.302 268.358H255.864C256.206 268.358 256.573 268.35 256.964 268.333C257.364 268.308 257.706 268.266 257.989 268.208C259.039 268.025 259.885 267.6 260.527 266.933C261.177 266.266 261.652 265.433 261.952 264.433C262.252 263.425 262.402 262.321 262.402 261.121C262.402 259.912 262.252 258.804 261.952 257.796C261.652 256.787 261.177 255.954 260.527 255.296C259.877 254.637 259.031 254.216 257.989 254.033C257.706 253.975 257.36 253.937 256.952 253.921C256.552 253.896 256.189 253.883 255.864 253.883H252.302V268.358ZM265.46 270.121L271.66 252.121H274.098L280.298 270.121H278.385L272.498 253.146H273.223L267.373 270.121H265.46ZM268.223 265.758V264.033H277.523V265.758H268.223ZM285.853 270.121V253.883H279.566V252.121H293.978V253.883H287.691V270.121H285.853ZM294.245 270.121L300.445 252.121H302.882L309.082 270.121H307.17L301.282 253.146H302.007L296.157 270.121H294.245ZM297.007 265.758V264.033H306.307V265.758H297.007ZM221.233 304.121V286.121H223.07V302.358H231.62V304.121H221.233ZM234.001 304.121V286.121H235.839V304.121H234.001ZM239.586 304.121V286.121H249.924V287.958H241.424V294.208H248.424V296.033H241.424V304.121H239.586ZM252.184 304.121V286.121H263.434V287.883H254.022V294.108H261.934V295.871H254.022V302.358H263.434V304.121H252.184ZM273.095 304.496C271.303 304.496 269.79 304.1 268.557 303.308C267.324 302.508 266.39 301.404 265.757 299.996C265.124 298.587 264.807 296.962 264.807 295.121C264.807 293.279 265.124 291.654 265.757 290.246C266.39 288.837 267.324 287.737 268.557 286.946C269.79 286.146 271.303 285.746 273.095 285.746C275.186 285.746 276.895 286.283 278.22 287.358C279.545 288.425 280.453 289.858 280.945 291.658L279.07 292.146C278.686 290.721 277.999 289.591 277.007 288.758C276.015 287.925 274.711 287.508 273.095 287.508C271.686 287.508 270.515 287.829 269.582 288.471C268.649 289.112 267.945 290.008 267.47 291.158C267.003 292.3 266.761 293.621 266.745 295.121C266.736 296.621 266.965 297.941 267.432 299.083C267.907 300.225 268.615 301.121 269.557 301.771C270.507 302.412 271.686 302.733 273.095 302.733C274.711 302.733 276.015 302.316 277.007 301.483C277.999 300.641 278.686 299.512 279.07 298.096L280.945 298.583C280.453 300.383 279.545 301.821 278.22 302.896C276.895 303.962 275.186 304.496 273.095 304.496ZM287.233 304.121V296.583L281.196 286.121H283.321L288.158 294.483L292.971 286.121H295.096L289.083 296.583V304.121H287.233ZM303.124 304.496C301.332 304.496 299.82 304.1 298.586 303.308C297.353 302.508 296.42 301.404 295.786 299.996C295.153 298.587 294.836 296.962 294.836 295.121C294.836 293.279 295.153 291.654 295.786 290.246C296.42 288.837 297.353 287.737 298.586 286.946C299.82 286.146 301.332 285.746 303.124 285.746C305.216 285.746 306.924 286.283 308.249 287.358C309.574 288.425 310.482 289.858 310.974 291.658L309.099 292.146C308.716 290.721 308.028 289.591 307.036 288.758C306.045 287.925 304.741 287.508 303.124 287.508C301.716 287.508 300.545 287.829 299.611 288.471C298.678 289.112 297.974 290.008 297.499 291.158C297.032 292.3 296.791 293.621 296.774 295.121C296.766 296.621 296.995 297.941 297.461 299.083C297.936 300.225 298.645 301.121 299.586 301.771C300.536 302.412 301.716 302.733 303.124 302.733C304.741 302.733 306.045 302.316 307.036 301.483C308.028 300.641 308.716 299.512 309.099 298.096L310.974 298.583C310.482 300.383 309.574 301.821 308.249 302.896C306.924 303.962 305.216 304.496 303.124 304.496ZM313.982 304.121V286.121H315.819V302.358H324.369V304.121H313.982ZM326.501 304.121V286.121H337.751V287.883H328.338V294.108H336.251V295.871H328.338V302.358H337.751V304.121H326.501Z" fill="#333333"/>
<path d="M191.135 495.916L194.846 484.828H196.756L200.467 495.916H199.043L195.57 485.629H196.001L192.559 495.916H191.135ZM192.921 493.321V492.035H198.681V493.321H192.921ZM201.846 495.916V484.828H203.232L209.014 493.49V484.828H210.4V495.916H209.014L203.232 487.246V495.916H201.846ZM211.783 495.916L215.495 484.828H217.404L221.116 495.916H219.691L216.219 485.629H216.65L213.208 495.916H211.783ZM213.57 493.321V492.035H219.329V493.321H213.57ZM222.648 495.916V484.828H224.019V494.614H229.162V495.916H222.648ZM231.587 495.916V491.303L227.853 484.828H229.447L232.28 489.733L235.106 484.828H236.7L232.973 491.303V495.916H231.587ZM241.242 496.147C240.457 496.147 239.749 496.013 239.117 495.746C238.491 495.479 237.972 495.1 237.562 494.607C237.156 494.109 236.892 493.521 236.769 492.843L238.186 492.62C238.365 493.318 238.737 493.865 239.302 494.26C239.872 494.65 240.542 494.845 241.312 494.845C241.81 494.845 242.259 494.768 242.659 494.614C243.065 494.455 243.386 494.229 243.622 493.937C243.858 493.644 243.976 493.298 243.976 492.897C243.976 492.651 243.932 492.44 243.845 492.266C243.763 492.086 243.647 491.935 243.498 491.812C243.355 491.683 243.19 491.575 243.006 491.488C242.821 491.401 242.628 491.329 242.428 491.273L239.602 490.433C239.294 490.341 238.997 490.225 238.709 490.087C238.422 489.943 238.165 489.766 237.939 489.556C237.713 489.34 237.534 489.083 237.4 488.786C237.267 488.483 237.2 488.126 237.2 487.715C237.2 487.058 237.369 486.499 237.708 486.037C238.052 485.569 238.517 485.213 239.102 484.966C239.687 484.72 240.347 484.599 241.081 484.604C241.825 484.61 242.49 484.743 243.075 485.005C243.665 485.261 244.153 485.631 244.538 486.114C244.928 486.596 245.19 487.174 245.323 487.846L243.868 488.1C243.791 487.648 243.619 487.261 243.352 486.938C243.09 486.609 242.762 486.357 242.367 486.183C241.971 486.003 241.538 485.911 241.065 485.906C240.614 485.901 240.205 485.972 239.841 486.121C239.477 486.27 239.187 486.478 238.971 486.745C238.755 487.007 238.648 487.31 238.648 487.654C238.648 487.992 238.745 488.267 238.94 488.478C239.135 488.683 239.374 488.847 239.656 488.97C239.944 489.088 240.223 489.186 240.496 489.263L242.605 489.871C242.847 489.938 243.124 490.03 243.437 490.148C243.755 490.266 244.063 490.433 244.361 490.649C244.659 490.859 244.905 491.142 245.1 491.496C245.295 491.845 245.393 492.286 245.393 492.82C245.393 493.354 245.285 493.829 245.069 494.245C244.859 494.661 244.564 495.01 244.184 495.292C243.804 495.569 243.362 495.78 242.859 495.923C242.356 496.072 241.817 496.147 241.242 496.147ZM247.008 495.916V484.828H254.015V486.129H248.378V489.602H253.091V490.903H248.378V494.614H254.015V495.916H247.008Z" fill="#F4EDE2"/>
<path d="M437.24 401.121V390.033H438.488L442.677 398.865L446.842 390.033H448.105V401.113H446.804V393.043L443.038 401.121H442.307L438.542 393.043V401.121H437.24ZM449.494 401.121L453.206 390.033H455.115L458.827 401.121H457.402L453.929 390.833H454.361L450.919 401.121H449.494ZM451.281 398.526V397.24H457.04V398.526H451.281ZM460.205 401.121V390.033H461.591L467.374 398.695V390.033H468.76V401.121H467.374L461.591 392.45V401.121H460.205ZM470.143 401.121L473.854 390.033H475.764L479.475 401.121H478.051L474.578 390.833H475.009L471.567 401.121H470.143ZM471.929 398.526V397.24H477.689V398.526H471.929ZM485.042 401.352C484.282 401.352 483.589 401.218 482.963 400.951C482.337 400.684 481.798 400.302 481.346 399.804C480.894 399.301 480.545 398.695 480.299 397.987C480.057 397.273 479.937 396.47 479.937 395.577C479.937 394.396 480.147 393.374 480.568 392.512C480.989 391.65 481.582 390.985 482.347 390.518C483.112 390.045 484.01 389.809 485.042 389.809C486.284 389.809 487.285 390.099 488.045 390.679C488.805 391.254 489.328 392.042 489.616 393.043L488.23 393.328C487.999 392.656 487.619 392.119 487.09 391.719C486.561 391.319 485.902 391.118 485.111 391.118C484.285 391.113 483.597 391.298 483.048 391.673C482.503 392.042 482.093 392.563 481.816 393.236C481.538 393.908 481.397 394.689 481.392 395.577C481.387 396.46 481.523 397.235 481.8 397.902C482.077 398.569 482.491 399.093 483.04 399.473C483.594 399.848 484.285 400.037 485.111 400.043C485.825 400.048 486.425 399.912 486.913 399.635C487.401 399.357 487.778 398.957 488.045 398.433C488.312 397.91 488.474 397.281 488.53 396.547H486.174V395.415H489.978C489.993 395.518 490.001 395.641 490.001 395.785C490.006 395.923 490.008 396.018 490.008 396.069C490.008 397.081 489.818 397.987 489.439 398.788C489.064 399.583 488.507 400.209 487.768 400.666C487.034 401.123 486.125 401.352 485.042 401.352ZM491.546 401.121V390.033H498.553V391.334H492.917V394.807H497.629V396.108H492.917V399.819H498.553V401.121H491.546Z" fill="#F4EDE2"/>
<path d="M429.665 150.698C428.879 150.698 428.171 150.565 427.54 150.298C426.913 150.031 426.395 149.651 425.984 149.158C425.579 148.661 425.314 148.073 425.191 147.395L426.608 147.172C426.788 147.87 427.16 148.417 427.724 148.812C428.294 149.202 428.964 149.397 429.734 149.397C430.232 149.397 430.681 149.32 431.082 149.166C431.487 149.007 431.808 148.781 432.044 148.489C432.28 148.196 432.398 147.849 432.398 147.449C432.398 147.203 432.355 146.992 432.267 146.818C432.185 146.638 432.07 146.487 431.921 146.363C431.777 146.235 431.613 146.127 431.428 146.04C431.243 145.953 431.051 145.881 430.851 145.824L428.025 144.985C427.717 144.893 427.419 144.777 427.131 144.639C426.844 144.495 426.587 144.318 426.361 144.107C426.136 143.892 425.956 143.635 425.822 143.337C425.689 143.034 425.622 142.678 425.622 142.267C425.622 141.61 425.792 141.05 426.13 140.588C426.474 140.121 426.939 139.765 427.524 139.518C428.109 139.272 428.769 139.151 429.503 139.156C430.247 139.161 430.912 139.295 431.497 139.557C432.088 139.813 432.575 140.183 432.96 140.665C433.35 141.148 433.612 141.725 433.746 142.398L432.29 142.652C432.213 142.2 432.041 141.813 431.775 141.489C431.513 141.161 431.184 140.909 430.789 140.735C430.394 140.555 429.96 140.463 429.488 140.458C429.036 140.452 428.628 140.524 428.263 140.673C427.899 140.822 427.609 141.03 427.393 141.297C427.178 141.559 427.07 141.861 427.07 142.205C427.07 142.544 427.167 142.819 427.362 143.029C427.558 143.235 427.796 143.399 428.079 143.522C428.366 143.64 428.646 143.738 428.918 143.815L431.028 144.423C431.269 144.49 431.546 144.582 431.859 144.7C432.178 144.818 432.486 144.985 432.783 145.201C433.081 145.411 433.327 145.694 433.522 146.048C433.718 146.397 433.815 146.838 433.815 147.372C433.815 147.906 433.707 148.381 433.492 148.797C433.281 149.212 432.986 149.561 432.606 149.844C432.226 150.121 431.785 150.331 431.282 150.475C430.779 150.624 430.24 150.698 429.665 150.698ZM438.287 150.467V140.681H434.506V139.38H443.438V140.681H439.658V150.467H438.287ZM449.223 150.698C448.119 150.698 447.182 150.455 446.412 149.967C445.642 149.479 445.054 148.802 444.649 147.934C444.248 147.067 444.048 146.063 444.048 144.924C444.048 143.784 444.248 142.78 444.649 141.913C445.054 141.045 445.642 140.368 446.412 139.88C447.182 139.392 448.119 139.149 449.223 139.149C450.331 139.149 451.271 139.392 452.041 139.88C452.811 140.368 453.396 141.045 453.796 141.913C454.197 142.78 454.397 143.784 454.397 144.924C454.397 146.063 454.197 147.067 453.796 147.934C453.396 148.802 452.811 149.479 452.041 149.967C451.271 150.455 450.331 150.698 449.223 150.698ZM449.223 149.389C450.049 149.395 450.737 149.21 451.286 148.835C451.841 148.455 452.254 147.929 452.526 147.257C452.803 146.584 452.942 145.806 452.942 144.924C452.942 144.035 452.803 143.258 452.526 142.59C452.254 141.923 451.841 141.402 451.286 141.027C450.737 140.653 450.049 140.463 449.223 140.458C448.396 140.452 447.708 140.637 447.159 141.012C446.615 141.387 446.204 141.91 445.927 142.583C445.65 143.255 445.509 144.035 445.504 144.924C445.498 145.806 445.634 146.582 445.912 147.249C446.189 147.916 446.602 148.44 447.151 148.82C447.706 149.194 448.396 149.384 449.223 149.389ZM455.944 150.467V139.38H460.325C460.433 139.38 460.561 139.385 460.71 139.395C460.859 139.4 461.002 139.415 461.141 139.441C461.742 139.534 462.245 139.739 462.65 140.057C463.061 140.375 463.369 140.778 463.574 141.266C463.78 141.749 463.882 142.285 463.882 142.875C463.882 143.733 463.659 144.477 463.212 145.108C462.766 145.735 462.111 146.127 461.249 146.286L460.725 146.371H457.314V150.467H455.944ZM462.542 150.467L460.356 145.955L461.711 145.54L464.113 150.467H462.542ZM457.314 145.07H460.279C460.376 145.07 460.487 145.065 460.61 145.054C460.738 145.044 460.859 145.026 460.972 145.001C461.326 144.918 461.613 144.77 461.834 144.554C462.06 144.333 462.224 144.077 462.327 143.784C462.429 143.486 462.481 143.183 462.481 142.875C462.481 142.567 462.429 142.267 462.327 141.974C462.224 141.677 462.06 141.417 461.834 141.197C461.613 140.976 461.326 140.827 460.972 140.75C460.859 140.719 460.738 140.701 460.61 140.696C460.487 140.686 460.376 140.681 460.279 140.681H457.314V145.07ZM465.809 150.467V139.38H472.816V140.681H467.18V144.154H471.892V145.455H467.18V149.166H472.816V150.467H465.809Z" fill="#F4EDE2"/>
<path d="M171.782 80.7882C170.678 80.7882 169.742 80.5444 168.972 80.0567C168.202 79.5691 167.614 78.8915 167.208 78.0239C166.808 77.1564 166.608 76.1528 166.608 75.0132C166.608 73.8736 166.808 72.8701 167.208 72.0025C167.614 71.135 168.202 70.4574 168.972 69.9697C169.742 69.4821 170.678 69.2382 171.782 69.2382C173.065 69.2382 174.12 69.5642 174.947 70.2161C175.778 70.8681 176.351 71.7459 176.664 72.8495L175.27 73.2191C175.044 72.3927 174.641 71.7407 174.061 71.2633C173.481 70.7859 172.722 70.5472 171.782 70.5472C170.956 70.5472 170.268 70.7346 169.719 71.1093C169.169 71.4841 168.756 72.0077 168.479 72.6801C168.202 73.3475 168.06 74.1252 168.055 75.0132C168.05 75.8962 168.186 76.6739 168.463 77.3463C168.741 78.0137 169.156 78.5373 169.711 78.9171C170.265 79.2919 170.956 79.4792 171.782 79.4792C172.722 79.4792 173.481 79.2405 174.061 78.7631C174.641 78.2806 175.044 77.6287 175.27 76.8073L176.664 77.1769C176.351 78.2755 175.778 79.1533 174.947 79.8103C174.12 80.4623 173.065 80.7882 171.782 80.7882ZM177.282 80.5572L180.993 69.4692H182.903L186.614 80.5572H185.19L181.717 70.27H182.148L178.706 80.5572H177.282ZM179.068 77.9623V76.6764H184.828V77.9623H179.068ZM187.993 80.5572V69.4692H192.374C192.482 69.4692 192.61 69.4744 192.759 69.4846C192.908 69.4898 193.052 69.5052 193.19 69.5308C193.791 69.6232 194.294 69.8286 194.699 70.1468C195.11 70.4651 195.418 70.8681 195.623 71.3557C195.829 71.8383 195.931 72.3747 195.931 72.965C195.931 73.5502 195.826 74.0867 195.616 74.5743C195.41 75.0569 195.102 75.4598 194.692 75.7832C194.286 76.1015 193.786 76.3068 193.19 76.3992C193.052 76.4198 192.908 76.4352 192.759 76.4454C192.61 76.4557 192.482 76.4608 192.374 76.4608H189.363V80.5572H187.993ZM189.363 75.1595H192.328C192.425 75.1595 192.536 75.1544 192.659 75.1441C192.787 75.1339 192.908 75.1159 193.021 75.0902C193.375 75.0081 193.662 74.8592 193.883 74.6436C194.109 74.4229 194.273 74.1662 194.376 73.8736C194.479 73.5759 194.53 73.273 194.53 72.965C194.53 72.657 194.479 72.3567 194.376 72.0641C194.273 71.7664 194.109 71.5072 193.883 71.2864C193.662 71.0657 193.375 70.9168 193.021 70.8398C192.908 70.809 192.787 70.7911 192.659 70.7859C192.536 70.7757 192.425 70.7705 192.328 70.7705H189.363V75.1595ZM200.324 80.5572V70.7705H196.543V69.4692H205.475V70.7705H201.695V80.5572H200.324ZM211.075 80.7882C210.218 80.7882 209.46 80.6111 208.803 80.2569C208.146 79.9027 207.63 79.4074 207.256 78.7708C206.886 78.1292 206.701 77.3771 206.701 76.5147V69.4769L208.087 69.4692V76.3992C208.087 76.9228 208.175 77.3797 208.349 77.7698C208.529 78.1548 208.765 78.4757 209.057 78.7323C209.35 78.989 209.671 79.1815 210.02 79.3098C210.374 79.433 210.726 79.4946 211.075 79.4946C211.429 79.4946 211.783 79.4305 212.137 79.3021C212.492 79.1738 212.813 78.9839 213.1 78.7323C213.393 78.4757 213.626 78.1523 213.801 77.7621C213.975 77.372 214.062 76.9177 214.062 76.3992V69.4692H215.448V76.5147C215.448 77.372 215.261 78.1215 214.886 78.7631C214.517 79.4048 214.003 79.9027 213.346 80.2569C212.689 80.6111 211.932 80.7882 211.075 80.7882ZM217.605 80.5572V69.4692H221.986C222.094 69.4692 222.222 69.4744 222.371 69.4846C222.52 69.4898 222.664 69.5052 222.802 69.5308C223.403 69.6232 223.906 69.8286 224.311 70.1468C224.722 70.4651 225.03 70.8681 225.235 71.3557C225.441 71.8383 225.543 72.3747 225.543 72.965C225.543 73.8223 225.32 74.5666 224.873 75.198C224.427 75.8243 223.772 76.217 222.91 76.3761L222.386 76.4608H218.975V80.5572H217.605ZM224.204 80.5572L222.017 76.045L223.372 75.6292L225.774 80.5572H224.204ZM218.975 75.1595H221.94C222.037 75.1595 222.148 75.1544 222.271 75.1441C222.399 75.1339 222.52 75.1159 222.633 75.0902C222.987 75.0081 223.274 74.8592 223.495 74.6436C223.721 74.4229 223.885 74.1662 223.988 73.8736C224.091 73.5759 224.142 73.273 224.142 72.965C224.142 72.657 224.091 72.3567 223.988 72.0641C223.885 71.7664 223.721 71.5072 223.495 71.2864C223.274 71.0657 222.987 70.9168 222.633 70.8398C222.52 70.809 222.399 70.7911 222.271 70.7859C222.148 70.7757 222.037 70.7705 221.94 70.7705H218.975V75.1595ZM227.47 80.5572V69.4692H234.477V70.7705H228.841V74.2432H233.553V75.5445H228.841V79.2559H234.477V80.5572H227.47Z" fill="#F4EDE2"/>
<path d="M36.9985 296.3C36.2131 296.3 35.5047 296.166 34.8733 295.899C34.2471 295.632 33.7286 295.252 33.3179 294.76C32.9124 294.262 32.648 293.674 32.5248 292.996L33.9416 292.773C34.1213 293.471 34.4935 294.018 35.0581 294.413C35.6279 294.803 36.2978 294.998 37.0678 294.998C37.5658 294.998 38.0149 294.921 38.4153 294.767C38.8209 294.608 39.1417 294.382 39.3778 294.09C39.614 293.797 39.732 293.451 39.732 293.05C39.732 292.804 39.6884 292.593 39.6011 292.419C39.519 292.239 39.4035 292.088 39.2546 291.964C39.1109 291.836 38.9466 291.728 38.7618 291.641C38.577 291.554 38.3845 291.482 38.1843 291.425L35.3584 290.586C35.0504 290.494 34.7527 290.378 34.4652 290.24C34.1778 290.096 33.9211 289.919 33.6952 289.708C33.4694 289.493 33.2897 289.236 33.1562 288.938C33.0228 288.635 32.956 288.279 32.956 287.868C32.956 287.211 33.1254 286.651 33.4642 286.189C33.8082 285.722 34.2727 285.366 34.8579 285.119C35.4431 284.873 36.1028 284.752 36.8368 284.757C37.5812 284.762 38.2459 284.896 38.8311 285.158C39.4215 285.414 39.9091 285.784 40.2941 286.266C40.6843 286.749 40.9461 287.326 41.0795 287.999L39.6242 288.253C39.5472 287.801 39.3753 287.414 39.1083 287.09C38.8465 286.762 38.518 286.51 38.1227 286.336C37.7275 286.156 37.2937 286.064 36.8214 286.059C36.3697 286.053 35.9616 286.125 35.5971 286.274C35.2327 286.423 34.9426 286.631 34.727 286.898C34.5114 287.16 34.4036 287.463 34.4036 287.806C34.4036 288.145 34.5012 288.42 34.6962 288.63C34.8913 288.836 35.13 289 35.4123 289.123C35.6998 289.241 35.9796 289.339 36.2516 289.416L38.3614 290.024C38.6027 290.091 38.8799 290.183 39.193 290.301C39.5113 290.419 39.8193 290.586 40.117 290.802C40.4148 291.012 40.6612 291.295 40.8562 291.649C41.0513 291.998 41.1488 292.439 41.1488 292.973C41.1488 293.507 41.041 293.982 40.8254 294.398C40.615 294.813 40.3198 295.163 39.9399 295.445C39.5601 295.722 39.1186 295.933 38.6155 296.076C38.1125 296.225 37.5735 296.3 36.9985 296.3ZM42.764 296.069V284.981H44.1346V289.87H49.9712V284.981H51.3418V296.069H49.9712V291.171H44.1346V296.069H42.764ZM52.7319 296.069L56.4433 284.981H58.3529L62.0643 296.069H60.6398L57.1671 285.781H57.5983L54.1564 296.069H52.7319ZM54.5183 293.474V292.188H60.2779V293.474H54.5183ZM63.4427 296.069V284.981H67.824C67.9318 284.981 68.0602 284.986 68.209 284.996C68.3579 285.001 68.5016 285.016 68.6402 285.042C69.2408 285.135 69.7439 285.34 70.1494 285.658C70.5601 285.976 70.8681 286.379 71.0734 286.867C71.2788 287.35 71.3814 287.886 71.3814 288.476C71.3814 289.334 71.1581 290.078 70.7115 290.709C70.2649 291.336 69.6104 291.728 68.748 291.887L68.2244 291.972H64.8133V296.069H63.4427ZM70.0416 296.069L67.8548 291.556L69.21 291.141L71.6124 296.069H70.0416ZM64.8133 290.671H67.7778C67.8754 290.671 67.9857 290.666 68.1089 290.655C68.2373 290.645 68.3579 290.627 68.4708 290.602C68.825 290.519 69.1125 290.371 69.3332 290.155C69.5591 289.934 69.7234 289.678 69.826 289.385C69.9287 289.087 69.98 288.784 69.98 288.476C69.98 288.168 69.9287 287.868 69.826 287.575C69.7234 287.278 69.5591 287.018 69.3332 286.798C69.1125 286.577 68.825 286.428 68.4708 286.351C68.3579 286.32 68.2373 286.302 68.1089 286.297C67.9857 286.287 67.8754 286.282 67.7778 286.282H64.8133V290.671ZM73.3084 296.069V284.981H80.3154V286.282H74.679V289.755H79.3914V291.056H74.679V294.767H80.3154V296.069H73.3084Z" fill="#F4EDE2"/>
<g clip-path="url(#clip0_1199_4143)">
<path d="M242.416 179.838C240.634 181.619 238.218 182.62 235.698 182.62C233.179 182.62 230.762 181.619 228.981 179.838C227.199 178.056 226.198 175.64 226.198 173.12C226.198 170.601 227.199 168.184 228.981 166.403C230.762 164.621 233.179 163.62 235.698 163.62C238.218 163.62 240.634 164.621 242.416 166.403C244.197 168.184 245.198 170.601 245.198 173.12C245.198 175.64 244.197 178.056 242.416 179.838ZM232.261 174.558H234.261V176.558C234.261 177.353 234.902 177.995 235.698 177.995C236.494 177.995 237.136 177.353 237.136 176.558V174.558H239.136C239.931 174.558 240.573 173.916 240.573 173.12C240.573 172.325 239.931 171.683 239.136 171.683H237.136V169.683C237.136 168.887 236.494 168.245 235.698 168.245C234.902 168.245 234.261 168.887 234.261 169.683V171.683H232.261C231.465 171.683 230.823 172.325 230.823 173.12C230.823 173.916 231.465 174.558 232.261 174.558Z" stroke="#FFFCF8"/>
</g>
<g clip-path="url(#clip1_1199_4143)">
<path d="M362.517 205.084L363.371 205.938V204.73V195.25C363.371 194.835 363.705 194.5 364.121 194.5C364.536 194.5 364.871 194.835 364.871 195.25V204.73V205.939L365.724 205.084L368.588 202.217C368.588 202.217 368.588 202.217 368.588 202.217C368.588 202.217 368.588 202.217 368.588 202.217C368.881 201.924 369.357 201.924 369.65 202.217C369.943 202.51 369.943 202.986 369.65 203.279L364.65 208.279C364.357 208.572 363.881 208.572 363.588 208.279L358.588 203.279C358.295 202.986 358.295 202.51 358.588 202.217C358.881 201.924 359.357 201.924 359.65 202.217L362.517 205.084ZM361.997 209.873L361.998 209.873C363.169 211.045 365.068 211.045 366.24 209.873L367.863 208.25H371.621C372.723 208.25 373.621 209.147 373.621 210.25V211.5C373.621 212.603 372.723 213.5 371.621 213.5H356.621C355.518 213.5 354.621 212.603 354.621 211.5V210.25C354.621 209.147 355.518 208.25 356.621 208.25H360.378L361.997 209.873ZM372.012 209.859C371.743 209.589 371.377 209.437 370.996 209.437C370.614 209.437 370.249 209.589 369.979 209.859C369.71 210.128 369.558 210.494 369.558 210.875C369.558 211.256 369.71 211.622 369.979 211.891C370.249 212.161 370.614 212.312 370.996 212.312C371.377 212.312 371.743 212.161 372.012 211.891C372.282 211.622 372.433 211.256 372.433 210.875C372.433 210.494 372.282 210.128 372.012 209.859Z" stroke="#FFFCF8"/>
</g>
<path d="M369.544 329.741C369.448 329.643 369.35 329.616 369.27 329.621C369.188 329.626 369.083 329.669 368.99 329.792L368.99 329.793L366.838 332.625L366.46 333.123L366.057 332.645L365.194 331.622L365.193 331.62L365.193 331.62C365.029 331.425 364.799 331.425 364.636 331.62C364.428 331.87 364.428 332.303 364.635 332.552L366.199 334.4C366.294 334.511 366.402 334.551 366.497 334.549C366.58 334.548 366.686 334.505 366.779 334.382L366.78 334.381L369.592 330.678L369.544 329.741ZM369.544 329.741L369.546 329.744L369.555 329.754C369.77 329.983 369.796 330.409 369.592 330.678L369.544 329.741ZM366.779 341.788L366.78 341.787L369.592 338.084L366.779 341.788ZM366.779 341.788C366.686 341.911 366.58 341.954 366.497 341.955C366.402 341.957 366.294 341.917 366.198 341.806L364.634 339.957C364.634 339.957 364.634 339.957 364.634 339.957C364.424 339.707 364.426 339.278 364.633 339.035C364.804 338.834 365.033 338.84 365.193 339.031L365.193 339.031M366.779 341.788L365.193 339.031M365.193 339.031L365.194 339.033M365.193 339.031L365.194 339.033M365.194 339.033L366.057 340.056L366.46 340.533M365.194 339.033L366.46 340.533M366.46 340.533L366.838 340.036M366.46 340.533L366.838 340.036M366.838 340.036L368.99 337.203L368.99 337.203M366.838 340.036L368.99 337.203M368.99 337.203C369.083 337.08 369.188 337.037 369.27 337.032C369.352 337.027 369.453 337.055 369.551 337.16L369.591 337.203M368.99 337.203L369.591 337.203M369.591 337.203C369.773 337.439 369.784 337.831 369.592 338.084L369.591 337.203ZM373.228 332.087C373.228 331.461 373.639 331.106 373.978 331.106H382.727C383.066 331.106 383.477 331.461 383.477 332.087C383.477 332.713 383.066 333.068 382.727 333.068H373.978C373.639 333.068 373.228 332.713 373.228 332.087ZM373.228 339.493C373.228 338.867 373.639 338.512 373.978 338.512H382.727C383.066 338.512 383.477 338.867 383.477 339.493C383.477 340.119 383.066 340.474 382.727 340.474H373.978C373.639 340.474 373.228 340.119 373.228 339.493ZM370.728 346.899C370.728 346.273 371.139 345.918 371.478 345.918H382.727C383.066 345.918 383.477 346.273 383.477 346.899C383.477 347.525 383.066 347.88 382.727 347.88H371.478C371.139 347.88 370.728 347.525 370.728 346.899ZM365.854 345.177C366.188 345.177 366.53 345.334 366.797 345.65C367.066 345.969 367.228 346.417 367.228 346.899C367.228 347.38 367.066 347.829 366.797 348.147C366.53 348.464 366.188 348.621 365.854 348.621C365.519 348.621 365.177 348.464 364.91 348.147C364.641 347.829 364.479 347.38 364.479 346.899C364.479 346.417 364.641 345.969 364.91 345.65C365.177 345.334 365.519 345.177 365.854 345.177Z" stroke="#FFFCF8"/>
<path d="M256.072 389.742L255.82 390.088L256.122 390.39L261.068 395.339L261.068 395.339C261.361 395.632 261.361 396.108 261.068 396.401C260.775 396.694 260.299 396.694 260.006 396.401C260.006 396.401 260.006 396.401 260.006 396.401C260.006 396.401 260.006 396.401 260.006 396.401L255.06 391.453L254.757 391.149L254.411 391.403C253.15 392.326 251.597 392.868 249.913 392.868C245.701 392.868 242.288 389.456 242.288 385.244C242.288 381.033 245.701 377.621 249.913 377.621C254.126 377.621 257.539 381.033 257.539 385.244C257.539 386.927 256.993 388.481 256.072 389.742ZM245.351 385.557V388.057C245.351 388.852 245.993 389.494 246.788 389.494C247.584 389.494 248.226 388.852 248.226 388.057V385.557C248.226 384.761 247.584 384.12 246.788 384.12C245.993 384.12 245.351 384.761 245.351 385.557ZM248.476 381.807V388.057C248.476 388.852 249.118 389.494 249.913 389.494C250.709 389.494 251.351 388.852 251.351 388.057V381.807C251.351 381.012 250.709 380.37 249.913 380.37C249.118 380.37 248.476 381.012 248.476 381.807ZM251.601 384.307V388.057C251.601 388.852 252.243 389.494 253.038 389.494C253.834 389.494 254.476 388.852 254.476 388.057V384.307C254.476 383.511 253.834 382.87 253.038 382.87C252.243 382.87 251.601 383.511 251.601 384.307Z" stroke="#FFFCF8"/>
<path d="M166.829 282.333L167.147 282.174L167.102 281.822C167.082 281.673 167.074 281.517 167.074 281.354C167.074 279.264 168.77 277.569 170.86 277.569C172.95 277.569 174.646 279.264 174.646 281.354C174.646 283.444 172.95 285.14 170.86 285.14C169.838 285.14 168.912 284.738 168.235 284.08L167.981 283.833L167.663 283.992L163.463 286.09L163.145 286.249L163.19 286.601C163.209 286.75 163.217 286.902 163.217 287.069C163.217 287.235 163.209 287.387 163.19 287.536L163.145 287.888L163.463 288.047L167.663 290.145L167.981 290.304L168.235 290.057C168.912 289.399 169.838 288.997 170.86 288.997C172.95 288.997 174.646 290.693 174.646 292.783C174.646 294.873 172.95 296.569 170.86 296.569C168.77 296.569 167.074 294.873 167.074 292.783C167.074 292.616 167.082 292.464 167.102 292.315L167.147 291.963L166.829 291.804L162.628 289.706L162.311 289.548L162.056 289.795C161.379 290.452 160.454 290.854 159.431 290.854C157.342 290.854 155.646 289.158 155.646 287.069C155.646 284.979 157.342 283.283 159.431 283.283C160.454 283.283 161.379 283.685 162.056 284.342L162.311 284.589L162.628 284.431L166.829 282.333Z" stroke="#FFFCF8"/>
<circle cx="279.121" cy="277.121" r="154.5" stroke="#333333"/>
<circle cx="148.729" cy="194.277" r="2" fill="#333333"/>
<circle cx="317.442" cy="127.629" r="2" fill="#333333"/>
<circle cx="433.336" cy="268.248" r="2" fill="#333333"/>
<circle cx="336.299" cy="420.681" r="2" fill="#333333"/>
<circle cx="159.902" cy="375.729" r="2" fill="#333333"/>
<circle cx="219.137" cy="134.567" r="3.5" fill="#FFFCF8" stroke="#333333"/>
<circle cx="219.137" cy="134.567" r="2" fill="#333333"/>
<circle cx="403.378" cy="185.121" r="3.5" fill="#FFFCF8" stroke="#333333"/>
<circle cx="403.378" cy="185.121" r="2" fill="#333333"/>
<circle cx="406.788" cy="364.203" r="3.5" fill="#FFFCF8" stroke="#333333"/>
<circle cx="406.788" cy="364.203" r="2" fill="#333333"/>
<circle cx="242.788" cy="427.526" r="3.5" fill="#FFFCF8" stroke="#333333"/>
<circle cx="242.788" cy="427.526" r="2" fill="#333333"/>
<circle cx="125.348" cy="291.069" r="3.5" fill="#FFFCF8" stroke="#333333"/>
<circle cx="125.348" cy="291.069" r="2" fill="#333333"/>
<defs>
<filter id="filter0_d_1199_4143" x="169.121" y="171.121" width="220" height="220" filterUnits="userSpaceOnUse" color-interpolation-filters="sRGB">
<feFlood flood-opacity="0" result="BackgroundImageFix"/>
<feColorMatrix in="SourceAlpha" type="matrix" values="0 0 0 0 0 0 0 0 0 0 0 0 0 0 0 0 0 0 127 0" result="hardAlpha"/>
<feOffset dy="4"/>
<feGaussianBlur stdDeviation="5"/>
<feComposite in2="hardAlpha" operator="out"/>
<feColorMatrix type="matrix" values="0 0 0 0 0 0 0 0 0 0 0 0 0 0 0 0 0 0 0.5 0"/>
<feBlend mode="normal" in2="BackgroundImageFix" result="effect1_dropShadow_1199_4143"/>
<feBlend mode="normal" in="SourceGraphic" in2="effect1_dropShadow_1199_4143" result="shape"/>
</filter>
<filter id="filter1_d_1199_4143" x="179.121" y="181.121" width="200" height="200" filterUnits="userSpaceOnUse" color-interpolation-filters="sRGB">
<feFlood flood-opacity="0" result="BackgroundImageFix"/>
<feColorMatrix in="SourceAlpha" type="matrix" values="0 0 0 0 0 0 0 0 0 0 0 0 0 0 0 0 0 0 127 0" result="hardAlpha"/>
<feOffset dy="4"/>
<feGaussianBlur stdDeviation="5"/>
<feComposite in2="hardAlpha" operator="out"/>
<feColorMatrix type="matrix" values="0 0 0 0 0 0 0 0 0 0 0 0 0 0 0 0 0 0 0.5 0"/>
<feBlend mode="normal" in2="BackgroundImageFix" result="effect1_dropShadow_1199_4143"/>
<feBlend mode="normal" in="SourceGraphic" in2="effect1_dropShadow_1199_4143" result="shape"/>
</filter>
<filter id="filter2_f_1199_4143" x="195.443" y="192.693" width="174.177" height="174.928" filterUnits="userSpaceOnUse" color-interpolation-filters="sRGB">
<feFlood flood-opacity="0" result="BackgroundImageFix"/>
<feBlend mode="normal" in="SourceGraphic" in2="BackgroundImageFix" result="shape"/>
<feGaussianBlur stdDeviation="7.5" result="effect1_foregroundBlur_1199_4143"/>
</filter>
<clipPath id="clip0_1199_4143">
<rect width="20" height="20" fill="white" transform="translate(225.698 163.121)"/>
</clipPath>
<clipPath id="clip1_1199_4143">
<rect width="20" height="20" fill="white" transform="translate(354.121 194)"/>
</clipPath>
</defs>
</svg>
