<svg width="765" height="280" viewBox="0 0 765 280" fill="none" xmlns="http://www.w3.org/2000/svg">
<mask id="mask0_944_1217" style="mask-type:alpha" maskUnits="userSpaceOnUse" x="40" y="40" width="200" height="200">
<circle cx="140" cy="140" r="99.5" fill="#D9D9D9" stroke="black"/>
</mask>
<g mask="url(#mask0_944_1217)">
<rect x="40.164" y="30.3333" width="200" height="200" fill="#060908"/>
<path d="M42.9216 201.93C172.593 190.972 202.368 196.41 199.025 196.5C195.683 196.59 43.4012 212.462 42.9216 214.887V201.93Z" fill="white"/>
<path d="M241.434 200C116.05 208.343 92.1366 211.333 92.1366 211.333C92.1366 211.333 234.997 213.167 237.164 245.667C239.331 278.167 241.434 200 241.434 200Z" fill="white"/>
<path d="M42.5409 59.4407L43.1259 59.4724C44.1914 59.5313 47.0031 59.4519 48.0686 59.335C53.8326 58.7025 58.921 56.6997 63.4413 53.2845C64.563 52.4369 66.8606 50.2796 67.7439 49.2445C70.2329 46.3278 72.4189 41.8701 73.2753 38.371C74.006 35.3851 73.9528 33.0854 73.888 30.2841L73.888 30.2829C73.8769 29.8019 73.8654 29.3057 73.8575 28.789C73.8517 28.4053 73.7612 27.3364 73.7612 27.3364C73.7612 27.3364 73.9274 27.3333 73.1576 27.3333H72.4929L72.5177 27.7659C72.5182 27.815 72.5214 27.9172 72.5254 28.0432C72.5322 28.2623 72.5414 28.5536 72.5425 28.7636C72.5427 28.7867 72.5455 28.8809 72.5499 29.0298L72.5499 29.0312C72.5778 29.9716 72.6699 33.0806 72.5654 34.2363C72.1294 39.0629 70.2316 43.7186 67.132 47.5657C63.014 52.6768 57.0906 56.2114 50.5155 57.4809C48.4007 57.8892 47.4108 57.9762 44.8609 57.9777L42.541 57.979L42.5409 59.4407Z" fill="white"/>
<path fill-rule="evenodd" clip-rule="evenodd" d="M93.0841 176.691L95.8462 190.837L42.9216 200C120.986 192.178 163.437 190.205 241.434 193L241.807 173.856L231.78 175.068L212.465 177.211L193.15 179.353L199.025 139.485C199.025 139.485 201.664 139.291 204.835 139.105C208.007 138.918 210.611 138.765 210.622 138.764C210.748 138.756 210.043 137.867 206.324 133.344C201.814 127.861 192.794 116.887 188.157 111.243C186.671 109.433 185.423 107.934 185.384 107.912C185.346 107.889 181.977 108.079 177.899 108.333C173.821 108.587 170.455 108.767 170.419 108.734C170.383 108.7 170.344 107.496 170.332 106.056L170.31 103.44H163.54L163.458 109.218L160.898 109.384C159.49 109.475 158.311 109.525 158.278 109.496C158.244 109.467 158.207 107.902 158.195 106.018L158.173 102.593H150.495L150.413 109.988L149.917 110.047C149.645 110.079 144.87 110.385 139.308 110.725C133.745 111.066 123.163 111.718 115.792 112.174L102.39 113.004L87.4107 126.981C79.1723 134.669 72.431 140.998 72.431 141.046C72.431 141.173 73.4796 141.21 80.8525 141.347C84.4172 141.414 87.4915 141.485 87.6843 141.507C87.9597 141.537 88.0437 141.582 88.0758 141.714C88.0984 141.807 88.2494 142.906 88.4114 144.155C88.7741 146.953 89.7948 154.768 90.0164 156.443C90.106 157.121 90.5688 160.657 91.0448 164.301C91.2927 166.199 91.7226 168.623 92.1364 170.957C92.5174 173.106 92.8849 175.178 93.0841 176.691Z" fill="white"/>
<path fill-rule="evenodd" clip-rule="evenodd" d="M92.3766 66.5929C96.1652 70.128 100.982 72.1859 106.395 72.5823C108.178 72.7129 110.597 72.5479 112.557 72.1618C118.3 71.0303 123.501 67.6046 126.623 62.8955C128.898 59.4648 130.038 55.4458 129.884 51.3941C129.765 48.2762 129.096 45.8064 127.599 42.9572C124.701 37.4423 119.048 33.3194 112.606 32.0214C109.686 31.4333 106.236 31.421 103.414 31.9886C99.3229 32.8114 95.6852 34.6069 92.7189 37.2675C91.4778 38.3808 90.5884 39.3759 89.5968 40.7609C87.8725 43.1691 86.6996 45.957 86.2057 48.8214C85.0798 55.3512 87.3569 61.909 92.3766 66.5929ZM110.845 70.9567C116.196 70.2242 121.044 67.5197 124.278 63.463C126.283 60.9474 127.519 58.2047 128.101 54.9752C128.313 53.8027 128.313 50.4459 128.102 49.2024C127.549 45.9454 126.061 42.7867 123.858 40.1953C122.748 38.8894 120.833 37.2404 119.288 36.2617C112.601 32.0235 103.521 31.9778 96.7426 36.1484C95.0604 37.1834 93.3094 38.6693 92.0184 40.1575C89.7557 42.766 88.2511 45.9871 87.6889 49.4267C87.5166 50.481 87.4908 53.3681 87.6454 54.3072C87.8412 55.4969 88.003 56.2287 88.0967 56.3484C88.1837 56.4594 88.2956 56.4544 89.3855 56.2914C90.042 56.1932 90.6113 56.1323 90.6507 56.1559C90.6901 56.1796 90.8197 56.5162 90.9388 56.904C92.2087 61.0398 95.552 64.6341 100.125 66.7801C101.056 67.2166 102.9 67.8669 104.125 68.1897C104.765 68.3585 105.304 68.5109 105.322 68.5284C105.341 68.5459 105.243 69.0041 105.105 69.5466C104.967 70.0891 104.854 70.5998 104.854 70.6816C104.854 70.8572 104.933 70.8832 105.786 70.9873C106.143 71.0309 106.545 71.0811 106.678 71.099C107.176 71.1655 110.033 71.0679 110.845 70.9567Z" fill="white"/>
<path fill-rule="evenodd" clip-rule="evenodd" d="M147.644 93.2517C143.691 92.7808 140.375 90.8944 138.219 87.8912C136.877 86.0204 136.181 83.9851 136.092 81.6683C136.039 80.2696 136.135 79.3788 136.471 78.1658C138.058 72.4323 144.002 68.5504 150.273 69.1537C157.985 69.8958 163.285 76.6047 161.733 83.6599C160.851 87.6673 157.647 91.1397 153.521 92.559C152.063 93.0606 150.526 93.3052 148.926 93.2901C148.353 93.2847 147.776 93.2674 147.644 93.2517ZM156.882 88.8569C155.295 90.2794 153.459 91.1906 151.406 91.5737C150.967 91.6555 150.365 91.7455 150.069 91.7737C149.409 91.8362 149.379 91.7956 149.551 91.0795C149.618 90.8021 149.656 90.5506 149.636 90.5207C149.616 90.4907 149.448 90.4302 149.263 90.3861C147.831 90.0458 145.902 89.2971 144.81 88.658C142.317 87.1987 140.411 84.9597 139.576 82.5105L139.325 81.7721L138.624 81.8434C138.039 81.9033 137.83 81.9247 137.742 81.8385C137.693 81.7904 137.682 81.709 137.665 81.582L137.664 81.5723C137.662 81.5586 137.66 81.5443 137.658 81.5295C137.579 80.9665 137.73 79.5351 137.963 78.6516C138.473 76.7128 139.427 75.1379 140.952 73.7158C142.632 72.1491 144.47 71.2184 146.803 70.7521C147.762 70.5604 150.324 70.5604 151.265 70.752C155.373 71.5891 158.629 74.3068 159.886 77.9479C160.315 79.1918 160.451 80.1694 160.396 81.6043C160.329 83.3537 160.055 84.363 159.219 85.9398C158.628 87.0555 157.956 87.8949 156.882 88.8569Z" fill="white"/>
<path d="M47.9973 224.113C61.7629 202.183 204.835 225.333 204.835 225.333C204.835 225.333 186.98 250.075 186.5 252.5C186.5 252.5 34.2317 246.043 47.9973 224.113Z" fill="white"/>
</g>
<path d="M295.442 160.9C296.419 161.138 297.419 161.385 297.663 161.449C298.563 161.686 306.554 161.395 307.889 161.077C309.634 160.66 311.694 159.865 312.113 159.446C312.368 159.191 312.446 158.548 312.446 156.697C312.446 155.287 312.351 154.222 312.219 154.139C312.093 154.062 311.218 154.247 310.273 154.55C307.078 155.576 304.429 156.025 301.553 156.025C294.066 156.027 289.854 151.723 288.899 143.092C288.578 140.192 288.598 138.355 288.982 135.455C289.57 131.015 290.704 128.382 293.007 126.107C293.773 125.35 294.914 124.499 295.579 124.188C299.215 122.488 303.801 122.479 308.945 124.161C309.893 124.471 310.78 124.687 310.916 124.642C311.269 124.524 312.921 120.018 312.777 119.565C312.57 118.913 309.894 118.106 305.862 117.479C303.006 117.035 300.966 117.037 298.134 117.486C291.905 118.475 287.656 121.368 284.897 126.499C282.334 131.268 281.361 138.521 282.426 144.917C282.982 148.255 283.58 150.147 284.843 152.557C287.043 156.756 290.904 159.794 295.442 160.9Z" fill="#060908"/>
<path d="M372.309 153.646C373.604 158.046 376.305 160.463 381.027 161.446C382.213 161.693 386.85 161.562 388.423 161.237C391.035 160.698 390.919 160.842 390.919 158.112V155.762L390.086 155.91C389.627 155.992 387.891 156.112 386.228 156.177C383.277 156.293 383.177 156.282 382.031 155.701C380.571 154.961 379.702 154.053 378.946 152.476L378.359 151.253L378.296 137.266C378.245 126.056 378.289 123.243 378.518 123.098C378.675 122.998 381.419 122.915 384.615 122.913C389.708 122.91 390.444 122.866 390.562 122.558C390.812 121.907 390.709 118.564 390.43 118.285C390.237 118.092 388.621 118.019 384.557 118.019C381.474 118.019 378.793 117.958 378.6 117.884C378.295 117.767 378.248 117.153 378.248 113.312C378.248 110.679 378.154 108.7 378.018 108.445C377.828 108.09 377.547 108.016 376.406 108.018C375.646 108.02 374.914 108.095 374.78 108.185C374.365 108.462 374.123 109.112 373.024 112.906C372.34 115.264 371.793 116.742 371.492 117.045C371.234 117.304 369.923 117.996 368.578 118.582C367.233 119.168 366.003 119.747 365.845 119.868C365.651 120.018 365.579 120.532 365.623 121.444L365.688 122.798L368.452 122.861C369.973 122.895 371.343 123.028 371.497 123.156C371.716 123.338 371.795 126.569 371.855 137.877C371.923 150.704 371.975 152.511 372.309 153.646Z" fill="#060908"/>
<path d="M404.11 159.183C405.368 160.177 406.205 160.579 408.259 161.174C409.478 161.526 410.243 161.577 413.149 161.498C416.244 161.413 418.323 161.102 419.132 160.602C419.282 160.509 419.374 159.558 419.374 158.107V155.762L418.54 155.91C418.082 155.992 416.345 156.112 414.68 156.177C411.743 156.293 411.616 156.278 410.403 155.705C408.365 154.74 407.149 152.873 406.708 150.03C406.577 149.186 406.483 143.305 406.482 135.882C406.481 124.503 406.517 123.165 406.832 123.044C407.025 122.97 409.816 122.909 413.033 122.909C418.161 122.909 418.898 122.866 419.017 122.558C419.267 121.907 419.163 118.564 418.885 118.285C418.691 118.092 417.032 118.019 412.816 118.019C408.6 118.019 406.941 117.946 406.747 117.752C406.557 117.562 406.48 116.196 406.48 113.017C406.48 109.838 406.403 108.472 406.214 108.282C405.862 107.93 403.557 107.938 403.077 108.293C402.853 108.459 402.213 110.219 401.487 112.669C400.797 114.999 400.101 116.927 399.875 117.138C399.657 117.342 398.478 117.935 397.255 118.456C393.903 119.884 393.999 119.794 394.077 121.421L394.143 122.798L397.033 122.909L399.922 123.021L400.051 137.026C400.136 146.192 400.269 151.491 400.438 152.365C401.021 155.384 402.293 157.747 404.11 159.183Z" fill="#060908"/>
<path d="M701.143 161.127C702.121 161.279 703.071 161.439 703.255 161.483C703.438 161.527 705.689 161.528 708.256 161.485C711.952 161.424 713.272 161.319 714.592 160.979C721.313 159.252 724.818 155.23 724.818 149.246C724.818 143.506 721.891 140.446 713.147 137.043C705.488 134.062 703.846 133.276 702.348 131.875C700.407 130.059 700.018 127.479 701.39 125.514C702.61 123.765 706.2 122.462 709.786 122.466C712.312 122.469 715.993 123.208 719.525 124.423C721.818 125.211 721.656 125.308 722.933 122.391C723.575 120.925 723.736 120.338 723.568 120.072C723.326 119.689 720.476 118.658 718.166 118.118C715.9 117.589 712.227 117.13 710.274 117.13C706.904 117.132 702.088 118.19 699.992 119.39C695.949 121.704 694.012 125.519 694.576 130.061C695.024 133.679 697.309 136.378 701.768 138.559C703.136 139.228 705.677 140.327 707.414 141.001C711.378 142.538 714.82 144.215 716.255 145.309C718.54 147.05 719.256 149.767 718.096 152.3C717.292 154.056 715.635 155.19 712.801 155.925C711.636 156.226 710.626 156.277 707.368 156.195C702.934 156.083 700.848 155.668 697.003 154.131C695.948 153.71 694.973 153.365 694.835 153.365C694.663 153.365 694.585 154.231 694.585 156.138C694.585 158.846 694.598 158.921 695.136 159.274C696.002 159.841 699.189 160.824 701.143 161.127Z" fill="#060908"/>
<path d="M582.817 130.023C582.783 146.468 582.811 160.151 582.878 160.429C582.999 160.93 583.037 160.935 586.051 160.874L589.102 160.812V130.468V100.123H585.99H582.878L582.817 130.023Z" fill="#060908"/>
<path fill-rule="evenodd" clip-rule="evenodd" d="M336.344 161.455C336.099 161.395 335.249 161.192 334.454 161.006C332.527 160.554 329.789 159.216 327.968 157.834C324.654 155.321 322.226 151.217 320.953 145.976C320.388 143.651 320.386 135.124 320.951 132.638C321.945 128.258 323.612 125.034 326.221 122.445C329.03 119.657 332.073 118.178 336.455 117.472C339.131 117.04 341.208 117.039 343.706 117.469C346.249 117.906 347.513 118.318 349.587 119.384C354.445 121.883 357.735 126.586 359.154 133.058C359.55 134.862 359.634 135.971 359.634 139.36C359.635 145.848 358.7 149.644 356.13 153.587C353.785 157.184 350.56 159.563 346.302 160.837C344.589 161.35 343.878 161.431 340.568 161.494C338.489 161.533 336.588 161.516 336.344 161.455ZM353.121 139.414C353.093 148.652 349.85 154.305 343.651 155.919C341.876 156.382 338.088 156.339 336.222 155.835C331.515 154.564 328.706 151.089 327.426 144.954C326.978 142.81 326.918 136.57 327.323 134.358C328.651 127.102 331.995 123.548 338.284 122.708C342.209 122.184 346.455 123.503 348.904 126.006C351.644 128.808 353.139 133.558 353.121 139.414Z" fill="#060908"/>
<path fill-rule="evenodd" clip-rule="evenodd" d="M433.935 161.165C432.015 160.682 430.996 160.251 429.759 159.4C426.492 157.153 424.932 153.901 424.932 149.343C424.932 143.512 427.557 139.754 433.131 137.605C436.791 136.193 440.311 135.66 447.274 135.461C450.554 135.368 452.496 135.225 452.693 135.063C452.938 134.862 452.976 134.223 452.879 131.917C452.712 127.964 452.044 126.147 450.145 124.48C448.943 123.424 447.772 122.969 445.486 122.667C443.797 122.443 443.139 122.46 441.16 122.774C438.556 123.188 438.244 123.276 434.935 124.526C433.064 125.233 432.259 125.57 431.75 125.316C431.322 125.102 431.103 124.472 430.636 123.295C429.948 121.563 429.828 121.059 430.04 120.803C430.421 120.344 434.49 118.798 436.714 118.268C442.088 116.987 446.544 116.958 450.941 118.175C453.968 119.013 456.626 121.215 457.839 123.889C459.161 126.804 459.175 127.03 459.112 144.714L459.055 160.812L456.9 160.875C455.018 160.931 454.717 160.888 454.533 160.542C454.355 160.207 453.922 158.294 453.45 155.755C453.28 154.846 452.677 154.99 451.709 156.17C451.247 156.734 450.148 157.769 449.268 158.468C446.448 160.709 443.341 161.601 438.446 161.574C436.408 161.562 435.008 161.436 433.935 161.165ZM451.39 150.235C450.075 152.819 448.027 154.516 444.917 155.599C443.216 156.191 442.791 156.248 440.159 156.241C437.095 156.233 436.023 156.005 434.508 155.038C433.397 154.328 432.815 153.647 432.223 152.362C431.798 151.439 431.712 150.88 431.712 149.03C431.712 147.064 431.781 146.665 432.312 145.584C434.244 141.651 438.634 140.162 448.829 139.982L452.608 139.916L452.67 143.083C452.739 146.619 452.472 148.106 451.39 150.235Z" fill="#060908"/>
<path fill-rule="evenodd" clip-rule="evenodd" d="M473.068 177.747C475.408 178.991 477.001 179.442 480.73 179.914C484.742 180.423 488.822 180.279 493.474 179.466C499.58 178.399 504.065 175.624 506.017 171.705C506.894 169.946 507.24 168.25 507.245 165.703C507.253 161.812 506.386 159.601 504.023 157.477C501.073 154.824 497.316 154.04 487.51 154.027C484.82 154.024 482.227 153.93 481.747 153.819C480.751 153.588 479.96 153.054 479.298 152.167C478.18 150.668 479.146 147.891 481.376 146.196L482.619 145.251L485.731 145.32C489.383 145.402 491.864 145.037 494.446 144.038C497.412 142.89 500.191 140.435 501.377 137.915C502.444 135.647 502.594 134.893 502.61 131.69C502.627 128.224 502.403 127.234 501.045 124.763C500.631 124.009 500.292 123.332 500.292 123.257C500.292 122.962 501.41 122.73 504.042 122.476C504.185 122.463 504.322 122.449 504.455 122.437C506.508 122.241 507.332 122.162 507.647 121.72C507.859 121.424 507.841 120.964 507.812 120.196C507.81 120.122 507.807 120.046 507.804 119.966L507.739 118.13L500.07 118.003C494.288 117.907 491.908 117.784 490.4 117.503C487.797 117.019 485.787 117.032 482.935 117.551C479.983 118.088 477.926 118.871 476.164 120.128C473.07 122.336 471.55 125.088 470.933 129.6C470.195 135.004 472.365 140.343 476.385 143.011C477.052 143.454 477.652 143.905 477.719 144.014C477.786 144.122 477.216 144.731 476.451 145.367C473.902 147.486 473.017 149.379 473.224 152.267C473.312 153.494 473.473 154.005 474.061 154.922C474.462 155.546 475.126 156.314 475.537 156.627C475.947 156.94 476.283 157.323 476.283 157.478C476.283 157.633 475.758 157.929 475.116 158.136C471.758 159.22 468.93 161.869 467.988 164.813C466.357 169.911 468.476 175.306 473.068 177.747ZM490.826 140.371C492.416 139.868 493.988 138.778 494.778 137.63C496.238 135.508 496.823 132.031 496.215 129.093C495.374 125.023 493.602 123.1 489.872 122.207C484.762 120.984 480.11 122.676 478.172 126.461C476.815 129.112 476.843 133.897 478.232 136.581C479.234 138.517 481.758 140.249 484.238 140.702C485.72 140.972 489.529 140.781 490.826 140.371ZM498.671 171.723C497.28 172.934 494.49 174.192 492.067 174.701C489.054 175.333 481.784 175.325 479.547 174.687C477.493 174.101 476.421 173.521 475.277 172.377C474.283 171.383 473.616 169.786 473.616 168.4C473.616 166.3 476.996 162.623 480.724 160.668L482.144 159.923L487.346 159.856C497.176 159.729 500.053 160.678 500.979 164.354C501.596 166.805 500.574 170.065 498.671 171.723Z" fill="#060908"/>
<path fill-rule="evenodd" clip-rule="evenodd" d="M531.192 161.452C525.965 160.49 523.465 159.253 520.292 156.056C517.965 153.711 516.839 151.866 515.731 148.582C513.959 143.33 514.142 134.75 516.144 129.229C517.726 124.866 521.09 120.943 524.857 119.067C530.358 116.328 538.044 116.628 542.908 119.771C546.411 122.036 548.866 125.694 550.093 130.478C550.595 132.435 550.978 138.663 550.672 139.884L550.524 140.471L536.134 140.475C528.145 140.477 521.606 140.566 521.433 140.675C521.185 140.832 521.153 141.253 521.275 142.728C521.852 149.675 525.634 154.461 531.526 155.698C535.593 156.552 542.651 155.7 547.367 153.786C548.379 153.375 548.606 153.346 548.772 153.608C548.881 153.78 548.971 154.994 548.973 156.305C548.975 157.668 548.994 158.338 548.687 158.78C548.368 159.238 547.699 159.452 546.296 159.942C542.926 161.12 540.97 161.419 536.194 161.489C533.749 161.525 531.498 161.508 531.192 161.452ZM543.532 131.587C543.933 133.866 543.949 134.739 543.597 135.092C543.397 135.292 540.624 135.358 532.486 135.358H521.642L521.5 134.792C520.968 132.674 523.339 127.298 525.735 125.188C528.007 123.189 531.484 122.215 534.749 122.663C539.559 123.323 542.626 126.44 543.532 131.587Z" fill="#060908"/>
<path fill-rule="evenodd" clip-rule="evenodd" d="M610.221 161.446C605.289 160.419 602.291 158.086 600.759 154.084C600.159 152.517 599.901 147.924 600.307 146.032C600.61 144.617 601.62 142.553 602.613 141.317C603.574 140.121 606.151 138.435 608.263 137.622C611.957 136.198 615.508 135.662 622.67 135.447C625.237 135.37 627.525 135.208 627.753 135.089C628.133 134.889 628.159 134.636 628.064 132.058C627.924 128.215 627.389 126.608 625.681 124.897C624.66 123.874 624.181 123.579 622.892 123.177C620.802 122.524 618.474 122.394 616.012 122.792C613.805 123.149 610.633 124.106 608.527 125.051C607.581 125.476 607.075 125.595 606.841 125.447C606.422 125.183 604.92 121.429 605.074 121.029C605.333 120.353 610.05 118.56 613.222 117.932C615.888 117.405 619.153 117.111 620.749 117.256C628.608 117.971 632.216 120.485 633.808 126.355C634.204 127.818 634.23 128.901 634.23 144.362V160.812L632.096 160.875C630.556 160.921 629.902 160.859 629.746 160.653C629.542 160.382 628.973 158.014 628.675 156.188C628.448 154.805 628.046 154.916 626.059 156.911C623.414 159.566 621.085 160.798 617.654 161.355C616.285 161.577 611.151 161.64 610.221 161.446ZM627.012 149.191C625.935 152.049 623.279 154.524 620.113 155.621C618.924 156.033 618.097 156.133 615.445 156.187C611.49 156.267 610.446 155.953 608.632 154.139C607.127 152.634 606.681 151.246 606.821 148.496C606.975 145.476 608.246 143.503 610.956 142.076C613.603 140.683 616.886 140.135 623.936 139.909C627.465 139.796 627.66 139.812 627.882 140.227C628.45 141.287 627.915 146.798 627.012 149.191Z" fill="#060908"/>
<path fill-rule="evenodd" clip-rule="evenodd" d="M663.685 161.245C660.59 160.58 658.427 159.426 656.085 157.188C655.134 156.28 654.226 155.587 654.066 155.648C653.907 155.71 653.54 156.746 653.25 157.952C652.835 159.685 652.707 160.42 652.277 160.718C651.912 160.971 651.329 160.91 650.168 160.875L648.012 160.812L647.956 130.406L647.9 100L651.068 100.062L654.237 100.123L654.241 111.613C654.244 117.933 654.305 123.163 654.377 123.235C654.449 123.307 655.247 122.632 656.151 121.735C658.728 119.176 661.17 118.036 665.296 117.466C667.707 117.133 668.11 117.133 670.52 117.466C674.899 118.071 677.489 119.359 680.281 122.32C682.25 124.408 683.49 126.641 684.433 129.801C686.553 136.901 685.966 146.802 683.081 152.587C681.29 156.18 678.142 159.153 674.67 160.53C672.066 161.563 666.772 161.907 663.685 161.245ZM679.019 139.34C679.005 148.642 676.114 154.321 670.618 155.845C668.83 156.341 665.099 156.372 663.178 155.906C661.225 155.433 659.491 154.49 658.193 153.196C655.572 150.581 654.341 146.161 654.355 139.417C654.378 128.606 657.235 123.939 664.537 122.783C666.588 122.458 666.999 122.455 668.749 122.757C671.644 123.256 673.052 123.867 674.593 125.293C676.224 126.804 677.201 128.429 677.967 130.912C678.713 133.328 679.025 135.824 679.019 139.34Z" fill="#060908"/>
<circle cx="140" cy="140" r="99.5" stroke="black"/>
</svg>
