<svg width="571" height="571" viewBox="0 0 571 571" fill="none" xmlns="http://www.w3.org/2000/svg">
<g filter="url(#filter0_d_740_14869)">
<path d="M536.35 282.25C536.35 422.586 422.586 536.35 282.25 536.35C141.915 536.35 28.1504 422.586 28.1504 282.25C28.1504 141.915 141.915 28.1504 282.25 28.1504C422.586 28.1504 536.35 141.915 536.35 282.25ZM167.905 282.25C167.905 345.401 219.099 396.595 282.25 396.595C345.401 396.595 396.595 345.401 396.595 282.25C396.595 219.099 345.401 167.905 282.25 167.905C219.099 167.905 167.905 219.099 167.905 282.25Z" fill="#F4EDE2"/>
</g>
<g filter="url(#filter1_d_740_14869)">
<path d="M453.582 70.672C482.486 94.0779 506.288 123.158 523.519 156.118C540.75 189.078 551.045 225.218 553.769 262.311L418.009 272.28C416.647 253.734 411.5 235.664 402.884 219.184C394.269 202.704 382.368 188.164 367.916 176.461L453.582 70.672Z" fill="url(#paint0_radial_740_14869)"/>
</g>
<g filter="url(#filter2_d_740_14869)">
<path d="M216.387 18.087C252.474 9.08935 290.023 7.58127 326.716 13.6557C363.408 19.7302 398.468 33.2584 429.73 53.4058L355.99 167.828C340.359 157.754 322.829 150.99 304.483 147.953C286.136 144.916 267.362 145.67 249.318 150.168L216.387 18.087Z" fill="url(#paint1_radial_740_14869)"/>
</g>
<g filter="url(#filter3_d_740_14869)">
<path d="M33.5373 171.516C48.6647 137.539 70.5934 107.022 97.9705 81.8475C125.348 56.673 157.593 37.3748 192.716 25.1435L237.483 153.697C219.921 159.812 203.799 169.461 190.11 182.049C176.422 194.636 165.457 209.895 157.894 226.883L33.5373 171.516Z" fill="url(#paint2_radial_740_14869)"/>
</g>
<g filter="url(#filter4_d_740_14869)">
<path d="M39.6735 405.849C22.7885 372.71 12.8725 336.464 10.5372 299.345C8.2019 262.226 13.4968 225.022 26.0952 190.029L154.173 236.139C147.873 253.636 145.226 272.238 146.394 290.797C147.561 309.357 152.519 327.48 160.962 344.049L39.6735 405.849Z" fill="url(#paint3_radial_740_14869)"/>
</g>
<g filter="url(#filter5_d_740_14869)">
<path d="M225.646 548.551C189.266 540.818 154.857 525.713 124.541 504.169C94.2242 482.624 68.6437 455.096 49.3771 423.283L165.814 352.766C175.447 368.673 188.237 382.437 203.395 393.209C218.554 403.982 235.758 411.534 253.948 415.4L225.646 548.551Z" fill="url(#paint4_radial_740_14869)"/>
</g>
<g filter="url(#filter6_d_740_14869)">
<path d="M453.582 493.828C424.679 517.234 391.286 534.469 355.463 544.471C319.641 554.473 282.15 557.029 245.301 551.981L263.776 417.116C282.2 419.639 300.946 418.361 318.857 413.361C336.768 408.36 353.464 399.742 367.916 388.039L453.582 493.828Z" fill="url(#paint5_radial_740_14869)"/>
</g>
<g filter="url(#filter7_d_740_14869)">
<path d="M554.5 282.25C554.5 319.442 546.88 356.24 532.109 390.374C517.338 424.507 495.73 455.252 468.618 480.712L375.434 381.481C388.99 368.751 399.794 353.378 407.179 336.312C414.565 319.245 418.375 300.846 418.375 282.25H554.5Z" fill="url(#paint6_radial_740_14869)"/>
</g>
<g filter="url(#filter8_d_740_14869)">
<circle cx="282.25" cy="282.25" r="96.195" fill="#FFFCF8"/>
</g>
<path d="M222.21 275.35V256.87H229.417C231.037 256.87 232.418 257.125 233.562 257.635C234.706 258.146 235.586 258.885 236.202 259.853C236.818 260.821 237.126 261.974 237.126 263.311C237.126 264.649 236.818 265.802 236.202 266.77C235.586 267.72 234.706 268.459 233.562 268.987C232.418 269.498 231.037 269.753 229.417 269.753H223.662L224.85 268.512V275.35H222.21ZM224.85 268.776L223.662 267.456H229.338C231.028 267.456 232.304 267.095 233.166 266.374C234.046 265.652 234.486 264.631 234.486 263.311C234.486 261.991 234.046 260.97 233.166 260.249C232.304 259.527 231.028 259.166 229.338 259.166H223.662L224.85 257.846V268.776ZM241.005 275.35V256.87H248.212C249.831 256.87 251.213 257.125 252.357 257.635C253.501 258.146 254.381 258.885 254.997 259.853C255.613 260.821 255.921 261.974 255.921 263.311C255.921 264.649 255.613 265.802 254.997 266.77C254.381 267.72 253.501 268.45 252.357 268.961C251.213 269.471 249.831 269.726 248.212 269.726H242.457L243.645 268.512V275.35H241.005ZM253.36 275.35L248.661 268.644H251.486L256.238 275.35H253.36ZM243.645 268.776L242.457 267.482H248.133C249.822 267.482 251.098 267.122 251.961 266.4C252.841 265.661 253.281 264.631 253.281 263.311C253.281 261.991 252.841 260.97 251.961 260.249C251.098 259.527 249.822 259.166 248.133 259.166H242.457L243.645 257.846V268.776ZM268.528 275.561C267.12 275.561 265.809 275.323 264.595 274.848C263.398 274.373 262.36 273.713 261.48 272.868C260.6 272.006 259.913 271.002 259.42 269.858C258.928 268.714 258.681 267.465 258.681 266.11C258.681 264.754 258.928 263.505 259.42 262.361C259.913 261.217 260.6 260.222 261.48 259.378C262.36 258.515 263.398 257.846 264.595 257.371C265.792 256.896 267.103 256.658 268.528 256.658C269.936 256.658 271.23 256.896 272.409 257.371C273.606 257.829 274.644 258.489 275.524 259.351C276.422 260.196 277.108 261.19 277.584 262.334C278.076 263.478 278.323 264.737 278.323 266.11C278.323 267.482 278.076 268.741 277.584 269.885C277.108 271.029 276.422 272.032 275.524 272.894C274.644 273.739 273.606 274.399 272.409 274.874C271.23 275.332 269.936 275.561 268.528 275.561ZM268.528 273.211C269.549 273.211 270.491 273.035 271.353 272.683C272.233 272.331 272.99 271.838 273.624 271.205C274.275 270.554 274.776 269.797 275.128 268.934C275.498 268.072 275.683 267.13 275.683 266.11C275.683 265.089 275.498 264.147 275.128 263.285C274.776 262.422 274.275 261.674 273.624 261.041C272.99 260.39 272.233 259.888 271.353 259.536C270.491 259.184 269.549 259.008 268.528 259.008C267.49 259.008 266.531 259.184 265.651 259.536C264.788 259.888 264.032 260.39 263.38 261.041C262.729 261.674 262.219 262.422 261.849 263.285C261.497 264.147 261.321 265.089 261.321 266.11C261.321 267.13 261.497 268.072 261.849 268.934C262.219 269.797 262.729 270.554 263.38 271.205C264.032 271.838 264.788 272.331 265.651 272.683C266.531 273.035 267.49 273.211 268.528 273.211ZM284.347 275.561C283.256 275.561 282.235 275.332 281.285 274.874C280.334 274.417 279.56 273.757 278.962 272.894L280.493 271.099C281.003 271.803 281.575 272.349 282.209 272.736C282.86 273.106 283.573 273.29 284.347 273.29C286.459 273.29 287.515 272.041 287.515 269.542V259.166H280.836V256.87H290.129V269.41C290.129 271.469 289.636 273.009 288.65 274.03C287.682 275.05 286.248 275.561 284.347 275.561ZM297.909 264.842H307.413V267.086H297.909V264.842ZM298.146 273.053H308.918V275.35H295.506V256.87H308.548V259.166H298.146V273.053ZM321.43 275.561C320.022 275.561 318.719 275.332 317.523 274.874C316.343 274.399 315.314 273.739 314.434 272.894C313.571 272.032 312.894 271.029 312.401 269.885C311.908 268.741 311.662 267.482 311.662 266.11C311.662 264.737 311.908 263.478 312.401 262.334C312.894 261.19 313.58 260.196 314.46 259.351C315.34 258.489 316.37 257.829 317.549 257.371C318.746 256.896 320.048 256.658 321.456 256.658C322.882 256.658 324.193 256.905 325.39 257.398C326.604 257.873 327.634 258.586 328.479 259.536L326.763 261.199C326.059 260.46 325.267 259.914 324.387 259.562C323.507 259.193 322.565 259.008 321.562 259.008C320.523 259.008 319.555 259.184 318.658 259.536C317.778 259.888 317.012 260.381 316.361 261.014C315.71 261.648 315.199 262.405 314.83 263.285C314.478 264.147 314.302 265.089 314.302 266.11C314.302 267.13 314.478 268.081 314.83 268.961C315.199 269.823 315.71 270.571 316.361 271.205C317.012 271.838 317.778 272.331 318.658 272.683C319.555 273.035 320.523 273.211 321.562 273.211C322.565 273.211 323.507 273.035 324.387 272.683C325.267 272.314 326.059 271.75 326.763 270.994L328.479 272.657C327.634 273.607 326.604 274.329 325.39 274.822C324.193 275.314 322.873 275.561 321.43 275.561ZM335.708 275.35V259.166H329.372V256.87H344.658V259.166H338.322V275.35H335.708ZM211.988 307.35V288.87H214.628V305.053H224.634V307.35H211.988ZM227.663 307.35V288.87H230.303V307.35H227.663ZM238.212 297.608H247.742V299.878H238.212V297.608ZM238.476 307.35H235.836V288.87H248.877V291.166H238.476V307.35ZM254.996 296.842H264.5V299.086H254.996V296.842ZM255.233 305.053H266.005V307.35H252.593V288.87H265.635V291.166H255.233V305.053ZM278.517 307.561C277.109 307.561 275.806 307.332 274.61 306.874C273.43 306.399 272.401 305.739 271.521 304.894C270.658 304.032 269.981 303.029 269.488 301.885C268.995 300.741 268.749 299.482 268.749 298.11C268.749 296.737 268.995 295.478 269.488 294.334C269.981 293.19 270.667 292.196 271.547 291.351C272.427 290.489 273.457 289.829 274.636 289.371C275.833 288.896 277.135 288.658 278.543 288.658C279.969 288.658 281.28 288.905 282.477 289.398C283.691 289.873 284.721 290.586 285.566 291.536L283.85 293.199C283.146 292.46 282.354 291.914 281.474 291.562C280.594 291.193 279.652 291.008 278.649 291.008C277.61 291.008 276.642 291.184 275.745 291.536C274.865 291.888 274.099 292.381 273.448 293.014C272.797 293.648 272.286 294.405 271.917 295.285C271.565 296.147 271.389 297.089 271.389 298.11C271.389 299.13 271.565 300.081 271.917 300.961C272.286 301.823 272.797 302.571 273.448 303.205C274.099 303.838 274.865 304.331 275.745 304.683C276.642 305.035 277.61 305.211 278.649 305.211C279.652 305.211 280.594 305.035 281.474 304.683C282.354 304.314 283.146 303.75 283.85 302.994L285.566 304.657C284.721 305.607 283.691 306.329 282.477 306.822C281.28 307.314 279.96 307.561 278.517 307.561ZM293.484 307.35V300.274L294.091 301.911L286.145 288.87H288.97L295.649 299.878H294.118L300.823 288.87H303.437L295.517 301.911L296.098 300.274V307.35H293.484ZM313.579 307.561C312.171 307.561 310.869 307.332 309.672 306.874C308.493 306.399 307.463 305.739 306.583 304.894C305.721 304.032 305.043 303.029 304.551 301.885C304.058 300.741 303.811 299.482 303.811 298.11C303.811 296.737 304.058 295.478 304.551 294.334C305.043 293.19 305.73 292.196 306.61 291.351C307.49 290.489 308.519 289.829 309.699 289.371C310.895 288.896 312.198 288.658 313.606 288.658C315.031 288.658 316.343 288.905 317.539 289.398C318.754 289.873 319.783 290.586 320.628 291.536L318.912 293.199C318.208 292.46 317.416 291.914 316.536 291.562C315.656 291.193 314.715 291.008 313.711 291.008C312.673 291.008 311.705 291.184 310.807 291.536C309.927 291.888 309.162 292.381 308.511 293.014C307.859 293.648 307.349 294.405 306.979 295.285C306.627 296.147 306.451 297.089 306.451 298.11C306.451 299.13 306.627 300.081 306.979 300.961C307.349 301.823 307.859 302.571 308.511 303.205C309.162 303.838 309.927 304.331 310.807 304.683C311.705 305.035 312.673 305.211 313.711 305.211C314.715 305.211 315.656 305.035 316.536 304.683C317.416 304.314 318.208 303.75 318.912 302.994L320.628 304.657C319.783 305.607 318.754 306.329 317.539 306.822C316.343 307.314 315.023 307.561 313.579 307.561ZM324.394 307.35V288.87H327.034V305.053H337.04V307.35H324.394ZM342.472 296.842H351.976V299.086H342.472V296.842ZM342.709 305.053H353.48V307.35H340.069V288.87H353.111V291.166H342.709V305.053Z" fill="black"/>
<path d="M260.36 84.749V73.8006H263.894C265.062 73.8006 265.962 74.0938 266.593 74.6804C267.225 75.2669 267.541 76.0439 267.541 77.0114C267.541 77.984 267.225 78.771 266.593 79.3726C265.962 79.9741 265.062 80.2749 263.894 80.2749H261.781V84.749H260.36ZM261.781 79.1169H263.894C264.726 79.1169 265.305 78.9139 265.631 78.5078C265.957 78.0967 266.12 77.6005 266.12 77.0189C266.12 76.4324 265.957 75.9437 265.631 75.5526C265.305 75.1566 264.726 74.9586 263.894 74.9586H261.781V79.1169ZM266.541 84.749L263.864 79.6959L265.27 79.4854L268.127 84.749H266.541ZM269.699 84.749V73.8006H276.527V74.9736H271.12V78.5153H275.835V79.6884H271.12V83.576H276.602V84.749H269.699ZM277.963 79.6207V78.9289C277.963 77.2395 278.391 75.9261 279.249 74.9887C280.111 74.0462 281.216 73.575 282.565 73.575C283.908 73.575 285.009 74.0462 285.866 74.9887C286.728 75.9261 287.159 77.2395 287.159 78.9289V79.6207C287.159 81.3101 286.728 82.626 285.866 83.5685C285.009 84.5059 283.908 84.9746 282.565 84.9746C281.216 84.9746 280.111 84.5059 279.249 83.5685C278.391 82.626 277.963 81.3101 277.963 79.6207ZM279.407 79.6207C279.407 80.9141 279.695 81.9267 280.271 82.6586C280.848 83.3905 281.612 83.7564 282.565 83.7564C283.512 83.7564 284.274 83.3905 284.851 82.6586C285.432 81.9267 285.723 80.9141 285.723 79.6207V78.9289C285.723 77.6355 285.432 76.6229 284.851 75.891C284.274 75.1591 283.512 74.7932 282.565 74.7932C281.612 74.7932 280.848 75.1591 280.271 75.891C279.695 76.6229 279.407 77.6355 279.407 78.9289V79.6207ZM286.099 86.6214L283.445 84.4858L284.377 83.5534L287.061 85.6589L286.099 86.6214ZM289.182 81.2073V73.8006H290.603V81.2073C290.603 82.0696 290.834 82.7112 291.295 83.1323C291.761 83.5484 292.37 83.7564 293.122 83.7564C293.874 83.7564 294.481 83.5484 294.942 83.1323C295.403 82.7112 295.634 82.0696 295.634 81.2073V73.8006H297.062V81.2073C297.062 82.4656 296.679 83.408 295.912 84.0347C295.15 84.6613 294.22 84.9746 293.122 84.9746C292.019 84.9746 291.087 84.6613 290.325 84.0347C289.563 83.408 289.182 82.4656 289.182 81.2073ZM299.529 84.749V73.8006H300.95V84.749H299.529ZM303.537 84.749V73.8006H307.071C308.239 73.8006 309.139 74.0938 309.77 74.6804C310.402 75.2669 310.718 76.0439 310.718 77.0114C310.718 77.984 310.402 78.771 309.77 79.3726C309.139 79.9741 308.239 80.2749 307.071 80.2749H304.958V84.749H303.537ZM304.958 79.1169H307.071C307.903 79.1169 308.482 78.9139 308.808 78.5078C309.134 78.0967 309.297 77.6005 309.297 77.0189C309.297 76.4324 309.134 75.9437 308.808 75.5526C308.482 75.1566 307.903 74.9586 307.071 74.9586H304.958V79.1169ZM309.718 84.749L307.041 79.6959L308.447 79.4854L311.304 84.749H309.718ZM312.876 84.749V73.8006H319.704V74.9736H314.297V78.5153H319.012V79.6884H314.297V83.576H319.779V84.749H312.876ZM321.569 84.749V73.8006H323.411L326.652 82.057C326.712 82.2074 326.767 82.3653 326.817 82.5308C326.872 82.6912 326.92 82.8466 326.96 82.997H327.02C327.06 82.8466 327.105 82.6912 327.156 82.5308C327.211 82.3653 327.268 82.2074 327.329 82.057L330.577 73.8006H332.419V84.749H331.036V76.831C331.036 76.6806 331.038 76.5101 331.043 76.3196C331.048 76.1291 331.061 75.9587 331.081 75.8083H331.021C330.991 75.9587 330.945 76.1291 330.885 76.3196C330.825 76.5101 330.765 76.6806 330.705 76.831L327.592 84.749H326.358L323.245 76.831C323.185 76.6806 323.125 76.5101 323.065 76.3196C323.005 76.1291 322.96 75.9587 322.93 75.8083H322.869C322.889 75.9587 322.902 76.1291 322.907 76.3196C322.912 76.5101 322.915 76.6806 322.915 76.831V84.749H321.569ZM334.968 84.749V73.8006H341.796V74.9736H336.39V78.5153H341.104V79.6884H336.39V83.576H341.871V84.749H334.968ZM343.661 84.749V73.8006H345.142L350.09 81.5081C350.19 81.6585 350.283 81.8089 350.368 81.9593C350.459 82.1097 350.531 82.2475 350.586 82.3729H350.647C350.642 82.2225 350.637 82.0545 350.632 81.869C350.632 81.6785 350.632 81.5081 350.632 81.3577V73.8006H352.03V84.749H350.541L345.593 77.0415C345.498 76.8911 345.408 76.7407 345.323 76.5903C345.238 76.4399 345.16 76.3021 345.09 76.1768H345.037C345.042 76.3271 345.045 76.4976 345.045 76.6881C345.05 76.8736 345.052 77.0415 345.052 77.1919V84.749H343.661ZM353.248 74.9736V73.8006H361.685V74.9736H358.174V84.749H356.752V74.9736H353.248ZM362.422 81.7562V81.6585H363.843V81.7562C363.843 82.423 364.066 82.9243 364.513 83.2602C364.959 83.591 365.583 83.7564 366.385 83.7564C367.182 83.7564 367.794 83.586 368.22 83.2451C368.646 82.8992 368.859 82.4506 368.859 81.8991C368.859 81.3928 368.653 80.9893 368.242 80.6885C367.831 80.3877 367.054 80.0694 365.911 79.7335C364.728 79.3876 363.888 78.984 363.392 78.5229C362.896 78.0617 362.648 77.4024 362.648 76.5452C362.648 75.698 362.971 74.9912 363.618 74.4247C364.264 73.8582 365.162 73.575 366.31 73.575C367.453 73.575 368.363 73.8733 369.039 74.4698C369.721 75.0614 370.062 75.8183 370.062 76.7407V76.846H368.633V76.7407C368.633 76.1592 368.438 75.6905 368.047 75.3346C367.656 74.9736 367.077 74.7932 366.31 74.7932C365.538 74.7932 364.969 74.9486 364.603 75.2594C364.237 75.5652 364.054 75.9812 364.054 76.5076C364.054 76.9889 364.242 77.3699 364.618 77.6506C364.994 77.9263 365.766 78.2296 366.934 78.5604C368.097 78.8913 368.944 79.3049 369.475 79.8012C370.007 80.2975 370.273 80.9968 370.273 81.8991C370.273 82.7965 369.922 83.5334 369.22 84.1099C368.523 84.6864 367.578 84.9746 366.385 84.9746C365.187 84.9746 364.227 84.6864 363.505 84.1099C362.783 83.5334 362.422 82.7488 362.422 81.7562Z" fill="#F4EDE2"/>
<path d="M436.807 200.055L440.943 189.031H442.229L446.372 200.055H444.891L441.89 191.753C441.83 191.588 441.777 191.427 441.732 191.272C441.687 191.116 441.647 190.956 441.612 190.791H441.537C441.502 190.956 441.462 191.116 441.417 191.272C441.371 191.427 441.319 191.588 441.259 191.753L438.228 200.055H436.807ZM438.582 197.19L439.018 196.017H444.146L444.575 197.19H438.582ZM447.643 200.055V189.106H449.124L454.072 196.814C454.172 196.964 454.265 197.115 454.35 197.265C454.44 197.415 454.513 197.553 454.568 197.679H454.628C454.623 197.528 454.618 197.36 454.613 197.175C454.613 196.984 454.613 196.814 454.613 196.663V189.106H456.012V200.055H454.523L449.575 192.347C449.48 192.197 449.39 192.046 449.304 191.896C449.219 191.746 449.142 191.608 449.071 191.482H449.019C449.024 191.633 449.026 191.803 449.026 191.994C449.031 192.179 449.034 192.347 449.034 192.498V200.055H447.643ZM457.411 200.055L461.546 189.031H462.832L466.975 200.055H465.494L462.494 191.753C462.434 191.588 462.381 191.427 462.336 191.272C462.291 191.116 462.251 190.956 462.216 190.791H462.14C462.105 190.956 462.065 191.116 462.02 191.272C461.975 191.427 461.922 191.588 461.862 191.753L458.832 200.055H457.411ZM459.185 197.19L459.621 196.017H464.75L465.178 197.19H459.185ZM468.246 200.055V189.106H469.667V198.882H474.833V200.055H468.246ZM477.713 200.055V195.957L473.946 189.106H475.548L478.014 193.746C478.094 193.896 478.167 194.034 478.232 194.159C478.302 194.285 478.365 194.415 478.42 194.55H478.465C478.52 194.415 478.581 194.285 478.646 194.159C478.716 194.034 478.791 193.896 478.871 193.746L481.36 189.106H482.909L479.134 195.957V200.055H477.713ZM483.579 197.062V196.964H485V197.062C485 197.729 485.223 198.23 485.669 198.566C486.115 198.897 486.739 199.062 487.541 199.062C488.338 199.062 488.95 198.892 489.376 198.551C489.802 198.205 490.015 197.756 490.015 197.205C490.015 196.698 489.81 196.295 489.399 195.994C488.988 195.693 488.211 195.375 487.068 195.039C485.885 194.693 485.045 194.29 484.549 193.829C484.052 193.367 483.804 192.708 483.804 191.851C483.804 191.004 484.127 190.297 484.774 189.73C485.421 189.164 486.318 188.881 487.466 188.881C488.609 188.881 489.519 189.179 490.196 189.775C490.877 190.367 491.218 191.124 491.218 192.046V192.152H489.79V192.046C489.79 191.465 489.594 190.996 489.203 190.64C488.812 190.279 488.233 190.099 487.466 190.099C486.694 190.099 486.125 190.254 485.759 190.565C485.393 190.871 485.21 191.287 485.21 191.813C485.21 192.295 485.398 192.676 485.774 192.956C486.15 193.232 486.922 193.535 488.09 193.866C489.253 194.197 490.1 194.611 490.632 195.107C491.163 195.603 491.429 196.302 491.429 197.205C491.429 198.102 491.078 198.839 490.376 199.416C489.679 199.992 488.734 200.28 487.541 200.28C486.343 200.28 485.383 199.992 484.661 199.416C483.939 198.839 483.579 198.054 483.579 197.062ZM493.339 200.055V189.106H494.76V200.055H493.339ZM496.753 197.062V196.964H498.174V197.062C498.174 197.729 498.397 198.23 498.843 198.566C499.289 198.897 499.913 199.062 500.716 199.062C501.513 199.062 502.124 198.892 502.55 198.551C502.976 198.205 503.189 197.756 503.189 197.205C503.189 196.698 502.984 196.295 502.573 195.994C502.162 195.693 501.385 195.375 500.242 195.039C499.059 194.693 498.219 194.29 497.723 193.829C497.226 193.367 496.978 192.708 496.978 191.851C496.978 191.004 497.302 190.297 497.948 189.73C498.595 189.164 499.492 188.881 500.64 188.881C501.783 188.881 502.693 189.179 503.37 189.775C504.052 190.367 504.393 191.124 504.393 192.046V192.152H502.964V192.046C502.964 191.465 502.768 190.996 502.377 190.64C501.986 190.279 501.407 190.099 500.64 190.099C499.868 190.099 499.299 190.254 498.933 190.565C498.567 190.871 498.384 191.287 498.384 191.813C498.384 192.295 498.572 192.676 498.948 192.956C499.324 193.232 500.096 193.535 501.264 193.866C502.427 194.197 503.275 194.611 503.806 195.107C504.337 195.603 504.603 196.302 504.603 197.205C504.603 198.102 504.252 198.839 503.55 199.416C502.854 199.992 501.909 200.28 500.716 200.28C499.517 200.28 498.557 199.992 497.836 199.416C497.114 198.839 496.753 198.054 496.753 197.062Z" fill="#F4EDE2"/>
<path d="M445.714 374.845V363.896H448.932C450.336 363.896 451.501 364.36 452.429 365.287C453.356 366.215 453.82 367.461 453.82 369.025V369.716C453.82 371.28 453.356 372.526 452.429 373.454C451.501 374.381 450.336 374.845 448.932 374.845H445.714ZM447.135 373.672H448.932C449.99 373.672 450.83 373.323 451.451 372.626C452.073 371.925 452.384 370.955 452.384 369.716V369.025C452.384 367.786 452.07 366.819 451.444 366.122C450.822 365.42 449.985 365.069 448.932 365.069H447.135V373.672ZM455.955 374.845V363.896H462.783V365.069H457.377V368.611H462.091V369.784H457.377V373.672H462.858V374.845H455.955ZM464.054 371.852V371.754H465.475V371.852C465.475 372.519 465.698 373.02 466.144 373.356C466.591 373.687 467.215 373.852 468.017 373.852C468.814 373.852 469.425 373.682 469.852 373.341C470.278 372.995 470.491 372.546 470.491 371.995C470.491 371.489 470.285 371.085 469.874 370.784C469.463 370.483 468.686 370.165 467.543 369.829C466.36 369.483 465.52 369.08 465.024 368.619C464.528 368.157 464.28 367.498 464.28 366.641C464.28 365.794 464.603 365.087 465.25 364.52C465.896 363.954 466.794 363.671 467.942 363.671C469.085 363.671 469.994 363.969 470.671 364.566C471.353 365.157 471.694 365.914 471.694 366.836V366.942H470.265V366.836C470.265 366.255 470.07 365.786 469.679 365.43C469.288 365.069 468.709 364.889 467.942 364.889C467.17 364.889 466.601 365.044 466.235 365.355C465.869 365.661 465.686 366.077 465.686 366.603C465.686 367.085 465.874 367.466 466.25 367.746C466.626 368.022 467.398 368.325 468.566 368.656C469.729 368.987 470.576 369.401 471.107 369.897C471.639 370.393 471.904 371.092 471.904 371.995C471.904 372.892 471.553 373.629 470.852 374.206C470.155 374.782 469.21 375.07 468.017 375.07C466.819 375.07 465.859 374.782 465.137 374.206C464.415 373.629 464.054 372.845 464.054 371.852ZM473.814 374.845V363.896H475.236V374.845H473.814ZM477.409 369.716V369.025C477.409 367.34 477.837 366.027 478.695 365.084C479.552 364.142 480.662 363.671 482.026 363.671C483.264 363.671 484.231 364.002 484.928 364.663C485.63 365.325 486.019 366.11 486.094 367.017L486.101 367.1H484.68V367.017C484.68 366.511 484.447 366.029 483.981 365.573C483.515 365.117 482.858 364.889 482.011 364.889C481.058 364.889 480.294 365.257 479.717 365.994C479.141 366.726 478.852 367.736 478.852 369.025V369.716C478.852 371.005 479.141 372.017 479.717 372.754C480.294 373.486 481.108 373.852 482.161 373.852C482.707 373.852 483.181 373.794 483.582 373.679C483.983 373.564 484.364 373.381 484.725 373.13V370.551H482.011V369.378H486.101V373.649C485.765 373.995 485.262 374.318 484.59 374.619C483.918 374.92 483.108 375.07 482.161 375.07C480.712 375.07 479.557 374.599 478.695 373.657C477.837 372.714 477.409 371.401 477.409 369.716ZM488.335 374.845V363.896H489.816L494.764 371.604C494.864 371.754 494.957 371.905 495.042 372.055C495.132 372.205 495.205 372.343 495.26 372.469H495.32C495.315 372.318 495.31 372.15 495.305 371.965C495.305 371.774 495.305 371.604 495.305 371.453V363.896H496.704V374.845H495.215L490.267 367.137C490.172 366.987 490.082 366.836 489.996 366.686C489.911 366.536 489.833 366.398 489.763 366.272H489.711C489.716 366.423 489.718 366.593 489.718 366.784C489.723 366.969 489.726 367.137 489.726 367.288V374.845H488.335Z" fill="#F4EDE2"/>
<path d="M301.731 467.841V456.892H305.325C306.523 456.892 307.443 457.196 308.085 457.802C308.726 458.404 309.047 459.206 309.047 460.208C309.047 461.206 308.726 462.013 308.085 462.63C307.443 463.241 306.523 463.547 305.325 463.547H303.152V467.841H301.731ZM303.152 462.374H305.325C306.177 462.374 306.774 462.164 307.115 461.742C307.456 461.321 307.626 460.81 307.626 460.208C307.626 459.602 307.456 459.093 307.115 458.682C306.774 458.271 306.177 458.065 305.325 458.065H303.152V462.374ZM310.694 467.841V456.892H314.228C315.396 456.892 316.296 457.186 316.928 457.772C317.559 458.359 317.875 459.136 317.875 460.103C317.875 461.076 317.559 461.863 316.928 462.464C316.296 463.066 315.396 463.367 314.228 463.367H312.115V467.841H310.694ZM312.115 462.209H314.228C315.06 462.209 315.639 462.006 315.965 461.6C316.291 461.189 316.454 460.692 316.454 460.111C316.454 459.524 316.291 459.035 315.965 458.644C315.639 458.248 315.06 458.05 314.228 458.05H312.115V462.209ZM316.875 467.841L314.198 462.788L315.604 462.577L318.462 467.841H316.875ZM319.62 462.712V462.021C319.62 460.331 320.048 459.018 320.905 458.08C321.768 457.138 322.873 456.667 324.222 456.667C325.565 456.667 326.665 457.138 327.523 458.08C328.385 459.018 328.816 460.331 328.816 462.021V462.712C328.816 464.402 328.385 465.718 327.523 466.66C326.665 467.598 325.565 468.066 324.222 468.066C322.873 468.066 321.768 467.598 320.905 466.66C320.048 465.718 319.62 464.402 319.62 462.712ZM321.063 462.712C321.063 464.006 321.352 465.018 321.928 465.75C322.505 466.482 323.269 466.848 324.222 466.848C325.169 466.848 325.931 466.482 326.508 465.75C327.089 465.018 327.38 464.006 327.38 462.712V462.021C327.38 460.727 327.089 459.715 326.508 458.983C325.931 458.251 325.169 457.885 324.222 457.885C323.269 457.885 322.505 458.251 321.928 458.983C321.352 459.715 321.063 460.727 321.063 462.021V462.712ZM329.869 464.833V464.75H331.29V464.833C331.29 465.49 331.468 465.991 331.824 466.337C332.185 466.678 332.679 466.848 333.305 466.848C333.932 466.848 334.423 466.658 334.779 466.277C335.135 465.896 335.313 465.349 335.313 464.637V456.892H336.742V464.645C336.742 465.698 336.423 466.532 335.787 467.149C335.155 467.761 334.328 468.066 333.305 468.066C332.283 468.066 331.453 467.778 330.816 467.202C330.185 466.625 329.869 465.836 329.869 464.833ZM339.163 467.841V456.892H345.991V458.065H340.584V461.607H345.299V462.78H340.584V466.668H346.066V467.841H339.163ZM347.427 462.712V462.021C347.427 460.331 347.855 459.018 348.713 458.08C349.575 457.138 350.655 456.667 351.954 456.667C353.252 456.667 354.267 457.023 354.999 457.735C355.736 458.446 356.104 459.309 356.104 460.321V460.396H354.676V460.321C354.676 459.614 354.45 459.033 353.999 458.577C353.548 458.116 352.866 457.885 351.954 457.885C351.056 457.885 350.317 458.226 349.735 458.908C349.159 459.584 348.871 460.622 348.871 462.021V462.712C348.871 464.001 349.159 465.013 349.735 465.75C350.312 466.482 351.051 466.848 351.954 466.848C352.816 466.848 353.465 466.615 353.901 466.149C354.342 465.683 354.598 465.104 354.668 464.412L354.676 464.337H356.104L356.097 464.419C355.997 465.422 355.606 466.282 354.924 466.999C354.242 467.71 353.252 468.066 351.954 468.066C350.65 468.066 349.57 467.598 348.713 466.66C347.855 465.718 347.427 464.402 347.427 462.712ZM357.007 458.065V456.892H365.444V458.065H361.932V467.841H360.511V458.065H357.007ZM282.12 485.841V474.892H283.962L287.203 483.149C287.263 483.299 287.318 483.457 287.368 483.623C287.423 483.783 287.471 483.938 287.511 484.089H287.571C287.611 483.938 287.657 483.783 287.707 483.623C287.762 483.457 287.82 483.299 287.88 483.149L291.128 474.892H292.97V485.841H291.587V477.923C291.587 477.772 291.589 477.602 291.594 477.411C291.599 477.221 291.612 477.05 291.632 476.9H291.572C291.542 477.05 291.497 477.221 291.436 477.411C291.376 477.602 291.316 477.772 291.256 477.923L288.143 485.841H286.91L283.797 477.923C283.736 477.772 283.676 477.602 283.616 477.411C283.556 477.221 283.511 477.05 283.481 476.9H283.421C283.441 477.05 283.453 477.221 283.458 477.411C283.463 477.602 283.466 477.772 283.466 477.923V485.841H282.12ZM294.384 485.841L298.52 474.817H299.806L303.949 485.841H302.468L299.467 477.539C299.407 477.374 299.354 477.213 299.309 477.058C299.264 476.903 299.224 476.742 299.189 476.577H299.114C299.079 476.742 299.039 476.903 298.994 477.058C298.948 477.213 298.896 477.374 298.836 477.539L295.805 485.841H294.384ZM296.159 482.976L296.595 481.803H301.723L302.152 482.976H296.159ZM305.22 485.841V474.892H306.701L311.649 482.6C311.749 482.75 311.842 482.901 311.927 483.051C312.017 483.201 312.09 483.339 312.145 483.465H312.205C312.2 483.314 312.195 483.146 312.19 482.961C312.19 482.77 312.19 482.6 312.19 482.45V474.892H313.589V485.841H312.1L307.152 478.133C307.057 477.983 306.967 477.833 306.882 477.682C306.796 477.532 306.719 477.394 306.648 477.269H306.596C306.601 477.419 306.603 477.589 306.603 477.78C306.608 477.965 306.611 478.133 306.611 478.284V485.841H305.22ZM314.988 485.841L319.123 474.817H320.409L324.552 485.841H323.071L320.071 477.539C320.011 477.374 319.958 477.213 319.913 477.058C319.868 476.903 319.828 476.742 319.793 476.577H319.717C319.682 476.742 319.642 476.903 319.597 477.058C319.552 477.213 319.499 477.374 319.439 477.539L316.409 485.841H314.988ZM316.762 482.976L317.198 481.803H322.327L322.755 482.976H316.762ZM325.319 480.712V480.021C325.319 478.336 325.748 477.023 326.605 476.08C327.462 475.138 328.573 474.667 329.936 474.667C331.175 474.667 332.142 474.998 332.839 475.659C333.541 476.321 333.929 477.106 334.004 478.013L334.012 478.096H332.591V478.013C332.591 477.507 332.358 477.025 331.892 476.569C331.425 476.113 330.769 475.885 329.921 475.885C328.969 475.885 328.204 476.253 327.628 476.99C327.051 477.722 326.763 478.732 326.763 480.021V480.712C326.763 482.001 327.051 483.013 327.628 483.75C328.204 484.482 329.019 484.848 330.072 484.848C330.618 484.848 331.092 484.791 331.493 484.675C331.894 484.56 332.275 484.377 332.636 484.126V481.547H329.921V480.374H334.012V484.645C333.676 484.991 333.172 485.314 332.501 485.615C331.829 485.916 331.019 486.066 330.072 486.066C328.623 486.066 327.468 485.595 326.605 484.653C325.748 483.71 325.319 482.397 325.319 480.712ZM336.245 485.841V474.892H343.073V476.065H337.667V479.607H342.381V480.78H337.667V484.668H343.148V485.841H336.245ZM344.938 485.841V474.892H346.78L350.021 483.149C350.081 483.299 350.136 483.457 350.187 483.623C350.242 483.783 350.289 483.938 350.329 484.089H350.39C350.43 483.938 350.475 483.783 350.525 483.623C350.58 483.457 350.638 483.299 350.698 483.149L353.946 474.892H355.789V485.841H354.405V477.923C354.405 477.772 354.407 477.602 354.413 477.411C354.418 477.221 354.43 477.05 354.45 476.9H354.39C354.36 477.05 354.315 477.221 354.255 477.411C354.194 477.602 354.134 477.772 354.074 477.923L350.961 485.841H349.728L346.615 477.923C346.555 477.772 346.494 477.602 346.434 477.411C346.374 477.221 346.329 477.05 346.299 476.9H346.239C346.259 477.05 346.271 477.221 346.276 477.411C346.281 477.602 346.284 477.772 346.284 477.923V485.841H344.938ZM358.338 485.841V474.892H365.165V476.065H359.759V479.607H364.474V480.78H359.759V484.668H365.241V485.841H358.338ZM367.03 485.841V474.892H368.512L373.459 482.6C373.56 482.75 373.652 482.901 373.738 483.051C373.828 483.201 373.901 483.339 373.956 483.465H374.016C374.011 483.314 374.006 483.146 374.001 482.961C374.001 482.77 374.001 482.6 374.001 482.45V474.892H375.4V485.841H373.911L368.963 478.133C368.868 477.983 368.777 477.833 368.692 477.682C368.607 477.532 368.529 477.394 368.459 477.269H368.406C368.411 477.419 368.414 477.589 368.414 477.78C368.419 477.965 368.421 478.133 368.421 478.284V485.841H367.03ZM376.618 476.065V474.892H385.055V476.065H381.543V485.841H380.122V476.065H376.618Z" fill="#F4EDE2"/>
<path d="M109.593 450.24V439.292H112.811C114.215 439.292 115.38 439.756 116.308 440.683C117.235 441.61 117.699 442.856 117.699 444.42V445.112C117.699 446.676 117.235 447.922 116.308 448.849C115.38 449.777 114.215 450.24 112.811 450.24H109.593ZM111.014 449.067H112.811C113.869 449.067 114.709 448.719 115.33 448.022C115.952 447.32 116.263 446.35 116.263 445.112V444.42C116.263 443.182 115.949 442.214 115.323 441.518C114.701 440.816 113.864 440.465 112.811 440.465H111.014V449.067ZM119.834 450.24V439.292H126.662V440.465H121.256V444.007H125.97V445.18H121.256V449.067H126.737V450.24H119.834ZM127.256 439.292H128.768L131.663 447.435C131.723 447.601 131.773 447.749 131.813 447.879C131.853 448.004 131.896 448.142 131.941 448.293H132.009C132.054 448.142 132.096 448.004 132.136 447.879C132.182 447.749 132.234 447.601 132.294 447.435L135.219 439.292H136.671L132.603 450.315H131.317L127.256 439.292ZM137.942 450.24V439.292H144.769V440.465H139.363V444.007H144.077V445.18H139.363V449.067H144.844V450.24H137.942ZM146.634 450.24V439.292H148.055V449.067H153.221V450.24H146.634ZM153.996 445.112V444.42C153.996 442.731 154.424 441.417 155.282 440.48C156.144 439.537 157.249 439.066 158.598 439.066C159.941 439.066 161.042 439.537 161.899 440.48C162.761 441.417 163.192 442.731 163.192 444.42V445.112C163.192 446.801 162.761 448.117 161.899 449.06C161.042 449.997 159.941 450.466 158.598 450.466C157.249 450.466 156.144 449.997 155.282 449.06C154.424 448.117 153.996 446.801 153.996 445.112ZM155.439 445.112C155.439 446.405 155.728 447.418 156.304 448.15C156.881 448.882 157.645 449.248 158.598 449.248C159.545 449.248 160.307 448.882 160.884 448.15C161.465 447.418 161.756 446.405 161.756 445.112V444.42C161.756 443.127 161.465 442.114 160.884 441.382C160.307 440.65 159.545 440.284 158.598 440.284C157.645 440.284 156.881 440.65 156.304 441.382C155.728 442.114 155.439 443.127 155.439 444.42V445.112ZM165.328 450.24V439.292H168.922C170.12 439.292 171.04 439.595 171.682 440.202C172.323 440.803 172.644 441.605 172.644 442.608C172.644 443.606 172.323 444.413 171.682 445.029C171.04 445.641 170.12 445.947 168.922 445.947H166.749V450.24H165.328ZM166.749 444.774H168.922C169.774 444.774 170.371 444.563 170.712 444.142C171.053 443.721 171.223 443.209 171.223 442.608C171.223 442.001 171.053 441.493 170.712 441.081C170.371 440.67 169.774 440.465 168.922 440.465H166.749V444.774ZM174.291 450.24V439.292H176.133L179.374 447.548C179.434 447.699 179.489 447.857 179.54 448.022C179.595 448.182 179.642 448.338 179.682 448.488H179.743C179.783 448.338 179.828 448.182 179.878 448.022C179.933 447.857 179.991 447.699 180.051 447.548L183.299 439.292H185.142V450.24H183.758V442.322C183.758 442.172 183.761 442.001 183.766 441.811C183.771 441.62 183.783 441.45 183.803 441.3H183.743C183.713 441.45 183.668 441.62 183.608 441.811C183.547 442.001 183.487 442.172 183.427 442.322L180.314 450.24H179.081L175.968 442.322C175.908 442.172 175.847 442.001 175.787 441.811C175.727 441.62 175.682 441.45 175.652 441.3H175.592C175.612 441.45 175.624 441.62 175.629 441.811C175.634 442.001 175.637 442.172 175.637 442.322V450.24H174.291ZM187.691 450.24V439.292H194.518V440.465H189.112V444.007H193.827V445.18H189.112V449.067H194.594V450.24H187.691ZM196.383 450.24V439.292H197.865L202.813 446.999C202.913 447.15 203.006 447.3 203.091 447.45C203.181 447.601 203.254 447.739 203.309 447.864H203.369C203.364 447.714 203.359 447.546 203.354 447.36C203.354 447.17 203.354 446.999 203.354 446.849V439.292H204.753V450.24H203.264L198.316 442.533C198.221 442.382 198.13 442.232 198.045 442.082C197.96 441.931 197.882 441.793 197.812 441.668H197.759C197.764 441.818 197.767 441.989 197.767 442.179C197.772 442.365 197.774 442.533 197.774 442.683V450.24H196.383ZM205.971 440.465V439.292H214.408V440.465H210.896V450.24H209.475V440.465H205.971Z" fill="#F4EDE2"/>
<path d="M118.621 142.035V131.087H120.042V135.801H125.554V131.087H126.975V142.035H125.554V136.975H120.042V142.035H118.621ZM129.111 136.907V136.215C129.111 134.526 129.54 133.212 130.397 132.275C131.259 131.332 132.364 130.861 133.713 130.861C135.056 130.861 136.157 131.332 137.014 132.275C137.876 133.212 138.307 134.526 138.307 136.215V136.907C138.307 138.596 137.876 139.912 137.014 140.855C136.157 141.792 135.056 142.261 133.713 142.261C132.364 142.261 131.259 141.792 130.397 140.855C129.54 139.912 129.111 138.596 129.111 136.907ZM130.555 136.907C130.555 138.2 130.843 139.213 131.419 139.945C131.996 140.677 132.76 141.043 133.713 141.043C134.66 141.043 135.422 140.677 135.999 139.945C136.58 139.213 136.871 138.2 136.871 136.907V136.215C136.871 134.922 136.58 133.909 135.999 133.177C135.422 132.445 134.66 132.079 133.713 132.079C132.76 132.079 131.996 132.445 131.419 133.177C130.843 133.909 130.555 134.922 130.555 136.215V136.907ZM139.849 139.042V138.945H141.27V139.042C141.27 139.709 141.493 140.21 141.939 140.546C142.385 140.877 143.01 141.043 143.812 141.043C144.609 141.043 145.22 140.872 145.646 140.531C146.072 140.185 146.286 139.737 146.286 139.185C146.286 138.679 146.08 138.275 145.669 137.975C145.258 137.674 144.481 137.356 143.338 137.02C142.155 136.674 141.315 136.27 140.819 135.809C140.323 135.348 140.074 134.689 140.074 133.831C140.074 132.984 140.398 132.277 141.044 131.711C141.691 131.144 142.588 130.861 143.736 130.861C144.879 130.861 145.789 131.159 146.466 131.756C147.148 132.347 147.489 133.104 147.489 134.027V134.132H146.06V134.027C146.06 133.445 145.864 132.977 145.473 132.621C145.082 132.26 144.503 132.079 143.736 132.079C142.964 132.079 142.395 132.235 142.029 132.546C141.664 132.851 141.481 133.267 141.481 133.794C141.481 134.275 141.669 134.656 142.045 134.937C142.421 135.212 143.193 135.516 144.361 135.847C145.524 136.177 146.371 136.591 146.902 137.087C147.434 137.584 147.699 138.283 147.699 139.185C147.699 140.083 147.348 140.819 146.646 141.396C145.95 141.972 145.005 142.261 143.812 142.261C142.614 142.261 141.654 141.972 140.932 141.396C140.21 140.819 139.849 140.035 139.849 139.042ZM148.481 132.26V131.087H156.918V132.26H153.407V142.035H151.985V132.26H148.481ZM158.407 142.035V131.087H159.828V142.035H158.407ZM162.415 142.035V131.087H163.896L168.844 138.794C168.944 138.945 169.037 139.095 169.122 139.245C169.213 139.396 169.285 139.534 169.34 139.659H169.401C169.396 139.509 169.391 139.341 169.386 139.155C169.386 138.965 169.386 138.794 169.386 138.644V131.087H170.784V142.035H169.295L164.347 134.328C164.252 134.177 164.162 134.027 164.077 133.876C163.992 133.726 163.914 133.588 163.844 133.463H163.791C163.796 133.613 163.799 133.784 163.799 133.974C163.804 134.16 163.806 134.328 163.806 134.478V142.035H162.415ZM172.905 136.907V136.215C172.905 134.531 173.333 133.217 174.191 132.275C175.048 131.332 176.158 130.861 177.522 130.861C178.76 130.861 179.727 131.192 180.424 131.854C181.126 132.515 181.515 133.3 181.59 134.207L181.597 134.29H180.176V134.207C180.176 133.701 179.943 133.22 179.477 132.764C179.011 132.307 178.354 132.079 177.507 132.079C176.554 132.079 175.79 132.448 175.213 133.185C174.637 133.917 174.348 134.927 174.348 136.215V136.907C174.348 138.195 174.637 139.208 175.213 139.945C175.79 140.677 176.604 141.043 177.657 141.043C178.203 141.043 178.677 140.985 179.078 140.87C179.479 140.754 179.86 140.571 180.221 140.321V137.742H177.507V136.568H181.597V140.84C181.261 141.185 180.758 141.509 180.086 141.81C179.414 142.11 178.604 142.261 177.657 142.261C176.208 142.261 175.053 141.79 174.191 140.847C173.333 139.905 172.905 138.591 172.905 136.907Z" fill="#F4EDE2"/>
<path d="M27.8734 303.4V292.452H29.7157L32.9566 300.708C33.0168 300.859 33.0719 301.017 33.1221 301.182C33.1772 301.343 33.2248 301.498 33.2649 301.648H33.3251C33.3652 301.498 33.4103 301.343 33.4604 301.182C33.5156 301.017 33.5732 300.859 33.6334 300.708L36.8818 292.452H38.7241V303.4H37.3405V295.482C37.3405 295.332 37.343 295.161 37.348 294.971C37.3531 294.781 37.3656 294.61 37.3856 294.46H37.3255C37.2954 294.61 37.2503 294.781 37.1901 294.971C37.13 295.161 37.0698 295.332 37.0097 295.482L33.8966 303.4H32.6634L29.5503 295.482C29.4901 295.332 29.43 295.161 29.3698 294.971C29.3097 294.781 29.2645 294.61 29.2345 294.46H29.1743C29.1944 294.61 29.2069 294.781 29.2119 294.971C29.2169 295.161 29.2194 295.332 29.2194 295.482V303.4H27.8734ZM40.1378 303.4L44.2735 292.377H45.5594L49.7026 303.4H48.2213L45.221 295.099C45.1608 294.933 45.1082 294.773 45.0631 294.618C45.018 294.462 44.9779 294.302 44.9428 294.136H44.8676C44.8325 294.302 44.7924 294.462 44.7473 294.618C44.7021 294.773 44.6495 294.933 44.5894 295.099L41.559 303.4H40.1378ZM41.9124 300.535L42.3485 299.362H47.4769L47.9055 300.535H41.9124ZM51.011 303.4V292.452H52.4322V303.4H51.011ZM55.0189 303.4V292.452H56.5003L61.4481 300.159C61.5484 300.31 61.6411 300.46 61.7264 300.611C61.8166 300.761 61.8893 300.899 61.9444 301.024H62.0046C61.9996 300.874 61.9946 300.706 61.9896 300.52C61.9896 300.33 61.9896 300.159 61.9896 300.009V292.452H63.3882V303.4H61.8993L56.9515 295.693C56.8562 295.542 56.766 295.392 56.6808 295.242C56.5955 295.091 56.5178 294.953 56.4477 294.828H56.395C56.4 294.979 56.4025 295.149 56.4025 295.339C56.4076 295.525 56.4101 295.693 56.4101 295.843V303.4H55.0189ZM64.6063 293.625V292.452H73.0433V293.625H69.5316V303.4H68.1104V293.625H64.6063ZM74.4945 303.4V292.452H81.3223V293.625H75.9157V297.167H80.6305V298.34H75.9157V302.227H81.3975V303.4H74.4945ZM83.1871 303.4V292.452H84.6685L89.6163 300.159C89.7166 300.31 89.8093 300.46 89.8945 300.611C89.9848 300.761 90.0575 300.899 90.1126 301.024H90.1728C90.1677 300.874 90.1627 300.706 90.1577 300.52C90.1577 300.33 90.1577 300.159 90.1577 300.009V292.452H91.5563V303.4H90.0675L85.1196 295.693C85.0244 295.542 84.9341 295.392 84.8489 295.242C84.7637 295.091 84.686 294.953 84.6158 294.828H84.5632C84.5682 294.979 84.5707 295.149 84.5707 295.339C84.5757 295.525 84.5782 295.693 84.5782 295.843V303.4H83.1871ZM92.955 303.4L97.0907 292.377H98.3766L102.52 303.4H101.038L98.0382 295.099C97.978 294.933 97.9254 294.773 97.8803 294.618C97.8352 294.462 97.7951 294.302 97.76 294.136H97.6848C97.6497 294.302 97.6096 294.462 97.5645 294.618C97.5193 294.773 97.4667 294.933 97.4065 295.099L94.3762 303.4H92.955ZM94.7296 300.535L95.1657 299.362H100.294L100.723 300.535H94.7296ZM103.791 303.4V292.452H105.272L110.22 300.159C110.32 300.31 110.413 300.46 110.498 300.611C110.588 300.761 110.661 300.899 110.716 301.024H110.776C110.771 300.874 110.766 300.706 110.761 300.52C110.761 300.33 110.761 300.159 110.761 300.009V292.452H112.16V303.4H110.671L105.723 295.693C105.628 295.542 105.538 295.392 105.452 295.242C105.367 295.091 105.29 294.953 105.219 294.828H105.167C105.172 294.979 105.174 295.149 105.174 295.339C105.179 295.525 105.182 295.693 105.182 295.843V303.4H103.791ZM114.28 298.272V297.58C114.28 295.891 114.709 294.577 115.566 293.64C116.428 292.698 117.509 292.226 118.807 292.226C120.105 292.226 121.121 292.582 121.853 293.294C122.589 294.006 122.958 294.868 122.958 295.881V295.956H121.529V295.881C121.529 295.174 121.304 294.593 120.852 294.136C120.401 293.675 119.719 293.445 118.807 293.445C117.91 293.445 117.17 293.785 116.589 294.467C116.012 295.144 115.724 296.182 115.724 297.58V298.272C115.724 299.56 116.012 300.573 116.589 301.31C117.165 302.042 117.905 302.408 118.807 302.408C119.669 302.408 120.319 302.175 120.755 301.708C121.196 301.242 121.451 300.663 121.522 299.971L121.529 299.896H122.958L122.95 299.979C122.85 300.982 122.459 301.841 121.777 302.558C121.096 303.27 120.105 303.626 118.807 303.626C117.504 303.626 116.423 303.157 115.566 302.22C114.709 301.277 114.28 299.961 114.28 298.272ZM124.875 303.4V292.452H131.703V293.625H126.297V297.167H131.011V298.34H126.297V302.227H131.778V303.4H124.875Z" fill="#F4EDE2"/>
<g clip-path="url(#clip0_740_14869)">
<path d="M411.6 473.09C409.354 473.09 407.442 474.524 406.739 476.528H404.725C402.829 476.528 401.287 478.069 401.287 479.965V497.153C401.287 499.049 402.829 500.59 404.725 500.59H418.475C420.371 500.59 421.912 499.049 421.912 497.153V479.965C421.912 478.069 420.371 476.528 418.475 476.528H416.46C415.757 474.524 413.845 473.09 411.6 473.09ZM411.6 476.528C412.055 476.528 412.493 476.709 412.815 477.031C413.137 477.354 413.318 477.791 413.318 478.247C413.318 478.702 413.137 479.14 412.815 479.462C412.493 479.784 412.055 479.965 411.6 479.965C411.144 479.965 410.707 479.784 410.384 479.462C410.062 479.14 409.881 478.702 409.881 478.247C409.881 477.791 410.062 477.354 410.384 477.031C410.707 476.709 411.144 476.528 411.6 476.528ZM405.154 487.7C405.154 487.358 405.29 487.03 405.532 486.788C405.774 486.546 406.101 486.411 406.443 486.411C406.785 486.411 407.113 486.546 407.355 486.788C407.597 487.03 407.732 487.358 407.732 487.7C407.732 488.042 407.597 488.369 407.355 488.611C407.113 488.853 406.785 488.989 406.443 488.989C406.101 488.989 405.774 488.853 405.532 488.611C405.29 488.369 405.154 488.042 405.154 487.7ZM410.74 486.84H417.615C418.088 486.84 418.475 487.227 418.475 487.7C418.475 488.172 418.088 488.559 417.615 488.559H410.74C410.268 488.559 409.881 488.172 409.881 487.7C409.881 487.227 410.268 486.84 410.74 486.84ZM405.154 492.856C405.154 492.514 405.29 492.186 405.532 491.944C405.774 491.703 406.101 491.567 406.443 491.567C406.785 491.567 407.113 491.703 407.355 491.944C407.597 492.186 407.732 492.514 407.732 492.856C407.732 493.198 407.597 493.526 407.355 493.767C407.113 494.009 406.785 494.145 406.443 494.145C406.101 494.145 405.774 494.009 405.532 493.767C405.29 493.526 405.154 493.198 405.154 492.856ZM409.881 492.856C409.881 492.383 410.268 491.997 410.74 491.997H417.615C418.088 491.997 418.475 492.383 418.475 492.856C418.475 493.329 418.088 493.715 417.615 493.715H410.74C410.268 493.715 409.881 493.329 409.881 492.856Z" fill="#F4EDE2"/>
</g>
<path d="M184.116 499.923C184.116 497.756 185.878 495.994 188.045 495.994H211.616C213.783 495.994 215.545 497.756 215.545 499.923V515.637H211.616V499.923H188.045V515.637H184.116V499.923ZM180.188 518.78C180.188 518.129 180.715 517.601 181.366 517.601H218.295C218.945 517.601 219.473 518.129 219.473 518.78C219.473 521.383 217.362 523.494 214.759 523.494H184.902C182.299 523.494 180.188 521.383 180.188 518.78ZM197.436 506.859L195.533 508.762L197.436 510.665C198.013 511.242 198.013 512.175 197.436 512.746C196.859 513.317 195.926 513.323 195.355 512.746L192.409 509.799C191.832 509.222 191.832 508.289 192.409 507.718L195.355 504.772C195.932 504.195 196.866 504.195 197.436 504.772C198.007 505.349 198.013 506.282 197.436 506.853V506.859ZM204.311 504.772L207.258 507.718C207.835 508.295 207.835 509.229 207.258 509.799L204.311 512.746C203.734 513.323 202.801 513.323 202.23 512.746C201.66 512.169 201.653 511.236 202.23 510.665L204.133 508.762L202.23 506.859C201.653 506.282 201.653 505.349 202.23 504.778C202.807 504.207 203.741 504.201 204.311 504.778V504.772Z" fill="#F4EDE2"/>
<path d="M41.4097 350.014C40.8995 349.617 40.1744 349.665 39.7125 350.122L37.564 352.27C37.1075 352.727 37.0591 353.452 37.4512 353.967L41.7481 359.553C41.9898 359.87 42.3712 360.058 42.7686 360.058H45.6744L51.5289 365.913C50.7393 367.47 50.9918 369.425 52.2969 370.725L58.3126 376.741C58.9839 377.412 60.0743 377.412 60.7457 376.741L64.1832 373.303C64.8546 372.632 64.8546 371.542 64.1832 370.87L58.1675 364.855C56.8677 363.555 54.9127 363.297 53.355 364.087L47.5005 358.232V355.332C47.5005 354.929 47.3126 354.553 46.9957 354.311L41.4097 350.014ZM38.2569 371.021C37.5748 371.703 37.188 372.632 37.188 373.599C37.188 375.613 38.8209 377.246 40.835 377.246C41.8018 377.246 42.731 376.859 43.4131 376.177L49.7403 369.85C49.3213 368.727 49.2569 367.508 49.5469 366.353L46.233 363.039L38.2569 371.021ZM64.688 357.48C64.688 356.916 64.629 356.368 64.5162 355.842C64.3873 355.24 63.6514 355.085 63.2164 355.52L59.7842 358.952C59.6231 359.113 59.4029 359.204 59.1773 359.204H56.0943C55.6216 359.204 55.2349 358.818 55.2349 358.345V355.257C55.2349 355.031 55.3262 354.811 55.4874 354.65L58.9195 351.217C59.3546 350.782 59.1988 350.047 58.5972 349.918C58.0655 349.805 57.5176 349.746 56.9537 349.746C52.6837 349.746 49.2193 353.21 49.2193 357.48V357.523L53.8008 362.105C55.7344 361.616 57.8721 362.132 59.3868 363.646L60.23 364.489C62.8619 363.254 64.688 360.579 64.688 357.48ZM40.1959 372.949C40.1959 372.607 40.3317 372.279 40.5734 372.037C40.8152 371.796 41.143 371.66 41.4849 371.66C41.8268 371.66 42.1547 371.796 42.3964 372.037C42.6382 372.279 42.774 372.607 42.774 372.949C42.774 373.291 42.6382 373.619 42.3964 373.86C42.1547 374.102 41.8268 374.238 41.4849 374.238C41.143 374.238 40.8152 374.102 40.5734 373.86C40.3317 373.619 40.1959 373.291 40.1959 372.949Z" fill="#F4EDE2"/>
<g clip-path="url(#clip1_740_14869)">
<path d="M81.7607 153.799C81.7607 154.991 81.6963 156.141 81.5835 157.236H71.6255C71.5073 156.141 71.4482 154.991 71.4482 153.799C71.4482 152.606 71.5127 151.457 71.6255 150.361H81.5835C81.7017 151.457 81.7607 152.606 81.7607 153.799ZM83.3076 150.361H89.9194C90.2041 151.462 90.3545 152.612 90.3545 153.799C90.3545 154.986 90.2041 156.135 89.9194 157.236H83.3076C83.4204 156.13 83.4795 154.98 83.4795 153.799C83.4795 152.617 83.4204 151.468 83.3076 150.361ZM89.3555 148.643H83.0874C82.5503 145.21 81.4868 142.337 80.1172 140.5C84.3228 141.612 87.7441 144.663 89.3501 148.643H89.3555ZM81.3472 148.643H71.8618C72.1895 146.688 72.6943 144.958 73.312 143.556C73.876 142.289 74.5044 141.37 75.1113 140.79C75.7129 140.221 76.2124 140.049 76.6045 140.049C76.9966 140.049 77.4961 140.221 78.0977 140.79C78.7046 141.37 79.333 142.289 79.897 143.556C80.52 144.953 81.0195 146.682 81.3472 148.643ZM70.1216 148.643H63.8535C65.4648 144.663 68.8809 141.612 73.0918 140.5C71.7222 142.337 70.6587 145.21 70.1216 148.643ZM63.2896 150.361H69.9014C69.7886 151.468 69.7295 152.617 69.7295 153.799C69.7295 154.98 69.7886 156.13 69.9014 157.236H63.2896C63.0049 156.135 62.8545 154.986 62.8545 153.799C62.8545 152.612 63.0049 151.462 63.2896 150.361ZM73.312 164.036C72.689 162.64 72.1895 160.91 71.8618 158.955H81.3472C81.0195 160.91 80.5146 162.64 79.897 164.036C79.333 165.304 78.7046 166.222 78.0977 166.802C77.4961 167.377 76.9966 167.549 76.6045 167.549C76.2124 167.549 75.7129 167.377 75.1113 166.808C74.5044 166.228 73.876 165.309 73.312 164.042V164.036ZM70.1216 158.955C70.6587 162.387 71.7222 165.261 73.0918 167.098C68.8809 165.986 65.4648 162.935 63.8535 158.955H70.1216ZM89.3555 158.955C87.7441 162.935 84.3281 165.986 80.1226 167.098C81.4922 165.261 82.5503 162.387 83.0928 158.955H89.3555Z" fill="#F4EDE2"/>
</g>
<g clip-path="url(#clip2_740_14869)">
<path d="M252.107 28.1504C249.261 28.1504 246.951 30.46 246.951 33.3066V50.4941C246.951 53.3408 249.261 55.6504 252.107 55.6504H267.576H269.295C270.246 55.6504 271.014 54.8823 271.014 53.9316C271.014 52.981 270.246 52.2129 269.295 52.2129V48.7754C270.246 48.7754 271.014 48.0073 271.014 47.0566V29.8691C271.014 28.9185 270.246 28.1504 269.295 28.1504H267.576H252.107ZM252.107 48.7754H265.857V52.2129H252.107C251.157 52.2129 250.389 51.4448 250.389 50.4941C250.389 49.5435 251.157 48.7754 252.107 48.7754ZM253.826 35.8848C253.826 35.4121 254.213 35.0254 254.686 35.0254H264.998C265.471 35.0254 265.857 35.4121 265.857 35.8848C265.857 36.3574 265.471 36.7441 264.998 36.7441H254.686C254.213 36.7441 253.826 36.3574 253.826 35.8848ZM254.686 38.4629H264.998C265.471 38.4629 265.857 38.8496 265.857 39.3223C265.857 39.7949 265.471 40.1816 264.998 40.1816H254.686C254.213 40.1816 253.826 39.7949 253.826 39.3223C253.826 38.8496 254.213 38.4629 254.686 38.4629Z" fill="#F4EDE2"/>
</g>
<g clip-path="url(#clip3_740_14869)">
<path d="M469.832 111.707C469.832 114.172 469.032 116.45 467.684 118.297L474.483 125.103C475.155 125.774 475.155 126.864 474.483 127.536C473.812 128.207 472.722 128.207 472.05 127.536L465.25 120.73C463.403 122.084 461.125 122.879 458.66 122.879C452.489 122.879 447.488 117.878 447.488 111.707C447.488 105.536 452.489 100.535 458.66 100.535C464.832 100.535 469.832 105.536 469.832 111.707ZM458.66 119.441C459.676 119.441 460.682 119.241 461.62 118.853C462.558 118.464 463.411 117.894 464.129 117.176C464.847 116.458 465.417 115.605 465.806 114.667C466.194 113.728 466.395 112.723 466.395 111.707C466.395 110.691 466.194 109.686 465.806 108.747C465.417 107.809 464.847 106.956 464.129 106.238C463.411 105.52 462.558 104.95 461.62 104.561C460.682 104.173 459.676 103.973 458.66 103.973C457.644 103.973 456.639 104.173 455.7 104.561C454.762 104.95 453.909 105.52 453.191 106.238C452.473 106.956 451.903 107.809 451.515 108.747C451.126 109.686 450.926 110.691 450.926 111.707C450.926 112.723 451.126 113.728 451.515 114.667C451.903 115.605 452.473 116.458 453.191 117.176C453.909 117.894 454.762 118.464 455.7 118.853C456.639 119.241 457.644 119.441 458.66 119.441Z" fill="#F4EDE2"/>
</g>
<g clip-path="url(#clip4_740_14869)">
<path d="M530.887 312.808L531.494 312.201L529.673 310.381L526.337 307.045L524.517 305.224L523.91 305.831L522.696 307.045L511.997 317.744C511.438 318.303 511.03 318.996 510.804 319.753L508.903 326.22C508.769 326.671 508.892 327.16 509.23 327.493C509.569 327.826 510.052 327.949 510.503 327.821L516.965 325.919C517.722 325.694 518.415 325.285 518.974 324.727L529.673 314.028L530.887 312.808ZM517.443 321.853L516.954 323.073C516.739 323.239 516.498 323.363 516.24 323.443L512.04 324.678L513.275 320.484C513.35 320.22 513.479 319.979 513.646 319.769L514.865 319.281V320.999C514.865 321.472 515.251 321.859 515.724 321.859H517.443V321.853ZM528.33 301.406L527.557 302.184L526.343 303.398L525.73 304.005L527.551 305.826L530.887 309.161L532.708 310.982L533.314 310.375L534.528 309.161L535.307 308.383C536.65 307.04 536.65 304.865 535.307 303.522L533.196 301.406C531.854 300.063 529.678 300.063 528.335 301.406H528.33ZM525.784 310.429L518.05 318.163C517.717 318.496 517.169 318.496 516.836 318.163C516.503 317.83 516.503 317.282 516.836 316.949L524.57 309.215C524.903 308.882 525.451 308.882 525.784 309.215C526.117 309.548 526.117 310.096 525.784 310.429Z" fill="#F4EDE2"/>
</g>
<defs>
<filter id="filter0_d_740_14869" x="19.0754" y="19.0754" width="533.61" height="533.61" filterUnits="userSpaceOnUse" color-interpolation-filters="sRGB">
<feFlood flood-opacity="0" result="BackgroundImageFix"/>
<feColorMatrix in="SourceAlpha" type="matrix" values="0 0 0 0 0 0 0 0 0 0 0 0 0 0 0 0 0 0 127 0" result="hardAlpha"/>
<feMorphology radius="3.63" operator="dilate" in="SourceAlpha" result="effect1_dropShadow_740_14869"/>
<feOffset dx="3.63" dy="3.63"/>
<feGaussianBlur stdDeviation="4.5375"/>
<feComposite in2="hardAlpha" operator="out"/>
<feColorMatrix type="matrix" values="0 0 0 0 0 0 0 0 0 0 0 0 0 0 0 0 0 0 0.25 0"/>
<feBlend mode="normal" in2="BackgroundImageFix" result="effect1_dropShadow_740_14869"/>
<feBlend mode="normal" in="SourceGraphic" in2="effect1_dropShadow_740_14869" result="shape"/>
</filter>
<filter id="filter1_d_740_14869" x="358.841" y="61.5969" width="211.263" height="227.018" filterUnits="userSpaceOnUse" color-interpolation-filters="sRGB">
<feFlood flood-opacity="0" result="BackgroundImageFix"/>
<feColorMatrix in="SourceAlpha" type="matrix" values="0 0 0 0 0 0 0 0 0 0 0 0 0 0 0 0 0 0 127 0" result="hardAlpha"/>
<feMorphology radius="3.63" operator="dilate" in="SourceAlpha" result="effect1_dropShadow_740_14869"/>
<feOffset dx="3.63" dy="3.63"/>
<feGaussianBlur stdDeviation="4.5375"/>
<feComposite in2="hardAlpha" operator="out"/>
<feColorMatrix type="matrix" values="0 0 0 0 0 0 0 0 0 0 0 0 0 0 0 0 0 0 0.25 0"/>
<feBlend mode="normal" in2="BackgroundImageFix" result="effect1_dropShadow_740_14869"/>
<feBlend mode="normal" in="SourceGraphic" in2="effect1_dropShadow_740_14869" result="shape"/>
</filter>
<filter id="filter2_d_740_14869" x="207.312" y="0.925" width="238.754" height="183.238" filterUnits="userSpaceOnUse" color-interpolation-filters="sRGB">
<feFlood flood-opacity="0" result="BackgroundImageFix"/>
<feColorMatrix in="SourceAlpha" type="matrix" values="0 0 0 0 0 0 0 0 0 0 0 0 0 0 0 0 0 0 127 0" result="hardAlpha"/>
<feMorphology radius="3.63" operator="dilate" in="SourceAlpha" result="effect1_dropShadow_740_14869"/>
<feOffset dx="3.63" dy="3.63"/>
<feGaussianBlur stdDeviation="4.5375"/>
<feComposite in2="hardAlpha" operator="out"/>
<feColorMatrix type="matrix" values="0 0 0 0 0 0 0 0 0 0 0 0 0 0 0 0 0 0 0.25 0"/>
<feBlend mode="normal" in2="BackgroundImageFix" result="effect1_dropShadow_740_14869"/>
<feBlend mode="normal" in="SourceGraphic" in2="effect1_dropShadow_740_14869" result="shape"/>
</filter>
<filter id="filter3_d_740_14869" x="24.4621" y="16.0686" width="229.356" height="227.149" filterUnits="userSpaceOnUse" color-interpolation-filters="sRGB">
<feFlood flood-opacity="0" result="BackgroundImageFix"/>
<feColorMatrix in="SourceAlpha" type="matrix" values="0 0 0 0 0 0 0 0 0 0 0 0 0 0 0 0 0 0 127 0" result="hardAlpha"/>
<feMorphology radius="3.63" operator="dilate" in="SourceAlpha" result="effect1_dropShadow_740_14869"/>
<feOffset dx="3.63" dy="3.63"/>
<feGaussianBlur stdDeviation="4.5375"/>
<feComposite in2="hardAlpha" operator="out"/>
<feColorMatrix type="matrix" values="0 0 0 0 0 0 0 0 0 0 0 0 0 0 0 0 0 0 0.25 0"/>
<feBlend mode="normal" in2="BackgroundImageFix" result="effect1_dropShadow_740_14869"/>
<feBlend mode="normal" in="SourceGraphic" in2="effect1_dropShadow_740_14869" result="shape"/>
</filter>
<filter id="filter4_d_740_14869" x="0.925" y="180.953" width="176.372" height="241.231" filterUnits="userSpaceOnUse" color-interpolation-filters="sRGB">
<feFlood flood-opacity="0" result="BackgroundImageFix"/>
<feColorMatrix in="SourceAlpha" type="matrix" values="0 0 0 0 0 0 0 0 0 0 0 0 0 0 0 0 0 0 127 0" result="hardAlpha"/>
<feMorphology radius="3.63" operator="dilate" in="SourceAlpha" result="effect1_dropShadow_740_14869"/>
<feOffset dx="3.63" dy="3.63"/>
<feGaussianBlur stdDeviation="4.5375"/>
<feComposite in2="hardAlpha" operator="out"/>
<feColorMatrix type="matrix" values="0 0 0 0 0 0 0 0 0 0 0 0 0 0 0 0 0 0 0.25 0"/>
<feBlend mode="normal" in2="BackgroundImageFix" result="effect1_dropShadow_740_14869"/>
<feBlend mode="normal" in="SourceGraphic" in2="effect1_dropShadow_740_14869" result="shape"/>
</filter>
<filter id="filter5_d_740_14869" x="40.302" y="343.692" width="229.981" height="221.194" filterUnits="userSpaceOnUse" color-interpolation-filters="sRGB">
<feFlood flood-opacity="0" result="BackgroundImageFix"/>
<feColorMatrix in="SourceAlpha" type="matrix" values="0 0 0 0 0 0 0 0 0 0 0 0 0 0 0 0 0 0 127 0" result="hardAlpha"/>
<feMorphology radius="3.63" operator="dilate" in="SourceAlpha" result="effect1_dropShadow_740_14869"/>
<feOffset dx="3.63" dy="3.63"/>
<feGaussianBlur stdDeviation="4.5375"/>
<feComposite in2="hardAlpha" operator="out"/>
<feColorMatrix type="matrix" values="0 0 0 0 0 0 0 0 0 0 0 0 0 0 0 0 0 0 0.25 0"/>
<feBlend mode="normal" in2="BackgroundImageFix" result="effect1_dropShadow_740_14869"/>
<feBlend mode="normal" in="SourceGraphic" in2="effect1_dropShadow_740_14869" result="shape"/>
</filter>
<filter id="filter6_d_740_14869" x="236.227" y="378.964" width="233.69" height="191.871" filterUnits="userSpaceOnUse" color-interpolation-filters="sRGB">
<feFlood flood-opacity="0" result="BackgroundImageFix"/>
<feColorMatrix in="SourceAlpha" type="matrix" values="0 0 0 0 0 0 0 0 0 0 0 0 0 0 0 0 0 0 127 0" result="hardAlpha"/>
<feMorphology radius="3.63" operator="dilate" in="SourceAlpha" result="effect1_dropShadow_740_14869"/>
<feOffset dx="3.63" dy="3.63"/>
<feGaussianBlur stdDeviation="4.5375"/>
<feComposite in2="hardAlpha" operator="out"/>
<feColorMatrix type="matrix" values="0 0 0 0 0 0 0 0 0 0 0 0 0 0 0 0 0 0 0.25 0"/>
<feBlend mode="normal" in2="BackgroundImageFix" result="effect1_dropShadow_740_14869"/>
<feBlend mode="normal" in="SourceGraphic" in2="effect1_dropShadow_740_14869" result="shape"/>
</filter>
<filter id="filter7_d_740_14869" x="366.359" y="273.175" width="204.476" height="223.872" filterUnits="userSpaceOnUse" color-interpolation-filters="sRGB">
<feFlood flood-opacity="0" result="BackgroundImageFix"/>
<feColorMatrix in="SourceAlpha" type="matrix" values="0 0 0 0 0 0 0 0 0 0 0 0 0 0 0 0 0 0 127 0" result="hardAlpha"/>
<feMorphology radius="3.63" operator="dilate" in="SourceAlpha" result="effect1_dropShadow_740_14869"/>
<feOffset dx="3.63" dy="3.63"/>
<feGaussianBlur stdDeviation="4.5375"/>
<feComposite in2="hardAlpha" operator="out"/>
<feColorMatrix type="matrix" values="0 0 0 0 0 0 0 0 0 0 0 0 0 0 0 0 0 0 0.25 0"/>
<feBlend mode="normal" in2="BackgroundImageFix" result="effect1_dropShadow_740_14869"/>
<feBlend mode="normal" in="SourceGraphic" in2="effect1_dropShadow_740_14869" result="shape"/>
</filter>
<filter id="filter8_d_740_14869" x="176.98" y="176.98" width="217.8" height="217.8" filterUnits="userSpaceOnUse" color-interpolation-filters="sRGB">
<feFlood flood-opacity="0" result="BackgroundImageFix"/>
<feColorMatrix in="SourceAlpha" type="matrix" values="0 0 0 0 0 0 0 0 0 0 0 0 0 0 0 0 0 0 127 0" result="hardAlpha"/>
<feMorphology radius="3.63" operator="dilate" in="SourceAlpha" result="effect1_dropShadow_740_14869"/>
<feOffset dx="3.63" dy="3.63"/>
<feGaussianBlur stdDeviation="4.5375"/>
<feComposite in2="hardAlpha" operator="out"/>
<feColorMatrix type="matrix" values="0 0 0 0 0 0 0 0 0 0 0 0 0 0 0 0 0 0 0.25 0"/>
<feBlend mode="normal" in2="BackgroundImageFix" result="effect1_dropShadow_740_14869"/>
<feBlend mode="normal" in="SourceGraphic" in2="effect1_dropShadow_740_14869" result="shape"/>
</filter>
<radialGradient id="paint0_radial_740_14869" cx="0" cy="0" r="1" gradientUnits="userSpaceOnUse" gradientTransform="translate(410.383 123.847) rotate(64.6758) scale(158.499)">
<stop stop-color="#A91B54"/>
<stop offset="1" stop-color="#932466"/>
</radialGradient>
<radialGradient id="paint1_radial_740_14869" cx="0" cy="0" r="1" gradientUnits="userSpaceOnUse" gradientTransform="translate(157.105 109.776) rotate(-4.43267) scale(165.509)">
<stop stop-color="#3E48AE"/>
<stop offset="1" stop-color="#A91B54"/>
</radialGradient>
<radialGradient id="paint2_radial_740_14869" cx="0" cy="0" r="1" gradientUnits="userSpaceOnUse" gradientTransform="translate(99.5423 198.039) rotate(-37.3703) scale(292.943)">
<stop stop-color="#3E48AE"/>
<stop offset="1" stop-color="#BE1242"/>
</radialGradient>
<radialGradient id="paint3_radial_740_14869" cx="0" cy="0" r="1" gradientUnits="userSpaceOnUse" gradientTransform="translate(80.3547 210.831) rotate(88.698) scale(168.895)">
<stop stop-color="#533F9C"/>
<stop offset="1" stop-color="#3E48AE"/>
</radialGradient>
<radialGradient id="paint4_radial_740_14869" cx="0" cy="0" r="1" gradientUnits="userSpaceOnUse" gradientTransform="translate(237.694 479.458) rotate(-146.821) scale(158.948)">
<stop stop-color="#69368A"/>
<stop offset="1" stop-color="#533F9C"/>
</radialGradient>
<radialGradient id="paint5_radial_740_14869" cx="0" cy="0" r="1" gradientUnits="userSpaceOnUse" gradientTransform="translate(411.662 443.641) rotate(164.305) scale(160.775)">
<stop stop-color="#7E2D78"/>
<stop offset="1" stop-color="#69368A"/>
</radialGradient>
<radialGradient id="paint6_radial_740_14869" cx="0" cy="0" r="1" gradientUnits="userSpaceOnUse" gradientTransform="translate(488.413 282.25) rotate(116.12) scale(159.804)">
<stop stop-color="#932466"/>
<stop offset="1" stop-color="#7E2D78"/>
</radialGradient>
<clipPath id="clip0_740_14869">
<rect width="20.625" height="27.5" fill="white" transform="translate(401.287 473.091)"/>
</clipPath>
<clipPath id="clip1_740_14869">
<rect width="27.5" height="27.5" fill="white" transform="translate(62.8545 140.049)"/>
</clipPath>
<clipPath id="clip2_740_14869">
<rect width="24.0625" height="27.5" fill="white" transform="translate(246.951 28.1504)"/>
</clipPath>
<clipPath id="clip3_740_14869">
<rect width="27.5" height="27.5" fill="white" transform="translate(447.488 100.535)"/>
</clipPath>
<clipPath id="clip4_740_14869">
<rect width="27.5" height="27.5" fill="white" transform="translate(508.85 300.4)"/>
</clipPath>
</defs>
</svg>
