<svg width="81" height="20" viewBox="0 0 81 20" fill="none" xmlns="http://www.w3.org/2000/svg">
<mask id="mask0_577_426" style="mask-type:luminance" maskUnits="userSpaceOnUse" x="0" y="0" width="81" height="20">
<path d="M80.333 0.854492H0.333008V19.4013H80.333V0.854492Z" fill="white"/>
</mask>
<g mask="url(#mask0_577_426)">
<path d="M3.62304 14.3576L3.15373 15.1728C3.08711 15.2874 2.99164 15.3826 2.87682 15.4488C2.762 15.5151 2.63183 15.5502 2.49926 15.5505H1.55948C1.42665 15.5504 1.29618 15.5154 1.18107 15.4492C1.06596 15.3829 0.970239 15.2876 0.903454 15.1728L0.434144 14.3576C0.367886 14.2427 0.333008 14.1124 0.333008 13.9797C0.333008 13.8471 0.367886 13.7168 0.434144 13.6018L0.903454 12.7867C1.03246 12.5636 1.10039 12.3105 1.10039 12.0528C1.10039 11.7951 1.03246 11.542 0.903454 11.3189L0.434144 10.5038C0.367886 10.3888 0.333008 10.2585 0.333008 10.1259C0.333008 9.99322 0.367886 9.8629 0.434144 9.74798L0.903454 8.93281C1.03246 8.70975 1.10039 8.45663 1.10039 8.19895C1.10039 7.94128 1.03246 7.68815 0.903454 7.4651L0.434144 6.64992C0.367886 6.535 0.333008 6.40468 0.333008 6.27203C0.333008 6.13938 0.367886 6.00906 0.434144 5.89414L0.903454 5.07896C0.970133 4.96394 1.06579 4.86839 1.18089 4.80185C1.296 4.73531 1.42653 4.70009 1.55948 4.69971H2.49926C2.63196 4.70032 2.76218 4.73565 2.877 4.80219C2.99181 4.86872 3.08722 4.96414 3.15373 5.07896L3.62304 5.89414C3.6893 6.00906 3.72418 6.13938 3.72418 6.27203C3.72418 6.40468 3.6893 6.535 3.62304 6.64992L3.15373 7.4651C3.02537 7.68837 2.95781 7.94141 2.95781 8.19895C2.95781 8.4565 3.02537 8.70953 3.15373 8.93281L3.62304 9.74798C3.75213 9.97087 3.93743 10.156 4.16045 10.2849C4.38346 10.4137 4.63637 10.4819 4.89394 10.4824H5.83373C5.9665 10.4827 6.09686 10.5179 6.21173 10.5844C6.32661 10.651 6.42195 10.7466 6.4882 10.8617L6.95867 11.6768C7.02493 11.7918 7.05981 11.9221 7.05981 12.0547C7.05981 12.1874 7.02493 12.3177 6.95867 12.4326L6.4882 13.2478C6.42184 13.3627 6.32643 13.458 6.21155 13.5243C6.09667 13.5906 5.96637 13.6255 5.83373 13.6255H4.89394C4.63642 13.6259 4.3835 13.6938 4.16043 13.8225C3.93735 13.9511 3.75192 14.1361 3.62265 14.3588" fill="#2C2B2A"/>
<path d="M3.77047 4.72854C3.70421 4.61362 3.66933 4.48329 3.66933 4.35064C3.66933 4.21799 3.70421 4.08767 3.77047 3.97275L4.23978 3.15757C4.3063 3.04275 4.4017 2.94733 4.51652 2.8808C4.63133 2.81427 4.76155 2.77894 4.89425 2.77832H5.83403C5.9668 2.77859 6.09716 2.81377 6.21204 2.88034C6.32691 2.9469 6.42226 3.04251 6.48851 3.15757L6.95898 3.97275C7.08825 4.19548 7.27368 4.3804 7.49675 4.50907C7.71983 4.63774 7.97275 4.70565 8.23027 4.70602H9.16966C9.30239 4.70648 9.43268 4.74175 9.54752 4.80829C9.66236 4.87484 9.75774 4.97035 9.82413 5.08527L10.2946 5.90045C10.3609 6.01537 10.3957 6.14569 10.3957 6.27834C10.3957 6.411 10.3609 6.54132 10.2946 6.65624L9.82413 7.47141C9.75766 7.58616 9.66223 7.68143 9.54737 7.74772C9.43252 7.814 9.30227 7.84896 9.16966 7.84911H8.23027C7.97275 7.84948 7.71983 7.91739 7.49675 8.04606C7.27368 8.17473 7.08825 8.35966 6.95898 8.58238L6.48851 9.39756C6.42215 9.51241 6.32674 9.60777 6.21186 9.67407C6.09698 9.74037 5.96667 9.77527 5.83403 9.77526H4.89386C4.76129 9.77492 4.63112 9.73987 4.5163 9.67361C4.40148 9.60734 4.30601 9.51217 4.23939 9.39756L3.77008 8.58238C3.70382 8.46746 3.66895 8.33714 3.66895 8.20449C3.66895 8.07184 3.70382 7.94152 3.77008 7.8266L4.23939 7.01142C4.36776 6.78815 4.43531 6.53511 4.43531 6.27757C4.43531 6.02002 4.36776 5.76699 4.23939 5.54371L3.77047 4.72854Z" fill="#2C2B2A"/>
<path d="M13.6295 15.5275C13.6957 15.6424 13.7306 15.7727 13.7306 15.9054C13.7306 16.038 13.6957 16.1683 13.6295 16.2833L13.1602 17.0981C13.0935 17.2127 12.9981 17.3078 12.8832 17.3741C12.7684 17.4404 12.6383 17.4754 12.5057 17.4758H11.5659C11.3083 17.4759 11.0553 17.5438 10.8322 17.6724C10.6091 17.8011 10.4237 17.9862 10.2946 18.209L9.82413 19.0242C9.75766 19.1389 9.66223 19.2342 9.54737 19.3005C9.43252 19.3668 9.30227 19.4018 9.16966 19.4019H8.23027C8.09766 19.4018 7.96742 19.3668 7.85256 19.3005C7.73771 19.2342 7.64227 19.1389 7.5758 19.0242L7.10532 18.209C6.97605 17.9863 6.79063 17.8014 6.56755 17.6727C6.34448 17.544 6.09156 17.4761 5.83403 17.4758H4.89386C4.76129 17.4754 4.63112 17.4404 4.5163 17.3741C4.40148 17.3078 4.30601 17.2127 4.23939 17.0981L3.77008 16.2829C3.70382 16.168 3.66895 16.0376 3.66895 15.905C3.66895 15.7723 3.70382 15.642 3.77008 15.5271L4.23939 14.7119C4.30601 14.5973 4.40148 14.5021 4.5163 14.4359C4.63112 14.3696 4.76129 14.3346 4.89386 14.3342H5.83365C6.09097 14.3336 6.34366 14.2656 6.5666 14.1371C6.78955 14.0086 6.975 13.8241 7.10455 13.6017L7.57502 12.7865C7.64149 12.6718 7.73693 12.5765 7.85179 12.5102C7.96664 12.444 8.09688 12.409 8.22949 12.4088H9.16966C9.42724 12.4081 9.68014 12.3399 9.90317 12.211C10.1262 12.0822 10.3116 11.8972 10.441 11.6744L10.9103 10.8592C10.9769 10.7442 11.0726 10.6487 11.1877 10.5821C11.3028 10.5156 11.4333 10.4804 11.5663 10.48H12.5061C12.6388 10.4806 12.769 10.5159 12.8838 10.5825C12.9986 10.649 13.094 10.7444 13.1605 10.8592L13.6299 11.6744C13.6961 11.7893 13.731 11.9196 13.731 12.0523C13.731 12.185 13.6961 12.3153 13.6299 12.4302L13.1605 13.2454C13.0322 13.4686 12.9646 13.7217 12.9646 13.9792C12.9646 14.2368 13.0322 14.4898 13.1605 14.7131L13.6295 15.5275Z" fill="#2C2B2A"/>
<path d="M7.10504 2.80277C7.03878 2.68785 7.00391 2.55753 7.00391 2.42487C7.00391 2.29222 7.03878 2.1619 7.10504 2.04698L7.57552 1.2318C7.64216 1.11724 7.73764 1.02212 7.85247 0.955924C7.96729 0.889727 8.09745 0.854756 8.22999 0.854492H9.16977C9.3025 0.854954 9.43279 0.890218 9.54763 0.956766C9.66247 1.02331 9.75785 1.11882 9.82424 1.23374L10.2947 2.04892C10.4238 2.27178 10.6092 2.45681 10.8323 2.5855C11.0554 2.71419 11.3084 2.78201 11.566 2.78219H12.5058C12.6385 2.78281 12.7687 2.81814 12.8835 2.88467C12.9983 2.9512 13.0937 3.04662 13.1603 3.16144L13.6296 3.97662C13.6958 4.09154 13.7307 4.22186 13.7307 4.35451C13.7307 4.48717 13.6958 4.61749 13.6296 4.73241L13.1603 5.54758C13.0936 5.6622 12.9982 5.75737 12.8833 5.82363C12.7685 5.88989 12.6384 5.92494 12.5058 5.92528H11.566C11.4332 5.92517 11.3027 5.89024 11.1876 5.82397C11.0725 5.75769 10.9768 5.6624 10.91 5.54758L10.4407 4.73241C10.3119 4.50902 10.1268 4.32335 9.90374 4.19398C9.6807 4.06462 9.42761 3.99609 9.16977 3.99525H8.22999C8.09738 3.99511 7.96714 3.96014 7.85228 3.89386C7.73743 3.82758 7.64199 3.7323 7.57552 3.61756L7.10504 2.80277Z" fill="#2C2B2A"/>
<path d="M16.4947 11.3204C16.3664 11.5437 16.2988 11.7968 16.2988 12.0543C16.2988 12.3118 16.3664 12.5649 16.4947 12.7882L16.9652 13.6033C17.0315 13.7182 17.0663 13.8486 17.0663 13.9812C17.0663 14.1139 17.0315 14.2442 16.9652 14.3591L16.4947 15.1743C16.4284 15.2891 16.333 15.3845 16.2181 15.4508C16.1032 15.5171 15.9729 15.552 15.8403 15.552H14.9005C14.7679 15.5517 14.6377 15.5166 14.5229 15.4503C14.4081 15.3841 14.3126 15.2889 14.246 15.1743L13.7767 14.3591C13.7104 14.2442 13.6756 14.1139 13.6756 13.9812C13.6756 13.8486 13.7104 13.7182 13.7767 13.6033L14.246 12.7882C14.3744 12.5649 14.4419 12.3118 14.4419 12.0543C14.4419 11.7968 14.3744 11.5437 14.246 11.3204L13.7767 10.5053C13.6472 10.2827 13.4617 10.0979 13.2387 9.96931C13.0157 9.84067 12.7629 9.77264 12.5054 9.772H11.566C11.3084 9.77217 11.0554 9.84 10.8323 9.96869C10.6092 10.0974 10.4238 10.2824 10.2947 10.5053L9.82424 11.3204C9.75777 11.4352 9.66233 11.5305 9.54748 11.5968C9.43262 11.663 9.30238 11.698 9.16977 11.6981H8.22999C8.09738 11.698 7.96714 11.663 7.85228 11.5968C7.73743 11.5305 7.64199 11.4352 7.57552 11.3204L7.10504 10.5053C7.03878 10.3903 7.00391 10.26 7.00391 10.1274C7.00391 9.99472 7.03878 9.8644 7.10504 9.74948L7.57552 8.93431C7.64192 8.81938 7.73729 8.72387 7.85213 8.65733C7.96697 8.59078 8.09726 8.55551 8.22999 8.55505H9.16977C9.42714 8.55484 9.67996 8.48716 9.90302 8.35878C10.1261 8.23039 10.3116 8.04577 10.4411 7.82334L10.9104 7.00816C10.9771 6.89313 11.0727 6.79759 11.1878 6.73105C11.3029 6.66451 11.4334 6.62929 11.5664 6.62891H12.5062C12.6389 6.62952 12.7691 6.66485 12.8839 6.73138C12.9987 6.79792 13.0941 6.89333 13.1607 7.00816L13.63 7.82334C13.7592 8.04606 13.9447 8.23099 14.1677 8.35966C14.3908 8.48832 14.6437 8.55623 14.9012 8.55661H15.841C15.9738 8.55687 16.1042 8.59205 16.219 8.65862C16.3339 8.72519 16.4293 8.8208 16.4955 8.93586L16.966 9.75104C17.0322 9.86595 17.0671 9.99628 17.0671 10.1289C17.0671 10.2616 17.0322 10.3919 16.966 10.5068L16.4947 11.3204Z" fill="#2C2B2A"/>
<path d="M13.7763 5.89853L14.2456 5.08335C14.3122 4.96853 14.4076 4.87311 14.5224 4.80658C14.6372 4.74005 14.7674 4.70472 14.9001 4.7041H15.8399C15.9727 4.70437 16.103 4.73955 16.2179 4.80612C16.3328 4.87268 16.4281 4.96829 16.4944 5.08335L16.9648 5.89853C17.0311 6.01345 17.066 6.14377 17.066 6.27642C17.066 6.40908 17.0311 6.5394 16.9648 6.65432L16.4944 7.46949C16.428 7.58434 16.3326 7.67971 16.2177 7.74601C16.1028 7.8123 15.9725 7.8472 15.8399 7.84719H14.8997C14.7672 7.84685 14.637 7.8118 14.5222 7.74554C14.4073 7.67928 14.3119 7.58411 14.2452 7.46949L13.7759 6.65432C13.7097 6.5394 13.6748 6.40908 13.6748 6.27642C13.6748 6.14377 13.7101 6.01345 13.7763 5.89853Z" fill="#2C2B2A"/>
<path d="M10.295 6.65428L9.82452 7.46946C9.75805 7.5842 9.66261 7.67948 9.54776 7.74576C9.43291 7.81205 9.30266 7.84701 9.17005 7.84716H8.23027C7.97275 7.84753 7.71983 7.91544 7.49675 8.04411C7.27368 8.17278 7.08825 8.3577 6.95898 8.58043L6.48851 9.39561C6.42215 9.51046 6.32674 9.60582 6.21186 9.67212C6.09698 9.73842 5.96667 9.77332 5.83403 9.77331H4.89386C4.76129 9.77296 4.63112 9.73792 4.5163 9.67165C4.40148 9.60539 4.30601 9.51022 4.23939 9.39561L3.77008 8.58043C3.70382 8.46551 3.66895 8.33519 3.66895 8.20254C3.66895 8.06988 3.70382 7.93956 3.77008 7.82464L4.23939 7.00947C4.36776 6.78619 4.43531 6.53316 4.43531 6.27561C4.43531 6.01807 4.36776 5.76503 4.23939 5.54176L3.77008 4.72658C3.70382 4.61166 3.66895 4.48134 3.66895 4.34869C3.66895 4.21604 3.70382 4.08572 3.77008 3.9708L4.23939 3.15562C4.30591 3.0408 4.40131 2.94538 4.51613 2.87885C4.63094 2.81231 4.76117 2.77698 4.89386 2.77637H5.83365C5.96641 2.77663 6.09678 2.81181 6.21165 2.87838C6.32652 2.94495 6.42187 3.04056 6.48812 3.15562L6.95859 3.9708C7.08765 4.19394 7.27303 4.37929 7.4962 4.50831C7.71936 4.63734 7.97249 4.70551 8.23027 4.70601H9.16966C9.30239 4.70647 9.43268 4.74173 9.54752 4.80828C9.66236 4.87483 9.75774 4.97033 9.82413 5.08526L10.2946 5.90044C10.3609 6.01536 10.3957 6.14568 10.3957 6.27833C10.3957 6.41098 10.3609 6.5413 10.2946 6.65622" fill="#2C2B2A"/>
<path d="M6.95906 12.4315L6.48859 13.2466C6.42223 13.3615 6.32682 13.4569 6.21194 13.5232C6.09706 13.5895 5.96675 13.6244 5.83412 13.6243H4.89394C4.63642 13.6247 4.3835 13.6926 4.16043 13.8213C3.93735 13.95 3.75192 14.1349 3.62265 14.3576L3.15334 15.1728C3.08672 15.2874 2.99125 15.3826 2.87643 15.4488C2.76161 15.5151 2.63144 15.5502 2.49887 15.5505H1.55948C1.42665 15.5504 1.29618 15.5154 1.18107 15.4492C1.06596 15.3829 0.970239 15.2876 0.903454 15.1728L0.434144 14.3576C0.367886 14.2427 0.333008 14.1124 0.333008 13.9797C0.333008 13.8471 0.367886 13.7168 0.434144 13.6018L0.903454 12.7867C1.03246 12.5636 1.10039 12.3105 1.10039 12.0528C1.10039 11.7951 1.03246 11.542 0.903454 11.3189L0.434144 10.5038C0.367886 10.3888 0.333008 10.2585 0.333008 10.1259C0.333008 9.99322 0.367886 9.8629 0.434144 9.74798L0.903454 8.93281C1.03246 8.70975 1.10039 8.45663 1.10039 8.19895C1.10039 7.94128 1.03246 7.68815 0.903454 7.4651L0.434144 6.64992C0.367886 6.535 0.333008 6.40468 0.333008 6.27203C0.333008 6.13938 0.367886 6.00906 0.434144 5.89414L0.903454 5.07896C0.970133 4.96394 1.06579 4.86839 1.18089 4.80185C1.296 4.73531 1.42653 4.70009 1.55948 4.69971H2.49926C2.63196 4.70032 2.76218 4.73565 2.877 4.80219C2.99181 4.86872 3.08722 4.96414 3.15373 5.07896L3.62304 5.89414C3.6893 6.00906 3.72418 6.13938 3.72418 6.27203C3.72418 6.40468 3.6893 6.535 3.62304 6.64992L3.15373 7.4651C3.02537 7.68837 2.95781 7.94141 2.95781 8.19895C2.95781 8.4565 3.02537 8.70953 3.15373 8.93281L3.62304 9.74798C3.75218 9.9708 3.9375 10.1558 4.16051 10.2846C4.38352 10.4135 4.63641 10.4815 4.89394 10.482H5.83373C5.9665 10.4823 6.09686 10.5175 6.21173 10.584C6.32661 10.6506 6.42195 10.7462 6.4882 10.8613L6.95867 11.6765C7.02493 11.7914 7.05981 11.9217 7.05981 12.0544C7.05981 12.187 7.02493 12.3173 6.95867 12.4322" fill="#2C2B2A"/>
<path d="M13.6295 15.5275C13.6957 15.6424 13.7306 15.7727 13.7306 15.9054C13.7306 16.038 13.6957 16.1683 13.6295 16.2833L13.1602 17.0981C13.0935 17.2127 12.9981 17.3078 12.8832 17.3741C12.7684 17.4404 12.6383 17.4754 12.5057 17.4758H11.5659C11.3083 17.4759 11.0553 17.5438 10.8322 17.6724C10.6091 17.8011 10.4237 17.9862 10.2946 18.209L9.82413 19.0242C9.75766 19.1389 9.66223 19.2342 9.54737 19.3005C9.43252 19.3668 9.30227 19.4018 9.16966 19.4019H8.23027C8.09766 19.4018 7.96742 19.3668 7.85256 19.3005C7.73771 19.2342 7.64227 19.1389 7.5758 19.0242L7.10532 18.209C6.97605 17.9863 6.79063 17.8014 6.56755 17.6727C6.34448 17.544 6.09156 17.4761 5.83403 17.4758H4.89386C4.76129 17.4754 4.63112 17.4404 4.5163 17.3741C4.40148 17.3078 4.30601 17.2127 4.23939 17.0981L3.77008 16.2829C3.70382 16.168 3.66895 16.0376 3.66895 15.905C3.66895 15.7723 3.70382 15.642 3.77008 15.5271L4.23939 14.7119C4.30601 14.5973 4.40148 14.5021 4.5163 14.4359C4.63112 14.3696 4.76129 14.3346 4.89386 14.3342H5.83365C6.09097 14.3336 6.34366 14.2656 6.5666 14.1371C6.78955 14.0086 6.975 13.8241 7.10455 13.6017L7.57502 12.7865C7.64149 12.6718 7.73693 12.5765 7.85179 12.5102C7.96664 12.444 8.09688 12.409 8.22949 12.4088H9.16966C9.42724 12.4081 9.68014 12.3399 9.90317 12.211C10.1262 12.0822 10.3116 11.8972 10.441 11.6744L10.9103 10.8592C10.9769 10.7442 11.0726 10.6487 11.1877 10.5821C11.3028 10.5156 11.4333 10.4804 11.5663 10.48H12.5061C12.6388 10.4806 12.769 10.5159 12.8838 10.5825C12.9986 10.649 13.094 10.7444 13.1605 10.8592L13.6299 11.6744C13.6961 11.7893 13.731 11.9196 13.731 12.0523C13.731 12.185 13.6961 12.3153 13.6299 12.4302L13.1605 13.2454C13.0322 13.4686 12.9646 13.7217 12.9646 13.9792C12.9646 14.2368 13.0322 14.4898 13.1605 14.7131L13.6295 15.5275Z" fill="#2C2B2A"/>
<path d="M13.6296 4.72853L13.1603 5.5437C13.0936 5.65831 12.9982 5.75349 12.8833 5.81975C12.7685 5.88601 12.6384 5.92106 12.5058 5.9214H11.566C11.4332 5.92129 11.3027 5.88636 11.1876 5.82008C11.0725 5.75381 10.9768 5.65852 10.91 5.5437L10.4407 4.72853C10.3114 4.50586 10.1261 4.32097 9.90307 4.1923C9.68007 4.06364 9.42723 3.99569 9.16977 3.99525H8.22999C8.09738 3.99511 7.96714 3.96014 7.85228 3.89386C7.73743 3.82758 7.64199 3.7323 7.57552 3.61756L7.10504 2.80238C7.03878 2.68746 7.00391 2.55714 7.00391 2.42448C7.00391 2.29183 7.03878 2.16151 7.10504 2.04659L7.57552 1.23141C7.64221 1.11692 7.73771 1.02188 7.85253 0.955756C7.96735 0.889629 8.09749 0.854717 8.22999 0.854492L9.16977 0.854492C9.3025 0.854954 9.43279 0.890218 9.54763 0.956766C9.66247 1.02331 9.75785 1.11882 9.82424 1.23374L10.2947 2.04892C10.4238 2.27178 10.6092 2.45681 10.8323 2.5855C11.0554 2.71419 11.3084 2.78201 11.566 2.78219H12.5058C12.6385 2.78281 12.7687 2.81814 12.8835 2.88467C12.9983 2.9512 13.0937 3.04662 13.1603 3.16144L13.6296 3.97662C13.6958 4.09154 13.7307 4.22186 13.7307 4.35451C13.7307 4.48717 13.6958 4.61749 13.6296 4.73241" fill="#2C2B2A"/>
<path d="M16.9656 13.6014C17.0318 13.7163 17.0667 13.8466 17.0667 13.9793C17.0667 14.1119 17.0318 14.2423 16.9656 14.3572L16.4951 15.1724C16.4288 15.2872 16.3334 15.3826 16.2185 15.4489C16.1036 15.5152 15.9733 15.5501 15.8406 15.5501H14.9005C14.7679 15.5497 14.6377 15.5147 14.5229 15.4484C14.4081 15.3821 14.3126 15.287 14.246 15.1724L13.7767 14.3572C13.7104 14.2423 13.6756 14.1119 13.6756 13.9793C13.6756 13.8466 13.7104 13.7163 13.7767 13.6014L14.246 12.7862C14.3744 12.5629 14.4419 12.3099 14.4419 12.0524C14.4419 11.7948 14.3744 11.5418 14.246 11.3185L13.7767 10.5033C13.6472 10.2808 13.4617 10.096 13.2387 9.96737C13.0157 9.83873 12.7629 9.7707 12.5054 9.77006H11.566C11.3084 9.77023 11.0554 9.83806 10.8323 9.96675C10.6092 10.0954 10.4238 10.2805 10.2947 10.5033L9.82424 11.3185C9.75777 11.4332 9.66233 11.5285 9.54748 11.5948C9.43262 11.6611 9.30238 11.6961 9.16977 11.6962H8.22999C8.09738 11.6961 7.96714 11.6611 7.85228 11.5948C7.73743 11.5285 7.64199 11.4332 7.57552 11.3185L7.10504 10.5033C7.03878 10.3884 7.00391 10.2581 7.00391 10.1254C7.00391 9.99278 7.03878 9.86246 7.10504 9.74754L7.57552 8.93236C7.64192 8.81744 7.73729 8.72193 7.85213 8.65539C7.96697 8.58884 8.09726 8.55357 8.22999 8.55311H9.16977C9.42695 8.5531 9.67965 8.48571 9.90269 8.35768C10.1257 8.22964 10.3114 8.04541 10.4411 7.82334L10.9104 7.00816C10.9771 6.89313 11.0727 6.79759 11.1878 6.73105C11.3029 6.66451 11.4334 6.62929 11.5664 6.62891H12.5062C12.6389 6.62952 12.7691 6.66485 12.8839 6.73138C12.9987 6.79792 13.0941 6.89333 13.1607 7.00816L13.63 7.82334C13.7592 8.04606 13.9447 8.23099 14.1677 8.35966C14.3908 8.48832 14.6437 8.55623 14.9012 8.55661H15.841C15.9738 8.55687 16.1042 8.59205 16.219 8.65862C16.3339 8.72519 16.4293 8.8208 16.4955 8.93586L16.966 9.75104C17.0322 9.86595 17.0671 9.99628 17.0671 10.1289C17.0671 10.2616 17.0322 10.3919 16.966 10.5068L16.4955 11.322C16.3671 11.5453 16.2996 11.7983 16.2996 12.0559C16.2996 12.3134 16.3671 12.5664 16.4955 12.7897L16.9656 13.6014Z" fill="#2C2B2A"/>
<path d="M16.9648 6.65432L16.4944 7.46949C16.428 7.58434 16.3326 7.67971 16.2177 7.74601C16.1028 7.8123 15.9725 7.8472 15.8399 7.84719H14.8997C14.7672 7.84685 14.637 7.8118 14.5222 7.74554C14.4073 7.67928 14.3119 7.58411 14.2452 7.46949L13.7759 6.65432C13.7097 6.5394 13.6748 6.40908 13.6748 6.27642C13.6748 6.14377 13.7097 6.01345 13.7759 5.89853L14.2452 5.08335C14.3118 4.96853 14.4072 4.87311 14.522 4.80658C14.6368 4.74005 14.767 4.70472 14.8997 4.7041H15.8395C15.9723 4.70437 16.1026 4.73955 16.2175 4.80612C16.3324 4.87268 16.4277 4.96829 16.494 5.08335L16.9644 5.89853C17.0307 6.01345 17.0656 6.14377 17.0656 6.27642C17.0656 6.40908 17.0311 6.5394 16.9648 6.65432Z" fill="#2C2B2A"/>
<path d="M28.0273 6.47285C27.5561 6.44922 27.0879 6.56002 26.6774 6.79232C26.2668 7.02463 25.9307 7.36887 25.7083 7.7849C25.5358 7.38196 25.2451 7.04083 24.8747 6.80657C24.5042 6.57231 24.0714 6.45594 23.6335 6.47285C23.2148 6.45943 22.8 6.55617 22.4305 6.75339C22.061 6.9506 21.7498 7.24138 21.528 7.59663V6.67509H20.2314V13.6057H21.573V9.4269C21.573 8.39046 22.2205 7.66961 23.187 7.66961C24.2235 7.66961 24.6563 8.36057 24.6563 9.25416V13.6057H26.0103V9.41331C26.0103 8.41879 26.6593 7.67 27.6104 7.67C28.6328 7.67 29.0796 8.34698 29.0796 9.25455V13.606H30.4196V9.10937C30.4196 7.29463 29.2384 6.47285 28.0277 6.47285" fill="#2C2B2A"/>
<path d="M38.0138 12.468V8.99419C38.0138 7.64021 37.206 6.45898 35.1316 6.45898C33.6328 6.45898 32.4361 7.38052 32.2928 8.70654L33.5894 9.0101C33.5986 8.81449 33.6468 8.62271 33.7312 8.44599C33.8156 8.26927 33.9344 8.11119 34.0807 7.98102C34.227 7.85085 34.3978 7.75121 34.5832 7.68796C34.7685 7.6247 34.9646 7.5991 35.1599 7.61265C36.2119 7.61265 36.6587 8.17435 36.6587 8.85172C36.6587 9.09628 36.5422 9.31249 36.1265 9.36994L34.2528 9.644C33.0576 9.81674 32.1484 10.5093 32.1484 11.7483C32.1484 12.8426 33.0572 13.8231 34.469 13.8231C34.9095 13.8426 35.3474 13.7463 35.7392 13.544C36.131 13.3417 36.463 13.0403 36.7022 12.6699C36.6975 12.9837 36.7216 13.2974 36.774 13.6069H38.1C38.0387 13.2309 38.01 12.8502 38.0142 12.4692M36.6587 10.6389C36.6587 12.1528 35.7659 12.6854 34.6557 12.6854C34.5151 12.6952 34.3741 12.6766 34.2408 12.6308C34.1076 12.585 33.9849 12.5129 33.8801 12.4187C33.7753 12.3246 33.6904 12.2103 33.6306 12.0828C33.5708 11.9552 33.5372 11.8169 33.5319 11.6761C33.5312 11.4056 33.6364 11.1455 33.825 10.9515C34.0137 10.7575 34.2707 10.645 34.5412 10.6381L36.6595 10.3206L36.6587 10.6389Z" fill="#2C2B2A"/>
<path d="M43.4317 7.89987V6.67516H41.9329V4.48389H40.6907V5.60961C40.7057 5.75327 40.6885 5.89848 40.6402 6.03462C40.5919 6.17076 40.5139 6.29441 40.4117 6.39655C40.3096 6.49869 40.1859 6.57674 40.0498 6.62501C39.9137 6.67328 39.7685 6.69054 39.6248 6.67555H39.251V7.89987H40.5754V11.704C40.5754 12.9582 41.3254 13.6775 42.5066 13.6775C42.8191 13.6833 43.1305 13.6397 43.4293 13.5483V12.395C43.2538 12.4318 43.075 12.4511 42.8956 12.4524C42.1891 12.4524 41.9306 12.1365 41.9306 11.5014V7.89987H43.4317Z" fill="#2C2B2A"/>
<path d="M51.2412 10.09C51.2412 7.92824 50.0444 6.45898 47.9121 6.45898C46.1688 6.45898 44.5986 7.94377 44.5986 10.1195C44.5986 12.468 46.2267 13.822 48.0849 13.822C48.7718 13.8478 49.4483 13.6477 50.0106 13.2521C50.5729 12.8566 50.9899 12.2876 51.1977 11.6323L50.0304 11.2278C49.9175 11.6496 49.662 12.0193 49.3073 12.2741C48.9526 12.5288 48.5207 12.6529 48.0849 12.6252C47.8081 12.6295 47.5332 12.5779 47.2768 12.4735C47.0205 12.3691 46.7878 12.214 46.5927 12.0175C46.3977 11.821 46.2443 11.5872 46.1418 11.33C46.0393 11.0729 45.9897 10.7977 45.9961 10.5209H51.2117C51.2323 10.3776 51.2422 10.2329 51.2412 10.0881M46.0395 9.42506C46.0634 8.94265 46.2735 8.48831 46.6256 8.15766C46.9777 7.82701 47.4443 7.64583 47.9273 7.65225C48.1716 7.6304 48.4178 7.66025 48.6498 7.73986C48.8818 7.81946 49.0944 7.94704 49.2739 8.11428C49.4533 8.28152 49.5955 8.48467 49.6912 8.71051C49.7869 8.93635 49.834 9.17982 49.8293 9.42506H46.0395Z" fill="#2C2B2A"/>
<path d="M56.3712 6.55995C55.9318 6.54442 55.4982 6.66277 55.1276 6.8993C54.7571 7.13584 54.4672 7.47939 54.2963 7.88442V6.67524H52.9707V13.6058H54.3247V10.1335C54.3247 8.60527 55.0886 8.00126 56.2268 8.00126C56.4246 8.00187 56.6221 8.01601 56.818 8.04357V6.60226C56.6705 6.57545 56.521 6.56129 56.3712 6.55995Z" fill="#2C2B2A"/>
<path d="M58.2571 13.6061H59.5986V6.67589H58.2571V13.6061ZM58.9201 3.07281C58.7283 3.07434 58.5413 3.1325 58.3826 3.23998C58.2238 3.34746 58.1003 3.49946 58.0276 3.67689C57.955 3.85432 57.9364 4.04927 57.9742 4.23724C58.0119 4.42522 58.1044 4.59784 58.24 4.73341C58.3756 4.86899 58.5482 4.96148 58.7362 4.99926C58.9241 5.03704 59.1191 5.01843 59.2965 4.94577C59.4739 4.8731 59.626 4.74963 59.7334 4.59085C59.8409 4.43207 59.8991 4.24508 59.9006 4.05335C59.902 3.92421 59.8775 3.79609 59.8287 3.67652C59.7799 3.55695 59.7078 3.44831 59.6164 3.35699C59.5251 3.26567 59.4165 3.19349 59.2969 3.1447C59.1773 3.0959 59.0492 3.07146 58.9201 3.07281Z" fill="#2C2B2A"/>
<path d="M64.8714 6.45898C62.7966 6.45898 61.3262 8.02956 61.3262 10.1335C61.3262 12.2518 62.797 13.8212 64.8714 13.8212C66.9459 13.8212 68.4167 12.2506 68.4167 10.1335C68.4167 8.02917 66.9459 6.45898 64.8714 6.45898ZM64.8714 12.6112C63.7181 12.6112 62.7096 11.7475 62.7096 10.1335C62.7096 8.53342 63.7189 7.66972 64.8714 7.66972C66.0239 7.66972 67.0332 8.53342 67.0332 10.1335C67.0332 11.7475 66.0239 12.6112 64.8714 12.6112Z" fill="#2C2B2A"/>
<path d="M77.9405 6.4729C77.4691 6.44907 77.0007 6.55976 76.5898 6.79207C76.1789 7.02438 75.8426 7.36873 75.62 7.78495C75.4476 7.3822 75.1571 7.0412 74.7869 6.80696C74.4167 6.57271 73.9841 6.45624 73.5463 6.4729C73.1279 6.45969 72.7134 6.55653 72.3441 6.75373C71.9748 6.95094 71.6638 7.2416 71.442 7.59668V6.67514H70.1455V13.6057H71.4855V9.42695C71.4855 8.39051 72.133 7.66966 73.0996 7.66966C74.136 7.66966 74.5688 8.36062 74.5688 9.25421V13.6057H75.922V9.41336C75.922 8.41885 76.571 7.67005 77.5217 7.67005C78.5442 7.67005 78.991 8.34703 78.991 9.2546V13.6061H80.331V9.10942C80.331 7.29468 79.1501 6.4729 77.9405 6.4729Z" fill="#2C2B2A"/>
</g>
</svg>
