<svg width="34" height="53" viewBox="0 0 34 53" fill="none" xmlns="http://www.w3.org/2000/svg">
<path fill-rule="evenodd" clip-rule="evenodd" d="M17.0317 6.06811C14.8004 6.06811 12.6605 6.94628 11.0828 8.50948C9.505 10.0727 8.61859 12.1929 8.61859 14.4036V16.3024H2.99848V14.4036C2.99848 10.7161 4.47696 7.17971 7.1087 4.57228C9.74044 1.96485 13.3098 0.5 17.0317 0.5C20.7535 0.5 24.323 1.96485 26.9547 4.57228C29.5865 7.17971 31.0648 10.7161 31.0648 14.4036V27.4638C32.6387 29.9728 33.5477 32.934 33.5477 36.1054C33.5477 45.1599 26.1389 52.5 16.9999 52.5C7.86083 52.5 0.452148 45.1599 0.452148 36.1054C0.452148 27.0509 7.86083 19.7108 16.9999 19.7108C20.0848 19.7108 22.9726 20.5472 25.4448 22.0035V14.4036C25.4448 12.1929 24.5584 10.0727 22.9806 8.50948C21.4029 6.94628 19.263 6.06811 17.0317 6.06811ZM16.9999 25.2789C10.9647 25.2789 6.07227 30.126 6.07227 36.1054C6.07227 42.0847 10.9647 46.9318 16.9999 46.9318C23.0351 46.9318 27.9274 42.0847 27.9274 36.1054C27.9274 30.126 23.0351 25.2789 16.9999 25.2789Z" fill="#F47115"/>
<path d="M17.0552 40.749C19.6158 40.749 21.6917 38.6924 21.6917 36.1553C21.6917 33.6182 19.6158 31.5616 17.0552 31.5616C14.4945 31.5616 12.4187 33.6182 12.4187 36.1553C12.4187 38.6924 14.4945 40.749 17.0552 40.749Z" fill="#F47115"/>
</svg>
