<svg width="80" height="21" viewBox="0 0 80 21" fill="none" xmlns="http://www.w3.org/2000/svg">
<g clip-path="url(#clip0_577_451)">
<path d="M3.10285 1.25195H0L0 15.3323H3.10285V1.25195Z" fill="black"/>
<path d="M72.4832 0.473633C68.3381 0.473633 64.9664 3.81991 64.9664 7.93284C64.9664 9.52839 65.4758 11.0073 66.3389 12.2215L59.6955 18.0146C59.28 18.4262 59.7103 19.5196 60.1248 19.9321C60.5399 20.3433 61.6423 20.7698 62.0571 20.358L67.8583 13.8061C69.1348 14.7979 70.7401 15.3914 72.4832 15.3914C76.6286 15.3914 80.0005 12.0453 80.0005 7.93262C80.0005 3.81991 76.6286 0.473633 72.4832 0.473633ZM72.4832 12.9053C69.7201 12.9053 67.4718 10.6749 67.4718 7.93284C67.4718 5.19081 69.7203 2.95989 72.4832 2.95989C75.247 2.95989 77.4944 5.19103 77.4944 7.93284C77.4944 10.6746 75.247 12.9053 72.4832 12.9053Z" fill="black"/>
<path d="M27.7895 1.27588H31.1026L25.0723 15.3251L19.042 1.29955H22.379L25.0962 7.51979L27.7895 1.27588Z" fill="black"/>
<path d="M52.8645 7.55504L44.9814 1.22149V15.3014H48.3383V8.89219L56.2211 15.6972V1.19629H52.8645V7.55504Z" fill="black"/>
<path d="M9.46428 15.3375V8.92833L17.3471 15.7333V1.23242H13.9904V7.59118L6.10742 1.25763V15.3375H9.46428Z" fill="black"/>
<path d="M62.2974 0.996582H59.1943V15.0767H62.2974V0.996582Z" fill="black"/>
<path d="M42.7723 12.4579H36.8809V9.45045H42.3602V6.61177H36.8809V4.03763H42.627V1.19873H32.9531V15.2486H42.7723V12.4579Z" fill="black"/>
<path d="M75.5489 8.09479C75.5638 9.63881 74.8538 10.8226 74.564 11.2806C75.2642 10.8266 76.2667 9.63677 76.2475 8.08282C76.2624 6.53889 75.2693 5.3549 74.5676 4.89697C74.852 5.35099 75.5681 6.54084 75.5489 8.09479Z" fill="black"/>
<path d="M75.5489 8.09479C75.5638 9.63881 74.8538 10.8226 74.564 11.2806C75.2642 10.8266 76.2667 9.63677 76.2475 8.08282C76.2624 6.53889 75.2693 5.3549 74.5676 4.89697C74.852 5.35099 75.5681 6.54084 75.5489 8.09479Z" fill="black" stroke="white" stroke-width="0.0653772"/>
</g>
<defs>
<clipPath id="clip0_577_451">
<rect width="80" height="20.0519" fill="white" transform="translate(0 0.474121)"/>
</clipPath>
</defs>
</svg>
