<svg width="563" height="563" viewBox="0 0 563 563" fill="none" xmlns="http://www.w3.org/2000/svg">
<g filter="url(#filter0_d_740_15011)">
<path d="M362.13 536.926C307.45 554.692 248.55 554.692 193.87 536.926C139.19 519.159 91.539 484.538 57.7451 438.025L80.184 342.408L167.873 358.013C184.769 381.269 208.595 398.58 235.935 407.463C263.275 416.346 292.725 416.346 320.065 407.463L362.13 536.926Z" fill="url(#paint0_radial_740_15011)"/>
</g>
<g filter="url(#filter1_d_740_15011)">
<path d="M550.25 278C550.25 335.494 532.049 391.511 498.255 438.024C464.461 484.538 416.809 519.159 362.13 536.925L277.77 475.74L320.065 407.462C347.405 398.579 371.23 381.269 388.127 358.012C405.024 334.756 414.125 306.747 414.125 278H550.25Z" fill="url(#paint1_radial_740_15011)"/>
</g>
<g filter="url(#filter2_d_740_15011)">
<path d="M362.13 19.0752C416.81 36.8417 464.461 71.4625 498.255 117.976C532.049 164.489 550.25 220.507 550.25 278L478.481 335.835L414.125 278C414.125 249.253 405.025 221.245 388.128 197.988C371.231 174.731 347.405 157.421 320.065 148.538L362.13 19.0752Z" fill="url(#paint2_radial_740_15011)"/>
</g>
<g filter="url(#filter3_d_740_15011)">
<path d="M57.7451 117.975C91.539 71.4622 139.191 36.8413 193.87 19.0748C248.55 1.30838 307.45 1.30839 362.13 19.0749L394.181 110.193L320.065 148.537C292.725 139.654 263.275 139.654 235.935 148.537C208.595 157.421 184.769 174.731 167.873 197.988L57.7451 117.975Z" fill="url(#paint3_radial_740_15011)"/>
</g>
<g filter="url(#filter4_d_740_15011)">
<path d="M57.745 437.924C23.9511 391.411 5.74999 335.494 5.75 278C5.75001 220.507 23.9513 164.489 57.7451 117.976L163.583 107.969L167.873 197.988C150.976 221.245 141.875 249.253 141.875 278C141.875 306.747 150.976 334.756 167.873 358.012L80.8188 343.692L57.745 437.924Z" fill="url(#paint4_radial_740_15011)"/>
</g>
<path d="M242.221 271.1V252.62H250.616C252.622 252.62 254.391 253.007 255.922 253.781C257.453 254.538 258.65 255.603 259.513 256.976C260.375 258.348 260.806 259.976 260.806 261.86C260.806 263.725 260.375 265.353 259.513 266.744C258.65 268.116 257.453 269.19 255.922 269.964C254.391 270.721 252.622 271.1 250.616 271.1H242.221ZM246.497 267.588H250.405C251.637 267.588 252.701 267.36 253.599 266.902C254.514 266.427 255.218 265.758 255.711 264.896C256.221 264.033 256.477 263.021 256.477 261.86C256.477 260.68 256.221 259.668 255.711 258.824C255.218 257.961 254.514 257.301 253.599 256.844C252.701 256.368 251.637 256.131 250.405 256.131H246.497V267.588ZM261.345 271.1L269.582 252.62H273.806L282.069 271.1H277.581L270.822 254.784H272.512L265.727 271.1H261.345ZM265.463 267.14L266.598 263.892H276.102L277.264 267.14H265.463ZM286.886 271.1V256.104H280.972V252.62H297.076V256.104H291.163V271.1H286.886ZM296.021 271.1L304.257 252.62H308.481L316.745 271.1H312.257L305.498 254.784H307.188L300.403 271.1H296.021ZM300.139 267.14L301.274 263.892H310.778L311.94 267.14H300.139ZM206.23 303.1V284.62H210.507V299.615H219.773V303.1H206.23ZM222.163 303.1V284.62H226.44V303.1H222.163ZM234.785 292.936H243.656V296.368H234.785V292.936ZM235.102 303.1H230.825V284.62H244.791V288.052H235.102V303.1ZM251.62 292.064H260.517V295.391H251.62V292.064ZM251.937 299.668H261.995V303.1H247.686V284.62H261.652V288.052H251.937V299.668ZM274.242 303.416C272.816 303.416 271.487 303.188 270.255 302.73C269.041 302.255 267.985 301.586 267.087 300.724C266.19 299.861 265.486 298.849 264.975 297.688C264.483 296.526 264.236 295.25 264.236 293.86C264.236 292.469 264.483 291.193 264.975 290.032C265.486 288.87 266.19 287.858 267.087 286.996C268.003 286.133 269.067 285.473 270.282 285.016C271.496 284.54 272.825 284.303 274.268 284.303C275.87 284.303 277.313 284.584 278.598 285.148C279.9 285.693 280.991 286.503 281.871 287.576L279.126 290.111C278.492 289.389 277.788 288.852 277.014 288.5C276.239 288.131 275.395 287.946 274.479 287.946C273.617 287.946 272.825 288.087 272.103 288.368C271.382 288.65 270.757 289.055 270.229 289.583C269.701 290.111 269.287 290.736 268.988 291.457C268.707 292.179 268.566 292.98 268.566 293.86C268.566 294.74 268.707 295.54 268.988 296.262C269.287 296.984 269.701 297.608 270.229 298.136C270.757 298.664 271.382 299.069 272.103 299.351C272.825 299.632 273.617 299.773 274.479 299.773C275.395 299.773 276.239 299.597 277.014 299.245C277.788 298.876 278.492 298.321 279.126 297.582L281.871 300.116C280.991 301.19 279.9 302.008 278.598 302.572C277.313 303.135 275.861 303.416 274.242 303.416ZM289.198 303.1V295.549L290.175 298.136L282.044 284.62H286.585L292.815 294.995H290.202L296.458 284.62H300.656L292.525 298.136L293.475 295.549V303.1H289.198ZM310.49 303.416C309.065 303.416 307.736 303.188 306.504 302.73C305.289 302.255 304.233 301.586 303.336 300.724C302.438 299.861 301.734 298.849 301.224 297.688C300.731 296.526 300.485 295.25 300.485 293.86C300.485 292.469 300.731 291.193 301.224 290.032C301.734 288.87 302.438 287.858 303.336 286.996C304.251 286.133 305.316 285.473 306.53 285.016C307.745 284.54 309.073 284.303 310.517 284.303C312.118 284.303 313.561 284.584 314.846 285.148C316.149 285.693 317.24 286.503 318.12 287.576L315.374 290.111C314.741 289.389 314.037 288.852 313.262 288.5C312.488 288.131 311.643 287.946 310.728 287.946C309.865 287.946 309.073 288.087 308.352 288.368C307.63 288.65 307.005 289.055 306.477 289.583C305.949 290.111 305.536 290.736 305.237 291.457C304.955 292.179 304.814 292.98 304.814 293.86C304.814 294.74 304.955 295.54 305.237 296.262C305.536 296.984 305.949 297.608 306.477 298.136C307.005 298.664 307.63 299.069 308.352 299.351C309.073 299.632 309.865 299.773 310.728 299.773C311.643 299.773 312.488 299.597 313.262 299.245C314.037 298.876 314.741 298.321 315.374 297.582L318.12 300.116C317.24 301.19 316.149 302.008 314.846 302.572C313.561 303.135 312.109 303.416 310.49 303.416ZM321.008 303.1V284.62H325.285V299.615H334.551V303.1H321.008ZM340.874 292.064H349.771V295.391H340.874V292.064ZM341.191 299.668H351.25V303.1H336.941V284.62H350.906V288.052H341.191V299.668Z" fill="black"/>
<g clip-path="url(#clip0_740_15011)">
<path d="M224.65 93.4873C228.297 93.4873 231.794 92.0386 234.373 89.46C236.952 86.8814 238.4 83.384 238.4 79.7373C238.4 76.0906 236.952 72.5932 234.373 70.0146C231.794 67.436 228.297 65.9873 224.65 65.9873C221.004 65.9873 217.506 67.436 214.928 70.0146C212.349 72.5932 210.9 76.0906 210.9 79.7373C210.9 83.384 212.349 86.8814 214.928 89.46C217.506 92.0386 221.004 93.4873 224.65 93.4873ZM223.361 84.4639V81.0264H219.924C219.209 81.0264 218.635 80.4517 218.635 79.7373C218.635 79.0229 219.209 78.4482 219.924 78.4482H223.361V75.0107C223.361 74.2964 223.936 73.7217 224.65 73.7217C225.365 73.7217 225.939 74.2964 225.939 75.0107V78.4482H229.377C230.091 78.4482 230.666 79.0229 230.666 79.7373C230.666 80.4517 230.091 81.0264 229.377 81.0264H225.939V84.4639C225.939 85.1782 225.365 85.7529 224.65 85.7529C223.936 85.7529 223.361 85.1782 223.361 84.4639Z" fill="#F4EDE2"/>
</g>
<path d="M250.555 79.6015V78.9247C250.555 77.1702 251.006 75.8392 251.909 74.9318C252.811 74.0245 253.984 73.5708 255.428 73.5708C256.806 73.5708 257.897 73.9292 258.699 74.6461C259.506 75.363 259.909 76.2879 259.909 77.4208V77.6163H257.578V77.3832C257.578 76.7315 257.398 76.2302 257.037 75.8793C256.681 75.5234 256.139 75.3454 255.413 75.3454C254.671 75.3454 254.074 75.6036 253.623 76.1199C253.172 76.6313 252.946 77.4759 252.946 78.654V79.8722C252.946 80.97 253.167 81.7972 253.608 82.3536C254.049 82.9101 254.661 83.1883 255.443 83.1883C256.134 83.1883 256.653 83.0003 256.999 82.6243C257.345 82.2483 257.536 81.7495 257.571 81.1279L257.578 80.9099H259.909L259.902 81.1279C259.857 82.2408 259.443 83.1582 258.661 83.8801C257.884 84.5969 256.806 84.9554 255.428 84.9554C253.974 84.9554 252.798 84.4992 251.901 83.5868C251.004 82.6694 250.555 81.341 250.555 79.6015ZM260.112 84.7373L264.248 73.7362H266.692L270.895 84.7373H268.406L265.609 77.0072C265.549 76.8368 265.501 76.6739 265.466 76.5185C265.431 76.3631 265.399 76.2077 265.368 76.0522H265.308C265.278 76.2077 265.243 76.3656 265.203 76.526C265.168 76.6814 265.12 76.8418 265.06 77.0072L262.27 84.7373H260.112ZM262.458 82.3311L262.985 80.6166H267.827L268.361 82.3311H262.458ZM271.843 84.7373V73.7889H276.031C277.299 73.7889 278.274 74.0972 278.956 74.7138C279.638 75.3254 279.979 76.1976 279.979 77.3306C279.979 78.4635 279.638 79.3433 278.956 79.9699C278.274 80.5915 277.297 80.9023 276.024 80.9023H274.159V84.7373H271.843ZM274.159 79.1804H275.806C276.507 79.1804 276.991 79.0175 277.257 78.6916C277.528 78.3658 277.663 77.9146 277.663 77.3381C277.663 76.7666 277.528 76.323 277.257 76.0071C276.991 75.6863 276.507 75.5259 275.806 75.5259H274.159V79.1804ZM280.505 75.556V73.7889H289.311V75.556H286.07V84.7373H283.746V75.556H280.505ZM290.499 80.7219V73.7889H292.807V80.8572C292.807 81.7195 292.99 82.3235 293.356 82.6694C293.722 83.0103 294.206 83.1808 294.807 83.1808C295.404 83.1808 295.885 83.0078 296.251 82.6619C296.617 82.316 296.8 81.7145 296.8 80.8572V73.7889H299.063V80.7219C299.063 82.1857 298.652 83.2585 297.83 83.9402C297.008 84.617 295.993 84.9554 294.785 84.9554C293.572 84.9554 292.554 84.617 291.732 83.9402C290.91 83.2585 290.499 82.1857 290.499 80.7219ZM301.244 84.7373V73.7889H305.245C306.518 73.7889 307.508 74.0922 308.215 74.6987C308.927 75.3003 309.283 76.1475 309.283 77.2403C309.283 78.3432 308.924 79.2079 308.207 79.8346C307.495 80.4562 306.508 80.767 305.245 80.767H303.56V84.7373H301.244ZM303.56 79.0676H305.147C305.814 79.0676 306.282 78.9047 306.553 78.5788C306.829 78.253 306.969 77.8168 306.974 77.2704C306.974 76.724 306.836 76.2954 306.56 75.9846C306.285 75.6688 305.814 75.5108 305.147 75.5108H303.56V79.0676ZM307.215 84.7373L304.658 79.6992L307.087 79.5714L309.809 84.7373H307.215ZM311.065 84.7373V73.7889H318.426V75.556H313.358V78.2404H317.742V79.9699H313.358V82.9853H318.509V84.7373H311.065Z" fill="#F4EDE2"/>
<g clip-path="url(#clip1_740_15011)">
<path d="M466.32 152.368C466.32 151.417 465.552 150.649 464.602 150.649C463.651 150.649 462.883 151.417 462.883 152.368V165.404L458.94 161.461C458.269 160.79 457.179 160.79 456.507 161.461C455.836 162.133 455.836 163.223 456.507 163.895L463.382 170.77C464.054 171.441 465.144 171.441 465.815 170.77L472.69 163.895C473.362 163.223 473.362 162.133 472.69 161.461C472.019 160.79 470.929 160.79 470.257 161.461L466.32 165.404V152.368ZM454.289 169.556C452.393 169.556 450.852 171.097 450.852 172.993V174.712C450.852 176.608 452.393 178.149 454.289 178.149H474.914C476.81 178.149 478.352 176.608 478.352 174.712V172.993C478.352 171.097 476.81 169.556 474.914 169.556H469.462L467.029 171.989C465.687 173.332 463.511 173.332 462.168 171.989L459.741 169.556H454.289ZM474.055 172.563C474.397 172.563 474.724 172.699 474.966 172.941C475.208 173.183 475.344 173.511 475.344 173.853C475.344 174.194 475.208 174.522 474.966 174.764C474.724 175.006 474.397 175.142 474.055 175.142C473.713 175.142 473.385 175.006 473.143 174.764C472.901 174.522 472.766 174.194 472.766 173.853C472.766 173.511 472.901 173.183 473.143 172.941C473.385 172.699 473.713 172.563 474.055 172.563Z" fill="#F4EDE2"/>
</g>
<path d="M440.757 200.044V199.841H443.111V200.014C443.111 200.55 443.281 200.954 443.622 201.224C443.968 201.49 444.449 201.623 445.066 201.623C445.682 201.623 446.154 201.498 446.48 201.247C446.81 200.996 446.976 200.665 446.976 200.254C446.976 199.823 446.818 199.492 446.502 199.262C446.191 199.026 445.504 198.771 444.442 198.495C443.294 198.194 442.421 197.788 441.825 197.277C441.228 196.76 440.928 196.056 440.923 195.164C440.923 194.196 441.291 193.424 442.028 192.848C442.765 192.271 443.755 191.983 444.998 191.983C446.241 191.983 447.236 192.281 447.983 192.878C448.73 193.469 449.104 194.261 449.104 195.254V195.449H446.795V195.284C446.795 194.818 446.645 194.444 446.344 194.164C446.048 193.883 445.605 193.742 445.013 193.742C444.417 193.742 443.978 193.855 443.697 194.081C443.422 194.301 443.284 194.602 443.284 194.983C443.284 195.359 443.434 195.645 443.735 195.84C444.036 196.036 444.715 196.274 445.773 196.555C446.906 196.861 447.78 197.277 448.397 197.803C449.014 198.329 449.322 199.089 449.322 200.081C449.322 201.119 448.933 201.926 448.156 202.503C447.384 203.079 446.357 203.367 445.073 203.367C443.8 203.367 442.762 203.084 441.96 202.518C441.158 201.951 440.757 201.127 440.757 200.044ZM449.976 193.968V192.201H458.781V193.968H455.541V203.149H453.217V193.968H449.976ZM459.563 198.014V197.337C459.563 195.587 460.02 194.259 460.932 193.351C461.844 192.439 463.017 191.983 464.451 191.983C465.89 191.983 467.068 192.439 467.985 193.351C468.908 194.259 469.369 195.587 469.369 197.337V198.014C469.369 199.763 468.908 201.094 467.985 202.006C467.068 202.914 465.89 203.367 464.451 203.367C463.017 203.367 461.844 202.914 460.932 202.006C460.02 201.094 459.563 199.763 459.563 198.014ZM461.94 198.247C461.94 199.375 462.165 200.217 462.616 200.773C463.073 201.325 463.684 201.6 464.451 201.6C465.223 201.6 465.84 201.325 466.301 200.773C466.762 200.217 466.993 199.375 466.993 198.247V197.111C466.993 195.978 466.762 195.136 466.301 194.585C465.84 194.033 465.223 193.758 464.451 193.758C463.684 193.758 463.073 194.033 462.616 194.585C462.165 195.136 461.94 195.978 461.94 197.111V198.247ZM471.256 203.149V192.201H475.257C476.53 192.201 477.52 192.504 478.227 193.111C478.939 193.712 479.295 194.56 479.295 195.652C479.295 196.755 478.936 197.62 478.219 198.247C477.508 198.868 476.52 199.179 475.257 199.179H473.572V203.149H471.256ZM473.572 197.48H475.159C475.826 197.48 476.294 197.317 476.565 196.991C476.841 196.665 476.981 196.229 476.986 195.683C476.986 195.136 476.848 194.707 476.573 194.397C476.297 194.081 475.826 193.923 475.159 193.923H473.572V197.48ZM477.227 203.149L474.67 198.111L477.099 197.983L479.821 203.149H477.227ZM481.077 203.149V192.201H488.438V193.968H483.37V196.653H487.754V198.382H483.37V201.397H488.521V203.149H481.077Z" fill="#F4EDE2"/>
<path d="M372.89 417.102V406.154H375.86L378.462 413.222C378.522 413.392 378.575 413.553 378.62 413.703C378.665 413.849 378.703 414.014 378.733 414.2H378.778C378.813 414.014 378.853 413.846 378.898 413.696C378.943 413.545 378.996 413.387 379.056 413.222L381.665 406.154H384.681V417.102H382.387V410.131C382.387 409.961 382.39 409.776 382.395 409.575C382.405 409.369 382.417 409.184 382.432 409.019H382.372C382.347 409.184 382.31 409.369 382.259 409.575C382.214 409.776 382.162 409.961 382.102 410.131L379.537 417.102H377.642L375.093 410.131C375.033 409.961 374.978 409.776 374.928 409.575C374.878 409.369 374.84 409.184 374.815 409.019H374.755C374.775 409.184 374.788 409.369 374.793 409.575C374.798 409.776 374.8 409.961 374.8 410.131V417.102H372.89ZM385.688 417.102L389.824 406.101H392.268L396.471 417.102H393.982L391.185 409.372C391.125 409.202 391.077 409.039 391.042 408.883C391.007 408.728 390.975 408.572 390.945 408.417H390.884C390.854 408.572 390.819 408.73 390.779 408.891C390.744 409.046 390.696 409.207 390.636 409.372L387.846 417.102H385.688ZM388.034 414.696L388.561 412.981H393.403L393.937 414.696H388.034ZM397.419 417.102V406.154H399.878L403.773 412.921C403.863 413.077 403.938 413.222 403.998 413.357C404.064 413.488 404.124 413.631 404.179 413.786H404.239C404.229 413.621 404.222 413.463 404.217 413.312C404.217 413.157 404.217 412.994 404.217 412.823V406.154H406.224V417.102H403.713L399.855 410.387C399.765 410.237 399.69 410.091 399.63 409.951C399.569 409.806 399.512 409.655 399.457 409.5H399.396C399.407 409.67 399.412 409.841 399.412 410.011C399.417 410.182 399.419 410.35 399.419 410.515V417.102H397.419ZM407.239 417.102L411.375 406.101H413.819L418.022 417.102H415.533L412.736 409.372C412.676 409.202 412.628 409.039 412.593 408.883C412.558 408.728 412.526 408.572 412.496 408.417H412.435C412.405 408.572 412.37 408.73 412.33 408.891C412.295 409.046 412.247 409.207 412.187 409.372L409.397 417.102H407.239ZM409.585 414.696L410.112 412.981H414.954L415.488 414.696H409.585ZM418.496 411.966V411.289C418.496 409.54 418.947 408.211 419.85 407.304C420.752 406.392 421.945 405.936 423.429 405.936C424.777 405.936 425.84 406.266 426.617 406.928C427.399 407.59 427.793 408.417 427.798 409.41V409.53H425.474V409.44C425.474 408.968 425.294 408.562 424.933 408.221C424.577 407.881 424.045 407.71 423.339 407.71C422.592 407.71 421.993 407.986 421.541 408.537C421.095 409.089 420.872 409.921 420.872 411.034V412.222C420.872 413.36 421.113 414.202 421.594 414.748C422.08 415.29 422.742 415.561 423.579 415.561C424 415.561 424.359 415.515 424.655 415.425C424.955 415.335 425.249 415.192 425.534 414.997V413.049H423.429V411.335H427.805V415.771C427.424 416.152 426.88 416.506 426.174 416.831C425.472 417.157 424.604 417.32 423.572 417.32C421.998 417.32 420.757 416.866 419.85 415.959C418.947 415.047 418.496 413.716 418.496 411.966ZM429.663 417.102V406.154H437.024V407.921H431.956V410.605H436.34V412.335H431.956V415.35H437.107V417.102H429.663Z" fill="#F4EDE2"/>
<path d="M456.832 400.836C457.364 401.314 457.407 402.125 456.929 402.656L453.062 406.953C452.825 407.216 452.492 407.372 452.138 407.378C451.783 407.383 451.445 407.249 451.193 407.002L449.039 404.853C448.539 404.348 448.539 403.532 449.039 403.027C449.538 402.522 450.36 402.522 450.86 403.027L452.047 404.214L455.006 400.927C455.484 400.395 456.295 400.352 456.827 400.83L456.832 400.836ZM456.832 409.429C457.364 409.907 457.407 410.718 456.929 411.25L453.062 415.547C452.825 415.81 452.492 415.966 452.138 415.971C451.783 415.977 451.445 415.842 451.193 415.595L449.039 413.447C448.534 412.942 448.534 412.126 449.039 411.626C449.544 411.127 450.36 411.121 450.86 411.626L452.047 412.813L455.006 409.526C455.484 408.994 456.295 408.951 456.827 409.429H456.832ZM460.694 403.94C460.694 402.989 461.462 402.221 462.413 402.221H474.444C475.395 402.221 476.163 402.989 476.163 403.94C476.163 404.891 475.395 405.659 474.444 405.659H462.413C461.462 405.659 460.694 404.891 460.694 403.94ZM460.694 412.534C460.694 411.583 461.462 410.815 462.413 410.815H474.444C475.395 410.815 476.163 411.583 476.163 412.534C476.163 413.484 475.395 414.253 474.444 414.253H462.413C461.462 414.253 460.694 413.484 460.694 412.534ZM457.257 421.128C457.257 420.177 458.025 419.409 458.975 419.409H474.444C475.395 419.409 476.163 420.177 476.163 421.128C476.163 422.078 475.395 422.846 474.444 422.846H458.975C458.025 422.846 457.257 422.078 457.257 421.128ZM451.241 418.549C451.925 418.549 452.58 418.821 453.064 419.305C453.547 419.788 453.819 420.444 453.819 421.128C453.819 421.811 453.547 422.467 453.064 422.951C452.58 423.434 451.925 423.706 451.241 423.706C450.557 423.706 449.901 423.434 449.418 422.951C448.934 422.467 448.663 421.811 448.663 421.128C448.663 420.444 448.934 419.788 449.418 419.305C449.901 418.821 450.557 418.549 451.241 418.549Z" fill="#F4EDE2"/>
<path d="M121.791 457.027L125.927 446.026H128.371L132.574 457.027H130.085L127.288 449.297C127.228 449.127 127.18 448.964 127.145 448.808C127.11 448.653 127.078 448.498 127.047 448.342H126.987C126.957 448.498 126.922 448.656 126.882 448.816C126.847 448.971 126.799 449.132 126.739 449.297L123.949 457.027H121.791ZM124.137 454.621L124.664 452.907H129.506L130.04 454.621H124.137ZM133.522 457.027V446.079H135.981L139.876 452.846C139.966 453.002 140.041 453.147 140.101 453.283C140.167 453.413 140.227 453.556 140.282 453.711H140.342C140.332 453.546 140.324 453.388 140.319 453.238C140.319 453.082 140.319 452.919 140.319 452.749V446.079H142.327V457.027H139.816L135.958 450.312C135.868 450.162 135.793 450.017 135.733 449.876C135.672 449.731 135.615 449.581 135.56 449.425H135.499C135.509 449.596 135.514 449.766 135.514 449.936C135.519 450.107 135.522 450.275 135.522 450.44V457.027H133.522ZM143.342 457.027L147.478 446.026H149.922L154.125 457.027H151.636L148.839 449.297C148.779 449.127 148.731 448.964 148.696 448.808C148.661 448.653 148.629 448.498 148.598 448.342H148.538C148.508 448.498 148.473 448.656 148.433 448.816C148.398 448.971 148.35 449.132 148.29 449.297L145.5 457.027H143.342ZM145.688 454.621L146.215 452.907H151.057L151.591 454.621H145.688ZM155.073 457.027V446.079H157.389V455.26H162.164V457.027H155.073ZM165.39 457.027V453.14L161.592 446.079H164.164L166.269 450.147C166.345 450.287 166.407 450.425 166.457 450.561C166.512 450.691 166.565 450.824 166.615 450.959H166.668C166.713 450.824 166.763 450.691 166.818 450.561C166.873 450.425 166.939 450.287 167.014 450.147L169.157 446.079H171.413L167.706 453.019V457.027H165.39ZM171.766 453.922V453.719H174.12V453.892C174.12 454.428 174.29 454.832 174.631 455.102C174.977 455.368 175.458 455.501 176.075 455.501C176.691 455.501 177.163 455.376 177.488 455.125C177.819 454.874 177.985 454.543 177.985 454.132C177.985 453.701 177.827 453.37 177.511 453.14C177.2 452.904 176.513 452.648 175.451 452.373C174.303 452.072 173.43 451.666 172.834 451.155C172.237 450.638 171.937 449.934 171.932 449.042C171.932 448.074 172.3 447.302 173.037 446.726C173.774 446.149 174.764 445.861 176.007 445.861C177.25 445.861 178.245 446.159 178.992 446.756C179.739 447.347 180.113 448.139 180.113 449.132V449.327H177.804V449.162C177.804 448.696 177.654 448.322 177.353 448.042C177.057 447.761 176.614 447.62 176.022 447.62C175.426 447.62 174.987 447.733 174.706 447.959C174.431 448.179 174.293 448.48 174.293 448.861C174.293 449.237 174.443 449.523 174.744 449.718C175.045 449.914 175.724 450.152 176.782 450.433C177.915 450.739 178.789 451.155 179.406 451.681C180.023 452.207 180.331 452.967 180.331 453.959C180.331 454.997 179.942 455.804 179.165 456.381C178.393 456.957 177.366 457.245 176.082 457.245C174.809 457.245 173.771 456.962 172.969 456.396C172.167 455.829 171.766 455.005 171.766 453.922ZM181.963 457.027V446.079H189.324V447.846H184.256V450.53H188.64V452.26H184.256V455.275H189.407V457.027H181.963Z" fill="#F4EDE2"/>
<path d="M223.281 449.447C223.281 451.913 222.481 454.19 221.133 456.038L227.933 462.843C228.604 463.514 228.604 464.604 227.933 465.276C227.261 465.947 226.171 465.947 225.5 465.276L218.7 458.471C216.852 459.824 214.575 460.619 212.109 460.619C205.938 460.619 200.938 455.619 200.938 449.447C200.938 443.276 205.938 438.275 212.109 438.275C218.281 438.275 223.281 443.276 223.281 449.447ZM206.523 449.877V453.314C206.523 454.029 207.098 454.604 207.812 454.604C208.527 454.604 209.102 454.029 209.102 453.314V449.877C209.102 449.163 208.527 448.588 207.812 448.588C207.098 448.588 206.523 449.163 206.523 449.877ZM210.82 444.721V453.314C210.82 454.029 211.395 454.604 212.109 454.604C212.824 454.604 213.398 454.029 213.398 453.314V444.721C213.398 444.006 212.824 443.432 212.109 443.432C211.395 443.432 210.82 444.006 210.82 444.721ZM215.117 448.158V453.314C215.117 454.029 215.692 454.604 216.406 454.604C217.121 454.604 217.695 454.029 217.695 453.314V448.158C217.695 447.444 217.121 446.869 216.406 446.869C215.692 446.869 215.117 447.444 215.117 448.158Z" fill="#F4EDE2"/>
<path d="M81.6572 211.601C84.5039 211.601 86.8135 209.291 86.8135 206.444C86.8135 203.598 84.5039 201.288 81.6572 201.288C78.8105 201.288 76.501 203.598 76.501 206.444C76.501 206.659 76.5117 206.874 76.5386 207.083L71.4844 209.608C70.5605 208.711 69.2983 208.163 67.9072 208.163C65.0605 208.163 62.751 210.473 62.751 213.319C62.751 216.166 65.0605 218.476 67.9072 218.476C69.2983 218.476 70.5605 217.928 71.4844 217.031L76.5386 219.555C76.5117 219.765 76.501 219.974 76.501 220.194C76.501 223.041 78.8105 225.351 81.6572 225.351C84.5039 225.351 86.8135 223.041 86.8135 220.194C86.8135 217.348 84.5039 215.038 81.6572 215.038C80.2661 215.038 79.0039 215.586 78.0801 216.483L73.0259 213.958C73.0527 213.749 73.0635 213.54 73.0635 213.319C73.0635 213.099 73.0527 212.89 73.0259 212.68L78.0801 210.156C79.0039 211.053 80.2661 211.601 81.6572 211.601Z" fill="#F4EDE2"/>
<path d="M50.2234 247.245V247.042H52.5771V247.215C52.5771 247.751 52.7475 248.155 53.0884 248.426C53.4343 248.691 53.9155 248.824 54.5321 248.824C55.1487 248.824 55.62 248.699 55.9458 248.448C56.2767 248.197 56.4421 247.867 56.4421 247.456C56.4421 247.024 56.2842 246.694 55.9684 246.463C55.6576 246.227 54.9708 245.972 53.908 245.696C52.76 245.395 51.8878 244.989 51.2912 244.478C50.6947 243.961 50.3939 243.257 50.3889 242.365C50.3889 241.397 50.7573 240.625 51.4942 240.049C52.2312 239.472 53.2212 239.184 54.4645 239.184C55.7077 239.184 56.7028 239.482 57.4497 240.079C58.1967 240.67 58.5701 241.463 58.5701 242.455V242.651H56.2616V242.485C56.2616 242.019 56.1112 241.645 55.8105 241.365C55.5147 241.084 55.071 240.944 54.4795 240.944C53.883 240.944 53.4443 241.056 53.1636 241.282C52.8879 241.503 52.75 241.803 52.75 242.184C52.75 242.56 52.9004 242.846 53.2012 243.042C53.502 243.237 54.1812 243.475 55.239 243.756C56.3719 244.062 57.2467 244.478 57.8633 245.004C58.4799 245.531 58.7882 246.29 58.7882 247.283C58.7882 248.32 58.3997 249.127 57.6227 249.704C56.8507 250.28 55.823 250.569 54.5397 250.569C53.2664 250.569 52.2287 250.285 51.4266 249.719C50.6245 249.152 50.2234 248.328 50.2234 247.245ZM60.4199 250.351V239.402H62.7359V243.816H67.0973V239.402H69.4133V250.351H67.0973V245.598H62.7359V250.351H60.4199ZM70.4209 250.351L74.5566 239.35H77.0005L81.2039 250.351H78.7149L75.9177 242.621C75.8575 242.45 75.8099 242.287 75.7748 242.132C75.7397 241.976 75.7071 241.821 75.6771 241.666H75.6169C75.5868 241.821 75.5517 241.979 75.5116 242.139C75.4765 242.295 75.4289 242.455 75.3688 242.621L72.579 250.351H70.4209ZM72.767 247.944L73.2934 246.23H78.1359L78.6698 247.944H72.767ZM82.1514 250.351V239.402H86.1518C87.4251 239.402 88.4151 239.705 89.122 240.312C89.8338 240.914 90.1897 241.761 90.1897 242.854C90.1897 243.956 89.8313 244.821 89.1144 245.448C88.4026 246.069 87.415 246.38 86.1518 246.38H84.4674V250.351H82.1514ZM84.4674 244.681H86.054C86.7207 244.681 87.1894 244.518 87.4602 244.192C87.7359 243.866 87.8762 243.43 87.8812 242.884C87.8812 242.337 87.7434 241.909 87.4677 241.598C87.192 241.282 86.7207 241.124 86.054 241.124H84.4674V244.681ZM88.1219 250.351L85.5652 245.313L87.994 245.185L90.7161 250.351H88.1219ZM91.9719 250.351V239.402H99.3335V241.169H94.2653V243.854H98.6492V245.583H94.2653V248.599H99.4162V250.351H91.9719Z" fill="#F4EDE2"/>
<defs>
<filter id="filter0_d_740_15011" x="52.3001" y="336.963" width="322.535" height="225.992" filterUnits="userSpaceOnUse" color-interpolation-filters="sRGB">
<feFlood flood-opacity="0" result="BackgroundImageFix"/>
<feColorMatrix in="SourceAlpha" type="matrix" values="0 0 0 0 0 0 0 0 0 0 0 0 0 0 0 0 0 0 127 0" result="hardAlpha"/>
<feOffset dx="3.63" dy="3.63"/>
<feGaussianBlur stdDeviation="4.5375"/>
<feComposite in2="hardAlpha" operator="out"/>
<feColorMatrix type="matrix" values="0 0 0 0 0 0 0 0 0 0 0 0 0 0 0 0 0 0 0.25 0"/>
<feBlend mode="normal" in2="BackgroundImageFix" result="effect1_dropShadow_740_15011"/>
<feBlend mode="normal" in="SourceGraphic" in2="effect1_dropShadow_740_15011" result="shape"/>
</filter>
<filter id="filter1_d_740_15011" x="272.325" y="272.555" width="290.63" height="277.075" filterUnits="userSpaceOnUse" color-interpolation-filters="sRGB">
<feFlood flood-opacity="0" result="BackgroundImageFix"/>
<feColorMatrix in="SourceAlpha" type="matrix" values="0 0 0 0 0 0 0 0 0 0 0 0 0 0 0 0 0 0 127 0" result="hardAlpha"/>
<feOffset dx="3.63" dy="3.63"/>
<feGaussianBlur stdDeviation="4.5375"/>
<feComposite in2="hardAlpha" operator="out"/>
<feColorMatrix type="matrix" values="0 0 0 0 0 0 0 0 0 0 0 0 0 0 0 0 0 0 0.25 0"/>
<feBlend mode="normal" in2="BackgroundImageFix" result="effect1_dropShadow_740_15011"/>
<feBlend mode="normal" in="SourceGraphic" in2="effect1_dropShadow_740_15011" result="shape"/>
</filter>
<filter id="filter2_d_740_15011" x="314.62" y="13.6302" width="248.335" height="334.91" filterUnits="userSpaceOnUse" color-interpolation-filters="sRGB">
<feFlood flood-opacity="0" result="BackgroundImageFix"/>
<feColorMatrix in="SourceAlpha" type="matrix" values="0 0 0 0 0 0 0 0 0 0 0 0 0 0 0 0 0 0 127 0" result="hardAlpha"/>
<feOffset dx="3.63" dy="3.63"/>
<feGaussianBlur stdDeviation="4.5375"/>
<feComposite in2="hardAlpha" operator="out"/>
<feColorMatrix type="matrix" values="0 0 0 0 0 0 0 0 0 0 0 0 0 0 0 0 0 0 0.25 0"/>
<feBlend mode="normal" in2="BackgroundImageFix" result="effect1_dropShadow_740_15011"/>
<feBlend mode="normal" in="SourceGraphic" in2="effect1_dropShadow_740_15011" result="shape"/>
</filter>
<filter id="filter3_d_740_15011" x="52.3001" y="0.305003" width="354.586" height="210.387" filterUnits="userSpaceOnUse" color-interpolation-filters="sRGB">
<feFlood flood-opacity="0" result="BackgroundImageFix"/>
<feColorMatrix in="SourceAlpha" type="matrix" values="0 0 0 0 0 0 0 0 0 0 0 0 0 0 0 0 0 0 127 0" result="hardAlpha"/>
<feOffset dx="3.63" dy="3.63"/>
<feGaussianBlur stdDeviation="4.5375"/>
<feComposite in2="hardAlpha" operator="out"/>
<feColorMatrix type="matrix" values="0 0 0 0 0 0 0 0 0 0 0 0 0 0 0 0 0 0 0.25 0"/>
<feBlend mode="normal" in2="BackgroundImageFix" result="effect1_dropShadow_740_15011"/>
<feBlend mode="normal" in="SourceGraphic" in2="effect1_dropShadow_740_15011" result="shape"/>
</filter>
<filter id="filter4_d_740_15011" x="0.305003" y="102.524" width="180.273" height="348.106" filterUnits="userSpaceOnUse" color-interpolation-filters="sRGB">
<feFlood flood-opacity="0" result="BackgroundImageFix"/>
<feColorMatrix in="SourceAlpha" type="matrix" values="0 0 0 0 0 0 0 0 0 0 0 0 0 0 0 0 0 0 127 0" result="hardAlpha"/>
<feOffset dx="3.63" dy="3.63"/>
<feGaussianBlur stdDeviation="4.5375"/>
<feComposite in2="hardAlpha" operator="out"/>
<feColorMatrix type="matrix" values="0 0 0 0 0 0 0 0 0 0 0 0 0 0 0 0 0 0 0.25 0"/>
<feBlend mode="normal" in2="BackgroundImageFix" result="effect1_dropShadow_740_15011"/>
<feBlend mode="normal" in="SourceGraphic" in2="effect1_dropShadow_740_15011" result="shape"/>
</filter>
<radialGradient id="paint0_radial_740_15011" cx="0" cy="0" r="1" gradientUnits="userSpaceOnUse" gradientTransform="translate(233.444 475.209) rotate(-146.822) scale(158.948 158.948)">
<stop stop-color="#69368A"/>
<stop offset="1" stop-color="#533F9C"/>
</radialGradient>
<radialGradient id="paint1_radial_740_15011" cx="0" cy="0" r="1" gradientUnits="userSpaceOnUse" gradientTransform="translate(406.133 119.597) rotate(64.6758) scale(158.499 158.499)">
<stop stop-color="#A91B54"/>
<stop offset="1" stop-color="#932466"/>
</radialGradient>
<radialGradient id="paint2_radial_740_15011" cx="0" cy="0" r="1" gradientUnits="userSpaceOnUse" gradientTransform="translate(152.856 105.526) rotate(-4.43267) scale(165.509 165.509)">
<stop stop-color="#3E48AE"/>
<stop offset="1" stop-color="#A91B54"/>
</radialGradient>
<radialGradient id="paint3_radial_740_15011" cx="0" cy="0" r="1" gradientUnits="userSpaceOnUse" gradientTransform="translate(95.2923 193.789) rotate(-37.3703) scale(292.943 292.943)">
<stop stop-color="#3E48AE"/>
<stop offset="1" stop-color="#BE1242"/>
</radialGradient>
<radialGradient id="paint4_radial_740_15011" cx="0" cy="0" r="1" gradientUnits="userSpaceOnUse" gradientTransform="translate(76.1046 206.581) rotate(88.698) scale(168.895 168.895)">
<stop stop-color="#533F9C"/>
<stop offset="1" stop-color="#3E48AE"/>
</radialGradient>
<clipPath id="clip0_740_15011">
<rect width="27.5" height="27.5" fill="white" transform="translate(210.9 65.9873)"/>
</clipPath>
<clipPath id="clip1_740_15011">
<rect width="27.5" height="27.5" fill="white" transform="translate(450.852 150.649)"/>
</clipPath>
</defs>
</svg>
