<svg width="25" height="25" viewBox="0 0 25 25" fill="none" xmlns="http://www.w3.org/2000/svg">
<g clip-path="url(#clip0_873_2857)">
<path d="M24.3096 21.8453L13.5096 0.845312C13.2887 0.415937 12.9085 0.15625 12.5001 0.15625C12.0917 0.15625 11.7115 0.415937 11.4906 0.845312L0.690618 21.8453C0.574069 22.0719 0.508491 22.3336 0.50077 22.6028C0.49305 22.872 0.543473 23.1389 0.646743 23.3753C0.750061 23.6117 0.902392 23.809 1.08774 23.9464C1.27309 24.0838 1.48462 24.1563 1.70012 24.1562H23.3001C23.7392 24.1562 24.1431 23.8567 24.3535 23.3748C24.4568 23.1385 24.5072 22.8717 24.4995 22.6026C24.4917 22.3334 24.4262 22.0718 24.3096 21.8453ZM12.5001 4.43031L15.7022 10.6562H12.5001L10.1001 13.6562L8.67287 11.8722L12.5001 4.43031Z" fill="#603E1F"/>
</g>
<defs>
<clipPath id="clip0_873_2857">
<rect width="24" height="24" fill="white" transform="translate(0.5 0.15625)"/>
</clipPath>
</defs>
</svg>
