<svg width="57" height="57" viewBox="0 0 57 57" fill="none" xmlns="http://www.w3.org/2000/svg">
<g clip-path="url(#clip0_492_3691)">
<path d="M40.875 20.0536V22.1964C40.875 24.0848 35.5 25.625 28.875 25.625C22.25 25.625 16.875 24.0848 16.875 22.1964V20.0536C16.875 18.1652 22.25 16.625 28.875 16.625C35.5 16.625 40.875 18.1652 40.875 20.0536ZM40.875 24.875V29.6964C40.875 31.5848 35.5 33.125 28.875 33.125C22.25 33.125 16.875 31.5848 16.875 29.6964V24.875C19.4531 26.4286 24.1719 27.1518 28.875 27.1518C33.5781 27.1518 38.2968 26.4286 40.875 24.875ZM40.875 32.375V37.1964C40.875 39.0848 35.5 40.625 28.875 40.625C22.25 40.625 16.875 39.0848 16.875 37.1964V32.375C19.4531 33.9286 24.1719 34.6518 28.875 34.6518C33.5781 34.6518 38.2968 33.9286 40.875 32.375Z" fill="#BE1242"/>
</g>
<rect x="1.125" y="0.875" width="55.5" height="55.5" rx="7.125" stroke="#BE1242" stroke-width="0.75"/>
<defs>
<clipPath id="clip0_492_3691">
<rect width="24" height="24" fill="white" transform="translate(16.875 16.625)"/>
</clipPath>
</defs>
</svg>
