<svg width="57" height="57" viewBox="0 0 57 57" fill="none" xmlns="http://www.w3.org/2000/svg">
<rect width="56.25" height="56.25" rx="7.5" fill="#940101"/>
<g clip-path="url(#clip0_1571_2195)">
<path d="M39.4097 29.6249H28.941L35.9129 37.0326C36.1794 37.3157 36.6179 37.3387 36.8919 37.0645C38.5993 35.3554 39.7737 33.0515 40.1182 30.4616C40.1774 30.0182 39.831 29.6249 39.4097 29.6249V29.6249ZM38.7113 26.5874C38.3478 20.9877 34.1363 16.5131 28.866 16.1268C28.4637 16.0973 28.1249 16.4577 28.1249 16.8862V27.3749H37.9971C38.4003 27.3749 38.7391 27.0149 38.7113 26.5874ZM26.0072 29.6249V18.502C26.0072 18.0543 25.6371 17.6863 25.2201 17.7491C19.9626 18.5385 15.944 23.4187 16.131 29.2673C16.3234 35.2738 21.1909 40.1995 26.8468 40.124C29.0703 40.0945 31.1249 39.3332 32.8141 38.0601C33.1626 37.7976 33.1856 37.2524 32.8834 36.9313L26.0072 29.6249Z" fill="#FFFCF8"/>
</g>
<defs>
<clipPath id="clip0_1571_2195">
<rect width="24" height="24" fill="white" transform="translate(16.125 16.125)"/>
</clipPath>
</defs>
</svg>
