<svg width="57" height="57" viewBox="0 0 57 57" fill="none" xmlns="http://www.w3.org/2000/svg">
<g clip-path="url(#clip0_1356_1637)">
<path d="M26.1886 28.3898C26.423 28.6828 26.8029 28.6828 27.0373 28.3898L27.4614 27.8597C27.6958 27.5667 27.6958 27.0919 27.4614 26.7989L26.1219 25.125L27.461 23.4506C27.6954 23.1577 27.6954 22.6828 27.461 22.3898L27.0369 21.8597C26.8025 21.5667 26.4226 21.5667 26.1883 21.8597L24.0005 24.5944C23.7661 24.8873 23.7661 25.3622 24.0005 25.6552L26.1886 28.3898V28.3898ZM29.789 27.8602L30.2131 28.3903C30.4475 28.6833 30.8274 28.6833 31.0618 28.3903L33.2495 25.6556C33.4839 25.3627 33.4839 24.8878 33.2495 24.5948L31.0618 21.8602C30.8274 21.5672 30.4475 21.5672 30.2131 21.8602L29.789 22.3903C29.5546 22.6833 29.5546 23.1581 29.789 23.4511L31.1281 25.125L29.789 26.7994C29.5546 27.0923 29.5546 27.5672 29.789 27.8602V27.8602ZM40.025 35.625H30.9328C30.905 36.5536 30.3811 37.125 29.705 37.125H27.425C26.7241 37.125 26.1868 36.3061 26.1961 35.625H17.225C16.895 35.625 16.625 35.9625 16.625 36.375V37.125C16.625 38.775 17.705 40.125 19.025 40.125H38.225C39.545 40.125 40.625 38.775 40.625 37.125V36.375C40.625 35.9625 40.355 35.625 40.025 35.625ZM38.225 18.375C38.225 17.1375 37.415 16.125 36.425 16.125H20.825C19.835 16.125 19.025 17.1375 19.025 18.375V34.125H38.225V18.375ZM35.825 31.125H21.425V19.125H35.825V31.125Z" fill="#333333"/>
</g>
<defs>
<clipPath id="clip0_1356_1637">
<rect width="24" height="24" fill="white" transform="translate(16.625 16.125)"/>
</clipPath>
</defs>
</svg>
