<svg width="58" height="57" viewBox="0 0 58 57" fill="none" xmlns="http://www.w3.org/2000/svg">
<rect x="0.892578" width="56.25" height="56.25" rx="7.5" fill="#940101"/>
<g clip-path="url(#clip0_1571_2172)">
<path d="M41.3025 29.6248H30.8339L37.8058 37.0325C38.0722 37.3156 38.5108 37.3386 38.7847 37.0643C40.4921 35.3553 41.6665 33.0514 42.0111 30.4615C42.0702 30.0181 41.7238 29.6248 41.3025 29.6248ZM40.6041 25.5873C40.2406 19.9876 36.0291 15.5129 30.7589 15.1267C30.3565 15.0972 30.0177 15.4576 30.0177 15.8861V26.3748H39.8899C40.2931 26.3748 40.6319 26.0148 40.6041 25.5873ZM26.9 29.6248V18.5019C26.9 18.0542 26.5299 17.6862 26.113 17.749C20.8555 18.5384 16.8368 23.4186 17.0239 29.2672C17.2162 35.2737 22.0837 40.1993 27.7396 40.1239C29.9631 40.0943 32.0177 39.3331 33.7069 38.06C34.0555 37.7975 34.0784 37.2523 33.7762 36.9312L26.9 29.6248Z" fill="#FFFCF8"/>
</g>
<defs>
<clipPath id="clip0_1571_2172">
<rect width="26" height="26" fill="white" transform="translate(16.0176 15.125)"/>
</clipPath>
</defs>
</svg>
