<svg width="25" height="25" viewBox="0 0 25 25" fill="none" xmlns="http://www.w3.org/2000/svg">
<g clip-path="url(#clip0_873_2865)">
<path d="M22.1434 13.8606C20.4135 13.8606 19.6643 15.3415 18.7243 15.3415C16.2254 15.3415 18.5 7.08008 18.5 7.08008C18.5 7.08008 10.3213 10.8301 10.3213 6.92553C10.3213 5.24614 11.8333 4.75756 11.8333 2.89498C11.8333 1.23083 10.6619 0.330078 9.27246 0.330078C7.82854 0.330078 6.50721 1.21559 6.50721 2.9713C6.50721 4.91023 7.8285 5.74991 7.8285 6.80333C7.82854 10.0669 0.5 8.14686 0.5 8.14686V23.7673C0.5 23.7673 7.94312 25.6914 7.94312 22.4238C7.94312 21.3704 6.27646 20.5438 6.27646 18.6049C6.27646 16.8491 7.49521 15.9636 8.9255 15.9636C10.3285 15.9636 11.5 16.8644 11.5 18.5285C11.5 20.3911 9.988 20.8797 9.988 22.559C9.988 25.4092 15.3911 23.7651 17.5392 23.7651C17.5392 23.7651 16.0924 18.1354 18.6154 18.1354C20.1138 18.1354 20.5497 19.83 22.2115 19.83C23.6963 19.8301 24.5 18.5171 24.5 16.9446C24.5 15.3415 23.7099 13.8606 22.1434 13.8606Z" fill="#5D5E3E"/>
</g>
<defs>
<clipPath id="clip0_873_2865">
<rect width="24" height="24" fill="white" transform="translate(0.5 0.330078)"/>
</clipPath>
</defs>
</svg>
