<svg width="1344" height="677" viewBox="0 0 1344 677" fill="none" xmlns="http://www.w3.org/2000/svg">
<g id="DeepGreen">
<path id="path0" fill-rule="evenodd" clip-rule="evenodd" d="M296.665 33.9493V66.3957H408.611H520.559L520.596 35.0495C520.617 17.8136 520.445 3.21199 520.214 2.60639C519.824 1.5937 510.692 1.50623 408.228 1.50623L296.665 1.50623V33.9493ZM558.795 2.57275C557.932 4.83027 558.338 64.0474 559.228 65.2552C560.017 66.3285 567.41 66.3924 672.718 66.2309L785.365 66.0559V33.9493V1.84267L672.285 1.67108C569.606 1.51632 559.167 1.60043 558.795 2.57275ZM296.665 152.236V184.682H408.228C510.648 184.682 519.824 184.591 520.214 183.582C520.445 182.976 520.617 168.378 520.596 151.139L520.559 119.792H408.611H296.665V152.236ZM558.795 120.859C557.865 123.285 558.345 183.131 559.298 183.925C559.97 184.483 590.143 184.638 672.788 184.514L785.365 184.342V152.236V120.129L672.285 119.961C569.606 119.806 559.167 119.887 558.795 120.859ZM296.679 280.665L296.712 314.468L407.912 314.454C499.468 314.444 519.24 314.286 519.851 313.546C520.375 312.913 520.546 302.971 520.432 279.929L520.274 247.203L408.456 247.035L296.642 246.863L296.679 280.665ZM559.009 248.683C558.19 250.847 558.429 312.318 559.265 313.61C560.352 315.292 785.271 314.787 784.831 313.102C784.636 312.362 784.75 311.756 785.083 311.756C785.734 311.756 785.912 249.555 785.268 247.866C784.928 246.988 771.059 246.866 672.291 246.866H559.701L559.009 248.683ZM559.255 363.131C559.449 363.871 559.332 364.476 558.996 364.476C558.15 364.476 558.194 425.399 559.043 427.633L559.701 429.366H672.043H784.385L785.043 427.633C785.892 425.399 785.936 364.476 785.09 364.476C784.754 364.476 784.636 363.871 784.831 363.131C785.18 361.788 784.74 361.782 672.043 361.782C559.345 361.782 558.905 361.788 559.255 363.131ZM823.862 362.37C823.657 362.7 823.563 377.833 823.654 395.998L823.812 429.03L935.616 429.198L1047.42 429.369V395.57V361.775H935.824C871.837 361.775 824.073 362.031 823.862 362.37ZM559.392 481.403C559.533 482.137 559.365 482.911 559.016 483.129C558.311 483.563 558.113 542.074 558.805 545.536L559.224 547.645H672.043H784.861L785.281 545.536C785.973 542.074 785.775 483.563 785.069 483.129C784.72 482.911 784.552 482.137 784.693 481.403C784.945 480.078 784.072 480.068 672.043 480.068C560.013 480.068 559.14 480.078 559.392 481.403ZM823.895 481.107C823.674 481.686 823.563 496.819 823.654 514.735L823.812 547.316L935.623 547.487L1047.43 547.656L1047.26 514.028L1047.08 480.397L935.69 480.229C835.475 480.074 824.255 480.162 823.895 481.107ZM558.795 610.907C558.257 612.303 558.257 672.26 558.795 673.656C559.422 675.298 784.663 675.298 785.291 673.656C785.828 672.26 785.828 612.303 785.291 610.907C784.663 609.268 559.422 609.268 558.795 610.907ZM823.476 641.213C823.476 658.469 823.66 673.071 823.885 673.656C824.255 674.625 834.75 674.726 935.858 674.726H1047.42V642.283V609.837H935.448H823.476V641.213Z" fill="#84AC1C"/>
<path id="path1" fill-rule="evenodd" clip-rule="evenodd" d="M16.7328 157.306V314.457H79.8637C142.427 314.457 142.998 314.447 143.347 313.108C143.676 311.847 144.274 311.756 152.224 311.746C162.058 311.736 163.781 311.423 163.781 309.65C163.781 308.533 164.321 308.375 168.166 308.375C172.101 308.375 172.551 308.237 172.551 307.022C172.551 305.811 172.997 305.673 176.932 305.673C180.867 305.673 181.317 305.532 181.317 304.32C181.317 303.234 181.767 302.968 183.593 302.968C187.784 302.968 190.087 302.218 190.087 300.855C190.087 299.805 190.604 299.59 193.122 299.59C195.67 299.59 196.157 299.378 196.157 298.285C196.157 297.444 196.701 296.902 197.675 296.764C198.652 296.623 199.27 296.004 199.407 295.025C199.592 293.743 200.038 293.504 202.275 293.504C204.477 293.504 204.927 293.275 204.927 292.155C204.927 291.162 205.377 290.802 206.612 290.802C207.851 290.802 208.298 290.442 208.298 289.45C208.298 288.471 208.748 288.097 209.93 288.097C212.444 288.097 213.697 287.401 213.697 285.998C213.697 285.083 214.177 284.719 215.382 284.719C216.618 284.719 217.068 284.356 217.068 283.367C217.068 282.465 217.518 282.014 218.417 282.014C219.3 282.014 219.767 281.564 219.767 280.709C219.767 279.871 220.308 279.326 221.285 279.188C222.258 279.05 222.879 278.428 223.017 277.452C223.155 276.473 223.699 275.932 224.535 275.932C225.388 275.932 225.837 275.464 225.837 274.579C225.837 273.677 226.287 273.227 227.187 273.227C228.08 273.227 228.537 272.776 228.537 271.888C228.537 271.023 229.134 270.4 230.222 270.125C231.23 269.872 231.908 269.216 231.908 268.503C231.908 267.84 232.515 267.144 233.257 266.949C234.329 266.666 234.607 266.027 234.607 263.826C234.607 261.512 234.825 261.061 235.957 261.061C236.853 261.061 237.303 260.61 237.303 259.708C237.303 258.719 237.753 258.356 238.992 258.356C240.54 258.356 240.678 258.11 240.678 255.314C240.678 252.724 240.876 252.273 242.027 252.273C242.897 252.273 243.374 251.822 243.374 251.001C243.374 250.301 243.948 249.578 244.649 249.393C245.522 249.164 246.073 248.199 246.385 246.338C246.704 244.457 247.245 243.515 248.145 243.28C249.249 242.987 249.447 242.318 249.447 238.819C249.447 235.151 249.595 234.701 250.794 234.701C251.945 234.701 252.143 234.25 252.143 231.659C252.143 229.129 252.358 228.618 253.416 228.618C254.984 228.618 255.494 226.865 255.508 221.428C255.514 217.855 255.702 217.236 256.867 216.93C258.15 216.593 258.214 216.008 258.214 205.023C258.214 193.917 258.267 193.47 259.563 193.47C260.896 193.47 260.913 193.019 260.913 155.277C260.913 117.538 260.896 117.087 259.563 117.087C258.274 117.087 258.214 116.636 258.214 106.61C258.214 96.5845 258.157 96.1337 256.867 96.1337C255.628 96.1337 255.518 95.6829 255.518 90.7102C255.518 85.5459 255.437 85.2565 253.829 84.6442C252.284 84.0554 252.143 83.6551 252.143 79.8667C252.143 76.3004 251.959 75.6814 250.794 75.3786C249.739 75.0993 249.447 74.4567 249.447 72.3977C249.447 70.2512 249.209 69.7735 248.135 69.7735C247.077 69.7735 246.785 69.2251 246.617 66.9003C246.446 64.5115 246.154 63.9934 244.891 63.8117C243.578 63.6267 243.374 63.1927 243.374 60.6021C243.374 58.0888 243.165 57.6077 242.068 57.6077C241.044 57.6077 240.714 57.0593 240.55 55.071C240.382 53.0355 240.04 52.4938 238.821 52.3222C237.723 52.1641 237.303 51.6527 237.303 50.4617C237.303 49.2707 236.934 48.8199 235.957 48.8199C235.057 48.8199 234.607 48.369 234.607 47.4674C234.607 46.5657 234.157 46.1149 233.257 46.1149C232.217 46.1149 231.908 45.6674 231.908 44.1433C231.908 41.2937 231.267 40.032 229.813 40.032C228.987 40.032 228.537 39.5576 228.537 38.6829C228.537 37.7812 228.087 37.3304 227.187 37.3304C226.267 37.3304 225.837 36.8796 225.837 35.914C225.837 35.0897 225.3 34.3596 224.552 34.1611C223.843 33.9761 223.111 33.246 222.926 32.5361C222.732 31.7858 222 31.2475 221.177 31.2475C220.217 31.2475 219.767 30.8169 219.767 29.895C219.767 29.0539 219.317 28.5425 218.579 28.5425C217.924 28.5425 217.088 27.8595 216.722 27.0218C216.232 25.9048 215.386 25.4439 213.526 25.2925C211.545 25.1276 210.997 24.7979 210.997 23.7718C210.997 22.9105 210.534 22.4597 209.648 22.4597C208.755 22.4597 208.298 22.0088 208.298 21.1206C208.298 20.2694 207.707 19.6335 206.676 19.3745C205.783 19.1491 204.903 18.382 204.715 17.6687C204.464 16.7065 203.775 16.3768 202.033 16.3768C200.257 16.3768 199.602 16.0504 199.333 15.0243C199.055 13.9544 198.413 13.6718 196.268 13.6718C193.968 13.6718 193.522 13.4397 193.337 12.1511C193.159 10.8861 192.639 10.5967 190.255 10.4218C187.938 10.2535 187.387 9.96421 187.387 8.90105C187.387 7.79752 186.911 7.58893 184.352 7.58893C181.767 7.58893 181.317 7.38706 181.317 6.23643C181.317 5.02524 180.867 4.88394 176.979 4.88394C172.997 4.88394 172.625 4.76282 172.426 3.36322C172.225 1.9468 171.836 1.82904 166.648 1.64737C163.586 1.5397 161.081 1.15953 161.081 0.802897C161.081 0.392438 134.547 0.153564 88.9055 0.153564L16.7328 0.153564V157.306ZM826.845 157.306V314.457H860.575H894.301V258.356V202.254H926.405C957.939 202.254 958.513 202.231 958.859 200.905C959.198 199.616 959.782 199.553 971.221 199.553C984.224 199.553 985.363 199.381 985.363 197.45C985.363 196.296 985.92 196.171 991.158 196.171C996.389 196.171 996.99 196.04 997.309 194.819C997.611 193.658 998.229 193.47 1001.69 193.47C1005.16 193.47 1005.77 193.278 1006.08 192.117C1006.32 191.172 1007 190.765 1008.32 190.765C1011.09 190.765 1012.34 190.109 1012.34 188.665C1012.34 187.622 1012.84 187.383 1015.04 187.383C1017.29 187.383 1017.74 187.158 1017.74 186.034C1017.74 184.9 1018.19 184.682 1020.5 184.682C1022.7 184.682 1023.34 184.406 1023.62 183.323C1023.81 182.576 1024.7 181.782 1025.58 181.56C1026.56 181.311 1027.18 180.658 1027.18 179.877C1027.18 178.834 1027.68 178.599 1029.88 178.599C1032.13 178.599 1032.58 178.374 1032.58 177.246C1032.58 176.486 1033.03 175.894 1033.61 175.894C1034.17 175.894 1034.98 175.134 1035.4 174.205C1035.82 173.276 1036.73 172.516 1037.41 172.516C1038.2 172.516 1038.65 172.025 1038.65 171.164C1038.65 170.262 1039.1 169.811 1040 169.811C1040.88 169.811 1041.35 169.36 1041.35 168.506C1041.35 167.668 1041.89 167.123 1042.87 166.985C1043.82 166.85 1044.46 166.225 1044.59 165.316C1044.7 164.519 1045.39 163.711 1046.11 163.523C1047.1 163.261 1047.42 162.588 1047.42 160.751C1047.42 158.779 1047.67 158.322 1048.76 158.322C1049.62 158.322 1050.24 157.723 1050.51 156.629C1050.78 155.573 1051.41 154.94 1052.21 154.94C1053.28 154.94 1053.49 154.432 1053.49 151.899C1053.49 149.308 1053.69 148.857 1054.84 148.857C1055.96 148.857 1056.19 148.407 1056.19 146.2C1056.19 143.959 1056.43 143.511 1057.71 143.326C1058.96 143.148 1059.26 142.627 1059.43 140.308C1059.58 138.199 1059.96 137.422 1060.95 137.163C1062.11 136.857 1062.26 136.201 1062.26 131.282C1062.26 126.319 1062.4 125.714 1063.61 125.394C1064.93 125.051 1064.96 124.472 1064.96 98.7613C1064.96 72.9293 1064.94 72.4785 1063.61 72.4785C1062.4 72.4785 1062.26 72.0276 1062.26 68.0845C1062.26 64.1414 1062.12 63.6906 1060.91 63.6906C1059.74 63.6906 1059.56 63.2398 1059.56 60.3666C1059.56 56.1711 1059.07 54.9027 1057.46 54.9027C1056.4 54.9027 1056.19 54.3947 1056.19 51.8613C1056.19 49.2707 1055.99 48.8199 1054.84 48.8199C1053.75 48.8199 1053.49 48.369 1053.49 46.4782C1053.49 44.8566 1053.09 43.9213 1052.19 43.4368C1051.47 43.0533 1050.69 42.128 1050.45 41.3845C1050.22 40.641 1049.44 40.032 1048.72 40.032C1047.87 40.032 1047.42 39.5677 1047.42 38.6829C1047.42 37.7812 1046.97 37.3304 1046.07 37.3304C1045.03 37.3304 1044.72 36.8796 1044.72 35.3555C1044.72 32.5058 1044.08 31.2475 1042.62 31.2475C1041.8 31.2475 1041.35 30.7698 1041.35 29.895C1041.35 28.9934 1040.9 28.5425 1040 28.5425C1039.08 28.5425 1038.65 28.0917 1038.65 27.1261C1038.65 26.2884 1038.11 25.5717 1037.32 25.3631C1036.59 25.1747 1035.82 24.4413 1035.59 23.7381C1035.29 22.7692 1034.54 22.4597 1032.54 22.4597C1030.29 22.4597 1029.88 22.241 1029.88 21.0432C1029.88 20.219 1029.34 19.4889 1028.59 19.2904C1027.89 19.1053 1027.16 18.3753 1026.97 17.6654C1026.78 16.9151 1026.05 16.3768 1025.22 16.3768C1024.26 16.3768 1023.81 15.9461 1023.81 15.0243C1023.81 13.877 1023.36 13.6718 1020.82 13.6718C1018.24 13.6718 1017.81 13.4666 1017.62 12.1511C1017.45 10.9399 1016.9 10.59 1014.94 10.4251C1013.18 10.2771 1012.38 9.84982 1012.14 8.90442C1011.87 7.87827 1011.2 7.58893 1009.11 7.58893C1007 7.58893 1006.36 7.30295 1006.08 6.23643C1005.77 5.07234 1005.16 4.88394 1001.61 4.88394C998.03 4.88394 997.503 4.72244 997.503 3.60546C997.503 1.81222 996.261 1.50606 989.016 1.50606C985.232 1.50606 982.663 1.23354 982.663 0.829812C982.663 0.382345 956.247 0.153564 904.756 0.153564L826.845 0.153564V157.306ZM140.967 53.0456C141.161 54.4115 141.611 54.5865 145.399 54.7682C149.062 54.9431 149.616 55.1416 149.616 56.2889C149.616 57.3722 150.086 57.6077 152.268 57.6077C154.303 57.6077 155.018 57.9139 155.337 58.9198C155.629 59.8484 156.482 60.2925 158.248 60.4406C160.245 60.6088 160.789 60.952 160.961 62.1699C161.095 63.1086 161.646 63.6906 162.401 63.6906C163.072 63.6906 163.781 64.2996 163.976 65.0431C164.187 65.8506 164.896 66.3956 165.742 66.3956C166.685 66.3956 167.152 66.8262 167.152 67.701C167.152 68.4176 167.76 69.2015 168.502 69.437C169.244 69.6725 169.851 70.4531 169.851 71.1697C169.851 72.0108 170.315 72.4785 171.154 72.4785C171.872 72.4785 172.651 73.0874 172.886 73.831C173.121 74.5745 173.9 75.1801 174.619 75.1801C175.559 75.1801 175.922 75.6511 175.922 76.8724C175.922 78.1105 176.281 78.5613 177.271 78.5613C178.396 78.5613 178.621 79.0122 178.621 81.263C178.621 83.6988 178.789 83.9679 180.306 83.9679C181.854 83.9679 181.992 84.2169 181.992 87.0094C181.992 89.6 182.193 90.0508 183.342 90.0508C184.49 90.0508 184.691 90.5016 184.691 93.0922C184.691 95.6829 184.889 96.1337 186.041 96.1337C187.26 96.1337 187.387 96.5845 187.387 100.81C187.387 106.362 187.777 107.627 189.486 107.627C190.725 107.627 190.762 108.969 190.762 154.94C190.762 196.043 190.631 202.254 189.775 202.254C188.146 202.254 187.387 204.599 187.387 209.646C187.387 213.972 187.263 214.423 186.041 214.423C184.91 214.423 184.691 214.874 184.691 217.189C184.691 219.386 184.413 220.028 183.342 220.311C182.291 220.583 181.992 221.233 181.992 223.241C181.992 225.398 181.747 225.852 180.474 226.034C179.212 226.216 178.923 226.734 178.749 229.122C178.581 231.447 178.292 231.996 177.231 231.996C176.371 231.996 175.922 232.46 175.922 233.348C175.922 234.25 175.472 234.701 174.572 234.701C173.585 234.701 173.222 235.151 173.222 236.39C173.222 237.655 172.87 238.078 171.812 238.078C170.966 238.078 170.257 238.624 170.046 239.431C169.851 240.175 169.247 240.783 168.696 240.783C168.149 240.783 167.545 241.382 167.353 242.112C167.162 242.842 166.467 243.613 165.802 243.825C165.141 244.034 164.446 244.804 164.254 245.537C164.046 246.325 163.331 246.866 162.495 246.866C161.531 246.866 161.081 247.297 161.081 248.219C161.081 249.12 160.632 249.571 159.732 249.571C158.845 249.571 158.385 250.022 158.385 250.883C158.385 251.943 157.835 252.236 155.518 252.404C153.134 252.576 152.614 252.868 152.436 254.133C152.238 255.53 151.865 255.654 147.883 255.654C143.995 255.654 143.545 255.792 143.545 257.007C143.545 258.336 143.095 258.356 113.865 258.356H84.1848V154.94V51.5249H112.468H140.752L140.967 53.0456ZM965.127 53.2138C965.127 54.7581 965.379 54.9027 968.082 54.9027C970.472 54.9027 971.107 55.1618 971.392 56.2552C971.661 57.2847 972.312 57.6077 974.125 57.6077C975.911 57.6077 976.61 57.9442 976.932 58.9602C977.201 59.8047 977.953 60.3094 978.943 60.3094C981.414 60.3094 982.663 61.0159 982.663 62.4121C982.663 63.3239 983.147 63.6906 984.352 63.6906C985.87 63.6906 986.037 63.9598 986.037 66.3956C986.037 68.6464 986.262 69.0972 987.387 69.0972C988.374 69.0972 988.734 69.548 988.734 70.7862C988.734 72.0276 989.096 72.4785 990.083 72.4785C991.208 72.4785 991.433 72.9293 991.433 75.17C991.433 77.4746 991.675 77.9187 993.118 78.2821C994.555 78.6454 994.807 79.0963 994.807 81.337C994.807 83.5171 995.036 83.9679 996.154 83.9679C997.463 83.9679 997.503 84.4188 997.503 98.8387C997.503 113.259 997.463 113.709 996.154 113.709C995.005 113.709 994.807 114.16 994.807 116.751C994.807 119.284 994.592 119.792 993.528 119.792C992.074 119.792 991.433 121.051 991.433 123.904C991.433 125.424 991.124 125.875 990.083 125.875C988.959 125.875 988.734 126.326 988.734 128.58C988.734 130.831 988.509 131.282 987.387 131.282C986.397 131.282 986.037 131.733 986.037 132.974C986.037 134.323 985.698 134.663 984.352 134.663C983.113 134.663 982.663 135.023 982.663 136.015C982.663 137.116 982.213 137.368 980.239 137.368C978.406 137.368 977.731 137.688 977.473 138.68C977.285 139.403 976.479 140.086 975.683 140.201C974.773 140.332 974.152 140.978 974.018 141.93C973.82 143.326 973.45 143.451 969.465 143.451C965.577 143.451 965.127 143.589 965.127 144.8C965.127 146.136 964.677 146.152 929.712 146.152H894.301V98.8387V51.5249H929.712H965.127V53.2138ZM93.6294 357.374C93.6294 359.06 93.5892 359.07 87.5591 359.07C81.9353 359.07 81.4854 359.171 81.4854 360.422C81.4854 361.627 81.0388 361.775 77.3758 361.775C73.8706 361.775 73.2159 361.966 72.9238 363.09C72.6653 364.079 71.8863 364.456 69.7812 364.611C67.4712 364.779 66.9475 365.079 66.7695 366.337C66.5882 367.619 66.1383 367.858 63.9022 367.858C61.6997 367.858 61.2498 368.086 61.2498 369.21C61.2498 370.361 60.7999 370.559 58.2146 370.559C55.6764 370.559 55.1794 370.771 55.1794 371.854C55.1794 372.84 54.5247 373.257 52.3994 373.617C50.4857 373.94 49.5154 374.485 49.287 375.367C49.1024 376.07 48.3805 376.645 47.6822 376.645C46.8764 376.645 46.4097 377.123 46.4097 377.947C46.4097 378.789 45.8691 379.33 44.8921 379.468C43.9184 379.609 43.2973 380.229 43.1596 381.208C43.022 382.183 42.4781 382.728 41.642 382.728C40.7892 382.728 40.3393 383.193 40.3393 384.081C40.3393 385.201 39.8894 385.43 37.6869 385.43C35.6523 385.43 34.9371 385.736 34.6182 386.749C34.3899 387.472 33.6076 388.253 32.8857 388.485C32.1638 388.714 31.5729 389.491 31.5729 390.207C31.5729 391.048 31.1062 391.513 30.2635 391.513C29.2395 391.513 28.9104 392.065 28.7459 394.05C28.578 396.085 28.2389 396.627 27.0168 396.798C25.9189 396.956 25.4992 397.471 25.4992 398.659C25.4992 399.85 25.1299 400.301 24.1529 400.301C23.253 400.301 22.8031 400.751 22.8031 401.653C22.8031 402.528 22.3532 403.006 21.5273 403.006C20.0701 403.006 19.4289 404.264 19.4289 407.117C19.4289 408.638 19.1233 409.088 18.0825 409.088C17.2096 409.088 16.7328 409.539 16.7328 410.36C16.7328 411.067 16.1284 411.793 15.3831 411.989C14.3154 412.268 14.0334 412.91 14.0334 415.06C14.0334 417.368 13.8017 417.816 12.5158 417.997C11.2534 418.176 10.9646 418.697 10.79 421.086C10.6222 423.407 10.3334 423.959 9.27245 423.959C8.17119 423.959 7.96303 424.44 7.96303 427.001C7.96303 429.591 7.76158 430.042 6.61332 430.042C5.40462 430.042 5.2636 430.493 5.2636 434.436C5.2636 438.672 5.20317 438.83 3.57814 438.83C1.91283 438.83 1.89268 438.897 1.89268 444.573C1.89268 447.954 1.61401 450.319 1.21782 450.319C0.771278 450.319 0.542969 472.851 0.542969 516.561C0.542969 558.482 0.781351 582.8 1.19096 582.8C1.54686 582.8 1.92626 585.461 2.0337 588.715C2.21836 594.266 2.32244 594.643 3.74602 594.845C5.14273 595.043 5.2636 595.417 5.2636 599.407C5.2636 603.303 5.40462 603.754 6.61332 603.754C7.76158 603.754 7.96303 604.205 7.96303 606.795C7.96303 609.389 8.16112 609.837 9.31274 609.837C10.4375 609.837 10.6625 610.287 10.6625 612.542C10.6625 614.974 10.8303 615.247 12.3479 615.247C13.8957 615.247 14.0334 615.492 14.0334 618.288C14.0334 620.879 14.2348 621.329 15.3831 621.329C16.5112 621.329 16.7328 621.78 16.7328 624.095C16.7328 626.248 17.0182 626.938 18.0187 627.2C18.7271 627.385 19.4557 628.119 19.6404 628.825C19.8385 629.576 20.5671 630.117 21.3896 630.117C22.4473 630.117 22.8031 630.541 22.8031 631.806C22.8031 633.027 23.1658 633.495 24.1126 633.495C25.1366 633.495 25.4656 634.044 25.6302 636.032C25.798 638.067 26.1371 638.609 27.3559 638.781C28.3094 638.915 28.8735 639.464 28.8735 640.258C28.8735 640.947 29.4812 641.708 30.2232 641.943C30.9652 642.182 31.5729 642.838 31.5729 643.407C31.5729 643.972 32.1672 644.594 32.8991 644.786C33.6277 644.975 34.4066 645.708 34.6316 646.411C34.8532 647.114 35.6019 647.69 36.2902 647.69C37.0826 647.69 37.6298 648.255 37.7641 649.21C37.9387 650.432 38.4759 650.771 40.5106 650.943C42.4915 651.105 43.0387 651.434 43.0387 652.464C43.0387 653.409 43.5054 653.773 44.7242 653.773C45.9866 653.773 46.4097 654.129 46.4097 655.189C46.4097 656.013 46.9502 656.743 47.699 656.942C48.404 657.127 49.136 657.857 49.3206 658.567C49.5825 659.569 50.2708 659.855 52.4196 659.855C54.7295 659.855 55.1794 660.077 55.1794 661.208C55.1794 662.358 55.6293 662.56 58.2146 662.56C61.0047 662.56 61.2498 662.698 61.2498 664.249C61.2498 665.454 61.6158 665.942 62.5223 665.942C63.224 665.942 63.9492 666.544 64.144 667.291C64.4495 668.458 65.0639 668.643 68.6094 668.643C72.2691 668.643 72.719 668.791 72.719 669.996C72.719 671.146 73.1689 671.348 75.7542 671.348C78.2823 671.348 78.7893 671.56 78.7893 672.627C78.7893 674.339 80.0484 674.726 85.5882 674.726C88.2507 674.726 90.2552 675.019 90.2552 675.402C90.2552 675.846 104.42 676.079 131.401 676.079C158.385 676.079 172.551 675.846 172.551 675.402C172.551 674.999 175.116 674.726 178.903 674.726C186.149 674.726 187.387 674.42 187.387 672.627C187.387 671.503 187.921 671.348 191.772 671.348C195.707 671.348 196.157 671.21 196.157 669.996C196.157 668.845 196.607 668.643 199.192 668.643C201.747 668.643 202.228 668.435 202.228 667.331C202.228 666.268 202.778 665.979 205.095 665.81C207.479 665.635 207.999 665.346 208.177 664.081C208.358 662.806 208.812 662.56 210.967 662.56C212.972 662.56 213.616 662.261 213.891 661.208C214.163 660.165 214.811 659.855 216.732 659.855C218.626 659.855 219.3 659.546 219.562 658.543C219.75 657.82 220.556 657.137 221.352 657.023C222.262 656.891 222.883 656.245 223.017 655.293C223.198 654.011 223.648 653.773 225.884 653.773C228.053 653.773 228.537 653.537 228.537 652.467C228.537 651.629 229.077 651.088 230.054 650.946C231.028 650.808 231.649 650.189 231.787 649.21C231.925 648.235 232.468 647.69 233.304 647.69C234.157 647.69 234.607 647.222 234.607 646.337C234.607 645.435 235.057 644.985 235.957 644.985C236.853 644.985 237.303 644.537 237.303 643.635C237.303 642.643 237.753 642.283 238.992 642.283C240.338 642.283 240.678 641.943 240.678 640.594C240.678 639.353 241.037 638.902 242.027 638.902C242.927 638.902 243.374 638.451 243.374 637.553C243.374 636.631 243.824 636.2 244.787 636.2C245.61 636.2 246.342 635.662 246.536 634.908C246.721 634.202 247.453 633.468 248.161 633.283C249.424 632.953 249.447 631.493 249.279 569.85L249.108 506.761H184.691H120.271L120.097 531.6L119.919 556.44H149.27H178.621V584.492C178.621 612.091 178.598 612.542 177.271 612.542C176.281 612.542 175.922 612.992 175.922 614.23C175.922 615.758 175.656 615.923 173.162 615.923C170.966 615.923 170.328 616.199 170.046 617.272C169.774 618.325 169.126 618.624 167.152 618.624C165.201 618.624 164.533 618.931 164.268 619.94C163.986 621.023 163.224 621.292 159.973 621.461C156.629 621.636 155.921 621.898 155.357 623.187C154.716 624.65 154.363 624.707 146.084 624.707C137.921 624.707 137.475 624.778 137.475 626.06C137.475 627.332 137.025 627.412 130.055 627.412C123.085 627.412 122.635 627.332 122.635 626.06C122.635 624.815 122.185 624.707 117.008 624.707C111.663 624.707 111.344 624.623 110.615 623.018C109.933 621.521 109.437 621.329 106.2 621.329C103.121 621.329 102.5 621.117 102.201 619.977C101.922 618.904 101.281 618.624 99.0887 618.624C96.809 618.624 96.3255 618.396 96.3255 617.319C96.3255 616.481 95.785 615.94 94.8079 615.798C93.8343 615.66 93.2131 615.041 93.0755 614.062C92.9378 613.087 92.3939 612.542 91.5579 612.542C90.7051 612.542 90.2552 612.074 90.2552 611.189C90.2552 610.287 89.8053 609.837 88.9055 609.837C88.0124 609.837 87.5591 609.389 87.5591 608.498C87.5591 607.636 86.9615 607.01 85.8703 606.735C84.816 606.472 84.1848 605.833 84.1848 605.032C84.1848 604.205 83.7081 603.754 82.8351 603.754C81.9353 603.754 81.4854 603.303 81.4854 602.405C81.4854 601.516 81.0388 601.052 80.176 601.052C79.1184 601.052 78.8263 600.5 78.6584 598.179C78.4872 595.79 78.1951 595.269 76.9326 595.09C75.6467 594.905 75.415 594.461 75.415 592.153C75.415 590.003 75.133 589.361 74.0687 589.081C73.0111 588.802 72.719 588.16 72.719 586.101C72.719 583.927 72.4873 583.476 71.3693 583.476C70.1874 583.476 70.0196 583.026 70.0196 579.816C70.0196 575.284 69.5629 574.016 67.9245 574.016C66.6822 574.016 66.6486 572.505 66.6486 517.914C66.6486 463.508 66.6856 461.809 67.9111 461.809C69.3917 461.809 70.0196 459.471 70.0196 453.953C70.0196 450.77 70.1874 450.319 71.3693 450.319C72.5175 450.319 72.719 449.869 72.719 447.278C72.719 444.687 72.9171 444.237 74.0687 444.237C75.217 444.237 75.415 443.786 75.415 441.195C75.415 438.403 75.5527 438.154 77.1039 438.154C78.3058 438.154 78.7893 437.787 78.7893 436.879C78.7893 436.175 79.3903 435.449 80.139 435.254C81.2101 434.974 81.4854 434.332 81.4854 432.135C81.4854 429.817 81.707 429.366 82.8351 429.366C83.7349 429.366 84.1848 428.915 84.1848 428.013C84.1848 427.024 84.6347 426.661 85.8703 426.661C87.0723 426.661 87.5591 426.297 87.5591 425.389C87.5591 424.686 88.1601 423.959 88.9055 423.764C89.7146 423.552 90.2552 422.842 90.2552 421.994C90.2552 421.046 90.6849 420.578 91.5612 420.578C92.2764 420.578 93.0553 419.972 93.2903 419.229C93.6227 418.176 94.311 417.876 96.3725 417.876C98.5482 417.876 99.0249 417.641 99.0249 416.564C99.0249 415.531 99.6629 415.158 102.06 414.798C104.424 414.445 105.095 414.061 105.095 413.069C105.095 411.958 105.629 411.793 109.205 411.793C112.75 411.793 113.365 411.605 113.67 410.441C114.006 409.146 114.59 409.088 127.433 409.088C140.396 409.088 140.846 409.132 140.846 410.441C140.846 411.652 141.296 411.793 145.231 411.793C149.166 411.793 149.616 411.931 149.616 413.143C149.616 414.196 150.066 414.495 151.644 414.495C152.966 414.495 154.182 415.084 155.139 416.184C156.149 417.355 157.294 417.876 158.842 417.876C160.632 417.876 161.081 418.145 161.081 419.229C161.081 420.1 161.531 420.578 162.354 420.578C163.069 420.578 163.781 421.187 163.989 421.981C164.191 422.751 164.983 423.549 165.755 423.751C166.544 423.956 167.152 424.669 167.152 425.389C167.152 426.213 167.632 426.661 168.502 426.661C169.401 426.661 169.851 427.112 169.851 428.013C169.851 428.902 170.301 429.366 171.161 429.366C172.222 429.366 172.51 429.918 172.678 432.239C172.853 434.628 173.142 435.149 174.404 435.328C175.841 435.533 175.922 435.846 175.922 441.242C175.922 446.491 176.029 446.942 177.271 446.942C178.537 446.942 178.621 447.392 178.621 454.377V461.809H210.997H243.374V447.278C243.374 433.292 243.327 432.747 242.051 432.747C240.855 432.747 240.711 432.189 240.533 426.832C240.352 421.281 240.248 420.904 238.821 420.702C237.427 420.504 237.303 420.13 237.303 416.137C237.303 412.244 237.166 411.793 235.957 411.793C234.835 411.793 234.607 411.343 234.607 409.132C234.607 407.097 234.302 406.38 233.294 406.061C232.368 405.764 231.925 404.91 231.777 403.14C231.612 401.138 231.266 400.597 230.054 400.422C228.953 400.267 228.537 399.752 228.537 398.565C228.537 397.374 228.164 396.923 227.187 396.923C226.086 396.923 225.837 396.472 225.837 394.494C225.837 392.667 225.515 391.98 224.545 391.725C223.836 391.54 223.071 390.655 222.846 389.76C222.587 388.727 221.953 388.135 221.103 388.135C220.217 388.135 219.767 387.681 219.767 386.782C219.767 385.881 219.317 385.43 218.417 385.43C217.534 385.43 217.068 384.979 217.068 384.125C217.068 383.287 216.527 382.745 215.55 382.604C214.576 382.466 213.955 381.847 213.818 380.868C213.683 379.929 213.133 379.347 212.377 379.347C211.706 379.347 210.997 378.738 210.803 377.995C210.521 376.921 209.883 376.645 207.687 376.645C205.337 376.645 204.927 376.433 204.927 375.229C204.927 374.405 204.39 373.671 203.641 373.476C202.933 373.291 202.201 372.558 202.016 371.851C201.754 370.845 201.069 370.559 198.92 370.559C196.607 370.559 196.157 370.34 196.157 369.21C196.157 368.093 195.707 367.858 193.569 367.858C191.46 367.858 190.836 367.541 190.211 366.169C189.513 364.638 189.056 364.476 185.38 364.476C181.767 364.476 181.317 364.328 181.317 363.124C181.317 361.913 180.867 361.775 176.932 361.775C172.997 361.775 172.551 361.633 172.551 360.422C172.551 359.177 172.101 359.07 166.974 359.07C161.844 359.07 161.35 358.949 160.736 357.549L160.071 356.028L126.848 355.853L93.6294 355.678V357.374ZM296.664 516.898V674.726H330.39H364.116V612.542V550.357H390.714H417.312L417.527 551.878C417.728 553.294 418.121 553.412 423.234 553.594C428.036 553.765 428.771 553.957 429.073 555.114C429.348 556.161 430.007 556.44 432.182 556.44C434.492 556.44 434.942 556.659 434.942 557.792C434.942 558.697 435.392 559.145 436.309 559.145C437.145 559.145 437.923 559.798 438.316 560.834C438.669 561.762 439.421 562.523 439.985 562.523C440.552 562.523 441.012 563.007 441.012 563.599C441.012 564.192 441.62 564.837 442.362 565.033C443.104 565.224 443.712 565.813 443.712 566.338C443.712 566.859 444.471 567.576 445.397 567.929C446.431 568.323 447.083 569.104 447.083 569.941C447.083 570.86 447.529 571.311 448.432 571.311C449.564 571.311 449.782 571.761 449.782 574.076C449.782 576.276 450.061 576.916 451.132 577.198C452.314 577.508 452.482 578.12 452.482 582.147C452.482 587.621 452.874 588.883 454.577 588.883C455.809 588.883 455.853 589.889 455.853 618.288C455.853 647.239 455.873 647.69 457.202 647.69C458.471 647.69 458.552 648.14 458.552 655.125C458.552 662.036 458.643 662.56 459.861 662.56C460.922 662.56 461.211 663.112 461.379 665.434C461.554 667.822 461.842 668.344 463.105 668.522C464.078 668.66 464.622 669.205 464.622 670.043C464.622 670.897 465.089 671.348 465.972 671.348C466.959 671.348 467.322 671.799 467.322 673.037V674.726H502.76H538.198L538.004 668.811C537.822 663.264 537.715 662.883 536.291 662.681C535.318 662.544 534.774 661.999 534.774 661.161C534.774 660.306 534.307 659.855 533.424 659.855C532.306 659.855 532.074 659.405 532.074 657.198C532.074 655.159 531.769 654.442 530.765 654.122C529.838 653.83 529.395 652.975 529.247 651.205C529.083 649.204 528.737 648.662 527.522 648.487C526.078 648.282 526.004 647.982 526.004 642.236C526.004 636.651 525.903 636.2 524.654 636.2C523.328 636.2 523.308 635.749 523.308 606.795C523.308 578.039 523.278 577.393 521.985 577.393C520.786 577.393 520.642 576.838 520.467 571.479C520.283 565.931 520.179 565.551 518.755 565.349C517.372 565.154 517.238 564.77 517.238 561.063C517.238 557.557 517.046 556.941 515.888 556.635C514.83 556.359 514.538 555.713 514.538 553.658C514.538 552.214 514.256 551.033 513.91 551.033C512.631 551.033 511.164 548.843 511.164 546.929C511.164 545.401 510.858 544.95 509.818 544.95C508.898 544.95 508.468 544.5 508.468 543.534C508.468 542.686 507.924 541.976 507.118 541.764C506.373 541.569 505.768 540.842 505.768 540.139C505.768 539.231 505.285 538.868 504.083 538.868C502.847 538.868 502.397 538.504 502.397 537.515C502.397 536.613 501.948 536.163 501.048 536.163C500.141 536.163 499.698 535.712 499.698 534.793C499.698 533.956 499.043 533.175 498.013 532.781C497.086 532.428 496.324 531.678 496.324 531.109C496.324 530.359 495.595 530.08 493.628 530.08C491.378 530.08 490.928 529.854 490.928 528.727C490.928 527.778 490.475 527.371 489.411 527.365C486.557 527.348 484.858 526.567 484.858 525.269C484.858 524.212 484.348 523.997 481.823 523.997C479.237 523.997 478.788 523.795 478.788 522.644C478.788 521.601 479.237 521.292 480.755 521.292C483.602 521.292 484.858 520.649 484.858 519.192C484.858 518.345 485.335 517.914 486.271 517.914C487.114 517.914 487.826 517.369 488.034 516.561C488.303 515.535 488.954 515.209 490.733 515.209C492.476 515.209 493.164 514.876 493.416 513.914C493.604 513.2 494.484 512.437 495.377 512.211C496.408 511.952 496.999 511.316 496.999 510.465C496.999 509.577 497.455 509.126 498.348 509.126C499.248 509.126 499.698 508.675 499.698 507.774C499.698 506.872 500.148 506.421 501.048 506.421C502.035 506.421 502.397 505.97 502.397 504.732C502.397 503.38 502.733 503.043 504.083 503.043C505.285 503.043 505.768 502.676 505.768 501.768C505.768 501.065 506.373 500.338 507.118 500.143C508.189 499.86 508.468 499.221 508.468 497.021C508.468 494.736 508.696 494.255 509.771 494.255C510.489 494.255 511.258 493.68 511.479 492.977C511.701 492.274 512.48 491.54 513.212 491.348C514.259 491.076 514.538 490.417 514.538 488.236C514.538 485.918 514.756 485.467 515.888 485.467C517.13 485.467 517.238 485.017 517.238 479.768C517.238 474.375 517.318 474.059 518.755 473.854L520.273 473.638V452.008V430.379L518.755 429.712C517.355 429.097 517.238 428.605 517.238 423.461C517.238 418.327 517.127 417.876 515.888 417.876C514.736 417.876 514.538 417.426 514.538 414.835C514.538 412.312 514.323 411.793 513.276 411.793C512.319 411.793 511.906 411.121 511.57 409.021C511.255 407.053 510.741 406.148 509.797 405.899C508.76 405.63 508.468 404.97 508.468 402.925C508.468 400.785 508.229 400.301 507.165 400.301C506.329 400.301 505.785 399.759 505.647 398.78C505.51 397.804 504.889 397.182 503.915 397.044C502.938 396.906 502.397 396.361 502.397 395.523C502.397 394.669 501.931 394.218 501.048 394.218C500.148 394.218 499.698 393.767 499.698 392.865C499.698 391.98 499.248 391.513 498.395 391.513C497.559 391.513 497.015 390.971 496.878 389.992C496.74 389.016 496.119 388.394 495.145 388.256C494.168 388.118 493.628 387.573 493.628 386.735C493.628 385.881 493.161 385.43 492.278 385.43C491.378 385.43 490.928 384.979 490.928 384.081C490.928 383.193 490.478 382.728 489.626 382.728C488.79 382.728 488.249 382.183 488.108 381.208C487.974 380.255 487.353 379.609 486.446 379.478C485.647 379.364 484.841 378.681 484.653 377.958C484.384 376.931 483.716 376.645 481.594 376.645C479.294 376.645 478.848 376.413 478.667 375.125C478.495 373.91 477.952 373.56 475.991 373.395C474.221 373.247 473.432 372.82 473.187 371.875C472.915 370.842 472.251 370.559 470.082 370.559C467.772 370.559 467.322 370.34 467.322 369.21C467.322 367.995 466.872 367.858 462.984 367.858C458.998 367.858 458.629 367.733 458.431 366.337C458.226 364.91 457.85 364.803 452.31 364.621C446.965 364.443 446.411 364.301 446.411 363.1C446.411 361.849 445.901 361.775 437.642 361.775C429.322 361.775 428.872 361.704 428.872 360.422C428.872 359.08 428.422 359.07 362.766 359.07H296.664V516.898ZM1091.94 516.898V674.726H1125.67H1159.39V575.705C1159.39 478.998 1159.42 476.68 1160.67 476.68C1162.12 476.68 1162.77 477.941 1162.77 480.791C1162.77 482.315 1163.07 482.766 1164.12 482.766C1165.01 482.766 1165.46 483.213 1165.46 484.115C1165.46 485.017 1165.91 485.467 1166.81 485.467C1167.96 485.467 1168.16 485.918 1168.16 488.509C1168.16 491.305 1168.3 491.55 1169.85 491.55C1171.37 491.55 1171.53 491.816 1171.53 494.319C1171.53 496.516 1171.81 497.159 1172.88 497.438C1173.91 497.707 1174.23 498.36 1174.23 500.143C1174.23 501.903 1174.56 502.579 1175.54 502.835C1176.26 503.026 1176.95 503.834 1177.06 504.631C1177.19 505.54 1177.83 506.165 1178.78 506.3C1180.06 506.482 1180.3 506.932 1180.3 509.126C1180.3 511.145 1180.61 511.834 1181.65 512.168C1182.67 512.49 1183 513.19 1183 514.98C1183 516.76 1183.33 517.45 1184.29 517.702C1185 517.887 1185.77 518.772 1185.99 519.667C1186.25 520.7 1186.89 521.292 1187.74 521.292C1188.84 521.292 1189.07 521.753 1189.07 523.997C1189.07 526.221 1189.3 526.698 1190.38 526.698C1191.44 526.698 1191.73 527.25 1191.9 529.572C1192.07 531.96 1192.36 532.482 1193.62 532.66C1194.63 532.805 1195.14 533.34 1195.14 534.245C1195.14 535.046 1195.7 535.759 1196.49 535.967C1197.55 536.243 1197.84 536.889 1197.84 538.945C1197.84 541.118 1198.07 541.569 1199.19 541.569C1200.23 541.569 1200.54 542.02 1200.54 543.541C1200.54 546.394 1201.18 547.652 1202.64 547.652C1203.46 547.652 1203.91 548.13 1203.91 549.005C1203.91 549.906 1204.36 550.357 1205.26 550.357C1206.41 550.357 1206.61 550.808 1206.61 553.398C1206.61 555.922 1206.83 556.44 1207.87 556.44C1208.83 556.44 1209.24 557.113 1209.58 559.212C1209.89 561.18 1210.41 562.085 1211.35 562.331C1212.08 562.523 1212.68 563.253 1212.68 563.953C1212.68 564.777 1213.16 565.228 1214.03 565.228C1215.18 565.228 1215.38 565.679 1215.38 568.269C1215.38 570.813 1215.59 571.311 1216.67 571.311C1217.64 571.311 1218.07 571.96 1218.41 573.985C1218.71 575.779 1219.29 576.798 1220.16 577.074C1220.87 577.299 1221.45 578.073 1221.45 578.79C1221.45 579.634 1221.91 580.099 1222.76 580.099C1223.82 580.099 1224.11 580.647 1224.28 582.972C1224.45 585.357 1224.74 585.879 1226 586.06C1227.28 586.242 1227.52 586.689 1227.52 588.93C1227.52 591.137 1227.75 591.588 1228.87 591.588C1229.86 591.588 1230.22 592.039 1230.22 593.277C1230.22 594.518 1230.58 594.969 1231.57 594.969C1232.69 594.969 1232.92 595.42 1232.92 597.657C1232.92 599.965 1233.16 600.409 1234.6 600.773C1236.04 601.136 1236.29 601.587 1236.29 603.828C1236.29 606.008 1236.52 606.459 1237.64 606.459C1238.63 606.459 1238.99 606.91 1238.99 608.148C1238.99 609.369 1239.35 609.837 1240.3 609.837C1241.32 609.837 1241.65 610.388 1241.81 612.373C1241.98 614.409 1242.32 614.951 1243.54 615.122C1244.83 615.307 1245.06 615.755 1245.06 618.059C1245.06 620.212 1245.34 620.855 1246.41 621.134C1247.18 621.336 1247.76 622.056 1247.76 622.823C1247.76 623.573 1248.32 624.307 1249.06 624.499C1249.95 624.734 1250.5 625.673 1250.8 627.48C1251.14 629.468 1251.56 630.117 1252.54 630.117C1253.6 630.117 1253.83 630.609 1253.83 632.883C1253.83 635.08 1254.1 635.722 1255.18 636.005C1255.92 636.2 1256.52 636.927 1256.52 637.63C1256.52 638.538 1257.01 638.902 1258.21 638.902C1259.76 638.902 1259.9 639.151 1259.9 641.943C1259.9 644.537 1260.1 644.985 1261.25 644.985C1262.37 644.985 1262.6 645.435 1262.6 647.646C1262.6 649.708 1262.9 650.398 1263.94 650.731C1264.69 650.967 1265.29 651.747 1265.29 652.467C1265.29 653.409 1265.76 653.773 1266.98 653.773C1268.53 653.773 1268.67 654.021 1268.67 656.814C1268.67 659.405 1268.87 659.855 1270.01 659.855C1271.11 659.855 1271.36 660.306 1271.36 662.244C1271.36 663.792 1271.74 664.774 1272.43 665.04C1273.01 665.265 1273.76 666.167 1274.1 667.045C1274.46 668.001 1275.26 668.643 1276.07 668.643C1277.24 668.643 1277.43 669.081 1277.43 671.685V674.726H1310.49H1343.54V516.898V359.07H1311.84H1280.13V459.444C1280.13 559.37 1280.13 559.821 1278.78 559.821C1277.74 559.821 1277.43 559.37 1277.43 557.846C1277.43 554.997 1276.79 553.735 1275.34 553.735C1274.49 553.735 1274.06 553.26 1274.06 552.322C1274.06 551.474 1273.52 550.764 1272.71 550.552C1271.66 550.276 1271.36 549.63 1271.36 547.575C1271.36 545.452 1271.12 544.95 1270.09 544.95C1269.1 544.95 1268.72 544.278 1268.37 541.909C1268.01 539.507 1267.63 538.868 1266.6 538.868C1265.74 538.868 1265.29 538.4 1265.29 537.515C1265.29 536.613 1264.84 536.163 1263.94 536.163C1262.82 536.163 1262.6 535.712 1262.6 533.397C1262.6 531.23 1262.31 530.554 1261.29 530.288C1260.4 530.053 1259.85 529.107 1259.54 527.227C1259.22 525.366 1258.67 524.401 1257.8 524.172C1257.1 523.99 1256.52 523.267 1256.52 522.564C1256.52 521.756 1256.05 521.292 1255.21 521.292C1254.16 521.292 1253.86 520.74 1253.7 518.419C1253.53 516.03 1253.23 515.512 1251.97 515.33C1250.7 515.148 1250.45 514.698 1250.45 512.504C1250.45 510.485 1250.15 509.796 1249.1 509.463C1248.36 509.227 1247.76 508.447 1247.76 507.727C1247.76 506.885 1247.29 506.421 1246.44 506.421C1245.39 506.421 1245.09 505.873 1244.93 503.548C1244.76 501.163 1244.46 500.641 1243.2 500.459C1241.92 500.278 1241.68 499.827 1241.68 497.586C1241.68 495.382 1241.46 494.932 1240.34 494.932C1239.35 494.932 1238.99 494.481 1238.99 493.243C1238.99 492.018 1238.62 491.55 1237.68 491.55C1236.65 491.55 1236.33 491.002 1236.16 489.017C1236.01 487.153 1235.55 486.305 1234.43 485.814C1233.25 485.293 1232.92 484.593 1232.92 482.604C1232.92 480.512 1232.68 480.061 1231.57 480.061C1230.58 480.061 1230.22 479.61 1230.22 478.372C1230.22 477.157 1229.86 476.68 1228.93 476.68C1227.95 476.68 1227.53 476.03 1227.18 473.978C1226.84 471.926 1226.42 471.273 1225.44 471.273C1224.38 471.273 1224.15 470.782 1224.15 468.507C1224.15 466.334 1223.87 465.665 1222.83 465.395C1222.12 465.207 1221.43 464.4 1221.32 463.599C1221.19 462.69 1220.54 462.068 1219.59 461.933C1218.32 461.752 1218.08 461.301 1218.08 459.06C1218.08 456.853 1217.85 456.402 1216.73 456.402C1215.6 456.402 1215.38 455.951 1215.38 453.637C1215.38 451.436 1215.1 450.797 1214.03 450.515C1213.28 450.319 1212.68 449.593 1212.68 448.89C1212.68 447.981 1212.19 447.614 1210.99 447.614C1209.45 447.614 1209.31 447.369 1209.31 444.573C1209.31 441.982 1209.11 441.532 1207.96 441.532C1206.84 441.532 1206.61 441.081 1206.61 438.874C1206.61 436.862 1206.3 436.118 1205.33 435.812C1204.63 435.587 1203.9 434.806 1203.71 434.076C1203.51 433.289 1202.79 432.747 1201.95 432.747C1200.73 432.747 1200.54 432.34 1200.54 429.706C1200.54 427.112 1200.34 426.661 1199.19 426.661C1198.1 426.661 1197.84 426.213 1197.84 424.282C1197.84 422.398 1197.49 421.742 1196.15 421.133C1195.23 420.709 1194.47 419.804 1194.47 419.118C1194.47 418.327 1193.98 417.876 1193.12 417.876C1191.97 417.876 1191.77 417.426 1191.77 414.835C1191.77 412.244 1191.57 411.793 1190.42 411.793C1189.44 411.793 1189.07 411.343 1189.07 410.158C1189.07 407.638 1188.38 406.383 1186.98 406.383C1186.06 406.383 1185.7 405.902 1185.7 404.695C1185.7 403.456 1185.34 403.006 1184.35 403.006C1183.22 403.006 1183 402.555 1183 400.237C1183 398.094 1182.71 397.397 1181.73 397.138C1180.86 396.909 1180.32 395.961 1180.03 394.161C1179.71 392.112 1179.31 391.513 1178.27 391.513C1177.29 391.513 1176.93 391.062 1176.93 389.824C1176.93 388.586 1176.57 388.135 1175.58 388.135C1174.46 388.135 1174.23 387.684 1174.23 385.43C1174.23 383.206 1174 382.728 1172.93 382.728C1171.89 382.728 1171.52 382.089 1171.16 379.687C1170.81 377.318 1170.42 376.645 1169.43 376.645C1168.59 376.645 1168.16 376.164 1168.16 375.229C1168.16 374.381 1167.62 373.671 1166.81 373.459C1165.75 373.183 1165.46 372.537 1165.46 370.482C1165.46 368.133 1165.29 367.858 1163.78 367.858C1162.25 367.858 1162.09 367.592 1162.09 365.089C1162.09 362.892 1161.81 362.249 1160.74 361.97C1160 361.775 1159.39 361.048 1159.39 360.341C1159.39 359.113 1158.25 359.07 1125.67 359.07H1091.94V516.898ZM411.336 413.045C411.336 414.344 415.912 415.155 423.308 415.168C425.722 415.171 426.172 415.383 426.172 416.524C426.172 417.674 426.622 417.876 429.211 417.876C431.796 417.876 432.246 418.075 432.246 419.229C432.246 420.1 432.696 420.578 433.515 420.578C434.213 420.578 434.942 421.18 435.133 421.914C435.382 422.859 436.282 423.374 438.246 423.687C440.344 424.023 441.012 424.437 441.012 425.396C441.012 426.213 441.493 426.661 442.362 426.661C443.457 426.661 443.712 427.112 443.712 429.043C443.712 430.927 444.064 431.583 445.397 432.192C446.324 432.616 447.083 433.521 447.083 434.207C447.083 434.998 447.573 435.449 448.432 435.449C449.645 435.449 449.782 435.9 449.782 439.843C449.782 443.786 449.92 444.237 451.132 444.237C452.428 444.237 452.482 444.687 452.482 456.019C452.482 467.209 452.411 467.825 451.132 468.232C449.984 468.598 449.782 469.254 449.782 472.669C449.782 476.229 449.631 476.68 448.432 476.68C447.455 476.68 447.083 477.13 447.083 478.325C447.083 479.513 446.666 480.027 445.565 480.182C444.346 480.357 444.007 480.899 443.839 482.934C443.675 484.919 443.346 485.467 442.322 485.467C441.375 485.467 441.012 485.935 441.012 487.156C441.012 488.711 440.767 488.849 437.977 488.849C435.392 488.849 434.942 489.047 434.942 490.198C434.942 491.332 434.492 491.55 432.182 491.55C429.986 491.55 429.348 491.83 429.066 492.903C428.811 493.889 428.143 494.255 426.602 494.262C420.988 494.276 417.406 495.1 417.406 496.378C417.406 497.583 416.291 497.633 390.761 497.633H364.116V454.713V411.793H387.726C410.271 411.793 411.336 411.847 411.336 413.045Z" fill="#040404"/>
</g>
</svg>
