<svg width="1338" height="336" viewBox="0 0 1338 336" fill="none" xmlns="http://www.w3.org/2000/svg">
<path d="M51.8923 13.626H0L0 249.106H51.8923V13.626Z" fill="#2C2B2A"/>
<path d="M1212.21 0.610107C1142.88 0.610107 1086.5 56.5735 1086.5 125.358C1086.5 152.043 1095.01 176.777 1109.45 197.083L998.344 293.967C991.395 300.85 998.591 319.137 1005.52 326.035C1012.47 332.912 1030.9 340.045 1037.84 333.157L1134.86 223.584C1156.21 240.17 1183.05 250.096 1212.21 250.096C1281.53 250.096 1337.93 194.136 1337.93 125.355C1337.93 56.5735 1281.53 0.610107 1212.21 0.610107ZM1212.21 208.519C1166 208.519 1128.4 171.216 1128.4 125.358C1128.4 79.5006 1166 42.1904 1212.21 42.1904C1258.43 42.1904 1296.02 79.5042 1296.02 125.358C1296.02 171.213 1258.43 208.519 1212.21 208.519Z" fill="#2C2B2A"/>
<path d="M464.747 14.0254H520.156L419.305 248.985L318.453 14.4213H374.261L419.704 118.449L464.747 14.0254Z" fill="#2C2B2A"/>
<path d="M884.104 119.035L752.268 13.1127V248.585H808.408V141.398L940.24 255.205V12.6912H884.104V119.035Z" fill="#2C2B2A"/>
<path d="M158.277 249.194V142.006L290.11 255.814V13.2996H233.973V119.644L102.137 13.7211V249.194H158.277Z" fill="#2C2B2A"/>
<path d="M1041.87 9.35205H989.973V244.828H1041.87V9.35205Z" fill="#2C2B2A"/>
<path d="M715.325 201.038H616.797V150.741H708.432V103.267H616.797V60.2167H712.894V12.7388H551.107V247.709H715.325V201.038Z" fill="#2C2B2A"/>
<path d="M1263.48 128.064C1263.73 153.887 1251.86 173.685 1247.01 181.345C1258.72 173.752 1275.49 153.852 1275.17 127.864C1275.42 102.043 1258.81 82.2421 1247.07 74.5837C1251.83 82.1768 1263.8 102.076 1263.48 128.064Z" fill="#2C2B2A"/>
<path d="M1263.48 128.064C1263.73 153.887 1251.86 173.685 1247.01 181.345C1258.72 173.752 1275.49 153.852 1275.17 127.864C1275.42 102.043 1258.81 82.2421 1247.07 74.5837C1251.83 82.1768 1263.8 102.076 1263.48 128.064Z" stroke="#2C2B2A" stroke-width="0.348678"/>
</svg>
