<svg width="2273" height="344" viewBox="0 0 2273 344" fill="none" xmlns="http://www.w3.org/2000/svg">
<path fill-rule="evenodd" clip-rule="evenodd" d="M109.355 37.0259C94.6383 37.0259 80.5239 42.8182 70.1173 53.1287C59.7107 63.4392 53.8641 77.4234 53.8641 92.0048V104.529H16.7951V92.0048C16.7951 67.6833 26.5468 44.3578 43.9052 27.1597C61.2637 9.96164 84.8067 0.299805 109.355 0.299805C133.904 0.299805 157.447 9.96164 174.806 27.1597C192.164 44.3578 201.915 67.6833 201.915 92.0048V178.148C212.296 194.696 218.292 214.228 218.292 235.146C218.292 294.868 169.425 343.281 109.146 343.281C48.8662 343.281 0 294.868 0 235.146C0 175.424 48.8662 127.01 109.146 127.01C129.493 127.01 148.54 132.527 164.846 142.133V92.0048C164.846 77.4234 159 63.4392 148.593 53.1287C138.187 42.8182 124.072 37.0259 109.355 37.0259ZM109.146 163.736C69.3388 163.736 37.0691 195.707 37.0691 235.146C37.0691 274.584 69.3388 306.555 109.146 306.555C148.952 306.555 181.221 274.584 181.221 235.146C181.221 195.707 148.952 163.736 109.146 163.736Z" fill="#F47115"/>
<path d="M109.51 265.774C126.4 265.774 140.092 252.209 140.092 235.475C140.092 218.741 126.4 205.176 109.51 205.176C92.6204 205.176 78.9287 218.741 78.9287 235.475C78.9287 252.209 92.6204 265.774 109.51 265.774Z" fill="#F47115"/>
<path d="M323.554 5.74132H357.294V122.172C357.294 138.238 352.854 150.244 343.974 158.19C335.151 166.136 321.772 170.11 303.836 170.11H297V144.975H302.258C309.269 144.975 314.557 143.046 318.121 139.188C321.743 135.33 323.554 129.658 323.554 122.172V5.74132Z" fill="black"/>
<path d="M435.642 57.738C428.689 57.738 423.373 60.2141 419.692 65.1661C416.07 70.0606 414.258 77.1432 414.258 86.4139C414.258 95.6847 416.07 102.796 419.692 107.748C423.373 112.643 428.689 115.09 435.642 115.09C442.478 115.09 447.707 112.643 451.329 107.748C454.951 102.796 456.762 95.6847 456.762 86.4139C456.762 77.1432 454.951 70.0606 451.329 65.1661C447.707 60.2141 442.478 57.738 435.642 57.738ZM435.642 35.6265C452.527 35.6265 465.701 40.1179 475.166 49.1007C484.689 58.0835 489.451 70.5213 489.451 86.4139C489.451 102.307 484.689 114.744 475.166 123.727C465.701 132.71 452.527 137.201 435.642 137.201C418.699 137.201 405.436 132.71 395.855 123.727C386.331 114.744 381.57 102.307 381.57 86.4139C381.57 70.5213 386.331 58.0835 395.855 49.1007C405.436 40.1179 418.699 35.6265 435.642 35.6265Z" fill="black"/>
<path d="M511.273 97.0378V37.9585H542.822V47.6323C542.822 52.8723 542.793 59.4655 542.734 67.4118C542.676 75.3006 542.647 80.5693 542.647 83.2181C542.647 90.9917 542.851 96.606 543.26 100.061C543.669 103.458 544.37 105.934 545.364 107.489C546.649 109.504 548.314 111.059 550.359 112.153C552.462 113.247 554.858 113.794 557.545 113.794C564.089 113.794 569.23 111.318 572.969 106.366C576.708 101.414 578.578 94.533 578.578 85.7229V37.9585H609.952V134.697H578.578V120.704C573.846 126.347 568.821 130.522 563.505 133.228C558.246 135.877 552.433 137.201 546.065 137.201C534.73 137.201 526.083 133.775 520.124 126.923C514.223 120.071 511.273 110.109 511.273 97.0378Z" fill="black"/>
<path d="M713.013 64.3024C710.267 63.0356 707.521 62.1143 704.776 61.5384C702.088 60.905 699.371 60.5883 696.625 60.5883C688.563 60.5883 682.34 63.1507 677.959 68.2756C673.635 73.3428 671.473 80.6269 671.473 90.128V134.697H640.099V37.9585H671.473V53.8512C675.505 47.5172 680.12 42.9106 685.32 40.0315C690.578 37.0948 696.859 35.6265 704.162 35.6265C705.214 35.6265 706.353 35.684 707.58 35.7992C708.807 35.8568 710.589 36.0295 712.926 36.3175L713.013 64.3024Z" fill="black"/>
<path d="M827.292 75.79V134.697H795.743V89.6097C795.743 81.2603 795.538 75.5021 795.129 72.3351C794.779 69.1681 794.136 66.836 793.201 65.3389C791.974 63.3235 790.309 61.7688 788.206 60.6747C786.103 59.5231 783.707 58.9472 781.02 58.9472C774.476 58.9472 769.335 61.4521 765.596 66.4617C761.857 71.4138 759.987 78.2949 759.987 87.1049V134.697H728.613V37.9585H759.987V52.1238C764.719 46.4807 769.744 42.3348 775.061 39.686C780.377 36.9796 786.249 35.6265 792.676 35.6265C804.01 35.6265 812.598 39.0526 818.441 45.9049C824.342 52.7572 827.292 62.7189 827.292 75.79Z" fill="black"/>
<path d="M900.382 91.1645C893.838 91.1645 888.901 92.2585 885.571 94.4466C882.299 96.6348 880.663 99.8594 880.663 104.12C880.663 108.036 881.978 111.117 884.607 113.362C887.294 115.551 891.004 116.645 895.737 116.645C901.638 116.645 906.604 114.572 910.635 110.426C914.666 106.222 916.682 100.982 916.682 94.7058V91.1645H900.382ZM948.319 79.5041V134.697H916.682V120.359C912.475 126.232 907.743 130.522 902.485 133.228C897.227 135.877 890.829 137.201 883.292 137.201C873.126 137.201 864.859 134.294 858.491 128.478C852.181 122.604 849.026 115.003 849.026 105.675C849.026 94.3315 852.97 86.0109 860.857 80.7133C868.803 75.4157 881.247 72.767 898.191 72.767H916.682V70.3485C916.682 65.454 914.725 61.8839 910.81 59.6382C906.896 57.3349 900.791 56.1833 892.494 56.1833C885.775 56.1833 879.524 56.8455 873.74 58.1699C867.956 59.4943 862.581 61.4809 857.615 64.1296V40.5497C864.334 38.9374 871.082 37.7282 877.859 36.9221C884.636 36.0583 891.413 35.6265 898.191 35.6265C915.893 35.6265 928.659 39.0814 936.488 45.9913C944.375 52.8435 948.319 64.0145 948.319 79.5041Z" fill="black"/>
<path d="M977.502 0.299805L1008.88 0.299805V134.697H977.502V0.299805Z" fill="black"/>
<path d="M1206.76 127.614C1200.57 130.781 1194.11 133.171 1187.39 134.783C1180.67 136.395 1173.66 137.201 1166.36 137.201C1144.57 137.201 1127.3 131.213 1114.57 119.236C1101.83 107.201 1095.46 90.9053 1095.46 70.3485C1095.46 49.7341 1101.83 33.4383 1114.57 21.4613C1127.3 9.42658 1144.57 3.40924 1166.36 3.40924C1173.66 3.40924 1180.67 4.21539 1187.39 5.82769C1194.11 7.43999 1200.57 9.82965 1206.76 12.9967V39.686C1200.51 35.4825 1194.35 32.4019 1188.27 30.4441C1182.19 28.4863 1175.8 27.5074 1169.08 27.5074C1157.04 27.5074 1147.58 31.3078 1140.68 38.9086C1133.79 46.5095 1130.34 56.9894 1130.34 70.3485C1130.34 83.65 1133.79 94.1012 1140.68 101.702C1147.58 109.303 1157.04 113.103 1169.08 113.103C1175.8 113.103 1182.19 112.124 1188.27 110.167C1194.35 108.209 1200.51 105.128 1206.76 100.925V127.614Z" fill="black"/>
<path d="M1280.11 57.738C1273.16 57.738 1267.84 60.2141 1264.16 65.1661C1260.54 70.0606 1258.73 77.1432 1258.73 86.4139C1258.73 95.6847 1260.54 102.796 1264.16 107.748C1267.84 112.643 1273.16 115.09 1280.11 115.09C1286.95 115.09 1292.18 112.643 1295.8 107.748C1299.42 102.796 1301.23 95.6847 1301.23 86.4139C1301.23 77.1432 1299.42 70.0606 1295.8 65.1661C1292.18 60.2141 1286.95 57.738 1280.11 57.738ZM1280.11 35.6265C1297 35.6265 1310.17 40.1179 1319.64 49.1007C1329.16 58.0835 1333.92 70.5213 1333.92 86.4139C1333.92 102.307 1329.16 114.744 1319.64 123.727C1310.17 132.71 1297 137.201 1280.11 137.201C1263.17 137.201 1249.91 132.71 1240.33 123.727C1230.8 114.744 1226.04 102.307 1226.04 86.4139C1226.04 70.5213 1230.8 58.0835 1240.33 49.1007C1249.91 40.1179 1263.17 35.6265 1280.11 35.6265Z" fill="black"/>
<path d="M1447.76 54.024C1451.74 48.0354 1456.44 43.4864 1461.87 40.377C1467.36 37.21 1473.38 35.6265 1479.93 35.6265C1491.2 35.6265 1499.79 39.0526 1505.69 45.9049C1511.59 52.7572 1514.54 62.7189 1514.54 75.79V134.697H1482.99V84.2546C1483.05 83.506 1483.08 82.7287 1483.08 81.9225C1483.14 81.1164 1483.17 79.9647 1483.17 78.4676C1483.17 71.6153 1482.15 66.6633 1480.1 63.6114C1478.06 60.502 1474.76 58.9472 1470.2 58.9472C1464.24 58.9472 1459.62 61.3657 1456.35 66.2026C1453.14 71.0395 1451.47 78.0357 1451.36 87.1913V134.697H1419.81V84.2546C1419.81 73.5443 1418.87 66.6633 1417 63.6114C1415.13 60.502 1411.8 58.9472 1407.01 58.9472C1400.99 58.9472 1396.35 61.3945 1393.08 66.289C1389.81 71.1259 1388.17 78.0645 1388.17 87.1049V134.697H1356.62V37.9585H1388.17V52.1238C1392.03 46.6535 1396.44 42.5363 1401.4 39.7724C1406.43 37.0084 1411.95 35.6265 1417.97 35.6265C1424.74 35.6265 1430.73 37.2388 1435.93 40.4634C1441.13 43.688 1445.08 48.2082 1447.76 54.024Z" fill="black"/>
<path d="M1575.19 120.704V171.492H1543.81V37.9585H1575.19V52.1238C1579.51 46.4807 1584.3 42.3348 1589.56 39.686C1594.82 36.9796 1600.87 35.6265 1607.7 35.6265C1619.79 35.6265 1629.73 40.377 1637.5 49.878C1645.27 59.3215 1649.15 71.5002 1649.15 86.4139C1649.15 101.328 1645.27 113.535 1637.5 123.036C1629.73 132.48 1619.79 137.201 1607.7 137.201C1600.87 137.201 1594.82 135.877 1589.56 133.228C1584.3 130.522 1579.51 126.347 1575.19 120.704ZM1596.05 58.0835C1589.33 58.0835 1584.16 60.5308 1580.53 65.4252C1576.97 70.2621 1575.19 77.2584 1575.19 86.4139C1575.19 95.5695 1576.97 102.595 1580.53 107.489C1584.16 112.326 1589.33 114.744 1596.05 114.744C1602.76 114.744 1607.88 112.326 1611.38 107.489C1614.95 102.652 1616.73 95.6271 1616.73 86.4139C1616.73 77.2008 1614.95 70.1758 1611.38 65.3389C1607.88 60.502 1602.76 58.0835 1596.05 58.0835Z" fill="black"/>
<path d="M1716.28 91.1645C1709.74 91.1645 1704.8 92.2585 1701.47 94.4466C1698.2 96.6348 1696.56 99.8594 1696.56 104.12C1696.56 108.036 1697.88 111.117 1700.51 113.362C1703.2 115.551 1706.91 116.645 1711.64 116.645C1717.54 116.645 1722.51 114.572 1726.54 110.426C1730.57 106.222 1732.58 100.982 1732.58 94.7058V91.1645H1716.28ZM1764.22 79.5041V134.697H1732.58V120.359C1728.38 126.232 1723.64 130.522 1718.39 133.228C1713.13 135.877 1706.73 137.201 1699.19 137.201C1689.03 137.201 1680.76 134.294 1674.39 128.478C1668.08 122.604 1664.93 115.003 1664.93 105.675C1664.93 94.3315 1668.87 86.0109 1676.76 80.7133C1684.7 75.4157 1697.15 72.767 1714.09 72.767H1732.58V70.3485C1732.58 65.454 1730.63 61.8839 1726.71 59.6382C1722.8 57.3349 1716.69 56.1833 1708.4 56.1833C1701.68 56.1833 1695.43 56.8455 1689.64 58.1699C1683.86 59.4943 1678.48 61.4809 1673.52 64.1296V40.5497C1680.24 38.9374 1686.98 37.7282 1693.76 36.9221C1700.54 36.0583 1707.32 35.6265 1714.09 35.6265C1731.8 35.6265 1744.56 39.0814 1752.39 45.9913C1760.28 52.8435 1764.22 64.0145 1764.22 79.5041Z" fill="black"/>
<path d="M1866.32 64.3024C1863.57 63.0356 1860.83 62.1143 1858.08 61.5384C1855.39 60.905 1852.68 60.5883 1849.93 60.5883C1841.87 60.5883 1835.64 63.1507 1831.26 68.2756C1826.94 73.3428 1824.78 80.6269 1824.78 90.128V134.697H1793.4V37.9585H1824.78V53.8512C1828.81 47.5172 1833.42 42.9106 1838.62 40.0315C1843.88 37.0948 1850.16 35.6265 1857.47 35.6265C1858.52 35.6265 1859.66 35.684 1860.88 35.7992C1862.11 35.8568 1863.89 36.0295 1866.23 36.3175L1866.32 64.3024Z" fill="black"/>
<path d="M1881.92 37.9585H1913.29V134.697H1881.92V37.9585ZM1881.92 0.299805L1913.29 0.299805V25.5208H1881.92V0.299805Z" fill="black"/>
<path d="M2020.12 40.9816V64.4751C2013.4 61.7112 2006.92 59.6382 2000.67 58.2563C1994.41 56.8743 1988.51 56.1833 1982.96 56.1833C1977 56.1833 1972.56 56.9319 1969.64 58.429C1966.78 59.8686 1965.35 62.1143 1965.35 65.1661C1965.35 67.6422 1966.43 69.5424 1968.59 70.8667C1970.81 72.1911 1974.75 73.17 1980.42 73.8034L1985.94 74.5808C2002.01 76.5962 2012.82 79.9072 2018.37 84.5137C2023.92 89.1203 2026.69 96.3469 2026.69 106.193C2026.69 116.501 2022.84 124.245 2015.13 129.428C2007.41 134.61 1995.9 137.201 1980.6 137.201C1974.11 137.201 1967.39 136.683 1960.44 135.647C1953.55 134.668 1946.45 133.171 1939.14 131.155V107.662C1945.4 110.656 1951.79 112.902 1958.34 114.399C1964.94 115.896 1971.63 116.645 1978.41 116.645C1984.54 116.645 1989.16 115.81 1992.25 114.14C1995.35 112.47 1996.9 109.994 1996.9 106.712C1996.9 103.948 1995.82 101.904 1993.65 100.579C1991.55 99.1972 1987.32 98.1319 1980.95 97.3833L1975.43 96.6924C1961.46 94.9649 1951.68 91.7691 1946.07 87.1049C1940.46 82.4408 1937.65 75.3582 1937.65 65.8571C1937.65 55.6075 1941.22 48.0066 1948.35 43.0546C1955.47 38.1025 1966.4 35.6265 1981.12 35.6265C1986.91 35.6265 1992.98 36.0583 1999.35 36.9221C2005.72 37.7858 2012.64 39.139 2020.12 40.9816Z" fill="black"/>
<path d="M2097.07 57.738C2090.11 57.738 2084.8 60.2141 2081.12 65.1661C2077.49 70.0606 2075.68 77.1432 2075.68 86.4139C2075.68 95.6847 2077.49 102.796 2081.12 107.748C2084.8 112.643 2090.11 115.09 2097.07 115.09C2103.9 115.09 2109.13 112.643 2112.75 107.748C2116.38 102.796 2118.19 95.6847 2118.19 86.4139C2118.19 77.1432 2116.38 70.0606 2112.75 65.1661C2109.13 60.2141 2103.9 57.738 2097.07 57.738ZM2097.07 35.6265C2113.95 35.6265 2127.13 40.1179 2136.59 49.1007C2146.11 58.0835 2150.88 70.5213 2150.88 86.4139C2150.88 102.307 2146.11 114.744 2136.59 123.727C2127.13 132.71 2113.95 137.201 2097.07 137.201C2080.12 137.201 2066.86 132.71 2057.28 123.727C2047.76 114.744 2042.99 102.307 2042.99 86.4139C2042.99 70.5213 2047.76 58.0835 2057.28 49.1007C2066.86 40.1179 2080.12 35.6265 2097.07 35.6265Z" fill="black"/>
<path d="M2272.43 75.79V134.697H2240.88V89.6097C2240.88 81.2603 2240.67 75.5021 2240.27 72.3351C2239.92 69.1681 2239.27 66.836 2238.34 65.3389C2237.11 63.3235 2235.45 61.7688 2233.34 60.6747C2231.24 59.5231 2228.84 58.9472 2226.16 58.9472C2219.61 58.9472 2214.47 61.4521 2210.73 66.4617C2206.99 71.4138 2205.12 78.2949 2205.12 87.1049V134.697H2173.75V37.9585H2205.12V52.1238C2209.86 46.4807 2214.88 42.3348 2220.2 39.686C2225.51 36.9796 2231.39 35.6265 2237.81 35.6265C2249.15 35.6265 2257.73 39.0526 2263.58 45.9049C2269.48 52.7572 2272.43 62.7189 2272.43 75.79Z" fill="black"/>
<path d="M1031.05 215.881V243.174C1023.86 240.007 1016.85 237.618 1010.02 236.005C1003.18 234.393 996.724 233.587 990.648 233.587C982.585 233.587 976.626 234.681 972.77 236.869C968.914 239.057 966.986 242.455 966.986 247.061C966.986 250.516 968.271 253.223 970.842 255.18C973.471 257.081 978.203 258.722 985.039 260.104L999.412 262.954C1013.96 265.833 1024.3 270.209 1030.44 276.083C1036.57 281.956 1039.64 290.305 1039.64 301.131C1039.64 315.354 1035.34 325.949 1026.75 332.916C1018.22 339.826 1005.17 343.281 987.581 343.281C979.284 343.281 970.959 342.504 962.604 340.949C954.249 339.394 945.894 337.091 937.54 334.039V305.968C945.894 310.344 953.957 313.655 961.728 315.901C969.557 318.089 977.093 319.183 984.338 319.183C991.699 319.183 997.337 317.974 1001.25 315.555C1005.17 313.137 1007.12 309.682 1007.12 305.19C1007.12 301.16 1005.78 298.05 1003.09 295.862C1000.46 293.674 995.176 291.716 987.23 289.989L974.172 287.138C961.085 284.375 951.503 279.969 945.427 273.923C939.409 267.877 936.4 259.729 936.4 249.48C936.4 236.639 940.607 226.764 949.02 219.854C957.433 212.944 969.527 209.489 985.302 209.489C992.488 209.489 999.879 210.036 1007.47 211.13C1015.07 212.166 1022.93 213.75 1031.05 215.881Z" fill="black"/>
<path d="M1165.92 292.148V300.958H1092.57C1093.33 308.214 1095.99 313.655 1100.54 317.283C1105.1 320.91 1111.47 322.724 1119.65 322.724C1126.25 322.724 1133 321.774 1139.89 319.874C1146.85 317.916 1153.97 314.979 1161.28 311.064V334.903C1153.86 337.667 1146.44 339.74 1139.02 341.122C1131.6 342.561 1124.18 343.281 1116.76 343.281C1099 343.281 1085.18 338.847 1075.31 329.98C1065.49 321.054 1060.58 308.559 1060.58 292.494C1060.58 276.716 1065.4 264.307 1075.04 255.267C1084.74 246.226 1098.06 241.706 1115 241.706C1130.43 241.706 1142.76 246.284 1151.99 255.439C1161.28 264.595 1165.92 276.831 1165.92 292.148ZM1133.67 281.87C1133.67 275.996 1131.92 271.275 1128.41 267.704C1124.97 264.077 1120.44 262.263 1114.83 262.263C1108.75 262.263 1103.82 263.962 1100.02 267.359C1096.22 270.699 1093.86 275.536 1092.92 281.87H1133.67Z" fill="black"/>
<path d="M1262.67 270.382C1259.93 269.115 1257.18 268.194 1254.44 267.618C1251.75 266.985 1249.03 266.668 1246.29 266.668C1238.22 266.668 1232 269.23 1227.62 274.355C1223.3 279.422 1221.13 286.707 1221.13 296.208V340.776H1189.76V244.038H1221.13V259.931C1225.16 253.597 1229.78 248.99 1234.98 246.111C1240.24 243.174 1246.52 241.706 1253.82 241.706C1254.87 241.706 1256.01 241.764 1257.24 241.879C1258.47 241.936 1260.25 242.109 1262.59 242.397L1262.67 270.382Z" fill="black"/>
<path d="M1265.92 244.038H1297.29L1321.74 310.891L1346.1 244.038H1377.57L1338.92 340.776H1304.48L1265.92 244.038Z" fill="black"/>
<path d="M1395.36 244.038H1426.73V340.776H1395.36V244.038ZM1395.36 206.379H1426.73V231.6H1395.36V206.379Z" fill="black"/>
<path d="M1536.19 247.061V272.282C1531.92 269.403 1527.63 267.273 1523.31 265.891C1519.04 264.509 1514.6 263.818 1509.99 263.818C1501.22 263.818 1494.39 266.351 1489.48 271.419C1484.63 276.428 1482.2 283.453 1482.2 292.494C1482.2 301.534 1484.63 308.588 1489.48 313.655C1494.39 318.665 1501.22 321.17 1509.99 321.17C1514.89 321.17 1519.54 320.45 1523.92 319.01C1528.36 317.571 1532.45 315.44 1536.19 312.619V337.926C1531.28 339.711 1526.29 341.035 1521.2 341.899C1516.18 342.82 1511.12 343.281 1506.04 343.281C1488.34 343.281 1474.49 338.818 1464.5 329.893C1454.51 320.91 1449.52 308.444 1449.52 292.494C1449.52 276.543 1454.51 264.106 1464.5 255.18C1474.49 246.198 1488.34 241.706 1506.04 241.706C1511.18 241.706 1516.24 242.167 1521.2 243.088C1526.23 243.952 1531.22 245.276 1536.19 247.061Z" fill="black"/>
<path d="M1661.25 292.148V300.958H1587.89C1588.65 308.214 1591.31 313.655 1595.87 317.283C1600.43 320.91 1606.8 322.724 1614.97 322.724C1621.58 322.724 1628.32 321.774 1635.22 319.874C1642.17 317.916 1649.3 314.979 1656.6 311.064V334.903C1649.18 337.667 1641.76 339.74 1634.34 341.122C1626.92 342.561 1619.5 343.281 1612.08 343.281C1594.32 343.281 1580.5 338.847 1570.63 329.98C1560.81 321.054 1555.91 308.559 1555.91 292.494C1555.91 276.716 1560.73 264.307 1570.37 255.267C1580.07 246.226 1593.39 241.706 1610.33 241.706C1625.75 241.706 1638.08 246.284 1647.31 255.439C1656.6 264.595 1661.25 276.831 1661.25 292.148ZM1629 281.87C1629 275.996 1627.24 271.275 1623.74 267.704C1620.29 264.077 1615.76 262.263 1610.15 262.263C1604.08 262.263 1599.14 263.962 1595.34 267.359C1591.55 270.699 1589.18 275.536 1588.25 281.87H1629Z" fill="black"/>
</svg>
