<svg width="2939" height="332" viewBox="0 0 2939 332" fill="none" xmlns="http://www.w3.org/2000/svg">
<path fill-rule="evenodd" clip-rule="evenodd" d="M103.815 35.7766C89.9207 35.7766 76.5956 41.3558 66.771 51.2872C56.9463 61.2185 51.4267 74.6885 51.4267 88.7336V100.797H16.4306V88.7336C16.4306 65.3065 25.637 42.8389 42.0247 26.2732C58.4124 9.70763 80.6389 0.401123 103.815 0.401123C126.99 0.401123 149.217 9.70763 165.605 26.2732C181.993 42.8389 191.198 65.3065 191.198 88.7336V171.708C200.999 187.649 206.659 206.461 206.659 226.611C206.659 284.136 160.525 330.769 103.617 330.769C46.7082 330.769 0.574707 284.136 0.574707 226.611C0.574707 169.085 46.7082 122.452 103.617 122.452C122.826 122.452 140.808 127.765 156.203 137.018V88.7336C156.203 74.6885 150.683 61.2185 140.858 51.2872C131.034 41.3558 117.709 35.7766 103.815 35.7766ZM103.617 157.827C66.036 157.827 35.5709 188.622 35.5709 226.611C35.5709 264.598 66.036 295.393 103.617 295.393C141.197 295.393 171.662 264.598 171.662 226.611C171.662 188.622 141.197 157.827 103.617 157.827Z" fill="#F47115"/>
<path d="M103.961 256.112C119.906 256.112 132.832 243.046 132.832 226.927C132.832 210.809 119.906 197.743 103.961 197.743C88.0157 197.743 75.0896 210.809 75.0896 226.927C75.0896 243.046 88.0157 256.112 103.961 256.112Z" fill="#F47115"/>
<path d="M265.946 294.384C268.059 296.225 270.665 297.784 273.764 299.058C276.863 300.475 279.961 301.183 283.06 301.183C286.3 301.183 289.399 299.908 292.357 297.359C295.315 294.809 296.794 290.418 296.794 284.186V132.061H335.249V292.259C335.249 299.342 333.981 305.362 331.446 310.319C328.91 315.418 325.389 319.455 320.881 322.43C316.374 325.546 311.162 327.812 305.246 329.228C299.33 330.786 293.132 331.566 286.652 331.566C281.159 331.566 275.877 330.928 270.806 329.653C265.735 328.379 261.157 326.82 257.072 324.979C252.987 323.279 249.465 321.438 246.507 319.455L265.946 294.384Z" fill="#060908"/>
<path d="M395.906 206.424C395.906 215.205 397.596 222.996 400.977 229.795C404.498 236.452 409.358 241.693 415.556 245.517C421.894 249.342 429.289 251.254 437.741 251.254C446.052 251.254 453.306 249.342 459.504 245.517C465.843 241.693 470.702 236.452 474.083 229.795C477.604 222.996 479.365 215.205 479.365 206.424C479.365 197.642 477.675 189.922 474.294 183.265C470.914 176.466 466.124 171.154 459.926 167.33C453.729 163.506 446.333 161.593 437.741 161.593C429.289 161.593 421.894 163.506 415.556 167.33C409.358 171.154 404.498 176.466 400.977 183.265C397.596 189.922 395.906 197.642 395.906 206.424ZM358.085 206.424C358.085 194.95 360.057 184.469 364.001 174.979C368.086 165.489 373.72 157.273 380.904 150.333C388.088 143.392 396.539 138.081 406.259 134.398C415.978 130.574 426.472 128.661 437.741 128.661C449.151 128.661 459.645 130.574 469.223 134.398C478.943 138.081 487.394 143.392 494.578 150.333C501.762 157.273 507.326 165.489 511.27 174.979C515.214 184.469 517.186 194.95 517.186 206.424C517.186 217.897 515.214 228.449 511.27 238.081C507.467 247.713 501.973 256.07 494.789 263.152C487.746 270.234 479.365 275.758 469.646 279.724C459.926 283.548 449.292 285.461 437.741 285.461C426.05 285.461 415.344 283.548 405.625 279.724C395.906 275.758 387.454 270.234 380.27 263.152C373.227 256.07 367.734 247.713 363.79 238.081C359.986 228.449 358.085 217.897 358.085 206.424Z" fill="#060908"/>
<path d="M539.01 132.061H574.718V229.37C574.718 236.877 576.69 242.968 580.634 247.642C584.578 252.316 590.494 254.653 598.382 254.653C606.411 254.653 612.398 252.316 616.342 247.642C620.286 242.968 622.258 236.877 622.258 229.37V132.061H657.966V231.919C657.966 241.268 656.417 249.412 653.318 256.353C650.36 263.293 646.134 269.03 640.64 273.563C635.288 277.953 628.949 281.282 621.624 283.548C614.44 285.815 606.693 286.948 598.382 286.948C590.072 286.948 582.324 285.815 575.14 283.548C567.957 281.282 561.618 277.953 556.124 273.563C550.772 269.03 546.546 263.293 543.447 256.353C540.489 249.412 539.01 241.268 539.01 231.919V132.061Z" fill="#060908"/>
<path d="M927.072 132.061H961.512V288.223L859.248 197.075V280.786H825.019V124.624L927.072 215.772V132.061Z" fill="#060908"/>
<path d="M1148.14 132.061H1183.85V249.979H1243.22V280.786H1148.14V132.061Z" fill="#060908"/>
<path d="M1353.54 206.424C1353.54 215.489 1355.59 223.35 1359.67 230.007C1363.76 236.523 1369.11 241.48 1375.73 244.88C1382.49 248.279 1389.89 249.979 1397.91 249.979C1404.96 249.979 1411.16 249.058 1416.51 247.217C1421.86 245.376 1426.65 242.968 1430.88 239.993C1435.1 237.019 1438.83 233.832 1442.07 230.432V269.101C1436.16 273.775 1429.68 277.458 1422.64 280.149C1415.59 282.84 1406.65 284.186 1395.8 284.186C1383.97 284.186 1373.05 282.344 1363.05 278.662C1353.05 274.979 1344.46 269.667 1337.27 262.727C1330.09 255.786 1324.53 247.571 1320.58 238.081C1316.64 228.591 1314.67 218.038 1314.67 206.424C1314.67 194.809 1316.64 184.256 1320.58 174.766C1324.53 165.276 1330.09 157.061 1337.27 150.12C1344.46 143.18 1353.05 137.868 1363.05 134.185C1373.05 130.503 1383.97 128.661 1395.8 128.661C1406.65 128.661 1415.59 130.007 1422.64 132.698C1429.68 135.389 1436.16 139.072 1442.07 143.746V182.415C1438.83 179.016 1435.1 175.829 1430.88 172.854C1426.65 169.738 1421.86 167.33 1416.51 165.63C1411.16 163.789 1404.96 162.868 1397.91 162.868C1389.89 162.868 1382.49 164.568 1375.73 167.967C1369.11 171.367 1363.76 176.324 1359.67 182.84C1355.59 189.356 1353.54 197.217 1353.54 206.424Z" fill="#060908"/>
<path d="M1795.11 206.424C1795.11 215.489 1797.15 223.35 1801.23 230.007C1805.32 236.523 1810.67 241.48 1817.29 244.88C1824.05 248.279 1831.45 249.979 1839.48 249.979C1846.52 249.979 1852.72 249.058 1858.07 247.217C1863.42 245.376 1868.21 242.968 1872.44 239.993C1876.66 237.019 1880.4 233.832 1883.64 230.432V269.101C1877.72 273.775 1871.24 277.458 1864.2 280.149C1857.16 282.84 1848.21 284.186 1837.36 284.186C1825.53 284.186 1814.62 282.344 1804.61 278.662C1794.61 274.979 1786.02 269.667 1778.84 262.727C1771.65 255.786 1766.09 247.571 1762.15 238.081C1758.2 228.591 1756.23 218.038 1756.23 206.424C1756.23 194.809 1758.2 184.256 1762.15 174.766C1766.09 165.276 1771.65 157.061 1778.84 150.12C1786.02 143.18 1794.61 137.868 1804.61 134.185C1814.62 130.503 1825.53 128.661 1837.36 128.661C1848.21 128.661 1857.16 130.007 1864.2 132.698C1871.24 135.389 1877.72 139.072 1883.64 143.746V182.415C1880.4 179.016 1876.66 175.829 1872.44 172.854C1868.21 169.738 1863.42 167.33 1858.07 165.63C1852.72 163.789 1846.52 162.868 1839.48 162.868C1831.45 162.868 1824.05 164.568 1817.29 167.967C1810.67 171.367 1805.32 176.324 1801.23 182.84C1797.15 189.356 1795.11 197.217 1795.11 206.424Z" fill="#060908"/>
<path d="M2094.8 280.786V251.254H2158.82V280.786H2094.8ZM2094.8 161.593V132.061H2158.82V161.593H2094.8ZM2094.8 217.047V188.152H2154.59V217.047H2094.8ZM2060.57 132.061H2094.8V280.786H2060.57V132.061Z" fill="#060908"/>
<path d="M2373.24 164.143V132.061H2490.29V164.143H2449.51V280.786H2413.8V164.143H2373.24Z" fill="#060908"/>
<path d="M2525.31 206.424C2525.31 215.205 2527 222.996 2530.38 229.795C2533.9 236.452 2538.76 241.693 2544.96 245.517C2551.3 249.342 2558.69 251.254 2567.15 251.254C2575.46 251.254 2582.71 249.342 2588.91 245.517C2595.25 241.693 2600.11 236.452 2603.49 229.795C2607.01 222.996 2608.77 215.205 2608.77 206.424C2608.77 197.642 2607.08 189.922 2603.7 183.265C2600.32 176.466 2595.53 171.154 2589.33 167.33C2583.13 163.506 2575.74 161.593 2567.15 161.593C2558.69 161.593 2551.3 163.506 2544.96 167.33C2538.76 171.154 2533.9 176.466 2530.38 183.265C2527 189.922 2525.31 197.642 2525.31 206.424ZM2487.49 206.424C2487.49 194.95 2489.46 184.469 2493.41 174.979C2497.49 165.489 2503.13 157.273 2510.31 150.333C2517.49 143.392 2525.94 138.081 2535.66 134.398C2545.38 130.574 2555.88 128.661 2567.15 128.661C2578.56 128.661 2589.05 130.574 2598.63 134.398C2608.35 138.081 2616.8 143.392 2623.98 150.333C2631.17 157.273 2636.73 165.489 2640.68 174.979C2644.62 184.469 2646.59 194.95 2646.59 206.424C2646.59 217.897 2644.62 228.449 2640.68 238.081C2636.87 247.713 2631.38 256.07 2624.19 263.152C2617.15 270.234 2608.77 275.758 2599.05 279.724C2589.33 283.548 2578.7 285.461 2567.15 285.461C2555.45 285.461 2544.75 283.548 2535.03 279.724C2525.31 275.758 2516.86 270.234 2509.68 263.152C2502.63 256.07 2497.14 247.713 2493.19 238.081C2489.39 228.449 2487.49 217.897 2487.49 206.424Z" fill="#060908"/>
<path d="M2698.84 206.424C2698.84 215.205 2700.53 222.996 2703.91 229.795C2707.43 236.452 2712.29 241.693 2718.49 245.517C2724.83 249.342 2732.22 251.254 2740.68 251.254C2748.99 251.254 2756.24 249.342 2762.44 245.517C2768.78 241.693 2773.64 236.452 2777.02 229.795C2780.54 222.996 2782.3 215.205 2782.3 206.424C2782.3 197.642 2780.61 189.922 2777.23 183.265C2773.85 176.466 2769.06 171.154 2762.86 167.33C2756.66 163.506 2749.27 161.593 2740.68 161.593C2732.22 161.593 2724.83 163.506 2718.49 167.33C2712.29 171.154 2707.43 176.466 2703.91 183.265C2700.53 189.922 2698.84 197.642 2698.84 206.424ZM2661.02 206.424C2661.02 194.95 2662.99 184.469 2666.94 174.979C2671.02 165.489 2676.66 157.273 2683.84 150.333C2691.02 143.392 2699.47 138.081 2709.19 134.398C2718.91 130.574 2729.41 128.661 2740.68 128.661C2752.09 128.661 2762.58 130.574 2772.16 134.398C2781.88 138.081 2790.33 143.392 2797.51 150.333C2804.7 157.273 2810.26 165.489 2814.2 174.979C2818.15 184.469 2820.12 194.95 2820.12 206.424C2820.12 217.897 2818.15 228.449 2814.2 238.081C2810.4 247.713 2804.91 256.07 2797.72 263.152C2790.68 270.234 2782.3 275.758 2772.58 279.724C2762.86 283.548 2752.23 285.461 2740.68 285.461C2728.98 285.461 2718.28 283.548 2708.56 279.724C2698.84 275.758 2690.39 270.234 2683.21 263.152C2676.16 256.07 2670.67 247.713 2666.72 238.081C2662.92 228.449 2661.02 217.897 2661.02 206.424Z" fill="#060908"/>
<path d="M2843 132.061H2878.71V249.979H2938.08V280.786H2843V132.061Z" fill="#060908"/>
<path fill-rule="evenodd" clip-rule="evenodd" d="M734.86 229.157H723.925V201.324H739.56C744.349 201.324 748.434 200.616 751.815 199.2C755.337 197.642 758.013 195.446 759.844 192.613C761.675 189.639 762.591 186.098 762.591 181.99C762.591 177.882 761.675 174.412 759.844 171.579C758.013 168.605 755.337 166.338 751.815 164.78C748.434 163.222 744.349 162.443 739.56 162.443H723.925V201.324H710.614V229.157H723.925V280.786H688.217V132.061H710.614H723.925H742.096C754.773 132.061 765.338 134.115 773.789 138.222C782.241 142.33 788.65 148.066 793.017 155.432C797.383 162.656 799.567 171.084 799.567 180.715C799.567 190.205 797.383 198.633 793.017 205.999C788.65 213.222 782.241 218.888 773.789 222.996C772.538 223.604 771.241 224.167 769.897 224.685L808.441 280.786H766.605L734.86 229.157Z" fill="#060908"/>
<path d="M710.614 201.324V229.157H723.925V201.324H710.614Z" fill="#060908"/>
<path fill-rule="evenodd" clip-rule="evenodd" d="M1018.55 224.696L1016.01 252.104H1031.07L1017.28 280.786H976.924L1054.68 122.712L1132.65 280.786H1092.08L1078.23 252.104H1031.07L1035.66 242.543L1033.97 234.681L1038.28 224.696H1071.17L1054.68 186.664L1038.28 224.696H1018.55Z" fill="#060908"/>
<path d="M1018.55 224.696L1016.01 252.104H1031.07L1035.66 242.543L1033.97 234.681L1038.28 224.696H1018.55Z" fill="#060908"/>
<path fill-rule="evenodd" clip-rule="evenodd" d="M1570.57 186.239H1506.98V132.061H1471.27V280.786H1506.98V218.534H1570.57V280.786H1606.28V132.061H1570.57V186.239ZM1506.98 218.534V186.239H1481.2V218.534H1506.98Z" fill="#060908"/>
<path d="M1481.2 186.239V218.534H1506.98V186.239H1481.2Z" fill="#060908"/>
<path fill-rule="evenodd" clip-rule="evenodd" d="M1735.62 251.254H1671.6V217.047H1731.39V188.152H1671.6V161.593H1735.62V132.061H1671.6V161.593H1661.03V132.061H1637.37V280.786H1661.03H1671.6H1735.62V251.254Z" fill="#060908"/>
<path d="M1661.03 132.061V161.593H1671.6V132.061H1661.03Z" fill="#060908"/>
<path fill-rule="evenodd" clip-rule="evenodd" d="M1949.81 132.061H1912.83V280.786H1949.81V215.763L2001.78 280.786H2045.1L1981.92 201.749L2041.93 132.061H2000.09L1949.81 190.732V132.061ZM1949.81 190.732V215.763V203.248V190.732Z" fill="#060908"/>
<path fill-rule="evenodd" clip-rule="evenodd" d="M2269.56 224.685L2261.83 213.435H2224.85L2234.52 229.157H2223.59V280.786H2187.88V132.061H2223.59H2241.76C2254.44 132.061 2265 134.115 2273.45 138.222C2281.9 142.33 2288.31 148.066 2292.68 155.432C2297.05 162.656 2299.23 171.084 2299.23 180.715C2299.23 190.205 2297.05 198.633 2292.68 205.999C2288.31 213.222 2281.9 218.888 2273.45 222.996C2272.2 223.604 2270.9 224.167 2269.56 224.685ZM2241.76 229.157H2234.52L2266.27 280.786H2308.1L2269.56 224.685C2261.83 227.667 2252.56 229.157 2241.76 229.157ZM2223.59 201.324V162.443H2239.22C2244.01 162.443 2248.1 163.222 2251.48 164.78C2255 166.338 2257.68 168.605 2259.51 171.579C2261.34 174.412 2262.25 177.882 2262.25 181.99C2262.25 186.098 2261.34 189.639 2259.51 192.613C2257.68 195.446 2255 197.642 2251.48 199.2C2248.1 200.616 2244.01 201.324 2239.22 201.324H2223.59Z" fill="#060908"/>
<path d="M2261.83 213.435H2224.85L2234.52 229.157H2241.76C2252.56 229.157 2261.83 227.667 2269.56 224.685L2261.83 213.435Z" fill="#060908"/>
</svg>
