<svg width="1458" height="338" viewBox="0 0 1458 338" fill="none" xmlns="http://www.w3.org/2000/svg">
<mask id="mask0_71_3603" style="mask-type:luminance" maskUnits="userSpaceOnUse" x="0" y="0" width="1458" height="338">
<path d="M1457.76 0H0V337.96H1457.76V0Z" fill="white"/>
</mask>
<g mask="url(#mask0_71_3603)">
<path d="M59.947 246.048L51.3952 260.902C50.1812 262.991 48.4416 264.725 46.3493 265.932C44.2571 267.14 41.8851 267.779 39.4695 267.785H22.3448C19.9245 267.783 17.547 267.146 15.4494 265.939C13.3519 264.731 11.6077 262.994 10.3907 260.902L1.83899 246.048C0.63164 243.954 -0.00390625 241.579 -0.00390625 239.162C-0.00390625 236.745 0.63164 234.37 1.83899 232.276L10.3907 217.422C12.7415 213.358 13.9793 208.745 13.9793 204.05C13.9793 199.355 12.7415 194.742 10.3907 190.678L1.83899 175.823C0.63164 173.729 -0.00390625 171.355 -0.00390625 168.938C-0.00390625 166.52 0.63164 164.146 1.83899 162.052L10.3907 147.197C12.7415 143.133 13.9793 138.521 13.9793 133.825C13.9793 129.13 12.7415 124.517 10.3907 120.453L1.83899 105.599C0.63164 103.505 -0.00390625 101.13 -0.00390625 98.7128C-0.00390625 96.2956 0.63164 93.9209 1.83899 91.8269L10.3907 76.9727C11.6058 74.8768 13.3488 73.1358 15.4462 71.9233C17.5436 70.7108 19.9221 70.069 22.3448 70.062H39.4695C41.8875 70.0733 44.2604 70.717 46.3526 71.9294C48.4447 73.1417 50.1832 74.8804 51.3952 76.9727L59.947 91.8269C61.1543 93.9209 61.7899 96.2956 61.7899 98.7128C61.7899 101.13 61.1543 103.505 59.947 105.599L51.3952 120.453C49.0562 124.521 47.8252 129.132 47.8252 133.825C47.8252 138.518 49.0562 143.129 51.3952 147.197L59.947 162.052C62.2993 166.113 65.6758 169.486 69.7395 171.835C73.8032 174.183 78.4119 175.424 83.1053 175.434H100.23C102.649 175.439 105.025 176.08 107.118 177.293C109.211 178.506 110.949 180.249 112.156 182.345L120.729 197.199C121.936 199.293 122.572 201.668 122.572 204.085C122.572 206.502 121.936 208.877 120.729 210.971L112.156 225.825C110.947 227.918 109.208 229.656 107.115 230.864C105.021 232.072 102.647 232.708 100.23 232.708H83.1053C78.4127 232.715 73.804 233.952 69.7392 236.297C65.6743 238.641 62.2955 242.011 59.9399 246.069" fill="black"/>
<path d="M62.6351 70.5924C61.4278 68.4984 60.7922 66.1237 60.7922 63.7065C60.7922 61.2893 61.4278 58.9146 62.6351 56.8205L71.1869 41.9664C72.3989 39.8741 74.1374 38.1354 76.2296 36.923C78.3217 35.7107 80.6946 35.0669 83.1126 35.0557H100.237C102.657 35.0605 105.032 35.7016 107.125 36.9146C109.219 38.1276 110.956 39.8698 112.163 41.9664L120.736 56.8205C123.092 60.879 126.47 64.2487 130.535 66.5933C134.6 68.9379 139.209 70.1754 143.901 70.1822H161.019C163.438 70.1906 165.812 70.8332 167.904 72.0458C169.997 73.2584 171.735 74.9987 172.945 77.0929L181.518 91.947C182.725 94.0411 183.361 96.4158 183.361 98.833C183.361 101.25 182.725 103.625 181.518 105.719L172.945 120.573C171.734 122.664 169.994 124.4 167.902 125.608C165.809 126.816 163.435 127.453 161.019 127.455H143.901C139.209 127.462 134.6 128.7 130.535 131.044C126.47 133.389 123.092 136.759 120.736 140.817L112.163 155.671C110.954 157.764 109.215 159.502 107.122 160.71C105.029 161.918 102.654 162.554 100.237 162.554H83.1056C80.6899 162.547 78.318 161.909 76.2257 160.701C74.1335 159.494 72.3938 157.76 71.1798 155.671L62.6281 140.817C61.4207 138.723 60.7852 136.348 60.7852 133.931C60.7852 131.514 61.4207 129.139 62.6281 127.045L71.1798 112.191C73.5188 108.123 74.7498 103.512 74.7498 98.8188C74.7498 94.1259 73.5188 89.5151 71.1798 85.4466L62.6351 70.5924Z" fill="black"/>
<path d="M242.285 267.368C243.493 269.462 244.128 271.836 244.128 274.253C244.128 276.671 243.493 279.045 242.285 281.139L233.734 295.986C232.52 298.075 230.78 299.809 228.688 301.017C226.595 302.224 224.224 302.863 221.808 302.869H204.683C199.99 302.872 195.38 304.108 191.314 306.453C187.249 308.798 183.871 312.17 181.518 316.231L172.945 331.085C171.734 333.176 169.994 334.912 167.902 336.12C165.809 337.327 163.435 337.964 161.019 337.967H143.901C141.485 337.964 139.112 337.327 137.019 336.12C134.926 334.912 133.187 333.176 131.976 331.085L123.403 316.231C121.047 312.172 117.668 308.802 113.603 306.458C109.539 304.113 104.93 302.876 100.237 302.869H83.1056C80.6899 302.863 78.318 302.224 76.2257 301.017C74.1335 299.809 72.3938 298.075 71.1798 295.986L62.6281 281.132C61.4207 279.038 60.7852 276.664 60.7852 274.246C60.7852 271.829 61.4207 269.454 62.6281 267.36L71.1798 252.506C72.3938 250.418 74.1335 248.684 76.2257 247.476C78.318 246.269 80.6899 245.63 83.1056 245.624H100.23C104.919 245.612 109.524 244.374 113.586 242.033C117.649 239.691 121.028 236.328 123.389 232.276L131.962 217.422C133.173 215.331 134.912 213.595 137.005 212.387C139.098 211.18 141.471 210.543 143.887 210.54H161.019C165.713 210.526 170.321 209.283 174.385 206.935C178.449 204.587 181.828 201.216 184.184 197.157L192.736 182.303C193.951 180.207 195.694 178.466 197.792 177.253C199.889 176.041 202.268 175.399 204.69 175.392H221.815C224.233 175.403 226.606 176.047 228.698 177.259C230.79 178.472 232.529 180.21 233.741 182.303L242.292 197.157C243.5 199.251 244.135 201.626 244.135 204.043C244.135 206.46 243.5 208.835 242.292 210.929L233.741 225.783C231.402 229.851 230.171 234.462 230.171 239.155C230.171 243.848 231.402 248.459 233.741 252.528L242.285 267.368Z" fill="black"/>
<path d="M123.396 35.5014C122.188 33.4073 121.553 31.0326 121.553 28.6154C121.553 26.1983 122.188 23.8235 123.396 21.7295L131.969 6.87535C133.183 4.78772 134.923 3.05454 137.015 1.8483C139.108 0.642051 141.479 0.00481117 143.894 0L161.019 0C163.438 0.00840963 165.812 0.650995 167.904 1.86362C169.997 3.07625 171.735 4.81651 172.945 6.91071L181.518 21.7649C183.871 25.8258 187.249 29.1974 191.314 31.5424C195.38 33.8873 199.99 35.1233 204.683 35.1265H221.808C224.226 35.1378 226.599 35.7815 228.691 36.9939C230.783 38.2062 232.522 39.9449 233.734 42.0372L242.285 56.8914C243.493 58.9854 244.128 61.3601 244.128 63.7773C244.128 66.1945 243.493 68.5692 242.285 70.6633L233.734 85.5174C232.52 87.6059 230.78 89.3401 228.688 90.5475C226.595 91.755 224.224 92.3936 221.808 92.3998H204.683C202.263 92.3978 199.885 91.7613 197.788 90.5536C195.69 89.346 193.946 87.6095 192.729 85.5174L184.177 70.6633C181.831 66.5926 178.457 63.2094 174.393 60.8521C170.329 58.4948 165.717 57.2461 161.019 57.2309H143.894C141.478 57.2282 139.105 56.5911 137.012 55.3833C134.919 54.1755 133.18 52.4393 131.969 50.3485L123.396 35.5014Z" fill="black"/>
<path d="M294.494 190.713C292.155 194.781 290.924 199.392 290.924 204.085C290.924 208.778 292.155 213.389 294.494 217.458L303.067 232.312C304.274 234.406 304.91 236.78 304.91 239.198C304.91 241.615 304.274 243.989 303.067 246.084L294.494 260.938C293.285 263.03 291.546 264.768 289.453 265.976C287.36 267.184 284.985 267.82 282.568 267.82H265.444C263.028 267.814 260.656 267.175 258.564 265.968C256.472 264.76 254.732 263.026 253.518 260.938L244.966 246.084C243.759 243.989 243.123 241.615 243.123 239.198C243.123 236.78 243.759 234.406 244.966 232.312L253.518 217.458C255.857 213.389 257.088 208.778 257.088 204.085C257.088 199.392 255.857 194.781 253.518 190.713L244.966 175.859C242.607 171.804 239.227 168.437 235.163 166.093C231.099 163.748 226.492 162.509 221.801 162.497H204.683C199.99 162.5 195.38 163.736 191.314 166.081C187.249 168.426 183.871 171.798 181.518 175.859L172.945 190.713C171.734 192.804 169.994 194.54 167.902 195.748C165.809 196.956 163.435 197.593 161.019 197.595H143.894C141.478 197.593 139.105 196.956 137.012 195.748C134.919 194.54 133.18 192.804 131.969 190.713L123.396 175.859C122.188 173.765 121.553 171.39 121.553 168.973C121.553 166.556 122.188 164.181 123.396 162.087L131.969 147.233C133.179 145.139 134.916 143.398 137.009 142.186C139.102 140.973 141.476 140.33 143.894 140.322H161.019C165.709 140.318 170.316 139.085 174.38 136.746C178.445 134.406 181.825 131.042 184.184 126.989L192.736 112.135C193.951 110.039 195.694 108.298 197.792 107.085C199.889 105.873 202.268 105.231 204.69 105.224H221.815C224.233 105.235 226.606 105.879 228.698 107.091C230.79 108.304 232.529 110.042 233.741 112.135L242.292 126.989C244.648 131.047 248.027 134.417 252.092 136.762C256.157 139.106 260.765 140.344 265.458 140.35H282.582C285.002 140.355 287.377 140.996 289.471 142.209C291.564 143.422 293.301 145.165 294.508 147.261L303.081 162.115C304.289 164.209 304.924 166.584 304.924 169.001C304.924 171.418 304.289 173.793 303.081 175.887L294.494 190.713Z" fill="black"/>
<path d="M244.973 91.9118L253.525 77.0577C254.737 74.9654 256.475 73.2267 258.567 72.0143C260.66 70.802 263.033 70.1582 265.451 70.147H282.575C284.994 70.1518 287.37 70.7929 289.463 72.0059C291.556 73.2189 293.294 74.9611 294.501 77.0577L303.074 91.9118C304.281 94.0059 304.917 96.3806 304.917 98.7978C304.917 101.215 304.281 103.59 303.074 105.684L294.501 120.538C293.292 122.631 291.553 124.368 289.46 125.576C287.367 126.785 284.992 127.42 282.575 127.42H265.443C263.028 127.414 260.656 126.775 258.564 125.568C256.471 124.361 254.732 122.626 253.518 120.538L244.966 105.684C243.759 103.59 243.123 101.215 243.123 98.7978C243.123 96.3806 243.766 94.0059 244.973 91.9118Z" fill="black"/>
<path d="M181.525 105.684L172.952 120.538C171.741 122.629 170.002 124.365 167.909 125.573C165.816 126.781 163.443 127.418 161.026 127.42H143.901C139.209 127.427 134.6 128.665 130.535 131.009C126.47 133.354 123.092 136.723 120.736 140.782L112.163 155.636C110.954 157.729 109.215 159.467 107.122 160.675C105.029 161.883 102.654 162.519 100.237 162.519H83.1056C80.6899 162.512 78.318 161.874 76.2257 160.666C74.1335 159.459 72.3938 157.725 71.1798 155.636L62.6281 140.782C61.4207 138.688 60.7852 136.313 60.7852 133.896C60.7852 131.479 61.4207 129.104 62.6281 127.01L71.1798 112.156C73.5188 108.087 74.7498 103.477 74.7498 98.7837C74.7498 94.0907 73.5188 89.4799 71.1798 85.4114L62.6281 70.5573C61.4207 68.4632 60.7852 66.0885 60.7852 63.6713C60.7852 61.2541 61.4207 58.8794 62.6281 56.7854L71.1798 41.9312C72.3919 39.8389 74.1303 38.1002 76.2225 36.8879C78.3146 35.6755 80.6876 35.0318 83.1056 35.0205H100.23C102.65 35.0254 105.025 35.6664 107.118 36.8794C109.211 38.0924 110.949 39.8346 112.156 41.9312L120.729 56.7854C123.081 60.8515 126.459 64.229 130.525 66.58C134.592 68.931 139.204 70.1732 143.901 70.1824H161.019C163.438 70.1908 165.812 70.8334 167.904 72.046C169.997 73.2586 171.735 74.9989 172.945 77.0931L181.518 91.9472C182.725 94.0413 183.361 96.416 183.361 98.8332C183.361 101.25 182.725 103.625 181.518 105.719" fill="black"/>
<path d="M120.736 210.957L112.163 225.811C110.954 227.904 109.215 229.642 107.122 230.85C105.028 232.058 102.654 232.694 100.237 232.694H83.1053C78.4127 232.7 73.804 233.938 69.7392 236.282C65.6743 238.627 62.2955 241.997 59.9399 246.055L51.3882 260.909C50.1742 262.998 48.4345 264.732 46.3423 265.94C44.25 267.147 41.8781 267.786 39.4624 267.792H22.3448C19.9245 267.79 17.547 267.153 15.4494 265.946C13.3519 264.738 11.6077 263.002 10.3907 260.909L1.83899 246.055C0.63164 243.961 -0.00390625 241.587 -0.00390625 239.169C-0.00390625 236.752 0.63164 234.377 1.83899 232.283L10.3907 217.429C12.7415 213.365 13.9793 208.752 13.9793 204.057C13.9793 199.362 12.7415 194.749 10.3907 190.685L1.83899 175.831C0.63164 173.737 -0.00390625 171.362 -0.00390625 168.945C-0.00390625 166.527 0.63164 164.153 1.83899 162.059L10.3907 147.205C12.7415 143.14 13.9793 138.528 13.9793 133.832C13.9793 129.137 12.7415 124.525 10.3907 120.46L1.83899 105.606C0.63164 103.512 -0.00390625 101.137 -0.00390625 98.7199C-0.00390625 96.3027 0.63164 93.928 1.83899 91.834L10.3907 76.9798C11.6058 74.8839 13.3488 73.1429 15.4462 71.9304C17.5436 70.7179 19.9221 70.0761 22.3448 70.0691H39.4695C41.8875 70.0803 44.2604 70.7241 46.3526 71.9365C48.4447 73.1488 50.1832 74.8875 51.3952 76.9798L59.947 91.834C61.1543 93.928 61.7899 96.3027 61.7899 98.7199C61.7899 101.137 61.1543 103.512 59.947 105.606L51.3952 120.46C49.0562 124.528 47.8252 129.139 47.8252 133.832C47.8252 138.525 49.0562 143.136 51.3952 147.205L59.947 162.059C62.3002 166.119 65.6771 169.491 69.7407 171.838C73.8044 174.185 78.4125 175.425 83.1053 175.434H100.23C102.649 175.439 105.025 176.08 107.118 177.293C109.211 178.506 110.949 180.249 112.156 182.345L120.729 197.199C121.936 199.293 122.572 201.668 122.572 204.085C122.572 206.502 121.936 208.877 120.729 210.971" fill="black"/>
<path d="M242.285 267.368C243.493 269.462 244.128 271.836 244.128 274.253C244.128 276.671 243.493 279.045 242.285 281.139L233.734 295.986C232.52 298.075 230.78 299.809 228.688 301.017C226.595 302.224 224.224 302.863 221.808 302.869H204.683C199.99 302.872 195.38 304.108 191.314 306.453C187.249 308.798 183.871 312.17 181.518 316.231L172.945 331.085C171.734 333.176 169.994 334.912 167.902 336.12C165.809 337.327 163.435 337.964 161.019 337.967H143.901C141.485 337.964 139.112 337.327 137.019 336.12C134.926 334.912 133.187 333.176 131.976 331.085L123.403 316.231C121.047 312.172 117.668 308.802 113.603 306.458C109.539 304.113 104.93 302.876 100.237 302.869H83.1056C80.6899 302.863 78.318 302.224 76.2257 301.017C74.1335 299.809 72.3938 298.075 71.1798 295.986L62.6281 281.132C61.4207 279.038 60.7852 276.664 60.7852 274.246C60.7852 271.829 61.4207 269.454 62.6281 267.36L71.1798 252.506C72.3938 250.418 74.1335 248.684 76.2257 247.476C78.318 246.269 80.6899 245.63 83.1056 245.624H100.23C104.919 245.612 109.524 244.374 113.586 242.033C117.649 239.691 121.028 236.328 123.389 232.276L131.962 217.422C133.173 215.331 134.912 213.595 137.005 212.387C139.098 211.18 141.471 210.543 143.887 210.54H161.019C165.713 210.526 170.321 209.283 174.385 206.935C178.449 204.587 181.828 201.216 184.184 197.157L192.736 182.303C193.951 180.207 195.694 178.466 197.792 177.253C199.889 176.041 202.268 175.399 204.69 175.392H221.815C224.233 175.403 226.606 176.047 228.698 177.259C230.79 178.472 232.529 180.21 233.741 182.303L242.292 197.157C243.5 199.251 244.135 201.626 244.135 204.043C244.135 206.46 243.5 208.835 242.292 210.929L233.741 225.783C231.402 229.851 230.171 234.462 230.171 239.155C230.171 243.848 231.402 248.459 233.741 252.528L242.285 267.368Z" fill="black"/>
<path d="M242.285 70.5925L233.734 85.4467C232.52 87.5351 230.78 89.2693 228.688 90.4768C226.595 91.6843 224.224 92.3229 221.808 92.3291H204.683C202.263 92.3271 199.885 91.6905 197.788 90.4829C195.69 89.2753 193.946 87.5388 192.729 85.4467L184.177 70.5925C181.822 66.5351 178.445 63.166 174.381 60.8215C170.318 58.477 165.71 57.2389 161.019 57.2309H143.894C141.478 57.2282 139.105 56.5911 137.012 55.3833C134.919 54.1755 133.18 52.4393 131.969 50.3485L123.396 35.4943C122.188 33.4003 121.553 31.0256 121.553 28.6084C121.553 26.1912 122.188 23.8165 123.396 21.7224L131.969 6.86827C133.184 4.78197 134.924 3.0502 137.016 1.84523C139.109 0.640261 141.48 0.00409014 143.894 0L161.019 0C163.438 0.00840963 165.812 0.650995 167.904 1.86362C169.997 3.07625 171.735 4.81651 172.945 6.91071L181.518 21.7649C183.871 25.8258 187.249 29.1974 191.314 31.5424C195.38 33.8873 199.99 35.1233 204.683 35.1265H221.808C224.226 35.1378 226.599 35.7815 228.691 36.9939C230.783 38.2062 232.522 39.9449 233.734 42.0372L242.285 56.8914C243.493 58.9854 244.128 61.3601 244.128 63.7773C244.128 66.1945 243.493 68.5692 242.285 70.6633" fill="black"/>
<path d="M303.074 232.276C304.282 234.37 304.917 236.745 304.917 239.162C304.917 241.579 304.282 243.954 303.074 246.048L294.501 260.902C293.292 262.995 291.554 264.733 289.46 265.941C287.367 267.149 284.992 267.785 282.575 267.785H265.444C263.028 267.779 260.656 267.14 258.564 265.932C256.472 264.725 254.732 262.991 253.518 260.902L244.966 246.048C243.759 243.954 243.123 241.579 243.123 239.162C243.123 236.745 243.759 234.37 244.966 232.276L253.518 217.422C255.857 213.354 257.088 208.743 257.088 204.05C257.088 199.357 255.857 194.746 253.518 190.678L244.966 175.823C242.607 171.768 239.227 168.401 235.163 166.057C231.099 163.713 226.492 162.474 221.801 162.462H204.683C199.99 162.465 195.38 163.701 191.314 166.046C187.249 168.391 183.871 171.763 181.518 175.823L172.945 190.678C171.734 192.768 169.994 194.505 167.902 195.712C165.809 196.92 163.435 197.557 161.019 197.56H143.894C141.478 197.557 139.105 196.92 137.012 195.712C134.919 194.505 133.18 192.768 131.969 190.678L123.396 175.823C122.188 173.729 121.553 171.355 121.553 168.938C121.553 166.52 122.188 164.146 123.396 162.052L131.969 147.197C133.179 145.103 134.916 143.363 137.009 142.15C139.102 140.938 141.476 140.295 143.894 140.287H161.019C165.705 140.286 170.31 139.059 174.374 136.725C178.439 134.392 181.821 131.035 184.184 126.989L192.736 112.135C193.951 110.039 195.694 108.298 197.792 107.085C199.889 105.873 202.268 105.231 204.69 105.224H221.815C224.233 105.235 226.606 105.879 228.698 107.091C230.79 108.304 232.529 110.042 233.741 112.135L242.292 126.989C244.648 131.047 248.027 134.417 252.092 136.762C256.157 139.106 260.765 140.344 265.458 140.35H282.582C285.002 140.355 287.377 140.996 289.471 142.209C291.564 143.422 293.301 145.164 294.508 147.261L303.081 162.115C304.289 164.209 304.924 166.584 304.924 169.001C304.924 171.418 304.289 173.793 303.081 175.887L294.508 190.741C292.169 194.81 290.938 199.421 290.938 204.114C290.938 208.806 292.169 213.417 294.508 217.486L303.074 232.276Z" fill="black"/>
<path d="M303.074 105.684L294.501 120.538C293.292 122.631 291.553 124.368 289.46 125.576C287.367 126.785 284.992 127.42 282.575 127.42H265.443C263.028 127.414 260.656 126.775 258.564 125.568C256.471 124.361 254.732 122.626 253.518 120.538L244.966 105.684C243.759 103.59 243.123 101.215 243.123 98.7978C243.123 96.3806 243.759 94.0059 244.966 91.9118L253.518 77.0577C254.73 74.9654 256.468 73.2267 258.56 72.0143C260.652 70.802 263.025 70.1582 265.443 70.147H282.568C284.987 70.1518 287.363 70.7929 289.456 72.0059C291.549 73.2189 293.287 74.9611 294.494 77.0577L303.067 91.9118C304.274 94.0059 304.91 96.3806 304.91 98.7978C304.91 101.215 304.281 103.59 303.074 105.684Z" fill="black"/>
<path d="M504.637 102.38C496.052 101.95 487.521 103.969 480.039 108.202C472.557 112.435 466.433 118.708 462.381 126.289C459.238 118.946 453.941 112.73 447.191 108.461C440.441 104.193 432.554 102.072 424.573 102.38C416.945 102.136 409.387 103.899 402.654 107.492C395.921 111.086 390.25 116.384 386.207 122.858V106.066H362.582V232.354H387.028V156.209C387.028 137.323 398.826 124.188 416.439 124.188C435.325 124.188 443.212 136.778 443.212 153.061V232.354H467.884V155.961C467.884 137.839 479.71 124.195 497.04 124.195C515.672 124.195 523.813 136.531 523.813 153.068V232.361H548.231V150.423C548.231 117.355 526.706 102.38 504.644 102.38" fill="black"/>
<path d="M686.621 211.622V148.322C686.621 123.65 671.902 102.126 634.101 102.126C606.791 102.126 584.984 118.918 582.373 143.081L605.999 148.612C606.167 145.048 607.046 141.553 608.583 138.333C610.121 135.113 612.286 132.232 614.952 129.86C617.618 127.488 620.731 125.673 624.108 124.52C627.485 123.367 631.058 122.901 634.618 123.148C653.787 123.148 661.928 133.383 661.928 145.726C661.928 150.182 659.806 154.122 652.23 155.169L618.087 160.163C596.308 163.311 579.742 175.93 579.742 198.508C579.742 218.448 596.301 236.315 622.027 236.315C630.054 236.669 638.034 234.915 645.173 231.228C652.312 227.542 658.362 222.05 662.72 215.3C662.636 221.02 663.074 226.735 664.029 232.375H688.191C687.074 225.523 686.551 218.586 686.628 211.643M661.928 178.292C661.928 205.878 645.659 215.583 625.429 215.583C622.868 215.761 620.297 215.423 617.869 214.588C615.442 213.753 613.206 212.439 611.296 210.724C609.386 209.008 607.84 206.927 606.75 204.602C605.661 202.278 605.049 199.758 604.952 197.192C604.939 192.262 606.856 187.523 610.293 183.988C613.73 180.453 618.414 178.404 623.343 178.278L661.942 172.492L661.928 178.292Z" fill="black"/>
<path d="M785.339 128.382V106.066H758.028V66.1362H735.393V86.6491C735.667 89.267 735.352 91.9128 734.472 94.3936C733.593 96.8744 732.171 99.1276 730.31 100.989C728.448 102.85 726.195 104.272 723.714 105.152C721.233 106.031 718.588 106.346 715.97 106.073H709.158V128.382H733.293V197.701C733.293 220.556 746.958 233.663 768.483 233.663C774.176 233.768 779.851 232.973 785.296 231.307V210.292C782.097 210.964 778.839 211.314 775.57 211.339C762.697 211.339 757.986 205.581 757.986 194.009V128.382H785.339Z" fill="black"/>
<path d="M927.647 168.29C927.647 128.899 905.84 102.126 866.986 102.126C835.219 102.126 806.607 129.181 806.607 168.828C806.607 211.622 836.273 236.294 870.134 236.294C882.651 236.765 894.979 233.118 905.224 225.91C915.47 218.703 923.069 208.334 926.855 196.393L905.585 189.022C903.527 196.709 898.872 203.446 892.409 208.088C885.946 212.73 878.075 214.991 870.134 214.487C865.09 214.565 860.082 213.625 855.41 211.722C850.738 209.819 846.498 206.993 842.944 203.413C839.39 199.832 836.595 195.572 834.727 190.886C832.859 186.2 831.956 181.185 832.071 176.142H927.11C927.486 173.53 927.666 170.894 927.647 168.255M832.864 156.174C833.299 147.383 837.127 139.104 843.543 133.079C849.959 127.054 858.461 123.752 867.262 123.869C871.714 123.471 876.199 124.015 880.427 125.466C884.655 126.916 888.529 129.241 891.799 132.288C895.069 135.336 897.66 139.038 899.404 143.153C901.148 147.268 902.006 151.705 901.921 156.174H832.864Z" fill="black"/>
<path d="M1021.12 103.965C1013.12 103.682 1005.22 105.839 998.464 110.149C991.712 114.459 986.429 120.719 983.316 128.099V106.066H959.16V232.354H983.832V169.083C983.832 141.235 997.753 130.228 1018.49 130.228C1022.1 130.24 1025.7 130.497 1029.26 130.999V104.736C1026.58 104.247 1023.85 103.989 1021.12 103.965Z" fill="black"/>
<path d="M1055.5 232.354H1079.95V106.073H1055.5V232.354ZM1067.58 40.4175C1064.09 40.4455 1060.68 41.5053 1057.79 43.4637C1054.89 45.4222 1052.64 48.1919 1051.32 51.4251C1050 54.6582 1049.66 58.2106 1050.35 61.6358C1051.03 65.0611 1052.72 68.2065 1055.19 70.677C1057.66 73.1474 1060.81 74.8328 1064.23 75.5212C1067.66 76.2097 1071.21 75.8706 1074.44 74.5465C1077.67 73.2225 1080.44 70.9725 1082.4 68.0792C1084.36 65.186 1085.42 61.7785 1085.45 58.2849C1085.47 55.9317 1085.03 53.5972 1084.14 51.4183C1083.25 49.2394 1081.94 47.26 1080.27 45.5959C1078.61 43.9318 1076.63 42.6166 1074.45 41.7274C1072.27 40.8382 1069.94 40.3929 1067.58 40.4175Z" fill="black"/>
<path d="M1176.02 102.126C1138.22 102.126 1111.42 130.745 1111.42 169.083C1111.42 207.682 1138.22 236.28 1176.02 236.28C1213.82 236.28 1240.62 207.661 1240.62 169.083C1240.62 130.738 1213.82 102.126 1176.02 102.126ZM1176.02 214.232C1155.01 214.232 1136.63 198.494 1136.63 169.083C1136.63 139.926 1155.02 124.188 1176.02 124.188C1197.02 124.188 1215.41 139.926 1215.41 169.083C1215.41 198.494 1197.02 214.232 1176.02 214.232Z" fill="black"/>
<path d="M1414.17 102.38C1405.58 101.946 1397.04 103.963 1389.56 108.196C1382.07 112.429 1375.94 118.704 1371.89 126.288C1368.74 118.95 1363.45 112.736 1356.7 108.468C1349.96 104.199 1342.08 102.077 1334.1 102.38C1326.47 102.14 1318.92 103.904 1312.19 107.498C1305.46 111.091 1299.79 116.388 1295.75 122.858V106.066H1272.13V232.354H1296.55V156.209C1296.55 137.323 1308.34 124.188 1325.96 124.188C1344.84 124.188 1352.73 136.778 1352.73 153.061V232.354H1377.39V155.961C1377.39 137.839 1389.21 124.195 1406.54 124.195C1425.17 124.195 1433.31 136.531 1433.31 153.068V232.361H1457.73V150.423C1457.73 117.355 1436.21 102.38 1414.17 102.38Z" fill="black"/>
</g>
</svg>
