<svg width="57" height="57" viewBox="0 0 57 57" fill="none" xmlns="http://www.w3.org/2000/svg">
<g clip-path="url(#clip0_492_3686)">
<path d="M26.4386 29.1398C26.673 29.4328 27.0529 29.4328 27.2873 29.1398L27.7114 28.6097C27.9458 28.3167 27.9458 27.8419 27.7114 27.5489L26.3719 25.875L27.711 24.2006C27.9454 23.9077 27.9454 23.4328 27.711 23.1398L27.2869 22.6097C27.0525 22.3167 26.6726 22.3167 26.4383 22.6097L24.2505 25.3444C24.0161 25.6373 24.0161 26.1122 24.2505 26.4052L26.4386 29.1398ZM30.039 28.6102L30.4631 29.1403C30.6975 29.4333 31.0774 29.4333 31.3118 29.1403L33.4995 26.4056C33.7339 26.1127 33.7339 25.6378 33.4995 25.3448L31.3118 22.6102C31.0774 22.3172 30.6975 22.3172 30.4631 22.6102L30.039 23.1403C29.8046 23.4333 29.8046 23.9081 30.039 24.2011L31.3781 25.875L30.039 27.5494C29.8046 27.8423 29.8046 28.3172 30.039 28.6102ZM40.275 36.375H31.1828C31.155 37.3036 30.6311 37.875 29.955 37.875H27.675C26.9741 37.875 26.4368 37.0561 26.4461 36.375H17.475C17.145 36.375 16.875 36.7125 16.875 37.125V37.875C16.875 39.525 17.955 40.875 19.275 40.875H38.475C39.795 40.875 40.875 39.525 40.875 37.875V37.125C40.875 36.7125 40.605 36.375 40.275 36.375ZM38.475 19.125C38.475 17.8875 37.665 16.875 36.675 16.875H21.075C20.085 16.875 19.275 17.8875 19.275 19.125V34.875H38.475V19.125ZM36.075 31.875H21.675V19.875H36.075V31.875Z" fill="#BE1242"/>
</g>
<rect x="1.125" y="1.125" width="55.5" height="55.5" rx="7.125" stroke="#BE1242" stroke-width="0.75"/>
<defs>
<clipPath id="clip0_492_3686">
<rect width="24" height="24" fill="white" transform="translate(16.875 16.875)"/>
</clipPath>
</defs>
</svg>
