<svg width="57" height="57" viewBox="0 0 57 57" fill="none" xmlns="http://www.w3.org/2000/svg">
<g clip-path="url(#clip0_577_624)">
<path d="M39.4099 30.3748H28.9413L35.9132 37.7825C36.1797 38.0656 36.6182 38.0886 36.8922 37.8143C38.5995 36.1053 39.7739 33.8014 40.1185 31.2115C40.1776 30.7681 39.8313 30.3748 39.4099 30.3748ZM38.7116 27.3373C38.348 21.7376 34.1366 17.2629 28.8663 16.8767C28.4639 16.8472 28.1251 17.2076 28.1251 17.6361V28.1248H37.9973C38.4005 28.1248 38.7394 27.7648 38.7116 27.3373ZM26.0074 30.3748V19.2519C26.0074 18.8042 25.6373 18.4362 25.2204 18.499C19.9629 19.2884 15.9442 24.1686 16.1313 30.0172C16.3236 36.0237 21.1911 40.9494 26.847 40.8739C29.0705 40.8443 31.1251 40.0831 32.8144 38.81C33.1629 38.5475 33.1858 38.0023 32.8836 37.6812L26.0074 30.3748Z" fill="black"/>
</g>
<rect x="0.375" y="1.125" width="55.5" height="55.5" rx="7.125" stroke="black" stroke-width="0.75"/>
<defs>
<clipPath id="clip0_577_624">
<rect width="24" height="24" fill="white" transform="translate(16.125 16.875)"/>
</clipPath>
</defs>
</svg>
