<svg width="57" height="57" viewBox="0 0 57 57" fill="none" xmlns="http://www.w3.org/2000/svg">
<g clip-path="url(#clip0_492_3681)">
<path d="M40.1597 30.2498H29.691L36.6629 37.6575C36.9294 37.9406 37.3679 37.9636 37.6419 37.6893C39.3493 35.9803 40.5237 33.6764 40.8682 31.0865C40.9274 30.6431 40.581 30.2498 40.1597 30.2498ZM39.4613 27.2123C39.0978 21.6126 34.8863 17.1379 29.616 16.7517C29.2137 16.7222 28.8749 17.0826 28.8749 17.5111V27.9998H38.7471C39.1503 27.9998 39.4891 27.6398 39.4613 27.2123ZM26.7572 30.2498V19.1269C26.7572 18.6792 26.3871 18.3112 25.9701 18.374C20.7126 19.1634 16.694 24.0436 16.881 29.8922C17.0734 35.8987 21.9409 40.8244 27.5968 40.7489C29.8203 40.7193 31.8749 39.9581 33.5641 38.685C33.9126 38.4225 33.9356 37.8773 33.6334 37.5562L26.7572 30.2498Z" fill="#BE1242"/>
</g>
<rect x="1.125" y="1" width="55.5" height="55.5" rx="7.125" stroke="#BE1242" stroke-width="0.75"/>
<defs>
<clipPath id="clip0_492_3681">
<rect width="24" height="24" fill="white" transform="translate(16.875 16.75)"/>
</clipPath>
</defs>
</svg>
