<svg width="57" height="57" viewBox="0 0 57 57" fill="none" xmlns="http://www.w3.org/2000/svg">
<g clip-path="url(#clip0_492_3681)">
<path d="M40.6597 30.2499H30.191L37.1629 37.6576C37.4294 37.9407 37.8679 37.9637 38.1419 37.6895C39.8493 35.9804 41.0237 33.6765 41.3682 31.0866C41.4274 30.6432 41.081 30.2499 40.6597 30.2499ZM39.9613 26.2124C39.5978 20.6127 35.3863 16.1381 30.116 15.7518C29.7137 15.7223 29.3749 16.0827 29.3749 16.5112V26.9999H39.2471C39.6503 26.9999 39.9891 26.6399 39.9613 26.2124ZM26.2572 30.2499V19.127C26.2572 18.6793 25.8871 18.3113 25.4701 18.3741C20.2126 19.1635 16.194 24.0437 16.381 29.8923C16.5734 35.8988 21.4409 40.8245 27.0968 40.749C29.3203 40.7195 31.3749 39.9582 33.0641 38.6851C33.4126 38.4226 33.4356 37.8774 33.1334 37.5563L26.2572 30.2499Z" fill="#940101"/>
</g>
<defs>
<clipPath id="clip0_492_3681">
<rect width="26" height="26" fill="white" transform="translate(16 15)"/>
</clipPath>
</defs>
</svg>
