<svg width="57" height="57" viewBox="0 0 57 57" fill="none" xmlns="http://www.w3.org/2000/svg">
<g clip-path="url(#clip0_577_5)">
<path d="M25.6886 28.6398C25.923 28.9328 26.3029 28.9328 26.5373 28.6398L26.9614 28.1097C27.1958 27.8167 27.1958 27.3419 26.9614 27.0489L25.6219 25.375L26.961 23.7006C27.1954 23.4077 27.1954 22.9328 26.961 22.6398L26.5369 22.1097C26.3025 21.8167 25.9226 21.8167 25.6883 22.1097L23.5005 24.8444C23.2661 25.1373 23.2661 25.6122 23.5005 25.9052L25.6886 28.6398ZM29.289 28.1102L29.7131 28.6403C29.9475 28.9333 30.3274 28.9333 30.5618 28.6403L32.7495 25.9056C32.9839 25.6127 32.9839 25.1378 32.7495 24.8448L30.5618 22.1102C30.3274 21.8172 29.9475 21.8172 29.7131 22.1102L29.289 22.6403C29.0546 22.9333 29.0546 23.4081 29.289 23.7011L30.6281 25.375L29.289 27.0494C29.0546 27.3423 29.0546 27.8172 29.289 28.1102ZM39.525 35.875H30.4328C30.405 36.8036 29.8811 37.375 29.205 37.375H26.925C26.2241 37.375 25.6868 36.5561 25.6961 35.875H16.725C16.395 35.875 16.125 36.2125 16.125 36.625V37.375C16.125 39.025 17.205 40.375 18.525 40.375H37.725C39.045 40.375 40.125 39.025 40.125 37.375V36.625C40.125 36.2125 39.855 35.875 39.525 35.875ZM37.725 18.625C37.725 17.3875 36.915 16.375 35.925 16.375H20.325C19.335 16.375 18.525 17.3875 18.525 18.625V34.375H37.725V18.625ZM35.325 31.375H20.925V19.375H35.325V31.375Z" fill="black"/>
</g>
<defs>
<clipPath id="clip0_577_5">
<rect width="24" height="24" fill="white" transform="translate(16.125 16.375)"/>
</clipPath>
</defs>
</svg>
