<svg width="57" height="57" viewBox="0 0 57 57" fill="none" xmlns="http://www.w3.org/2000/svg">
<g clip-path="url(#clip0_1356_1630)">
<path d="M25.1886 28.3898C25.423 28.6828 25.8029 28.6828 26.0373 28.3898L26.4614 27.8597C26.6958 27.5667 26.6958 27.0919 26.4614 26.7989L25.1219 25.125L26.461 23.4506C26.6954 23.1577 26.6954 22.6828 26.461 22.3898L26.0369 21.8597C25.8025 21.5667 25.4226 21.5667 25.1883 21.8597L23.0005 24.5944C22.7661 24.8873 22.7661 25.3622 23.0005 25.6552L25.1886 28.3898ZM30.789 27.8602L31.2131 28.3903C31.4475 28.6833 31.8274 28.6833 32.0618 28.3903L34.2495 25.6556C34.4839 25.3627 34.4839 24.8878 34.2495 24.5948L32.0618 21.8602C31.8274 21.5672 31.4475 21.5672 31.2131 21.8602L30.789 22.3903C30.5546 22.6833 30.5546 23.1581 30.789 23.4511L32.1281 25.125L30.789 26.7994C30.5546 27.0923 30.5546 27.5672 30.789 27.8602ZM40.025 35.625H30.9328C30.905 36.5536 30.3811 37.125 29.705 37.125H27.425C26.7241 37.125 26.1868 36.3061 26.1961 35.625H17.225C16.895 35.625 16.625 35.9625 16.625 36.375V37.125C16.625 38.775 17.705 40.125 19.025 40.125H38.225C39.545 40.125 40.625 38.775 40.625 37.125V36.375C40.625 35.9625 40.355 35.625 40.025 35.625ZM38.225 18.375C38.225 17.1375 37.415 16.125 36.425 16.125H20.825C19.835 16.125 19.025 17.1375 19.025 18.375V34.125H38.225V18.375ZM35.825 31.125H21.425V19.125H35.825V31.125Z" fill="#940101"/>
<path d="M29.8074 23.0533L27.681 27.4763" stroke="#940101" stroke-linecap="round"/>
</g>
<defs>
<clipPath id="clip0_1356_1630">
<rect width="24" height="24" fill="white" transform="translate(16.625 16.125)"/>
</clipPath>
</defs>
</svg>
