<svg width="57" height="57" viewBox="0 0 57 57" fill="none" xmlns="http://www.w3.org/2000/svg">
<rect y="0.216999" width="56.25" height="56.25" rx="7.5" fill="#005500"/>
<path fill-rule="evenodd" clip-rule="evenodd" d="M28.1396 18.9119C27.1098 18.9119 26.1222 19.3172 25.394 20.0387C24.6658 20.7602 24.2567 21.7387 24.2567 22.759V23.6354H21.6628V22.759C21.6628 21.0571 22.3452 19.4249 23.5598 18.2215C24.7744 17.0181 26.4219 16.342 28.1396 16.342C29.8574 16.342 31.5048 17.0181 32.7195 18.2215C33.9341 19.4249 34.6164 21.0571 34.6164 22.759V28.7868C35.3428 29.9448 35.7624 31.3115 35.7624 32.7753C35.7624 36.9543 32.343 40.342 28.125 40.342C23.9069 40.342 20.4875 36.9543 20.4875 32.7753C20.4875 28.5963 23.9069 25.2085 28.125 25.2085C29.5488 25.2085 30.8816 25.5945 32.0226 26.2667V22.759C32.0226 21.7387 31.6135 20.7602 30.8853 20.0387C30.1571 19.3172 29.1694 18.9119 28.1396 18.9119ZM28.125 27.7784C25.3395 27.7784 23.0814 30.0155 23.0814 32.7753C23.0814 35.5349 25.3395 37.7721 28.125 37.7721C30.9104 37.7721 33.1684 35.5349 33.1684 32.7753C33.1684 30.0155 30.9104 27.7784 28.125 27.7784Z" fill="#FFFCF8"/>
<path d="M28.1505 34.9185C29.3323 34.9185 30.2904 33.9693 30.2904 32.7983C30.2904 31.6273 29.3323 30.6781 28.1505 30.6781C26.9686 30.6781 26.0105 31.6273 26.0105 32.7983C26.0105 33.9693 26.9686 34.9185 28.1505 34.9185Z" fill="#FFFCF8"/>
</svg>
