<svg width="58" height="57" viewBox="0 0 58 57" fill="none" xmlns="http://www.w3.org/2000/svg">
<rect x="0.892578" y="0.216999" width="56.25" height="56.25" rx="7.5" fill="#005500"/>
<path fill-rule="evenodd" clip-rule="evenodd" d="M35.564 28.7419C36.2932 29.9044 36.7145 31.2764 36.7145 32.7458C36.7145 36.9411 33.2817 40.342 29.0473 40.342C24.8128 40.342 21.3801 36.9411 21.3801 32.7458C21.3801 28.5506 24.8128 25.1496 29.0473 25.1496C30.4766 25.1496 31.8146 25.5372 32.9601 26.2119V22.784C32.9601 21.0755 33.6451 19.4369 34.8644 18.2288C36.0838 17.0207 37.7376 16.342 39.4621 16.342C41.1866 16.342 42.8404 17.0207 44.0598 18.2288C45.2791 19.4369 45.9642 21.0755 45.9642 22.784V23.6638H43.3602V22.784C43.3602 21.7597 42.9495 20.7774 42.2185 20.0531C41.4874 19.3288 40.4959 18.9219 39.4621 18.9219C38.4283 18.9219 37.4368 19.3288 36.7058 20.0531C35.9747 20.7774 35.564 21.7597 35.564 22.784V28.7419ZM23.9841 32.7458C23.9841 29.9753 26.251 27.7295 29.0473 27.7295C31.8436 27.7295 34.1103 29.9753 34.1103 32.7458C34.1103 35.5162 31.8436 37.7621 29.0473 37.7621C26.251 37.7621 23.9841 35.5162 23.9841 32.7458Z" fill="#FFFCF8"/>
<path d="M29.0729 34.8973C30.2593 34.8973 31.2211 33.9445 31.2211 32.7689C31.2211 31.5934 30.2593 30.6405 29.0729 30.6405C27.8864 30.6405 26.9246 31.5934 26.9246 32.7689C26.9246 33.9445 27.8864 34.8973 29.0729 34.8973Z" fill="#FFFCF8"/>
</svg>
