<svg width="57" height="57" viewBox="0 0 57 57" fill="none" xmlns="http://www.w3.org/2000/svg">
<rect y="0.292969" width="56.25" height="56.25" rx="7.5" fill="#940101"/>
<g clip-path="url(#clip0_1571_2199)">
<path d="M25.6886 28.9113L25.9814 28.677L23.7933 25.9424C23.7933 25.9424 23.7933 25.9424 23.7933 25.9424C23.6685 25.7863 23.6685 25.5061 23.7933 25.3501L25.9811 22.6154C26.0346 22.5485 26.0844 22.5364 26.1126 22.5364C26.1407 22.5364 26.1905 22.5485 26.244 22.6154L26.6682 23.1456C26.793 23.3016 26.793 23.5818 26.6682 23.7378L26.6681 23.7379L25.329 25.4123L25.1416 25.6466L25.3291 25.8808L26.6685 27.5547C26.7934 27.7107 26.7934 27.9909 26.6685 28.1469L26.2444 28.6771C26.1909 28.744 26.1411 28.7561 26.1129 28.7561C26.0848 28.7561 26.035 28.744 25.9815 28.6771L25.6886 28.9113ZM30.921 25.8807L31.1083 25.6465L30.921 25.4122L29.5818 23.7383C29.457 23.5823 29.457 23.3021 29.5818 23.1461L30.006 22.6159C30.0595 22.549 30.1093 22.5369 30.1374 22.5369C30.1656 22.5369 30.2154 22.549 30.2689 22.6159L32.4567 25.3506C32.5815 25.5066 32.5815 25.7868 32.4567 25.9429L30.2689 28.6775C30.2154 28.7444 30.1656 28.7565 30.1374 28.7565C30.1093 28.7565 30.0595 28.7444 30.006 28.6775L29.5818 28.1474C29.457 27.9914 29.457 27.7111 29.5818 27.5551L29.5819 27.5551L30.921 25.8807ZM35.325 32.0215H35.7V31.6465V19.6465V19.2715H35.325H20.925H20.55V19.6465V31.6465V32.0215H20.925H35.325ZM16.725 36.5215H25.3575C25.4194 36.83 25.557 37.1312 25.7459 37.3791C26.0118 37.7282 26.4206 38.0215 26.925 38.0215H29.205C29.6564 38.0215 30.0601 37.8277 30.3484 37.4868C30.5657 37.2298 30.7097 36.8995 30.7726 36.5215H39.525C39.5547 36.5215 39.6038 36.536 39.6559 36.6011C39.7083 36.6665 39.75 36.7702 39.75 36.8965V37.6465C39.75 39.1718 38.7641 40.2715 37.725 40.2715H18.525C17.4859 40.2715 16.5 39.1718 16.5 37.6465V36.8965C16.5 36.7702 16.5417 36.6665 16.5941 36.6011C16.6462 36.536 16.6953 36.5215 16.725 36.5215ZM35.925 17.0215C36.6341 17.0215 37.35 17.7837 37.35 18.8965V34.2715H18.9V18.8965C18.9 17.7837 19.6159 17.0215 20.325 17.0215H35.925Z" fill="#FFFCF8" stroke="#FFFCF8" stroke-width="0.75"/>
</g>
<defs>
<clipPath id="clip0_1571_2199">
<rect width="24" height="24" fill="white" transform="translate(16.125 16.6465)"/>
</clipPath>
</defs>
</svg>
