<svg width="57" height="57" viewBox="0 0 57 57" fill="none" xmlns="http://www.w3.org/2000/svg">
<path d="M42.3451 23.8218V24.1968H42.7201H45.324H45.699V23.8218V22.942C45.699 21.1329 44.9736 19.3986 43.6836 18.1204L43.4196 18.3868L43.6836 18.1204C42.3936 16.8424 40.6448 16.125 38.822 16.125C36.9992 16.125 35.2503 16.8424 33.9604 18.1204L34.2217 18.3842L33.9603 18.1204C32.6703 19.3986 31.9449 21.1329 31.9449 22.942V25.7435C30.8769 25.2241 29.6759 24.9326 28.4071 24.9326C23.9689 24.9326 20.365 28.4982 20.365 32.9038C20.365 37.3095 23.9689 40.875 28.4071 40.875C32.8454 40.875 36.4493 37.3095 36.4493 32.9038C36.4493 31.4006 36.0291 29.9937 35.2989 28.7934V22.942C35.2989 22.0183 35.6692 21.1317 36.3296 20.4775L36.0861 20.2317L36.3296 20.4775C36.99 19.8231 37.8865 19.4549 38.822 19.4549C39.7575 19.4549 40.6539 19.8231 41.3144 20.4775C41.9747 21.1317 42.3451 22.0183 42.3451 22.942V23.8218ZM23.719 32.9038C23.719 30.3437 25.8146 28.2625 28.4071 28.2625C30.9996 28.2625 33.0952 30.3437 33.0952 32.9038C33.0952 35.4638 30.9996 37.5451 28.4071 37.5451C25.8146 37.5451 23.719 35.4638 23.719 32.9038ZM28.4327 35.4303C29.823 35.4303 30.956 34.3128 30.956 32.9269C30.956 31.541 29.823 30.4235 28.4327 30.4235C27.0425 30.4235 25.9095 31.541 25.9095 32.9269C25.9095 34.3128 27.0425 35.4303 28.4327 35.4303Z" fill="#940101" stroke="#940101" stroke-width="0.75"/>
</svg>
