<svg width="57" height="57" viewBox="0 0 57 57" fill="none" xmlns="http://www.w3.org/2000/svg">
<path d="M24.2564 24.2934H24.6314V23.9184V23.042C24.6314 22.1223 25.0002 21.2395 25.6577 20.5881C26.3153 19.9365 27.2079 19.5699 28.1394 19.5699C29.0709 19.5699 29.9635 19.9365 30.6211 20.5881L30.885 20.3217L30.6211 20.5881C31.2786 21.2395 31.6474 22.1223 31.6474 23.042V25.9233C30.5838 25.4065 29.388 25.1165 28.1247 25.1165C23.7029 25.1165 20.1123 28.6689 20.1123 33.0583C20.1123 37.4477 23.7029 41 28.1247 41C32.5465 41 36.1372 37.4477 36.1372 33.0583C36.1372 31.5607 35.7186 30.1592 34.9912 28.9634V23.042C34.9912 21.2396 34.2685 19.5116 32.9832 18.2381L32.7192 18.5045L32.9832 18.2381C31.6979 16.9648 29.9555 16.25 28.1394 16.25C26.3233 16.25 24.5809 16.9648 23.2956 18.2381L23.5596 18.5045L23.2956 18.2381C22.0103 19.5116 21.2875 21.2396 21.2875 23.042V23.9184V24.2934H21.6625H24.2564ZM23.4562 33.0583C23.4562 30.5089 25.5431 28.4364 28.1247 28.4364C30.7063 28.4364 32.7932 30.5089 32.7932 33.0583C32.7932 35.6075 30.7063 37.6801 28.1247 37.6801C25.5431 37.6801 23.4562 35.6075 23.4562 33.0583ZM28.1502 35.5765C29.5359 35.5765 30.6651 34.4626 30.6651 33.0813C30.6651 31.6999 29.5359 30.5861 28.1502 30.5861C26.7646 30.5861 25.6353 31.7 25.6353 33.0813C25.6353 34.4626 26.7646 35.5765 28.1502 35.5765Z" fill="black" stroke="black" stroke-width="0.75"/>
</svg>
