<svg width="57" height="58" viewBox="0 0 57 58" fill="none" xmlns="http://www.w3.org/2000/svg">
<rect x="0.25" y="0.783203" width="56.25" height="56.25" rx="7.5" fill="#005500"/>
<g clip-path="url(#clip0_1571_2174)">
<path d="M40.3799 17.3418V19.4846C40.3799 21.373 35.0049 21.9132 28.3799 21.9132C21.7549 21.9132 16.3799 21.373 16.3799 19.4846V17.3418C16.3799 15.4534 21.7549 13.9132 28.3799 13.9132C35.0049 13.9132 40.3799 15.4534 40.3799 17.3418ZM40.3799 23.1632V27.9846C40.3799 29.873 35.0049 31.4132 28.3799 31.4132C21.7549 31.4132 16.3799 29.873 16.3799 27.9846V23.1632C18.958 24.7168 23.6767 25.44 28.3799 25.44C33.083 25.44 37.8017 24.7168 40.3799 23.1632ZM40.3799 32.6632V37.4846C40.3799 39.373 35.0049 40.9132 28.3799 40.9132C21.7549 40.9132 16.3799 39.373 16.3799 37.4846V32.6632C18.958 34.2168 23.6767 34.94 28.3799 34.94C33.083 34.94 37.8017 34.2168 40.3799 32.6632Z" fill="#FFFCF8"/>
</g>
<defs>
<clipPath id="clip0_1571_2174">
<rect width="25" height="28" fill="white" transform="translate(16 13)"/>
</clipPath>
</defs>
</svg>
