<svg width="58" height="57" viewBox="0 0 58 57" fill="none" xmlns="http://www.w3.org/2000/svg">
<rect x="0.892578" y="0.292969" width="56.25" height="56.25" rx="7.5" fill="#940101"/>
<g clip-path="url(#clip0_1571_2176)">
<path d="M25.5812 28.9113C25.8156 29.2043 26.1955 29.2043 26.4298 28.9113L26.854 28.3812C27.0883 28.0882 27.0883 27.6134 26.854 27.3204L25.5145 25.6465L26.8536 23.9721C27.088 23.6791 27.088 23.2043 26.8536 22.9113L26.4295 22.3812C26.1951 22.0882 25.8152 22.0882 25.5808 22.3812L23.3931 25.1159C23.1587 25.4088 23.1587 25.8837 23.3931 26.1766L25.5812 28.9113ZM31.1816 28.3816L31.6057 28.9118C31.8401 29.2048 32.22 29.2048 32.4543 28.9118L34.6421 26.1771C34.8765 25.8841 34.8765 25.4093 34.6421 25.1163L32.4543 22.3816C32.22 22.0887 31.8401 22.0887 31.6057 22.3816L31.1816 22.9118C30.9472 23.2048 30.9472 23.6796 31.1816 23.9726L32.5207 25.6465L31.1816 27.3209C30.9472 27.6138 30.9472 28.0887 31.1816 28.3816ZM40.4176 36.1465H31.3253C31.2976 37.0751 30.7737 37.6465 30.0976 37.6465H27.8176C27.1167 37.6465 26.5793 36.8276 26.5887 36.1465H17.6176C17.2876 36.1465 17.0176 36.484 17.0176 36.8965V37.6465C17.0176 39.2965 18.0976 40.6465 19.4176 40.6465H38.6176C39.9376 40.6465 41.0176 39.2965 41.0176 37.6465V36.8965C41.0176 36.484 40.7476 36.1465 40.4176 36.1465ZM38.6176 18.8965C38.6176 17.659 37.8076 16.6465 36.8176 16.6465H21.2176C20.2276 16.6465 19.4176 17.659 19.4176 18.8965V34.6465H38.6176V18.8965ZM36.2176 31.6465H21.8176V19.6465H36.2176V31.6465Z" fill="#FFFCF8"/>
<path d="M30.2 23.5748L28.0736 27.9978" stroke="#FFFCF8" stroke-linecap="round"/>
</g>
<defs>
<clipPath id="clip0_1571_2176">
<rect width="24" height="24" fill="white" transform="translate(17.0176 16.6465)"/>
</clipPath>
</defs>
</svg>
