<svg width="57" height="58" viewBox="0 0 57 58" fill="none" xmlns="http://www.w3.org/2000/svg">
<rect x="0.5" y="0.783203" width="56.25" height="56.25" rx="7.5" fill="#005500"/>
<g clip-path="url(#clip0_1571_2197)">
<path d="M40.625 20.3368V22.4796C40.625 24.368 35.25 25.9082 28.625 25.9082C22 25.9082 16.625 24.368 16.625 22.4796V20.3368C16.625 18.4484 22 16.9082 28.625 16.9082C35.25 16.9082 40.625 18.4484 40.625 20.3368ZM40.625 25.1582V29.9796C40.625 31.868 35.25 33.4082 28.625 33.4082C22 33.4082 16.625 31.868 16.625 29.9796V25.1582C19.2031 26.7118 23.9219 27.435 28.625 27.435C33.3281 27.435 38.0468 26.7118 40.625 25.1582ZM40.625 32.6582V37.4796C40.625 39.368 35.25 40.9082 28.625 40.9082C22 40.9082 16.625 39.368 16.625 37.4796V32.6582C19.2031 34.2118 23.9219 34.935 28.625 34.935C33.3281 34.935 38.0468 34.2118 40.625 32.6582Z" fill="#FFFCF8"/>
</g>
<defs>
<clipPath id="clip0_1571_2197">
<rect width="24" height="24" fill="white" transform="translate(16.625 16.9082)"/>
</clipPath>
</defs>
</svg>
