<svg width="25" height="25" viewBox="0 0 25 25" fill="none" xmlns="http://www.w3.org/2000/svg">
<g clip-path="url(#clip0_873_2871)">
<path d="M10.9892 6.40381L7.74876 1.00334C7.61552 0.781181 7.42701 0.597317 7.2016 0.46966C6.97619 0.342004 6.72156 0.274906 6.46251 0.274902H1.25235C0.645318 0.274902 0.290005 0.957871 0.637818 1.45521L5.8536 8.90646C7.24672 7.60475 9.0186 6.71131 10.9892 6.40381ZM23.7495 0.274902H18.5394C18.0125 0.274902 17.5241 0.551465 17.2531 1.00334L14.0127 6.40381C15.9833 6.71131 17.7552 7.60475 19.1483 8.906L24.3641 1.45521C24.7119 0.957871 24.3566 0.274902 23.7495 0.274902ZM12.5009 7.7749C7.94469 7.7749 4.25094 11.4687 4.25094 16.0249C4.25094 20.5812 7.94469 24.2749 12.5009 24.2749C17.0572 24.2749 20.7509 20.5812 20.7509 16.0249C20.7509 11.4687 17.0572 7.7749 12.5009 7.7749ZM16.8378 15.1465L15.0598 16.879L15.4803 19.3268C15.5553 19.7655 15.0931 20.1007 14.6998 19.8935L12.5009 18.738L10.3025 19.8935C9.90876 20.1021 9.44704 19.7651 9.52204 19.3268L9.9425 16.879L8.16454 15.1465C7.84485 14.8352 8.02157 14.2919 8.46219 14.2282L10.9198 13.8701L12.0181 11.6426C12.117 11.4419 12.3083 11.343 12.5 11.343C12.6927 11.343 12.8853 11.4433 12.9842 11.6426L14.0825 13.8701L16.5402 14.2282C16.9808 14.2919 17.1575 14.8352 16.8378 15.1465Z" fill="#940101"/>
</g>
<defs>
<clipPath id="clip0_873_2871">
<rect width="24" height="24" fill="white" transform="translate(0.5 0.274902)"/>
</clipPath>
</defs>
</svg>
