<svg width="80" height="41" viewBox="0 0 80 41" fill="none" xmlns="http://www.w3.org/2000/svg">
<path fill-rule="evenodd" clip-rule="evenodd" d="M17.6391 2.38131V4.31409H24.3075H30.9761L30.9783 2.44684C30.9795 1.42013 30.9693 0.55034 30.9555 0.514265C30.9323 0.453941 30.3883 0.44873 24.2847 0.44873L17.6391 0.44873V2.38131ZM33.2537 0.512261C33.2023 0.646738 33.2265 4.1742 33.2795 4.24615C33.3265 4.31008 33.7669 4.31388 40.0399 4.30427L46.7501 4.29384V2.38131V0.468772L40.0141 0.458551C33.8977 0.449332 33.2759 0.454342 33.2537 0.512261ZM17.6391 9.42741V11.3602H24.2847C30.3857 11.3602 30.9323 11.3548 30.9555 11.2947C30.9693 11.2586 30.9795 10.389 30.9783 9.36207L30.9761 7.49483H24.3075H17.6391V9.42741ZM33.2537 7.55836C33.1983 7.70286 33.2269 11.2678 33.2837 11.3151C33.3237 11.3484 35.1211 11.3576 40.0441 11.3502L46.7501 11.3399V9.42741V7.51487L40.0141 7.50485C33.8977 7.49563 33.2759 7.50044 33.2537 7.55836ZM17.6399 17.0778L17.6419 19.0913L24.2659 19.0905C29.7197 19.0899 30.8975 19.0805 30.9339 19.0364C30.9651 18.9987 30.9753 18.4065 30.9685 17.0339L30.9591 15.0845L24.2983 15.0744L17.6377 15.0642L17.6399 17.0778ZM33.2665 15.1726C33.2177 15.3015 33.2319 18.9632 33.2817 19.0402C33.3465 19.1404 46.7445 19.1103 46.7183 19.0099C46.7067 18.9658 46.7135 18.9298 46.7333 18.9298C46.7721 18.9298 46.7827 15.2245 46.7443 15.1239C46.7241 15.0716 45.8979 15.0644 40.0145 15.0644H33.3077L33.2665 15.1726ZM33.2811 21.9901C33.2927 22.0342 33.2857 22.0702 33.2657 22.0702C33.2153 22.0702 33.2179 25.6993 33.2685 25.8324L33.3077 25.9356H39.9997H46.6917L46.7309 25.8324C46.7815 25.6993 46.7841 22.0702 46.7337 22.0702C46.7137 22.0702 46.7067 22.0342 46.7183 21.9901C46.7391 21.9101 46.7129 21.9097 39.9997 21.9097C33.2865 21.9097 33.2603 21.9101 33.2811 21.9901ZM49.0433 21.9448C49.0311 21.9644 49.0255 22.8659 49.0309 23.9479L49.0403 25.9155L55.7003 25.9256L62.3603 25.9358V23.9224V21.9093H55.7127C51.9011 21.9093 49.0559 21.9245 49.0433 21.9448ZM33.2893 29.0354C33.2977 29.0791 33.2877 29.1251 33.2669 29.1382C33.2249 29.164 33.2131 32.6494 33.2543 32.8556L33.2793 32.9813H39.9997H46.7201L46.7451 32.8556C46.7863 32.6494 46.7745 29.164 46.7325 29.1382C46.7117 29.1251 46.7017 29.0791 46.7101 29.0354C46.7251 28.9564 46.6731 28.9558 39.9997 28.9558C33.3263 28.9558 33.2743 28.9564 33.2893 29.0354ZM49.0453 29.0177C49.0321 29.0522 49.0255 29.9537 49.0309 31.0208L49.0403 32.9616L55.7007 32.9719L62.3611 32.9819L62.3507 30.9788L62.3403 28.9754L55.7047 28.9654C49.7351 28.9562 49.0667 28.9614 49.0453 29.0177ZM33.2537 36.7496C33.2217 36.8328 33.2217 40.4044 33.2537 40.4875C33.2911 40.5853 46.7083 40.5853 46.7457 40.4875C46.7777 40.4044 46.7777 36.8328 46.7457 36.7496C46.7083 36.652 33.2911 36.652 33.2537 36.7496ZM49.0203 38.555C49.0203 39.5829 49.0313 40.4527 49.0447 40.4875C49.0667 40.5453 49.6919 40.5513 55.7147 40.5513H62.3603V38.6187V36.6859H55.6903H49.0203V38.555Z" fill="#84AC1C"/>
<path fill-rule="evenodd" clip-rule="evenodd" d="M0.9644 9.72943V19.0907H4.725C8.4518 19.0907 8.4858 19.0901 8.5066 19.0103C8.5262 18.9352 8.5618 18.9298 9.0354 18.9292C9.6212 18.9286 9.7238 18.9099 9.7238 18.8043C9.7238 18.7378 9.756 18.7283 9.985 18.7283C10.2194 18.7283 10.2462 18.7201 10.2462 18.6478C10.2462 18.5756 10.2728 18.5674 10.5072 18.5674C10.7416 18.5674 10.7684 18.559 10.7684 18.4869C10.7684 18.4221 10.7952 18.4063 10.904 18.4063C11.1536 18.4063 11.2908 18.3616 11.2908 18.2804C11.2908 18.2179 11.3216 18.2051 11.4716 18.2051C11.6234 18.2051 11.6524 18.1924 11.6524 18.1273C11.6524 18.0772 11.6848 18.0449 11.7428 18.0367C11.801 18.0283 11.8378 17.9914 11.846 17.9331C11.857 17.8568 11.8836 17.8425 12.0168 17.8425C12.148 17.8425 12.1748 17.8289 12.1748 17.7622C12.1748 17.703 12.2016 17.6816 12.2752 17.6816C12.349 17.6816 12.3756 17.6602 12.3756 17.601C12.3756 17.5427 12.4024 17.5205 12.4728 17.5205C12.6226 17.5205 12.6972 17.479 12.6972 17.3954C12.6972 17.3409 12.7258 17.3193 12.7976 17.3193C12.8712 17.3193 12.898 17.2976 12.898 17.2387C12.898 17.185 12.9248 17.1581 12.9784 17.1581C13.031 17.1581 13.0588 17.1313 13.0588 17.0804C13.0588 17.0305 13.091 16.998 13.1492 16.9898C13.2072 16.9816 13.2442 16.9445 13.2524 16.8864C13.2606 16.828 13.293 16.7958 13.3428 16.7958C13.3936 16.7958 13.4204 16.7679 13.4204 16.7152C13.4204 16.6615 13.4472 16.6346 13.5008 16.6346C13.554 16.6346 13.5812 16.6078 13.5812 16.5549C13.5812 16.5034 13.6168 16.4663 13.6816 16.4499C13.7416 16.4348 13.782 16.3958 13.782 16.3533C13.782 16.3138 13.8182 16.2723 13.8624 16.2607C13.9262 16.2438 13.9428 16.2058 13.9428 16.0747C13.9428 15.9368 13.9558 15.91 14.0232 15.91C14.0766 15.91 14.1034 15.8831 14.1034 15.8294C14.1034 15.7705 14.1302 15.7488 14.204 15.7488C14.2962 15.7488 14.3044 15.7342 14.3044 15.5676C14.3044 15.4133 14.3162 15.3865 14.3848 15.3865C14.4366 15.3865 14.465 15.3596 14.465 15.3107C14.465 15.269 14.4992 15.2259 14.541 15.2149C14.593 15.2013 14.6258 15.1438 14.6444 15.0329C14.6634 14.9209 14.6956 14.8648 14.7492 14.8508C14.815 14.8333 14.8268 14.7935 14.8268 14.585C14.8268 14.3666 14.8356 14.3397 14.907 14.3397C14.9756 14.3397 14.9874 14.3129 14.9874 14.1585C14.9874 14.0078 15.0002 13.9774 15.0632 13.9774C15.1566 13.9774 15.187 13.873 15.1878 13.5491C15.1882 13.3363 15.1994 13.2994 15.2688 13.2811C15.3452 13.2611 15.349 13.2262 15.349 12.5719C15.349 11.9103 15.3522 11.8837 15.4294 11.8837C15.5088 11.8837 15.5098 11.8568 15.5098 9.60858C15.5098 7.36055 15.5088 7.3337 15.4294 7.3337C15.3526 7.3337 15.349 7.30684 15.349 6.70961C15.349 6.11239 15.3456 6.08553 15.2688 6.08553C15.195 6.08553 15.1884 6.05868 15.1884 5.76247C15.1884 5.45483 15.1836 5.4376 15.0878 5.40112C14.9958 5.36605 14.9874 5.3422 14.9874 5.11654C14.9874 4.9041 14.9764 4.86722 14.907 4.84919C14.8442 4.83255 14.8268 4.79427 14.8268 4.67162C14.8268 4.54376 14.8126 4.5153 14.7486 4.5153C14.6856 4.5153 14.6682 4.48263 14.6582 4.34415C14.648 4.20185 14.6306 4.17099 14.5554 4.16017C14.4772 4.14915 14.465 4.12329 14.465 3.96897C14.465 3.81927 14.4526 3.79061 14.3872 3.79061C14.3262 3.79061 14.3066 3.75794 14.2968 3.6395C14.2868 3.51825 14.2664 3.48598 14.1938 3.47576C14.1284 3.46634 14.1034 3.43588 14.1034 3.36493C14.1034 3.29399 14.0814 3.26713 14.0232 3.26713C13.9696 3.26713 13.9428 3.24027 13.9428 3.18656C13.9428 3.13285 13.916 3.106 13.8624 3.106C13.8004 3.106 13.782 3.07934 13.782 2.98856C13.782 2.81881 13.7438 2.74365 13.6572 2.74365C13.608 2.74365 13.5812 2.71539 13.5812 2.66329C13.5812 2.60958 13.5544 2.58272 13.5008 2.58272C13.446 2.58272 13.4204 2.55587 13.4204 2.49835C13.4204 2.44925 13.3884 2.40576 13.3438 2.39393C13.3016 2.38291 13.258 2.33942 13.247 2.29713C13.2354 2.25244 13.1918 2.22038 13.1428 2.22038C13.0856 2.22038 13.0588 2.19472 13.0588 2.13981C13.0588 2.08971 13.032 2.05924 12.988 2.05924C12.949 2.05924 12.8992 2.01856 12.8774 1.96866C12.8482 1.90212 12.7978 1.87466 12.687 1.86565C12.569 1.85583 12.5364 1.83619 12.5364 1.77506C12.5364 1.72375 12.5088 1.6969 12.456 1.6969C12.4028 1.6969 12.3756 1.67004 12.3756 1.61713C12.3756 1.56643 12.3404 1.52855 12.279 1.51312C12.2258 1.49969 12.1734 1.454 12.1622 1.41151C12.1472 1.35419 12.1062 1.33455 12.0024 1.33455C11.8966 1.33455 11.8576 1.31511 11.8416 1.25399C11.825 1.19026 11.7868 1.17342 11.659 1.17342C11.522 1.17342 11.4954 1.15959 11.4844 1.08283C11.4738 1.00748 11.4428 0.990244 11.3008 0.979823C11.1628 0.969802 11.13 0.952567 11.13 0.889236C11.13 0.823501 11.1016 0.811076 10.9492 0.811076C10.7952 0.811076 10.7684 0.799051 10.7684 0.73051C10.7684 0.658361 10.7416 0.649944 10.51 0.649944C10.2728 0.649944 10.2506 0.642729 10.2388 0.559358C10.2268 0.474984 10.2036 0.467969 9.8946 0.457147C9.7122 0.450734 9.563 0.428087 9.563 0.406844C9.563 0.382393 7.9824 0.368164 5.2636 0.368164H0.9644V9.72943ZM49.2214 9.72943V19.0907H51.2306H53.2396V15.7488V12.4069H55.152C57.0304 12.4069 57.0646 12.4055 57.0852 12.3266C57.1054 12.2498 57.1402 12.246 57.8216 12.246C58.5962 12.246 58.664 12.2358 58.664 12.1208C58.664 12.052 58.6972 12.0446 59.0092 12.0446C59.3208 12.0446 59.3566 12.0368 59.3756 11.964C59.3936 11.8949 59.4304 11.8837 59.6368 11.8837C59.8432 11.8837 59.8798 11.8722 59.898 11.8031C59.9126 11.7468 59.9528 11.7225 60.0316 11.7225C60.1964 11.7225 60.2712 11.6835 60.2712 11.5975C60.2712 11.5353 60.301 11.5211 60.432 11.5211C60.5658 11.5211 60.5926 11.5077 60.5926 11.4408C60.5926 11.3732 60.6194 11.3602 60.7572 11.3602C60.8882 11.3602 60.926 11.3438 60.9428 11.2792C60.9544 11.2347 61.007 11.1874 61.0596 11.1742C61.1182 11.1594 61.1552 11.1205 61.1552 11.074C61.1552 11.0119 61.185 10.9978 61.316 10.9978C61.4498 10.9978 61.4766 10.9844 61.4766 10.9173C61.4766 10.872 61.5034 10.8367 61.5378 10.8367C61.5714 10.8367 61.6196 10.7914 61.6446 10.7361C61.6698 10.6808 61.7238 10.6355 61.7644 10.6355C61.8114 10.6355 61.8382 10.6062 61.8382 10.5549C61.8382 10.5012 61.865 10.4744 61.9186 10.4744C61.9712 10.4744 61.999 10.4475 61.999 10.3966C61.999 10.3467 62.0314 10.3142 62.0894 10.306C62.146 10.298 62.1844 10.2607 62.1922 10.2066C62.1988 10.1591 62.2396 10.111 62.2826 10.0998C62.3416 10.0842 62.3606 10.0441 62.3606 9.93465C62.3606 9.81721 62.3756 9.78995 62.4402 9.78995C62.4916 9.78995 62.5288 9.75428 62.545 9.68915C62.5608 9.62622 62.5986 9.58854 62.6462 9.58854C62.7096 9.58854 62.7222 9.55828 62.7222 9.40737C62.7222 9.25305 62.7342 9.22619 62.8026 9.22619C62.8694 9.22619 62.883 9.19934 62.883 9.06787C62.883 8.93439 62.8972 8.90774 62.9734 8.89672C63.0482 8.88609 63.0658 8.85503 63.076 8.71695C63.085 8.59129 63.1074 8.54499 63.1664 8.52956C63.2358 8.51132 63.2446 8.47224 63.2446 8.17924C63.2446 7.88363 63.2528 7.84756 63.325 7.82852C63.4036 7.80808 63.4054 7.7736 63.4054 6.24205C63.4054 4.70329 63.404 4.67643 63.325 4.67643C63.2528 4.67643 63.2446 4.64958 63.2446 4.41469C63.2446 4.17981 63.2364 4.15295 63.1642 4.15295C63.0948 4.15295 63.0838 4.1261 63.0838 3.95495C63.0838 3.70503 63.0548 3.62948 62.959 3.62948C62.8956 3.62948 62.883 3.59921 62.883 3.4483C62.883 3.29399 62.871 3.26713 62.8026 3.26713C62.7378 3.26713 62.7222 3.24027 62.7222 3.12764C62.7222 3.03104 62.6984 2.97533 62.6446 2.94647C62.602 2.92362 62.5554 2.86851 62.5414 2.82422C62.5274 2.77993 62.481 2.74365 62.4382 2.74365C62.3874 2.74365 62.3606 2.716 62.3606 2.66329C62.3606 2.60958 62.3338 2.58272 62.2802 2.58272C62.2182 2.58272 62.1998 2.55587 62.1998 2.46508C62.1998 2.29533 62.1616 2.22038 62.075 2.22038C62.0258 2.22038 61.999 2.19192 61.999 2.13981C61.999 2.0861 61.9722 2.05924 61.9186 2.05924C61.8638 2.05924 61.8382 2.03239 61.8382 1.97487C61.8382 1.92497 61.806 1.88228 61.7592 1.86985C61.7158 1.85863 61.6694 1.81494 61.656 1.77306C61.6378 1.71534 61.5936 1.6969 61.474 1.6969C61.3404 1.6969 61.316 1.68387 61.316 1.61252C61.316 1.56342 61.2838 1.51993 61.2392 1.50811C61.1972 1.49709 61.1536 1.4536 61.1426 1.41131C61.131 1.36662 61.0874 1.33455 61.0384 1.33455C60.981 1.33455 60.9542 1.3089 60.9542 1.25399C60.9542 1.18565 60.9276 1.17342 60.7762 1.17342C60.6222 1.17342 60.5966 1.1612 60.5854 1.08283C60.5752 1.01069 60.5428 0.989843 60.426 0.980023C60.3208 0.971205 60.2736 0.945753 60.259 0.889437C60.243 0.828311 60.2032 0.811076 60.0788 0.811076C59.9528 0.811076 59.9146 0.794041 59.898 0.73051C59.8798 0.661167 59.8432 0.649944 59.632 0.649944C59.4186 0.649944 59.3872 0.640324 59.3872 0.573787C59.3872 0.466967 59.3132 0.44873 58.8816 0.44873C58.6562 0.44873 58.5032 0.432496 58.5032 0.408447C58.5032 0.381792 56.9296 0.368164 53.8624 0.368164H49.2214V9.72943ZM8.3648 3.51885C8.3764 3.60022 8.4032 3.61064 8.6288 3.62146C8.847 3.63188 8.88 3.64371 8.88 3.71205C8.88 3.77658 8.908 3.79061 9.038 3.79061C9.1592 3.79061 9.2018 3.80884 9.2208 3.86877C9.2382 3.92408 9.289 3.95054 9.3942 3.95935C9.5132 3.96938 9.5456 3.98982 9.5558 4.06237C9.5638 4.11828 9.5966 4.15295 9.6416 4.15295C9.6816 4.15295 9.7238 4.18923 9.7354 4.23352C9.748 4.28162 9.7902 4.31408 9.8406 4.31408C9.8968 4.31408 9.9246 4.33974 9.9246 4.39184C9.9246 4.43453 9.9608 4.48123 10.005 4.49526C10.0492 4.50929 10.0854 4.55578 10.0854 4.59847C10.0854 4.64857 10.113 4.67643 10.163 4.67643C10.2058 4.67643 10.2522 4.71271 10.2662 4.757C10.2802 4.80129 10.3266 4.83736 10.3694 4.83736C10.4254 4.83736 10.447 4.86542 10.447 4.93817C10.447 5.01192 10.4684 5.03878 10.5274 5.03878C10.5944 5.03878 10.6078 5.06563 10.6078 5.19971C10.6078 5.34481 10.6178 5.36084 10.7082 5.36084C10.8004 5.36084 10.8086 5.37567 10.8086 5.54201C10.8086 5.69633 10.8206 5.72318 10.889 5.72318C10.9574 5.72318 10.9694 5.75004 10.9694 5.90436C10.9694 6.05868 10.9812 6.08553 11.0498 6.08553C11.1224 6.08553 11.13 6.11239 11.13 6.3641C11.13 6.69478 11.1532 6.77014 11.255 6.77014C11.3288 6.77014 11.331 6.8501 11.331 9.58854C11.331 12.037 11.3232 12.4069 11.2722 12.4069C11.1752 12.4069 11.13 12.5466 11.13 12.8472C11.13 13.105 11.1226 13.1318 11.0498 13.1318C10.9824 13.1318 10.9694 13.1587 10.9694 13.2966C10.9694 13.4274 10.9528 13.4657 10.889 13.4826C10.8264 13.4988 10.8086 13.5375 10.8086 13.6571C10.8086 13.7856 10.794 13.8126 10.7182 13.8235C10.643 13.8343 10.6258 13.8651 10.6154 14.0074C10.6054 14.1459 10.5882 14.1786 10.525 14.1786C10.4738 14.1786 10.447 14.2062 10.447 14.2592C10.447 14.3129 10.4202 14.3397 10.3666 14.3397C10.3078 14.3397 10.2862 14.3666 10.2862 14.4403C10.2862 14.5157 10.2652 14.5409 10.2022 14.5409C10.1518 14.5409 10.1096 14.5734 10.097 14.6215C10.0854 14.6658 10.0494 14.7021 10.0166 14.7021C9.984 14.7021 9.948 14.7377 9.9366 14.7812C9.9252 14.8247 9.8838 14.8706 9.8442 14.8832C9.8048 14.8957 9.7634 14.9416 9.752 14.9852C9.7396 15.0321 9.697 15.0644 9.6472 15.0644C9.5898 15.0644 9.563 15.0901 9.563 15.145C9.563 15.1987 9.5362 15.2255 9.4826 15.2255C9.4298 15.2255 9.4024 15.2524 9.4024 15.3037C9.4024 15.3668 9.3696 15.3843 9.2316 15.3943C9.0896 15.4045 9.0586 15.4219 9.048 15.4973C9.0362 15.5805 9.014 15.5879 8.7768 15.5879C8.5452 15.5879 8.5184 15.5961 8.5184 15.6685C8.5184 15.7476 8.4916 15.7488 6.7504 15.7488H4.9824V9.58854V3.42826H6.6672H8.352L8.3648 3.51885ZM57.4586 3.52887C57.4586 3.62086 57.4736 3.62948 57.6346 3.62948C57.777 3.62948 57.8148 3.64491 57.8318 3.71004C57.8478 3.77137 57.8866 3.79061 57.9946 3.79061C58.101 3.79061 58.1426 3.81065 58.1618 3.87117C58.1778 3.92148 58.2226 3.95154 58.2816 3.95154C58.4288 3.95154 58.5032 3.99363 58.5032 4.0768C58.5032 4.13111 58.532 4.15295 58.6038 4.15295C58.6942 4.15295 58.7042 4.16899 58.7042 4.31408C58.7042 4.44816 58.7176 4.47502 58.7846 4.47502C58.8434 4.47502 58.8648 4.50187 58.8648 4.57562C58.8648 4.64958 58.8864 4.67643 58.9452 4.67643C59.0122 4.67643 59.0256 4.70329 59.0256 4.83676C59.0256 4.97404 59.04 5.0005 59.126 5.02214C59.2116 5.04379 59.2266 5.07064 59.2266 5.20412C59.2266 5.33398 59.2402 5.36084 59.3068 5.36084C59.3848 5.36084 59.3872 5.38769 59.3872 6.24666C59.3872 7.10563 59.3848 7.13248 59.3068 7.13248C59.2384 7.13248 59.2266 7.15934 59.2266 7.31366C59.2266 7.46457 59.2138 7.49483 59.1504 7.49483C59.0638 7.49483 59.0256 7.56979 59.0256 7.73974C59.0256 7.83032 59.0072 7.85718 58.9452 7.85718C58.8782 7.85718 58.8648 7.88403 58.8648 8.01831C58.8648 8.15238 58.8514 8.17924 58.7846 8.17924C58.7256 8.17924 58.7042 8.20609 58.7042 8.28005C58.7042 8.36041 58.684 8.38065 58.6038 8.38065C58.53 8.38065 58.5032 8.4021 58.5032 8.46122C58.5032 8.52675 58.4764 8.54179 58.3588 8.54179C58.2496 8.54179 58.2094 8.56082 58.194 8.61995C58.1828 8.66304 58.1348 8.70372 58.0874 8.71053C58.0332 8.71835 57.9962 8.75683 57.9882 8.81354C57.9764 8.89672 57.9544 8.90413 57.717 8.90413C57.4854 8.90413 57.4586 8.91235 57.4586 8.9845C57.4586 9.06406 57.4318 9.06506 55.349 9.06506H53.2396V6.24666V3.42826H55.349H57.4586V3.52887ZM5.545 21.6472C5.545 21.7476 5.5426 21.7482 5.1834 21.7482C4.8484 21.7482 4.8216 21.7542 4.8216 21.8287C4.8216 21.9005 4.795 21.9093 4.5768 21.9093C4.368 21.9093 4.329 21.9207 4.3116 21.9877C4.2962 22.0466 4.2498 22.069 4.1244 22.0782C3.9868 22.0883 3.9556 22.1061 3.945 22.1811C3.9342 22.2574 3.9074 22.2716 3.7742 22.2716C3.643 22.2716 3.6162 22.2853 3.6162 22.3522C3.6162 22.4207 3.5894 22.4326 3.4354 22.4326C3.2842 22.4326 3.2546 22.4452 3.2546 22.5097C3.2546 22.5685 3.2156 22.5933 3.089 22.6147C2.975 22.634 2.9172 22.6665 2.9036 22.719C2.8926 22.7608 2.8496 22.7951 2.808 22.7951C2.76 22.7951 2.7322 22.8236 2.7322 22.8727C2.7322 22.9228 2.7 22.955 2.6418 22.9633C2.5838 22.9717 2.5468 23.0086 2.5386 23.0669C2.5304 23.125 2.498 23.1575 2.4482 23.1575C2.3974 23.1575 2.3706 23.1851 2.3706 23.238C2.3706 23.3048 2.3438 23.3184 2.2126 23.3184C2.0914 23.3184 2.0488 23.3366 2.0298 23.397C2.0162 23.44 1.9696 23.4865 1.9266 23.5004C1.8836 23.514 1.8484 23.5603 1.8484 23.603C1.8484 23.6531 1.8206 23.6807 1.7704 23.6807C1.7094 23.6807 1.6898 23.7136 1.68 23.8319C1.67 23.9531 1.6498 23.9854 1.577 23.9956C1.5116 24.005 1.4866 24.0357 1.4866 24.1064C1.4866 24.1774 1.4646 24.2042 1.4064 24.2042C1.3528 24.2042 1.326 24.2311 1.326 24.2848C1.326 24.3369 1.2992 24.3654 1.25 24.3654C1.1632 24.3654 1.125 24.4403 1.125 24.6103C1.125 24.7008 1.1068 24.7277 1.0448 24.7277C0.9928 24.7277 0.9644 24.7546 0.9644 24.8035C0.9644 24.8455 0.9284 24.8888 0.884 24.9005C0.8204 24.9171 0.8036 24.9554 0.8036 25.0834C0.8036 25.2209 0.7898 25.2476 0.7132 25.2584C0.638 25.269 0.6208 25.3001 0.6104 25.4424C0.6004 25.5807 0.5832 25.6135 0.52 25.6135C0.4544 25.6135 0.442 25.6422 0.442 25.7947C0.442 25.949 0.43 25.9759 0.3616 25.9759C0.2896 25.9759 0.2812 26.0027 0.2812 26.2376C0.2812 26.4899 0.2776 26.4993 0.1808 26.4993C0.0816 26.4993 0.0804 26.5033 0.0804 26.8414C0.0804 27.0429 0.0638 27.1838 0.0402 27.1838C0.0136 27.1838 0 28.5259 0 31.1297C0 33.6268 0.0142 35.0754 0.0386 35.0754C0.0598 35.0754 0.0824 35.2339 0.0888 35.4277C0.0998 35.7584 0.106 35.7808 0.1908 35.7929C0.274 35.8047 0.2812 35.8269 0.2812 36.0646C0.2812 36.2967 0.2896 36.3236 0.3616 36.3236C0.43 36.3236 0.442 36.3504 0.442 36.5047C0.442 36.6593 0.4538 36.6859 0.5224 36.6859C0.5894 36.6859 0.6028 36.7128 0.6028 36.847C0.6028 36.9919 0.6128 37.0082 0.7032 37.0082C0.7954 37.0082 0.8036 37.0228 0.8036 37.1893C0.8036 37.3437 0.8156 37.3705 0.884 37.3705C0.9512 37.3705 0.9644 37.3974 0.9644 37.5353C0.9644 37.6635 0.9814 37.7046 1.041 37.7202C1.0832 37.7313 1.1266 37.7749 1.1376 37.817C1.1494 37.8617 1.1928 37.894 1.2418 37.894C1.3048 37.894 1.326 37.9192 1.326 37.9946C1.326 38.0673 1.3476 38.0952 1.404 38.0952C1.465 38.0952 1.4846 38.1279 1.4944 38.2463C1.5044 38.3676 1.5246 38.3998 1.5972 38.4101C1.654 38.4181 1.6876 38.4507 1.6876 38.498C1.6876 38.5391 1.7238 38.5844 1.768 38.5984C1.8122 38.6127 1.8484 38.6518 1.8484 38.6856C1.8484 38.7193 1.8838 38.7564 1.9274 38.7678C1.9708 38.779 2.0172 38.8227 2.0306 38.8646C2.0438 38.9065 2.0884 38.9407 2.1294 38.9407C2.1766 38.9407 2.2092 38.9744 2.2172 39.0313C2.2276 39.1041 2.2596 39.1243 2.3808 39.1345C2.4988 39.1442 2.5314 39.1638 2.5314 39.2251C2.5314 39.2814 2.5592 39.3031 2.6318 39.3031C2.707 39.3031 2.7322 39.3243 2.7322 39.3875C2.7322 39.4366 2.7644 39.4801 2.809 39.4919C2.851 39.5029 2.8946 39.5464 2.9056 39.5887C2.9212 39.6484 2.9622 39.6654 3.0902 39.6654C3.2278 39.6654 3.2546 39.6787 3.2546 39.746C3.2546 39.8145 3.2814 39.8266 3.4354 39.8266C3.6016 39.8266 3.6162 39.8348 3.6162 39.9272C3.6162 39.9989 3.638 40.028 3.692 40.028C3.7338 40.028 3.777 40.0639 3.7886 40.1084C3.8068 40.1779 3.8434 40.1889 4.0546 40.1889C4.2726 40.1889 4.2994 40.1977 4.2994 40.2695C4.2994 40.338 4.3262 40.35 4.4802 40.35C4.6308 40.35 4.661 40.3627 4.661 40.4262C4.661 40.5282 4.736 40.5513 5.066 40.5513C5.2246 40.5513 5.344 40.5687 5.344 40.5915C5.344 40.618 6.1878 40.6318 7.795 40.6318C9.4024 40.6318 10.2462 40.618 10.2462 40.5915C10.2462 40.5675 10.399 40.5513 10.6246 40.5513C11.0562 40.5513 11.13 40.533 11.13 40.4262C11.13 40.3593 11.1618 40.35 11.3912 40.35C11.6256 40.35 11.6524 40.3418 11.6524 40.2695C11.6524 40.2009 11.6792 40.1889 11.8332 40.1889C11.9854 40.1889 12.014 40.1765 12.014 40.1108C12.014 40.0474 12.0468 40.0302 12.1848 40.0202C12.3268 40.0097 12.3578 39.9925 12.3684 39.9172C12.3792 39.8412 12.4062 39.8266 12.5346 39.8266C12.654 39.8266 12.6924 39.8087 12.7088 39.746C12.725 39.6839 12.7636 39.6654 12.878 39.6654C12.9908 39.6654 13.031 39.647 13.0466 39.5873C13.0578 39.5442 13.1058 39.5035 13.1532 39.4967C13.2074 39.4889 13.2444 39.4504 13.2524 39.3937C13.2632 39.3173 13.29 39.3031 13.4232 39.3031C13.5524 39.3031 13.5812 39.2891 13.5812 39.2253C13.5812 39.1754 13.6134 39.1432 13.6716 39.1347C13.7296 39.1265 13.7666 39.0897 13.7748 39.0313C13.783 38.9732 13.8154 38.9407 13.8652 38.9407C13.916 38.9407 13.9428 38.9129 13.9428 38.8602C13.9428 38.8065 13.9696 38.7796 14.0232 38.7796C14.0766 38.7796 14.1034 38.753 14.1034 38.6992C14.1034 38.6401 14.1302 38.6187 14.204 38.6187C14.2842 38.6187 14.3044 38.5984 14.3044 38.5181C14.3044 38.4441 14.3258 38.4173 14.3848 38.4173C14.4384 38.4173 14.465 38.3904 14.465 38.3369C14.465 38.282 14.4918 38.2563 14.5492 38.2563C14.5982 38.2563 14.6418 38.2243 14.6534 38.1794C14.6644 38.1373 14.708 38.0936 14.7502 38.0826C14.8254 38.0629 14.8268 37.976 14.8168 34.304L14.8066 30.5459H10.9694H7.132L7.1216 32.0255L7.111 33.5052H8.8594H10.6078V35.1762C10.6078 36.8202 10.6064 36.847 10.5274 36.847C10.4684 36.847 10.447 36.8739 10.447 36.9476C10.447 37.0386 10.4312 37.0485 10.2826 37.0485C10.1518 37.0485 10.1138 37.0649 10.097 37.1288C10.0808 37.1915 10.0422 37.2094 9.9246 37.2094C9.8084 37.2094 9.7686 37.2276 9.7528 37.2877C9.736 37.3523 9.6906 37.3683 9.497 37.3783C9.2978 37.3888 9.2556 37.4044 9.222 37.4811C9.1838 37.5683 9.1628 37.5717 8.6696 37.5717C8.1834 37.5717 8.1568 37.5759 8.1568 37.6523C8.1568 37.7281 8.13 37.7329 7.7148 37.7329C7.2996 37.7329 7.2728 37.7281 7.2728 37.6523C7.2728 37.5781 7.246 37.5717 6.9376 37.5717C6.6192 37.5717 6.6002 37.5667 6.5568 37.4711C6.5162 37.3819 6.4866 37.3705 6.2938 37.3705C6.1104 37.3705 6.0734 37.3579 6.0556 37.29C6.039 37.226 6.0008 37.2094 5.8702 37.2094C5.7344 37.2094 5.7056 37.1958 5.7056 37.1316C5.7056 37.0817 5.6734 37.0495 5.6152 37.041C5.5572 37.0328 5.5202 36.9959 5.512 36.9376C5.5038 36.8795 5.4714 36.847 5.4216 36.847C5.3708 36.847 5.344 36.8192 5.344 36.7665C5.344 36.7128 5.3172 36.6859 5.2636 36.6859C5.2104 36.6859 5.1834 36.6593 5.1834 36.6061C5.1834 36.5548 5.1478 36.5176 5.0828 36.5011C5.02 36.4855 4.9824 36.4474 4.9824 36.3997C4.9824 36.3504 4.954 36.3236 4.902 36.3236C4.8484 36.3236 4.8216 36.2967 4.8216 36.2432C4.8216 36.1903 4.795 36.1626 4.7436 36.1626C4.6806 36.1626 4.6632 36.1298 4.6532 35.9915C4.643 35.8492 4.6256 35.8181 4.5504 35.8075C4.4738 35.7965 4.46 35.77 4.46 35.6325C4.46 35.5045 4.4432 35.4662 4.3798 35.4496C4.3168 35.4329 4.2994 35.3946 4.2994 35.272C4.2994 35.1425 4.2856 35.1157 4.219 35.1157C4.1486 35.1157 4.1386 35.0888 4.1386 34.8976C4.1386 34.6277 4.1114 34.5521 4.0138 34.5521C3.9398 34.5521 3.9378 34.4621 3.9378 31.2102C3.9378 27.9694 3.94 27.8682 4.013 27.8682C4.1012 27.8682 4.1386 27.7289 4.1386 27.4002C4.1386 27.2106 4.1486 27.1838 4.219 27.1838C4.2874 27.1838 4.2994 27.1569 4.2994 27.0026C4.2994 26.8483 4.3112 26.8214 4.3798 26.8214C4.4482 26.8214 4.46 26.7945 4.46 26.6402C4.46 26.4739 4.4682 26.4591 4.5606 26.4591C4.6322 26.4591 4.661 26.4372 4.661 26.3831C4.661 26.3412 4.6968 26.2979 4.7414 26.2863C4.8052 26.2697 4.8216 26.2314 4.8216 26.1005C4.8216 25.9624 4.8348 25.9356 4.902 25.9356C4.9556 25.9356 4.9824 25.9087 4.9824 25.855C4.9824 25.7961 5.0092 25.7745 5.0828 25.7745C5.1544 25.7745 5.1834 25.7528 5.1834 25.6987C5.1834 25.6568 5.2192 25.6135 5.2636 25.6019C5.3118 25.5893 5.344 25.547 5.344 25.4965C5.344 25.44 5.3696 25.4121 5.4218 25.4121C5.4644 25.4121 5.5108 25.376 5.5248 25.3317C5.5446 25.269 5.5856 25.2512 5.7084 25.2512C5.838 25.2512 5.8664 25.2371 5.8664 25.173C5.8664 25.1115 5.9044 25.0892 6.0472 25.0678C6.188 25.0468 6.228 25.0239 6.228 24.9648C6.228 24.8986 6.2598 24.8888 6.4728 24.8888C6.684 24.8888 6.7206 24.8776 6.7388 24.8083C6.7588 24.7311 6.7936 24.7277 7.5586 24.7277C8.3308 24.7277 8.3576 24.7303 8.3576 24.8083C8.3576 24.8804 8.3844 24.8888 8.6188 24.8888C8.8532 24.8888 8.88 24.897 8.88 24.9692C8.88 25.0319 8.9068 25.0498 9.0008 25.0498C9.0796 25.0498 9.152 25.0848 9.209 25.1504C9.2692 25.2201 9.3374 25.2512 9.4296 25.2512C9.5362 25.2512 9.563 25.2672 9.563 25.3317C9.563 25.3836 9.5898 25.4121 9.6388 25.4121C9.6814 25.4121 9.7238 25.4484 9.7362 25.4957C9.7482 25.5416 9.7954 25.5891 9.8414 25.6011C9.8884 25.6133 9.9246 25.6558 9.9246 25.6987C9.9246 25.7478 9.9532 25.7745 10.005 25.7745C10.0586 25.7745 10.0854 25.8013 10.0854 25.855C10.0854 25.9079 10.1122 25.9356 10.1634 25.9356C10.2266 25.9356 10.2438 25.9684 10.2538 26.1067C10.2642 26.249 10.2814 26.2801 10.3566 26.2907C10.4422 26.3029 10.447 26.3216 10.447 26.643C10.447 26.9557 10.4534 26.9825 10.5274 26.9825C10.6028 26.9825 10.6078 27.0094 10.6078 27.4254V27.8682H12.5364H14.465V27.0026C14.465 26.1695 14.4622 26.137 14.3862 26.137C14.315 26.137 14.3064 26.1037 14.2958 25.7847C14.285 25.454 14.2788 25.4315 14.1938 25.4195C14.1108 25.4077 14.1034 25.3855 14.1034 25.1476C14.1034 24.9157 14.0952 24.8888 14.0232 24.8888C13.9564 24.8888 13.9428 24.862 13.9428 24.7303C13.9428 24.6091 13.9246 24.5664 13.8646 24.5473C13.8094 24.5297 13.783 24.4788 13.7742 24.3734C13.7644 24.2541 13.7438 24.2219 13.6716 24.2114C13.606 24.2022 13.5812 24.1716 13.5812 24.1008C13.5812 24.0299 13.559 24.003 13.5008 24.003C13.4352 24.003 13.4204 23.9762 13.4204 23.8583C13.4204 23.7495 13.4012 23.7086 13.3434 23.6934C13.3012 23.6823 13.2556 23.6296 13.2422 23.5763C13.2268 23.5148 13.189 23.4795 13.1384 23.4795C13.0856 23.4795 13.0588 23.4525 13.0588 23.399C13.0588 23.3453 13.032 23.3184 12.9784 23.3184C12.9258 23.3184 12.898 23.2915 12.898 23.2406C12.898 23.1907 12.8658 23.1585 12.8076 23.1501C12.7496 23.1418 12.7126 23.105 12.7044 23.0466C12.6964 22.9907 12.6636 22.9561 12.6186 22.9561C12.5786 22.9561 12.5364 22.9198 12.5248 22.8755C12.508 22.8116 12.47 22.7951 12.3392 22.7951C12.1992 22.7951 12.1748 22.7825 12.1748 22.7107C12.1748 22.6616 12.1428 22.618 12.0982 22.6063C12.056 22.5953 12.0124 22.5516 12.0014 22.5095C11.9858 22.4496 11.945 22.4326 11.817 22.4326C11.6792 22.4326 11.6524 22.4195 11.6524 22.3522C11.6524 22.2857 11.6256 22.2716 11.4982 22.2716C11.3726 22.2716 11.3354 22.2528 11.2982 22.171C11.2566 22.0798 11.2294 22.0702 11.0104 22.0702C10.7952 22.0702 10.7684 22.0614 10.7684 21.9897C10.7684 21.9175 10.7416 21.9093 10.5072 21.9093C10.2728 21.9093 10.2462 21.9009 10.2462 21.8287C10.2462 21.7546 10.2194 21.7482 9.914 21.7482C9.6084 21.7482 9.579 21.7409 9.5424 21.6576L9.5028 21.567L7.5238 21.5566L5.545 21.5461V21.6472ZM17.6394 31.1497V40.5513H19.6484H21.6574V36.847V33.1428H23.2418H24.8262L24.839 33.2334C24.851 33.3178 24.8744 33.3248 25.179 33.3356C25.465 33.3458 25.5088 33.3573 25.5268 33.4262C25.5432 33.4885 25.5824 33.5052 25.712 33.5052C25.8496 33.5052 25.8764 33.5182 25.8764 33.5857C25.8764 33.6396 25.9032 33.6663 25.9578 33.6663C26.0076 33.6663 26.054 33.7052 26.0774 33.7669C26.0984 33.8222 26.1432 33.8675 26.1768 33.8675C26.2106 33.8675 26.238 33.8964 26.238 33.9316C26.238 33.9669 26.2742 34.0054 26.3184 34.017C26.3626 34.0284 26.3988 34.0635 26.3988 34.0948C26.3988 34.1258 26.444 34.1685 26.4992 34.1896C26.5608 34.213 26.5996 34.2595 26.5996 34.3094C26.5996 34.3641 26.6262 34.391 26.68 34.391C26.7474 34.391 26.7604 34.4178 26.7604 34.5557C26.7604 34.6868 26.777 34.7249 26.8408 34.7417C26.9112 34.7601 26.9212 34.7966 26.9212 35.0365C26.9212 35.3626 26.9446 35.4377 27.046 35.4377C27.1194 35.4377 27.122 35.4977 27.122 37.1893C27.122 38.9139 27.1232 38.9407 27.2024 38.9407C27.278 38.9407 27.2828 38.9676 27.2828 39.3837C27.2828 39.7953 27.2882 39.8266 27.3608 39.8266C27.424 39.8266 27.4412 39.8594 27.4512 39.9977C27.4616 40.14 27.4788 40.1711 27.554 40.1817C27.612 40.1899 27.6444 40.2224 27.6444 40.2723C27.6444 40.3232 27.6722 40.35 27.7248 40.35C27.7836 40.35 27.8052 40.3769 27.8052 40.4507V40.5513H29.9162H32.0272L32.0156 40.1989C32.0048 39.8685 31.9984 39.8458 31.9136 39.8338C31.8556 39.8256 31.8232 39.7931 31.8232 39.7432C31.8232 39.6923 31.7954 39.6654 31.7428 39.6654C31.6762 39.6654 31.6624 39.6386 31.6624 39.5071C31.6624 39.3857 31.6442 39.343 31.5844 39.3239C31.5292 39.3065 31.5028 39.2556 31.494 39.1502C31.4842 39.0309 31.4636 38.9987 31.3912 38.9882C31.3052 38.976 31.3008 38.9582 31.3008 38.6159C31.3008 38.2832 31.2948 38.2563 31.2204 38.2563C31.1414 38.2563 31.1402 38.2295 31.1402 36.5047C31.1402 34.7918 31.1384 34.7533 31.0614 34.7533C30.99 34.7533 30.9814 34.7203 30.971 34.401C30.96 34.0705 30.9538 34.0479 30.869 34.0359C30.7866 34.0242 30.7786 34.0014 30.7786 33.7805C30.7786 33.5717 30.7672 33.535 30.6982 33.5168C30.6352 33.5004 30.6178 33.4619 30.6178 33.3394C30.6178 33.2534 30.601 33.1831 30.5804 33.1831C30.5042 33.1831 30.4168 33.0526 30.4168 32.9386C30.4168 32.8476 30.3986 32.8208 30.3366 32.8208C30.2818 32.8208 30.2562 32.7939 30.2562 32.7364C30.2562 32.6859 30.2238 32.6436 30.1758 32.631C30.1314 32.6193 30.0954 32.576 30.0954 32.5342C30.0954 32.48 30.0666 32.4584 29.995 32.4584C29.9214 32.4584 29.8946 32.4368 29.8946 32.3778C29.8946 32.3241 29.8678 32.2973 29.8142 32.2973C29.7602 32.2973 29.7338 32.2704 29.7338 32.2157C29.7338 32.1658 29.6948 32.1193 29.6334 32.0959C29.5782 32.0748 29.5328 32.0301 29.5328 31.9963C29.5328 31.9516 29.4894 31.9349 29.3722 31.9349C29.2382 31.9349 29.2114 31.9215 29.2114 31.8544C29.2114 31.7978 29.1844 31.7736 29.121 31.7732C28.951 31.7722 28.8498 31.7257 28.8498 31.6483C28.8498 31.5854 28.8194 31.5726 28.669 31.5726C28.515 31.5726 28.4882 31.5606 28.4882 31.492C28.4882 31.4299 28.515 31.4115 28.6054 31.4115C28.775 31.4115 28.8498 31.3732 28.8498 31.2864C28.8498 31.2359 28.8782 31.2102 28.934 31.2102C28.9842 31.2102 29.0266 31.1778 29.039 31.1297C29.055 31.0685 29.0938 31.0491 29.1998 31.0491C29.3036 31.0491 29.3446 31.0293 29.3596 30.9719C29.3708 30.9295 29.4232 30.884 29.4764 30.8705C29.5378 30.8551 29.573 30.8172 29.573 30.7665C29.573 30.7136 29.6002 30.6868 29.6534 30.6868C29.707 30.6868 29.7338 30.6599 29.7338 30.6062C29.7338 30.5525 29.7606 30.5256 29.8142 30.5256C29.873 30.5256 29.8946 30.4988 29.8946 30.425C29.8946 30.3445 29.9146 30.3244 29.995 30.3244C30.0666 30.3244 30.0954 30.3026 30.0954 30.2485C30.0954 30.2066 30.1314 30.1633 30.1758 30.1517C30.2396 30.1348 30.2562 30.0967 30.2562 29.9657C30.2562 29.8296 30.2698 29.8009 30.3338 29.8009C30.3766 29.8009 30.4224 29.7667 30.4356 29.7248C30.4488 29.6829 30.4952 29.6392 30.5388 29.6278C30.6012 29.6115 30.6178 29.5723 30.6178 29.4424C30.6178 29.3043 30.6308 29.2775 30.6982 29.2775C30.7722 29.2775 30.7786 29.2506 30.7786 28.938C30.7786 28.6167 30.7834 28.5979 30.869 28.5856L30.9594 28.5728V27.2844V25.9959L30.869 25.9562C30.7856 25.9195 30.7786 25.8903 30.7786 25.5839C30.7786 25.278 30.772 25.2512 30.6982 25.2512C30.6296 25.2512 30.6178 25.2243 30.6178 25.07C30.6178 24.9197 30.605 24.8888 30.5426 24.8888C30.4856 24.8888 30.461 24.8487 30.441 24.7237C30.4222 24.6064 30.3916 24.5525 30.3354 24.5377C30.2736 24.5217 30.2562 24.4824 30.2562 24.3605C30.2562 24.2331 30.242 24.2042 30.1786 24.2042C30.1288 24.2042 30.0964 24.172 30.0882 24.1136C30.08 24.0555 30.043 24.0184 29.985 24.0102C29.9268 24.002 29.8946 23.9695 29.8946 23.9196C29.8946 23.8687 29.8668 23.8419 29.8142 23.8419C29.7606 23.8419 29.7338 23.815 29.7338 23.7613C29.7338 23.7086 29.707 23.6807 29.6562 23.6807C29.6064 23.6807 29.574 23.6485 29.5658 23.5902C29.5576 23.532 29.5206 23.495 29.4626 23.4867C29.4044 23.4785 29.3722 23.4461 29.3722 23.3962C29.3722 23.3453 29.3444 23.3184 29.2918 23.3184C29.2382 23.3184 29.2114 23.2915 29.2114 23.238C29.2114 23.1851 29.1846 23.1575 29.1338 23.1575C29.084 23.1575 29.0518 23.125 29.0434 23.0669C29.0354 23.0102 28.9984 22.9717 28.9444 22.9639C28.8968 22.9571 28.8488 22.9164 28.8376 22.8733C28.8216 22.8122 28.7818 22.7951 28.6554 22.7951C28.5184 22.7951 28.4918 22.7813 28.481 22.7045C28.4708 22.6322 28.4384 22.6113 28.3216 22.6015C28.2162 22.5927 28.1692 22.5672 28.1546 22.5109C28.1384 22.4494 28.0988 22.4326 27.9696 22.4326C27.832 22.4326 27.8052 22.4195 27.8052 22.3522C27.8052 22.2799 27.7784 22.2716 27.5468 22.2716C27.3094 22.2716 27.2874 22.2642 27.2756 22.1811C27.2634 22.0961 27.241 22.0897 26.911 22.0788C26.5926 22.0682 26.5596 22.0598 26.5596 21.9883C26.5596 21.9137 26.5292 21.9093 26.0372 21.9093C25.5416 21.9093 25.5148 21.9051 25.5148 21.8287C25.5148 21.7488 25.488 21.7482 21.577 21.7482H17.6394V31.1497ZM65.0126 31.1497V40.5513H67.0216H69.0306V34.6527C69.0306 28.8921 69.0324 28.754 69.1068 28.754C69.1934 28.754 69.2316 28.8291 69.2316 28.9989C69.2316 29.0897 69.25 29.1165 69.312 29.1165C69.3654 29.1165 69.3922 29.1432 69.3922 29.1969C69.3922 29.2506 69.419 29.2775 69.4726 29.2775C69.541 29.2775 69.553 29.3043 69.553 29.4586C69.553 29.6252 69.5612 29.6398 69.6534 29.6398C69.7442 29.6398 69.7538 29.6556 69.7538 29.8047C69.7538 29.9356 69.7704 29.9739 69.8342 29.9905C69.8952 30.0066 69.9146 30.0454 69.9146 30.1517C69.9146 30.2565 69.9342 30.2968 69.9928 30.312C70.0356 30.3234 70.0764 30.3715 70.0832 30.419C70.0908 30.4731 70.1292 30.5104 70.1858 30.5184C70.2618 30.5292 70.2762 30.5561 70.2762 30.6868C70.2762 30.807 70.2946 30.8481 70.3566 30.8679C70.417 30.8872 70.437 30.9289 70.437 31.0355C70.437 31.1415 70.4564 31.1826 70.514 31.1976C70.5562 31.2086 70.6018 31.2613 70.6152 31.3147C70.6306 31.3762 70.6684 31.4115 70.719 31.4115C70.785 31.4115 70.7986 31.4389 70.7986 31.5726C70.7986 31.7051 70.8124 31.7335 70.8766 31.7335C70.9398 31.7335 70.957 31.7664 70.967 31.9047C70.9774 32.047 70.9946 32.078 71.0698 32.0886C71.1296 32.0973 71.1602 32.1291 71.1602 32.183C71.1602 32.2307 71.1936 32.2732 71.2406 32.2857C71.3036 32.3021 71.321 32.3406 71.321 32.463C71.321 32.5925 71.3348 32.6193 71.4014 32.6193C71.4634 32.6193 71.4816 32.6462 71.4816 32.7368C71.4816 32.9067 71.5198 32.9817 71.6066 32.9817C71.6558 32.9817 71.6826 33.0101 71.6826 33.0622C71.6826 33.116 71.7094 33.1428 71.763 33.1428C71.8314 33.1428 71.8432 33.1697 71.8432 33.324C71.8432 33.4743 71.8562 33.5052 71.9186 33.5052C71.9756 33.5052 72.0002 33.5452 72.02 33.6703C72.0388 33.7875 72.0694 33.8415 72.1256 33.8561C72.1692 33.8675 72.205 33.911 72.205 33.9527C72.205 34.0018 72.2334 34.0286 72.2852 34.0286C72.3538 34.0286 72.3656 34.0555 72.3656 34.2098C72.3656 34.3613 72.3782 34.391 72.4424 34.391C72.5006 34.391 72.5258 34.4297 72.5462 34.5503C72.5642 34.6571 72.5986 34.7179 72.6502 34.7343C72.6926 34.7477 72.7272 34.7938 72.7272 34.8365C72.7272 34.8868 72.755 34.9145 72.8054 34.9145C72.8684 34.9145 72.8858 34.9471 72.8958 35.0856C72.906 35.2277 72.9234 35.2588 72.9984 35.2696C73.0748 35.2804 73.089 35.3071 73.089 35.4405C73.089 35.572 73.1026 35.5989 73.1692 35.5989C73.2282 35.5989 73.2496 35.6257 73.2496 35.6995C73.2496 35.7734 73.271 35.8003 73.33 35.8003C73.3968 35.8003 73.4104 35.8271 73.4104 35.9604C73.4104 36.0979 73.4246 36.1244 73.5108 36.146C73.5964 36.1676 73.6112 36.1945 73.6112 36.328C73.6112 36.4578 73.625 36.4847 73.6916 36.4847C73.7506 36.4847 73.772 36.5115 73.772 36.5853C73.772 36.6581 73.7936 36.6859 73.85 36.6859C73.911 36.6859 73.9306 36.7188 73.9404 36.837C73.9504 36.9583 73.9706 36.9905 74.0432 37.0008C74.1198 37.0118 74.1336 37.0384 74.1336 37.1757C74.1336 37.304 74.1504 37.3423 74.214 37.3589C74.2602 37.3709 74.2944 37.4138 74.2944 37.4595C74.2944 37.5042 74.3282 37.5479 74.3718 37.5593C74.425 37.5733 74.4576 37.6292 74.4758 37.7369C74.4958 37.8553 74.5212 37.894 74.5792 37.894C74.6422 37.894 74.656 37.9233 74.656 38.0587C74.656 38.1896 74.6724 38.2279 74.7364 38.2447C74.7808 38.2563 74.8166 38.2996 74.8166 38.3415C74.8166 38.3956 74.8456 38.4173 74.9172 38.4173C75.0094 38.4173 75.0176 38.4321 75.0176 38.5984C75.0176 38.753 75.0294 38.7796 75.098 38.7796C75.1646 38.7796 75.1784 38.8065 75.1784 38.9381C75.1784 39.061 75.1962 39.1021 75.2586 39.1219C75.3028 39.1359 75.339 39.1824 75.339 39.2253C75.339 39.2814 75.367 39.3031 75.4394 39.3031C75.5318 39.3031 75.54 39.3179 75.54 39.4843C75.54 39.6386 75.5518 39.6654 75.6202 39.6654C75.6854 39.6654 75.7006 39.6923 75.7006 39.8077C75.7006 39.8999 75.7228 39.9584 75.764 39.9743C75.7988 39.9877 75.8436 40.0414 75.8634 40.0937C75.885 40.1506 75.9324 40.1889 75.981 40.1889C76.0506 40.1889 76.0622 40.215 76.0622 40.3701V40.5513H78.0312H80V31.1497V21.7482H78.1116H76.223V27.7273C76.223 33.6797 76.2226 33.7066 76.1426 33.7066C76.0806 33.7066 76.0622 33.6797 76.0622 33.5889C76.0622 33.4192 76.024 33.344 75.9374 33.344C75.887 33.344 75.8614 33.3158 75.8614 33.2599C75.8614 33.2094 75.829 33.1671 75.781 33.1544C75.718 33.138 75.7006 33.0995 75.7006 32.9771C75.7006 32.8506 75.6862 32.8208 75.6248 32.8208C75.5658 32.8208 75.543 32.7807 75.522 32.6396C75.5006 32.4965 75.4784 32.4584 75.417 32.4584C75.3658 32.4584 75.339 32.4305 75.339 32.3778C75.339 32.3241 75.3122 32.2973 75.2586 32.2973C75.1914 32.2973 75.1784 32.2704 75.1784 32.1325C75.1784 32.0035 75.1614 31.9632 75.1008 31.9474C75.0472 31.9333 75.0148 31.877 74.996 31.765C74.9774 31.6542 74.9446 31.5966 74.8926 31.583C74.8508 31.5722 74.8166 31.5291 74.8166 31.4872C74.8166 31.4391 74.7882 31.4115 74.7386 31.4115C74.6756 31.4115 74.6582 31.3786 74.6482 31.2403C74.638 31.098 74.6206 31.0671 74.5454 31.0563C74.4696 31.0455 74.455 31.0186 74.455 30.888C74.455 30.7677 74.4368 30.7266 74.3746 30.7068C74.3304 30.6928 74.2944 30.6463 74.2944 30.6034C74.2944 30.5533 74.2666 30.5256 74.2162 30.5256C74.1532 30.5256 74.1358 30.493 74.1258 30.3545C74.1156 30.2124 74.0982 30.1813 74.0232 30.1705C73.9468 30.1597 73.9326 30.1328 73.9326 29.9993C73.9326 29.8681 73.919 29.8412 73.8524 29.8412C73.7934 29.8412 73.772 29.8144 73.772 29.7406C73.772 29.6677 73.7504 29.6398 73.694 29.6398C73.633 29.6398 73.6134 29.6071 73.6036 29.4889C73.5944 29.3779 73.5672 29.3274 73.5008 29.2981C73.43 29.267 73.4104 29.2254 73.4104 29.1069C73.4104 28.9823 73.3962 28.9554 73.33 28.9554C73.271 28.9554 73.2496 28.9285 73.2496 28.8548C73.2496 28.7824 73.228 28.754 73.1728 28.754C73.1144 28.754 73.0894 28.7153 73.0688 28.5931C73.0482 28.4708 73.0232 28.4319 72.9648 28.4319C72.9016 28.4319 72.888 28.4027 72.888 28.2672C72.888 28.1377 72.8712 28.0978 72.8098 28.0818C72.767 28.0706 72.7262 28.0225 72.7194 27.9748C72.7118 27.9207 72.6734 27.8836 72.6168 27.8756C72.5406 27.8648 72.5264 27.8379 72.5264 27.7044C72.5264 27.573 72.5128 27.5461 72.446 27.5461C72.3788 27.5461 72.3656 27.5192 72.3656 27.3814C72.3656 27.2503 72.3492 27.2122 72.2852 27.1954C72.2408 27.1838 72.205 27.1405 72.205 27.0986C72.205 27.0445 72.176 27.0226 72.1044 27.0226C72.0122 27.0226 72.004 27.008 72.004 26.8414C72.004 26.6871 71.9922 26.6603 71.9236 26.6603C71.857 26.6603 71.8432 26.6334 71.8432 26.5019C71.8432 26.3821 71.8248 26.3378 71.7672 26.3196C71.7254 26.3061 71.682 26.2596 71.6706 26.2162C71.6584 26.1693 71.6156 26.137 71.5658 26.137C71.4928 26.137 71.4816 26.1127 71.4816 25.9558C71.4816 25.8013 71.4698 25.7745 71.4014 25.7745C71.3362 25.7745 71.321 25.7478 71.321 25.6328C71.321 25.5205 71.3 25.4814 71.2204 25.4452C71.1652 25.4199 71.12 25.366 71.12 25.3251C71.12 25.278 71.091 25.2512 71.0396 25.2512C70.9712 25.2512 70.9594 25.2243 70.9594 25.07C70.9594 24.9157 70.9474 24.8888 70.879 24.8888C70.8208 24.8888 70.7986 24.862 70.7986 24.7914C70.7986 24.6413 70.7572 24.5666 70.6738 24.5666C70.6194 24.5666 70.5976 24.5379 70.5976 24.466C70.5976 24.3922 70.5762 24.3654 70.5174 24.3654C70.45 24.3654 70.437 24.3385 70.437 24.2004C70.437 24.0727 70.4198 24.0313 70.3612 24.0158C70.3096 24.0022 70.2774 23.9457 70.2602 23.8385C70.2408 23.7164 70.217 23.6807 70.1552 23.6807C70.0968 23.6807 70.0754 23.6539 70.0754 23.5801C70.0754 23.5064 70.054 23.4795 69.995 23.4795C69.928 23.4795 69.9146 23.4527 69.9146 23.3184C69.9146 23.1859 69.9008 23.1575 69.8368 23.1575C69.7752 23.1575 69.7532 23.1194 69.7318 22.9763C69.7106 22.8352 69.6878 22.7951 69.6288 22.7951C69.5786 22.7951 69.553 22.7665 69.553 22.7107C69.553 22.6602 69.5208 22.618 69.4726 22.6053C69.4096 22.5889 69.3922 22.5504 69.3922 22.428C69.3922 22.2881 69.3818 22.2716 69.2918 22.2716C69.201 22.2716 69.1914 22.2558 69.1914 22.1067C69.1914 21.9758 69.1748 21.9376 69.111 21.9209C69.0666 21.9093 69.0306 21.866 69.0306 21.8239C69.0306 21.7508 68.9624 21.7482 67.0216 21.7482H65.0126V31.1497ZM24.4702 24.9634C24.4702 25.0407 24.7428 25.089 25.1834 25.0898C25.3272 25.09 25.354 25.1027 25.354 25.1706C25.354 25.2391 25.3808 25.2512 25.535 25.2512C25.689 25.2512 25.7158 25.263 25.7158 25.3317C25.7158 25.3836 25.7426 25.4121 25.7914 25.4121C25.833 25.4121 25.8764 25.448 25.8878 25.4917C25.9026 25.548 25.9562 25.5786 26.0732 25.5973C26.1982 25.6173 26.238 25.642 26.238 25.6991C26.238 25.7478 26.2666 25.7745 26.3184 25.7745C26.3836 25.7745 26.3988 25.8013 26.3988 25.9163C26.3988 26.0286 26.4198 26.0677 26.4992 26.1039C26.5544 26.1292 26.5996 26.1831 26.5996 26.224C26.5996 26.2711 26.6288 26.2979 26.68 26.2979C26.7522 26.2979 26.7604 26.3248 26.7604 26.5597C26.7604 26.7945 26.7686 26.8214 26.8408 26.8214C26.918 26.8214 26.9212 26.8483 26.9212 27.5233C26.9212 28.1898 26.917 28.2265 26.8408 28.2507C26.7724 28.2726 26.7604 28.3117 26.7604 28.5151C26.7604 28.7271 26.7514 28.754 26.68 28.754C26.6218 28.754 26.5996 28.7808 26.5996 28.852C26.5996 28.9227 26.5748 28.9534 26.5092 28.9626C26.4366 28.973 26.4164 29.0053 26.4064 29.1266C26.3966 29.2448 26.377 29.2775 26.316 29.2775C26.2596 29.2775 26.238 29.3053 26.238 29.3781C26.238 29.4707 26.2234 29.4789 26.0572 29.4789C25.9032 29.4789 25.8764 29.4907 25.8764 29.5592C25.8764 29.6268 25.8496 29.6398 25.712 29.6398C25.5812 29.6398 25.5432 29.6564 25.5264 29.7204C25.5112 29.7791 25.4714 29.8009 25.3796 29.8013C25.0452 29.8021 24.8318 29.8512 24.8318 29.9274C24.8318 29.9991 24.7654 30.0022 23.2446 30.0022H21.6574V27.4455V24.8888H23.0638C24.4068 24.8888 24.4702 24.892 24.4702 24.9634Z" fill="#040404"/>
</svg>
