<svg width="80" height="19" viewBox="0 0 80 19" fill="none" xmlns="http://www.w3.org/2000/svg">
<g clip-path="url(#clip0_577_406)">
<path d="M11.9033 18.1395C16.6695 18.1395 20.5333 14.2715 20.5333 9.49994V0.860352C15.7671 0.860352 11.9033 4.72842 11.9033 9.49994V18.1395Z" fill="#982E0A"/>
<path d="M5.95215 18.1395C10.7184 18.1395 14.5821 14.2715 14.5821 9.49994V0.860352C9.81592 0.860352 5.95215 4.72842 5.95215 9.49994V18.1395Z" fill="#FD5A3B"/>
<path d="M0 18.1395C4.76621 18.1395 8.62999 14.2715 8.62999 9.49994V0.860352C3.86378 0.860352 0 4.72842 0 9.49994L0 18.1395Z" fill="#FA9A87"/>
<path d="M24.8545 1.19263V17.8072H30.5446C35.0018 17.8072 37.3727 15.5999 37.3727 11.0665V7.93341C37.3727 3.4 35.0018 1.19263 30.5446 1.19263H24.8545ZM27.984 4.04084H30.592C33.2711 4.04084 34.2431 5.41752 34.2431 7.83846V11.1614C34.2431 13.5824 33.2711 14.959 30.592 14.959H27.984V4.04084ZM39.2744 7.74355V11.2563C39.2744 15.6236 41.8587 18.1395 46.1024 18.1395C50.3466 18.1395 52.9309 15.6236 52.9309 11.2563V7.74355C52.9309 3.49495 50.3466 0.860352 46.1024 0.860352C41.8587 0.860352 39.2744 3.49495 39.2744 7.74355ZM42.404 7.60113C42.404 5.34628 43.708 3.66109 46.1024 3.66109C48.426 3.66109 49.8012 5.25133 49.8012 7.60113V11.3987C49.8012 13.7011 48.6866 15.3388 46.1024 15.3388C43.5893 15.3388 42.404 13.796 42.404 11.3987V7.60113ZM58.4096 1.19263L53.8103 17.8072H57.0344L58.0303 14.1045H63.815L64.8109 17.8072H68.0355L63.4357 1.19263H58.4096ZM58.7652 11.2563L60.7803 3.80351H61.0651L63.0802 11.2563H58.7652ZM79.9729 1.19263H76.8437V12.8229C76.8437 14.3894 76.0372 15.2913 74.6387 15.2913C73.1449 15.2913 72.2914 14.3656 72.2914 12.8229V11.2563H69.1617V12.8229C69.1617 16.1695 71.3192 18.1395 74.7332 18.1395C77.9816 18.1395 79.9729 16.2644 79.9729 12.8229V1.19263Z" fill="#2C2B2A"/>
</g>
<defs>
<clipPath id="clip0_577_406">
<rect width="80" height="17.2792" fill="white" transform="translate(0 0.860352)"/>
</clipPath>
</defs>
</svg>
