<svg width="57" height="57" viewBox="0 0 57 57" fill="none" xmlns="http://www.w3.org/2000/svg">
<g clip-path="url(#clip0_577_359)">
<path d="M40.125 19.5536V21.6964C40.125 23.5848 34.75 25.125 28.125 25.125C21.5 25.125 16.125 23.5848 16.125 21.6964V19.5536C16.125 17.6652 21.5 16.125 28.125 16.125C34.75 16.125 40.125 17.6652 40.125 19.5536ZM40.125 24.375V29.1964C40.125 31.0848 34.75 32.625 28.125 32.625C21.5 32.625 16.125 31.0848 16.125 29.1964V24.375C18.7031 25.9286 23.4219 26.6518 28.125 26.6518C32.8281 26.6518 37.5468 25.9286 40.125 24.375ZM40.125 31.875V36.6964C40.125 38.5848 34.75 40.125 28.125 40.125C21.5 40.125 16.125 38.5848 16.125 36.6964V31.875C18.7031 33.4286 23.4219 34.1518 28.125 34.1518C32.8281 34.1518 37.5468 33.4286 40.125 31.875Z" fill="black"/>
</g>
<rect x="0.375" y="0.375" width="55.5" height="55.5" rx="7.125" stroke="black" stroke-width="0.75"/>
<defs>
<clipPath id="clip0_577_359">
<rect width="24" height="24" fill="white" transform="translate(16.125 16.125)"/>
</clipPath>
</defs>
</svg>
