<svg width="285" height="86" viewBox="0 0 285 86" fill="none" xmlns="http://www.w3.org/2000/svg">
<path d="M102.426 51.9604C102.84 52.0622 103.263 52.1681 103.367 52.1956C103.748 52.297 107.132 52.1724 107.698 52.0361C108.437 51.8581 109.309 51.5179 109.487 51.3385C109.595 51.2293 109.628 50.954 109.628 50.1621C109.628 49.5591 109.588 49.1031 109.531 49.068C109.478 49.0349 109.108 49.114 108.708 49.2437C107.354 49.6827 106.232 49.8748 105.015 49.8748C101.843 49.8758 100.06 48.034 99.6551 44.3412C99.5192 43.1005 99.5277 42.3143 99.6904 41.0737C99.9395 39.1739 100.42 38.0473 101.395 37.0738C101.719 36.7502 102.203 36.3859 102.484 36.2529C104.024 35.5257 105.967 35.5218 108.145 36.2414C108.547 36.374 108.922 36.4666 108.98 36.4472C109.129 36.3968 109.829 34.4689 109.768 34.2747C109.68 33.9961 108.547 33.6509 106.839 33.3825C105.63 33.1926 104.766 33.1933 103.566 33.3856C100.928 33.8085 99.1288 35.0462 97.9605 37.2418C96.8748 39.2822 96.4626 42.3856 96.9138 45.1222C97.1492 46.5504 97.4026 47.3596 97.9375 48.3908C98.8693 50.1874 100.504 51.4875 102.426 51.9604Z" fill="black"/>
<path fill-rule="evenodd" clip-rule="evenodd" d="M119.749 52.1983C119.645 52.1724 119.285 52.0859 118.949 52.0062C118.132 51.8128 116.973 51.2402 116.202 50.6491C114.798 49.5739 113.77 47.818 113.231 45.5752C112.991 44.5804 112.991 40.9322 113.23 39.8684C113.651 37.9945 114.357 36.6149 115.462 35.5073C116.651 34.3144 117.94 33.6818 119.796 33.3795C120.929 33.1949 121.809 33.1945 122.867 33.3782C123.944 33.5652 124.479 33.7414 125.358 34.1979C127.415 35.2669 128.808 37.2791 129.409 40.0484C129.577 40.82 129.613 41.2947 129.613 42.7445C129.613 45.5206 129.217 47.1448 128.128 48.8318C127.135 50.371 125.77 51.3888 123.966 51.9338C123.241 52.1531 122.94 52.188 121.538 52.2148C120.657 52.2317 119.852 52.2243 119.749 52.1983ZM126.854 42.7676C126.842 46.7205 125.469 49.1389 122.843 49.8298C122.092 50.0276 120.488 50.0092 119.697 49.7936C117.704 49.25 116.514 47.7628 115.972 45.1382C115.783 44.2206 115.757 41.5511 115.928 40.6044C116.491 37.5001 117.907 35.9795 120.571 35.6201C122.233 35.3958 124.031 35.96 125.068 37.0311C126.229 38.2297 126.862 40.2622 126.854 42.7676Z" fill="black"/>
<path d="M134.981 48.8569C135.529 50.7394 136.673 51.7733 138.673 52.194C139.175 52.2997 141.139 52.2437 141.805 52.1046C142.911 51.8738 142.862 51.9358 142.862 50.7677V49.7619L142.509 49.8254C142.315 49.8603 141.58 49.9117 140.876 49.9397C139.626 49.9893 139.583 49.9844 139.098 49.7359C138.48 49.4194 138.112 49.0307 137.791 48.356L137.543 47.8328L137.516 41.8484C137.494 37.052 137.513 35.8484 137.61 35.7862C137.677 35.7436 138.839 35.7081 140.193 35.7072C142.349 35.7059 142.661 35.6871 142.711 35.5553C142.817 35.2767 142.773 33.8465 142.655 33.7273C142.573 33.6446 141.889 33.6132 140.168 33.6132C138.862 33.6132 137.727 33.5872 137.645 33.5555C137.516 33.5055 137.496 33.2427 137.496 31.5994C137.496 30.4727 137.456 29.6262 137.398 29.517C137.318 29.3651 137.199 29.3333 136.716 29.3345C136.394 29.3353 136.084 29.3674 136.027 29.4059C135.851 29.5244 135.749 29.8023 135.283 31.4256C134.994 32.4347 134.762 33.067 134.634 33.1967C134.525 33.3076 133.97 33.6035 133.4 33.8541C132.831 34.1047 132.31 34.3525 132.243 34.4046C132.161 34.4685 132.13 34.6886 132.149 35.0788L132.176 35.6582L133.347 35.685C133.991 35.6998 134.572 35.7566 134.637 35.8114C134.729 35.889 134.763 37.2715 134.788 42.1097C134.817 47.5978 134.839 48.3713 134.981 48.8569Z" fill="black"/>
<path d="M148.448 51.2259C148.981 51.6514 149.335 51.8231 150.205 52.0776C150.721 52.2286 151.045 52.2503 152.276 52.2163C153.587 52.1801 154.468 52.0469 154.81 51.8331C154.874 51.7935 154.913 51.3866 154.913 50.7656V49.7621L154.56 49.8255C154.365 49.8605 153.63 49.9119 152.925 49.9399C151.681 49.9893 151.627 49.9832 151.113 49.7378C150.25 49.3251 149.735 48.5263 149.548 47.3099C149.493 46.9487 149.453 44.4322 149.453 41.2565C149.452 36.3877 149.468 35.8154 149.601 35.7636C149.683 35.7319 150.865 35.7059 152.227 35.7059C154.399 35.7059 154.711 35.6874 154.761 35.5555C154.867 35.2769 154.823 33.8467 154.705 33.7275C154.623 33.6446 153.921 33.6134 152.135 33.6134C150.35 33.6134 149.647 33.5822 149.565 33.4993C149.485 33.4181 149.452 32.8335 149.452 31.4733C149.452 30.1132 149.419 29.5286 149.339 29.4474C149.19 29.2969 148.214 29.3004 148.011 29.4521C147.916 29.5232 147.645 30.2762 147.337 31.3244C147.045 32.3213 146.75 33.1462 146.655 33.2365C146.562 33.3237 146.063 33.5775 145.545 33.8004C144.125 34.4115 144.166 34.3731 144.199 35.069L144.227 35.6584L145.451 35.7059L146.675 35.7535L146.729 41.7457C146.765 45.6678 146.821 47.9351 146.893 48.3086C147.14 49.6007 147.678 50.6114 148.448 51.2259Z" fill="black"/>
<path fill-rule="evenodd" clip-rule="evenodd" d="M161.08 52.0739C160.266 51.8669 159.835 51.6827 159.311 51.3187C157.928 50.357 157.267 48.9657 157.267 47.0155C157.267 44.5209 158.378 42.913 160.739 41.9933C162.289 41.3894 163.78 41.1611 166.729 41.0761C168.118 41.0361 168.941 40.975 169.024 40.9057C169.128 40.8196 169.144 40.5462 169.103 39.5595C169.032 37.8685 168.749 37.0908 167.945 36.3775C167.436 35.9261 166.94 35.7312 165.972 35.6018C165.256 35.5063 164.977 35.5133 164.139 35.6478C163.037 35.8247 162.905 35.8624 161.503 36.3974C160.711 36.7 160.37 36.8441 160.154 36.7353C159.973 36.6439 159.88 36.3743 159.682 35.8706C159.391 35.1297 159.34 34.914 159.43 34.8045C159.591 34.608 161.315 33.9466 162.256 33.7199C164.532 33.1717 166.42 33.1592 168.282 33.6799C169.564 34.0384 170.69 34.9806 171.203 36.125C171.763 37.3721 171.769 37.4688 171.742 45.0351L171.718 51.9227L170.805 51.9499C170.009 51.9736 169.881 51.9554 169.803 51.8072C169.728 51.6637 169.545 50.8456 169.344 49.7589C169.273 49.3699 169.017 49.4316 168.607 49.9365C168.411 50.1781 167.946 50.6207 167.573 50.9199C166.379 51.8787 165.063 52.2602 162.99 52.2486C162.127 52.2438 161.534 52.1896 161.08 52.0739ZM168.472 47.3971C167.915 48.5028 167.048 49.229 165.73 49.6922C165.01 49.9454 164.83 49.97 163.716 49.9671C162.418 49.9636 161.964 49.8659 161.322 49.4521C160.852 49.1485 160.605 48.8572 160.355 48.3072C160.174 47.9125 160.138 47.673 160.138 46.8817C160.138 46.0407 160.168 45.8699 160.392 45.4074C161.211 43.7243 163.07 43.0873 167.388 43.0104L168.988 42.982L169.014 44.3373C169.043 45.85 168.931 46.4864 168.472 47.3971Z" fill="black"/>
<path fill-rule="evenodd" clip-rule="evenodd" d="M177.653 59.1685C178.644 59.7007 179.319 59.8936 180.898 60.0957C182.597 60.3133 184.325 60.252 186.295 59.9041C188.881 59.4475 190.781 58.26 191.608 56.5833C191.979 55.8305 192.126 55.1053 192.128 54.0152C192.131 52.3507 191.764 51.4046 190.763 50.4956C189.514 49.3607 187.922 49.025 183.769 49.0197C182.63 49.0183 181.532 48.9782 181.329 48.9306C180.907 48.8318 180.572 48.6034 180.292 48.2239C179.818 47.5824 180.227 46.3943 181.172 45.6689L181.698 45.2646L183.016 45.2945C184.563 45.3294 185.613 45.1732 186.707 44.7458C187.963 44.2548 189.14 43.2043 189.642 42.1258C190.094 41.1557 190.158 40.833 190.164 39.4626C190.172 37.9797 190.077 37.5559 189.502 36.4986C189.326 36.1763 189.183 35.8863 189.183 35.8543C189.183 35.7283 189.656 35.6288 190.771 35.5203C190.831 35.5144 190.89 35.5088 190.946 35.5034C191.815 35.4195 192.164 35.3858 192.298 35.1967C192.387 35.0699 192.38 34.8732 192.368 34.5447C192.367 34.5131 192.365 34.4803 192.364 34.4462L192.337 33.6607L189.089 33.6063C186.64 33.5653 185.632 33.5127 184.993 33.3926C183.891 33.1855 183.04 33.1909 181.832 33.4129C180.582 33.6428 179.71 33.9778 178.964 34.5158C177.654 35.4605 177.01 36.6379 176.749 38.5681C176.436 40.8806 177.355 43.1648 179.058 44.3065C179.34 44.496 179.595 44.6889 179.623 44.7353C179.651 44.7817 179.41 45.0422 179.086 45.3142C178.006 46.2212 177.632 47.0307 177.719 48.2664C177.756 48.7914 177.825 49.0104 178.074 49.4026C178.243 49.6697 178.525 49.998 178.699 50.1321C178.873 50.2662 179.015 50.4301 179.015 50.4963C179.015 50.5625 178.792 50.6892 178.521 50.7779C177.098 51.2417 175.9 52.375 175.502 53.6347C174.811 55.8158 175.709 58.1241 177.653 59.1685ZM185.174 43.1769C185.847 42.9617 186.513 42.4954 186.847 42.0039C187.466 41.096 187.714 39.6084 187.456 38.3512C187.1 36.6101 186.349 35.787 184.77 35.4052C182.606 34.8819 180.635 35.6056 179.815 37.2252C179.24 38.3594 179.252 40.4069 179.84 41.5552C180.264 42.3836 181.334 43.1247 182.384 43.3182C183.011 43.4339 184.625 43.3522 185.174 43.1769ZM188.496 56.5909C187.907 57.1093 186.726 57.6475 185.699 57.865C184.423 58.1355 181.344 58.132 180.397 57.8591C179.527 57.6085 179.073 57.3604 178.588 56.8709C178.168 56.4458 177.885 55.7621 177.885 55.1693C177.885 54.2709 179.317 52.6975 180.895 51.8609L181.497 51.5422L183.7 51.5135C187.863 51.4592 189.082 51.8654 189.474 53.4382C189.735 54.4866 189.302 55.8818 188.496 56.5909Z" fill="black"/>
<path fill-rule="evenodd" clip-rule="evenodd" d="M202.27 52.1965C200.056 51.785 198.997 51.2556 197.653 49.8877C196.668 48.8846 196.191 48.0951 195.722 46.6901C194.971 44.4426 195.049 40.772 195.897 38.4096C196.567 36.543 197.991 34.8642 199.586 34.0618C201.916 32.8898 205.171 33.0181 207.231 34.3631C208.715 35.332 209.755 36.897 210.274 38.9438C210.487 39.7815 210.649 42.4461 210.519 42.9683L210.457 43.2197L204.363 43.2212C200.979 43.2221 198.21 43.2602 198.136 43.307C198.031 43.3741 198.018 43.5541 198.07 44.1854C198.314 47.1577 199.916 49.2054 202.411 49.7346C204.133 50.1 207.123 49.7356 209.12 48.9165C209.548 48.7408 209.645 48.7285 209.715 48.8405C209.761 48.914 209.799 49.4333 209.8 49.9944C209.801 50.5777 209.809 50.864 209.679 51.0532C209.544 51.2492 209.26 51.3409 208.666 51.5505C207.239 52.0544 206.411 52.1825 204.388 52.2124C203.352 52.2277 202.399 52.2206 202.27 52.1965ZM207.496 39.4184C207.665 40.3936 207.672 40.7672 207.523 40.9179C207.438 41.0036 206.264 41.0321 202.817 41.0321H198.225L198.165 40.7898C197.939 39.8834 198.944 37.5832 199.958 36.6808C200.921 35.8252 202.393 35.4084 203.776 35.6002C205.813 35.8827 207.112 37.2163 207.496 39.4184Z" fill="black"/>
<path d="M224.133 38.7495C224.119 45.7856 224.13 51.6399 224.159 51.759C224.21 51.9731 224.226 51.9754 225.503 51.9493L226.795 51.9228V38.9397V25.9565H225.477H224.159L224.133 38.7495Z" fill="black"/>
<path fill-rule="evenodd" clip-rule="evenodd" d="M235.739 52.1943C233.65 51.7548 232.38 50.7567 231.732 49.0445C231.478 48.3738 231.368 46.4088 231.54 45.5995C231.669 44.994 232.096 44.1106 232.517 43.5821C232.924 43.0702 234.015 42.349 234.91 42.0009C236.474 41.3917 237.978 41.1624 241.011 41.0703C242.099 41.0372 243.067 40.9683 243.164 40.917C243.325 40.8316 243.336 40.7235 243.296 39.6203C243.236 37.9763 243.01 37.2887 242.287 36.5566C241.854 36.1188 241.651 35.9925 241.105 35.8204C240.22 35.5413 239.234 35.4856 238.192 35.6558C237.257 35.8084 235.913 36.218 235.022 36.6224C234.621 36.8041 234.407 36.8549 234.308 36.7919C234.13 36.6788 233.494 35.0725 233.559 34.9015C233.669 34.6122 235.666 33.8453 237.01 33.5765C238.139 33.3507 239.522 33.2252 240.198 33.2873C243.526 33.5931 245.054 34.6686 245.728 37.1803C245.896 37.806 245.907 38.2696 245.907 44.8846V51.9231L245.003 51.9501C244.351 51.9696 244.074 51.9432 244.008 51.855C243.922 51.739 243.681 50.7259 243.554 49.9445C243.459 49.3528 243.288 49.4005 242.447 50.2539C241.327 51.3901 240.34 51.917 238.887 52.1552C238.307 52.2502 236.133 52.2772 235.739 52.1943ZM242.85 46.9509C242.394 48.1737 241.269 49.2328 239.929 49.7021C239.425 49.8783 239.075 49.9212 237.951 49.9442C236.276 49.9784 235.834 49.8442 235.066 49.0678C234.429 48.424 234.24 47.83 234.299 46.6535C234.364 45.3612 234.902 44.5174 236.05 43.9068C237.171 43.3108 238.562 43.0763 241.548 42.9795C243.042 42.9311 243.125 42.9379 243.219 43.1157C243.459 43.5692 243.233 45.9269 242.85 46.9509Z" fill="black"/>
<path fill-rule="evenodd" clip-rule="evenodd" d="M258.381 52.108C257.071 51.8237 256.155 51.3299 255.163 50.3724C254.76 49.9838 254.376 49.6874 254.308 49.7136C254.24 49.7398 254.085 50.1834 253.962 50.6994C253.786 51.4406 253.732 51.7551 253.55 51.8827C253.395 51.991 253.149 51.9647 252.657 51.95L251.744 51.9229L251.72 38.9133L251.696 25.9038L253.038 25.9302L254.38 25.9566L254.382 30.8728C254.383 33.5767 254.409 35.8142 254.44 35.845C254.47 35.8759 254.808 35.5872 255.191 35.2034C256.282 34.1085 257.316 33.6208 259.064 33.3767C260.085 33.2342 260.256 33.2342 261.277 33.3767C263.131 33.6357 264.228 34.1868 265.41 35.4536C266.244 36.347 266.769 37.3026 267.169 38.6544C268.067 41.6922 267.818 45.9285 266.596 48.4036C265.837 49.9411 264.504 51.213 263.034 51.8022C261.931 52.244 259.689 52.3914 258.381 52.108ZM264.876 42.7357C264.87 46.7157 263.645 49.1457 261.318 49.7978C260.56 50.0099 258.98 50.0231 258.167 49.824C257.34 49.6216 256.605 49.2181 256.056 48.6643C254.946 47.5456 254.424 45.6543 254.43 42.7687C254.44 38.1432 255.65 36.1464 258.742 35.6516C259.611 35.5126 259.785 35.5115 260.526 35.6405C261.752 35.8541 262.349 36.1156 263.001 36.7258C263.692 37.3721 264.106 38.0676 264.43 39.13C264.746 40.1638 264.878 41.2315 264.876 42.7357Z" fill="black"/>
<path d="M274.466 52.4301C274.881 52.495 275.283 52.5635 275.361 52.5822C275.438 52.601 276.392 52.6015 277.479 52.5832C279.044 52.557 279.603 52.5119 280.162 52.3667C283.009 51.6275 284.493 49.9066 284.493 47.3464C284.493 44.8906 283.254 43.5814 279.55 42.1252C276.306 40.8497 275.611 40.5135 274.977 39.914C274.155 39.1372 273.99 38.0333 274.571 37.1923C275.088 36.4442 276.608 35.8866 278.127 35.8884C279.197 35.8896 280.755 36.206 282.251 36.7255C283.223 37.0629 283.154 37.1044 283.695 35.8564C283.967 35.2291 284.035 34.978 283.964 34.8643C283.861 34.7001 282.654 34.259 281.676 34.0282C280.716 33.8018 279.161 33.6055 278.334 33.6055C276.906 33.6062 274.867 34.059 273.979 34.5724C272.267 35.5625 271.447 37.1946 271.685 39.1378C271.875 40.686 272.843 41.8409 274.731 42.7739C275.31 43.0602 276.386 43.5303 277.122 43.8186C278.801 44.4765 280.259 45.1939 280.867 45.662C281.834 46.4068 282.137 47.5692 281.646 48.6532C281.306 49.4044 280.604 49.8898 279.404 50.204C278.91 50.3331 278.483 50.3546 277.103 50.3196C275.225 50.2719 274.341 50.0942 272.713 49.4366C272.266 49.2563 271.853 49.1088 271.795 49.1088C271.722 49.1088 271.689 49.4792 271.689 50.2955C271.689 51.454 271.695 51.4859 271.923 51.6369C272.289 51.8795 273.639 52.3003 274.466 52.4301Z" fill="black"/>
<circle cx="43.0815" cy="42.706" r="41.9926" stroke="black"/>
<path fill-rule="evenodd" clip-rule="evenodd" d="M8.31682 67.9765C34.9714 65.4526 52.1895 64.7444 79.2773 65.5587C80.7519 63.1474 81.9929 60.5778 82.9687 57.8811L80.9199 58.129L64.5052 59.9497L67.0016 43.0086C67.0016 43.0086 68.1228 42.9263 69.4705 42.847L71.9294 42.7023C71.9829 42.6987 71.6834 42.3211 70.1029 40.3993C68.1867 38.0694 64.3537 33.406 62.3837 31.0078C61.7519 30.2387 61.2216 29.6017 61.2052 29.5923C61.1888 29.5828 59.7576 29.6634 58.0246 29.7712C56.2916 29.8791 54.8613 29.9558 54.8461 29.9416C54.8309 29.9274 54.8143 29.4155 54.8092 28.804L54.8 27.6921H51.9231L51.888 30.1473L50.8004 30.2177C50.2023 30.2565 49.7012 30.278 49.6869 30.2655C49.6726 30.2531 49.6569 29.588 49.6518 28.7875L49.6427 27.332H46.3799L46.3448 30.4747L46.1343 30.4997C46.0186 30.5134 43.9899 30.6431 41.6261 30.7878C39.2624 30.9325 34.7658 31.2095 31.6337 31.4034L25.939 31.7559L19.5737 37.6953C16.073 40.9621 13.2085 43.6514 13.2085 43.6719C13.2085 43.7258 13.6541 43.7418 16.787 43.8C18.3017 43.8281 19.6081 43.8586 19.69 43.8676C19.807 43.8806 19.8427 43.8995 19.8564 43.9558C19.8659 43.9952 19.9301 44.4621 19.999 44.9932C20.1531 46.1819 20.5868 49.5026 20.681 50.2146C20.719 50.5027 20.9157 52.0053 21.118 53.5537C21.2233 54.3599 21.406 55.3901 21.5818 56.3819C21.7437 57.2949 21.8999 58.1756 21.9845 58.8185L23.1582 64.8293L7.95703 67.4612C8.07572 67.6339 8.19565 67.8056 8.31682 67.9765Z" fill="black"/>
<path d="M63.1176 43.2935L55.3057 43.865L55.7579 56.0462L61.2054 55.6227L63.1176 43.2935Z" fill="white"/>
<path d="M53.6056 44.0493L44.4697 44.715L46.3819 56.613L54.0306 56.1597L53.6056 44.0493Z" fill="white"/>
<path d="M66.2495 78.9944C57.1042 77.6385 30.6177 74.031 14.7695 75.1808C22.2754 81.8574 32.164 85.9133 42.9999 85.9133C51.5816 85.9133 59.5692 83.3694 66.2495 78.9944Z" fill="black"/>
<path d="M76.7206 69.2808C30.6699 72.4026 21.582 73.5392 21.582 73.5392C21.582 73.5392 48.9964 73.891 67.2591 78.3128C70.8588 75.8054 74.0522 72.7552 76.7206 69.2808Z" fill="black"/>
<path d="M8.9668 68.8686C57.054 65.122 68.3474 67.1996 67.0013 67.2357C65.9688 67.2634 31.4977 70.8345 12.6671 73.1789C11.3408 71.8272 10.1042 70.3872 8.9668 68.8686Z" fill="black"/>
<path fill-rule="evenodd" clip-rule="evenodd" d="M53.1902 30.6467C52.7691 30.593 52.4157 30.3777 52.1861 30.0349C52.043 29.8213 51.9689 29.589 51.9595 29.3246C51.9538 29.165 51.964 29.0633 51.9998 28.9248C52.1688 28.2704 52.8022 27.8273 53.4702 27.8962C54.2919 27.9809 54.8566 28.7466 54.6912 29.5519C54.5972 30.0093 54.2559 30.4057 53.8163 30.5677C53.661 30.6249 53.4972 30.6528 53.3268 30.6511C53.2657 30.6505 53.2043 30.6485 53.1902 30.6467ZM54.1745 30.1451C54.0054 30.3075 53.8097 30.4115 53.591 30.4552C53.5442 30.4645 53.4801 30.4748 53.4485 30.478C53.3782 30.4852 53.375 30.4805 53.3934 30.3988C53.4005 30.3671 53.4045 30.3384 53.4024 30.335C53.4003 30.3316 53.3824 30.3247 53.3627 30.3196C53.2101 30.2808 53.0046 30.1953 52.8882 30.1224C52.6226 29.9558 52.4195 29.7003 52.3307 29.4207L52.3039 29.3364L52.2291 29.3446C52.1669 29.3514 52.1446 29.3539 52.1352 29.344C52.13 29.3385 52.1289 29.3292 52.127 29.3148L52.1269 29.3136L52.1263 29.3088C52.1178 29.2445 52.134 29.0811 52.1587 28.9803C52.2131 28.759 52.3147 28.5792 52.4772 28.4169C52.6562 28.2381 52.852 28.1319 53.1006 28.0786C53.2028 28.0568 53.4757 28.0568 53.5759 28.0786C54.0136 28.1742 54.3605 28.4844 54.4944 28.9C54.5401 29.0419 54.5547 29.1535 54.5488 29.3173C54.5416 29.517 54.5124 29.6322 54.4234 29.8121C54.3604 29.9395 54.2888 30.0353 54.1745 30.1451Z" fill="black"/>
<path fill-rule="evenodd" clip-rule="evenodd" d="M53.1902 30.6467C52.7691 30.593 52.4157 30.3777 52.1861 30.0349C52.043 29.8213 51.9689 29.589 51.9595 29.3246C51.9538 29.165 51.964 29.0633 51.9998 28.9248C52.1688 28.2704 52.8022 27.8273 53.4702 27.8962C54.2919 27.9809 54.8566 28.7466 54.6912 29.5519C54.5972 30.0093 54.2559 30.4057 53.8163 30.5677C53.661 30.6249 53.4972 30.6528 53.3268 30.6511C53.2657 30.6505 53.2043 30.6485 53.1902 30.6467ZM54.1745 30.1451C54.0054 30.3075 53.8097 30.4115 53.591 30.4552C53.5442 30.4645 53.4801 30.4748 53.4485 30.478C53.3782 30.4852 53.375 30.4805 53.3934 30.3988C53.4005 30.3671 53.4045 30.3384 53.4024 30.335C53.4003 30.3316 53.3824 30.3247 53.3627 30.3196C53.2101 30.2808 53.0046 30.1953 52.8882 30.1224C52.6226 29.9558 52.4195 29.7003 52.3307 29.4207L52.3039 29.3364L52.2291 29.3446C52.1669 29.3514 52.1446 29.3539 52.1352 29.344C52.13 29.3385 52.1289 29.3292 52.127 29.3148L52.1269 29.3136L52.1263 29.3088C52.1178 29.2445 52.134 29.0811 52.1587 28.9803C52.2131 28.759 52.3147 28.5792 52.4772 28.4169C52.6562 28.2381 52.852 28.1319 53.1006 28.0786C53.2028 28.0568 53.4757 28.0568 53.5759 28.0786C54.0136 28.1742 54.3605 28.4844 54.4944 28.9C54.5401 29.0419 54.5547 29.1535 54.5488 29.3173C54.5416 29.517 54.5124 29.6322 54.4234 29.8121C54.3604 29.9395 54.2888 30.0353 54.1745 30.1451Z" fill="black"/>
<path fill-rule="evenodd" clip-rule="evenodd" d="M53.1902 30.6467C52.7691 30.593 52.4157 30.3777 52.1861 30.0349C52.043 29.8213 51.9689 29.589 51.9595 29.3246C51.9538 29.165 51.964 29.0633 51.9998 28.9248C52.1688 28.2704 52.8022 27.8273 53.4702 27.8962C54.2919 27.9809 54.8566 28.7466 54.6912 29.5519C54.5972 30.0093 54.2559 30.4057 53.8163 30.5677C53.661 30.6249 53.4972 30.6528 53.3268 30.6511C53.2657 30.6505 53.2043 30.6485 53.1902 30.6467ZM54.1745 30.1451C54.0054 30.3075 53.8097 30.4115 53.591 30.4552C53.5442 30.4645 53.4801 30.4748 53.4485 30.478C53.3782 30.4852 53.375 30.4805 53.3934 30.3988C53.4005 30.3671 53.4045 30.3384 53.4024 30.335C53.4003 30.3316 53.3824 30.3247 53.3627 30.3196C53.2101 30.2808 53.0046 30.1953 52.8882 30.1224C52.6226 29.9558 52.4195 29.7003 52.3307 29.4207L52.3039 29.3364L52.2291 29.3446C52.1669 29.3514 52.1446 29.3539 52.1352 29.344C52.13 29.3385 52.1289 29.3292 52.127 29.3148L52.1269 29.3136L52.1263 29.3088C52.1178 29.2445 52.134 29.0811 52.1587 28.9803C52.2131 28.759 52.3147 28.5792 52.4772 28.4169C52.6562 28.2381 52.852 28.1319 53.1006 28.0786C53.2028 28.0568 53.4757 28.0568 53.5759 28.0786C54.0136 28.1742 54.3605 28.4844 54.4944 28.9C54.5401 29.0419 54.5547 29.1535 54.5488 29.3173C54.5416 29.517 54.5124 29.6322 54.4234 29.8121C54.3604 29.9395 54.2888 30.0353 54.1745 30.1451Z" fill="black"/>
</svg>
